<?xml version="1.0" encoding="UTF-8"?>
<svg data-bbox="4.628 26.58 254.897 217.564" viewBox="0 0 268.5 259.5" xmlns="http://www.w3.org/2000/svg" data-type="color">
    <g>
        <path d="m58.5 153.68-1.25-1c-43.73-5.9-66.7-55.01-43.31-92.79 19.75-31.92 64.21-38.64 92.55-13.9l-13.12 9.85C55.9 29.13 6.18 67.66 24.62 110.44c23.82 55.24 108.16 17.2 82.76-36.9-.79-1.67-1.84-5.32-3.91-4.45L76.6 89.13c2.93 11.36-12.03 19.68-19.17 9.54-5.13-7.28.17-17.43 8.94-17.21 1.88.05 4.63 1.44 5.64 1.14 1.08-.32 6.62-4.88 8.16-6.02 15.6-11.54 30.53-24.01 46.26-35.38 2.24-2.79-.24-6.94 3.74-11.23 6.54-7.05 18.63-2.34 19.04 7.12.09 2.02-1.76 4.02-1.12 5.53l30.16 34.48c3.87-2.24 8.25 1.61 11.06 1.43 1.43-.09 5.56-2.53 7.2-3.35 13.81-6.9 27.07-14.99 41.11-21.45-.46-9.27 9.32-15.51 17.32-9.92 9.53 6.65 3.12 21.09-9.29 18.97-2.21-.38-3.2-2.42-4.86-1.86l-47.58 25.01c-1.43 18.79-27.14 14.21-21.06-3.68l-29.81-34.23-11.07-.55-13.59 10.56c2.49 5.72 5.85 11.05 7.58 17.11 10.5 36.66-14.28 73.26-51.77 78.17v17.2h5.25v12.71h-25.5v-12.71h5.25v-16.83Z" fill="#689d30" data-color="1"/>
        <path d="M78.75 191.45v43.75c0 .22-1.83 3.18-2.25 3.74-4.66 6.16-13.32 6.94-19.12 1.87-1.12-.98-4.13-5.16-4.13-6.35v-43h25.5Z" fill="#689d30" data-color="1"/>
        <path d="M180.6 112.4c16.06-.79 40.07.9 54.67 7.87 21.55 10.29-5.17 18.43-15.51 20.71-20.91 4.61-47.78 4.51-68.42-1.34-12.77-3.62-28.64-11.24-7.85-20.11 10.85-4.63 25.34-6.55 37.11-7.12Z" fill="#689d30" data-color="1"/>
        <path d="M243.75 173.5v19.82c0 3.02-8.5 7.36-11.05 8.42-22.5 9.38-63.16 9.03-86.08.94-3.69-1.3-13.86-5.53-13.86-10.11V173.5l15.93 6.18c30.89 7.56 65.96 7.53 95.07-6.18Zm-61.87 26.92c2.09.58 9.85 0 12.75 0 .19 0 2.35-2.19 2.52-2.78 1.67-6.09-9.24-6.01-12.97-5.4-5.34.88-5.24 7.36-2.29 8.18Z" fill="#689d30" data-color="1"/>
        <path d="M243.75 141.34v19.82c0 4.56-14.63 9.72-18.44 10.78-21.23 5.94-51.64 6.15-72.89.26-4.5-1.25-19.68-6.25-19.68-11.79v-19.07c3.88.43 7.13 3.14 10.86 4.5 23.39 8.56 60.33 8.47 84.21 1.68 5.54-1.58 10.56-4.22 15.93-6.18Zm-61.87 26.92c2.09.58 9.85 0 12.75 0 .19 0 2.35-2.19 2.52-2.78 1.79-6.5-11.13-6.37-14.7-4.87s-3.1 6.95-.57 7.66Z" fill="#689d30" data-color="1"/>
        <path d="M243.75 205.66v19.82c0 2.48-4.55 5.13-6.49 6.25-21.32 12.3-70.98 11.55-93.46 2.18-3.2-1.33-11.05-5.21-11.05-9.17v-19.07c33.7 15.24 77.36 15.55 111 0Zm-61.87 19.44c-9.48 10.42 17.62 11.33 15.27 2.78-.16-.59-2.33-2.78-2.52-2.78z" fill="#689d30" data-color="1"/>
    </g>
</svg>
