<?xml version="1.0" encoding="UTF-8"?>
<svg data-bbox="16.49 11 479.024 490" viewBox="0 0 512 512" xmlns="http://www.w3.org/2000/svg" data-type="color">
    <g>
        <path d="M126.18 199.26c-29.38 5.09-48.02 8.44-65.7-3.46V90.19c14.64-10.32 29.67-21.02 29.67-40.86V21.01c18.68 0 33.97 15.28 33.97 33.96v21.97c-.54 3.9-2.71 9.3-6.78 14.35h50.3c7.42 0 13.5 6.07 13.5 13.5s-6.07 13.5-13.5 13.5h5.69c7.42 0 13.5 6.07 13.5 13.5 0 7.42-6.07 13.5-13.5 13.5h-9.47c7.42 0 13.5 6.07 13.5 13.5s-6.07 13.5-13.5 13.5h-8.05c7.42 0 13.5 6.07 13.5 13.5s-6.07 13.5-13.5 13.49h-29.62Zm163.29 27.01h199.62c4.02 0 7.03-3.6 6.32-7.56-9.04-50.41-53.12-88.67-106.13-88.67s-97.09 38.26-106.13 88.68a6.395 6.395 0 0 0 6.32 7.55M389.28 11c30.11 0 54.52 24.41 54.52 54.52s-24.41 54.52-54.52 54.52-54.52-24.41-54.52-54.52S359.17 11 389.28 11M265.5 388.32c3.64-2.47 8.6-1.52 11.06 2.12 2.47 3.64 1.52 8.6-2.12 11.06l-2.2 1.49h109.04V260.64c0-4.42 3.58-8 8-8s8 3.58 8 8v150.35c0 4.42-3.58 8-8 8H272.24l2.2 1.49c3.64 2.47 4.59 7.42 2.12 11.06s-7.42 4.59-11.06 2.12l-23.57-15.99c-4.73-3.06-4.9-10.06-.14-13.28l23.71-16.09Zm2.71-285.36c-3.64-2.47-4.59-7.42-2.12-11.06s7.42-4.59 11.06-2.12l23.71 16.09c4.76 3.23 4.59 10.22-.14 13.28l-23.57 15.99c-3.64 2.47-8.6 1.52-11.06-2.12-2.47-3.64-1.52-8.6 2.12-11.06l2.2-1.49h-47.95c-4.42 0-8-3.58-8-8s3.58-8 8-8h47.95l-2.2-1.49ZM96.99 253.13c-2.47 3.64-7.42 4.59-11.06 2.12s-4.59-7.42-2.12-11.06l16.09-23.71c3.23-4.76 10.22-4.59 13.28.14l15.99 23.57c2.47 3.64 1.52 8.6-2.12 11.06-3.64 2.47-8.6 1.52-11.06-2.12l-1.49-2.2v47.95c0 4.42-3.58 8-8 8s-8-3.58-8-8v-47.95l-1.49 2.2Zm9.5 67.87c49.71 0 90 40.29 90 90s-40.29 90-90 90-90-40.29-90-90 40.29-90 90-90m27.6 66.03c-3.92-9.34-11.39-14.74-19.61-16.83v-2.69c0-4.42-3.58-8-8-8s-8 3.58-8 8v2.8c-11.62 3.05-20.33 12.36-19.72 24.9.73 14.96 13.41 21.27 26.5 23.42 5.44.89 14.4 2.72 15.21 9.4.05.45.08.72.08.83.12 5.26-6.9 7.25-11.03 7.75-.95.11-1.72.18-2.33.19-6.28.15-13.35-2.55-15.01-9.22a7.976 7.976 0 0 0-9.66-5.84 7.976 7.976 0 0 0-5.84 9.66c2.7 10.81 11.21 17.97 21.8 20.43v2.67c0 4.42 3.58 8 8 8s8-3.58 8-8v-2.51c11.88-2.42 22.32-10.31 22.01-23.5-.02-.92-.07-1.7-.15-2.33-1.86-15.29-15.01-21.05-28.52-23.27-4.66-.76-12.84-2.49-13.13-8.42-.25-5.11 4.22-8.04 8.71-8.94 6.52-1.31 13.25 1.3 15.93 7.7a7.998 7.998 0 1 0 14.75-6.19Zm-27.6-52.75c-42.37 0-76.72 34.35-76.72 76.73s34.35 76.72 76.72 76.72 76.72-34.35 76.72-76.72-34.35-76.73-76.72-76.73m0 16c-33.54 0-60.72 27.19-60.72 60.73s27.19 60.72 60.72 60.72 60.72-27.19 60.72-60.72-27.19-60.73-60.72-60.73M44.48 189.26H16.49V95.97h27.99z" fill="#7ea62e" fill-rule="evenodd" data-color="1"/>
    </g>
</svg>
