<?xml version="1.0" encoding="UTF-8"?>
<svg data-bbox="43 20.086 343.987 266.294" viewBox="0 0 407 300" xmlns="http://www.w3.org/2000/svg" data-type="color">
    <g>
        <path d="M106.89 265.59c-1.33 0-2.68-.14-4.05-.43-16.88-3.57-16.35-33.88-16.32-35.17l.06-2.55 2.47.64-.48 1.96 1.99.05c-.01.28-.49 28.24 13.12 31.12 4.7 1 9.02-.14 12.82-3.37 5.53-4.69 8.71-12.93 8.49-17.87l2.02-.09.49-1.96 1.46.37.07 1.51c.27 6.03-3.37 15.58-9.92 21.13-3.64 3.07-7.81 4.66-12.22 4.66m-2.87-6.25c-1.43 0-2.84-.5-4.14-1.46-2.37-1.76-4.09-4.96-4.61-8.56-.9-6.25 1.94-11.68 6.45-12.37 1.74-.26 3.5.21 5.08 1.39 2.37 1.76 4.09 4.96 4.61 8.56.9 6.25-1.94 11.68-6.45 12.37-.32.04-.63.07-.94.07m-1.37-18.42c-.11 0-.21.01-.32.02-1.93.29-3.66 3.57-3.06 7.8.36 2.52 1.52 4.78 3.02 5.89.7.52 1.39.74 2.06.64 1.93-.29 3.66-3.57 3.06-7.8-.36-2.52-1.52-4.78-3.02-5.89q-.9-.66-1.74-.66" fill="#699e1e" data-color="1"/>
        <path d="M231.62 284.32c-13.48-1.17-26.05-3.31-37.94-6.45-12.48-3.3-24.52-6.81-34.72-13.49-3.72-2.43-6.88-6.43-9.95-10.29-4.31-5.44-8.78-11.07-14.77-12.36-13.63-2.94-59.49-13.54-77.29-26.39-18.28-13.2-12.72-41.17-9.12-46.98.21-2.85 2.91-39.11 7.56-54.06 5.02-16.12 8.44-20.22 8.47-20.25.26-.36.51-1.74.68-2.76.12-.71.24-1.37.4-1.84 1.43-4.3 3.72-8.73 7.2-13.94 17.29-25.9 42.31-43.47 72.34-50.81 28.72-7.01 59.96-3.75 87.98 9.18 16.67 7.69 31.98 18.17 45.48 31.12 37.04 35.53 49.69 85.31 50.84 90.07 3.43 1.27 31.05 12.11 49.9 36.94 20.29 26.72-8.18 52.6-8.47 52.86-.24.31-32.18 39.3-107.9 40.44-10.77.18-20.97-.15-30.69-.99M185.75 22.7c-44.41-3.84-86.98 15.33-112.51 53.58-3.41 5.1-5.65 9.43-7.04 13.62-.12.37-.23.99-.35 1.64-.24 1.34-.48 2.74-1.05 3.46-.03.04-3.41 4.5-8.15 19.72-4.77 15.33-7.49 53.53-7.52 53.92l-.01.18-.1.15c-2.49 3.76-9.92 31.84 8.69 45.27 17.59 12.7 63.23 23.24 76.8 26.17 6.45 1.39 11.07 7.21 15.53 12.83 3 3.78 6.1 7.69 9.63 10 10.03 6.57 21.97 10.05 34.33 13.32 20.35 5.38 42.68 7.8 68.28 7.42 75.05-1.13 106.65-39.63 106.96-40.02.36-.33 27.89-25.39 8.38-51.1-19.78-26.05-49.33-36.51-49.63-36.61l-.35-.12-.08-.37c-.12-.52-12.1-52.87-50.54-89.74-13.4-12.85-28.58-23.24-45.12-30.87-15.17-7.03-30.77-11.12-46.15-12.45" fill="#699e1e" data-color="1"/>
        <path d="M257.13 286.38c-8.89 0-17.48-.35-25.6-1.05-13.6-1.17-26.06-3.29-38.11-6.48-12.56-3.32-24.69-6.86-35.02-13.62-3.85-2.52-7.07-6.58-10.19-10.51-4.2-5.3-8.55-10.78-14.19-12-13.68-2.95-59.71-13.59-77.67-26.56-18.54-13.38-13.17-41.75-9.52-48.11.37-4.98 3.03-39.39 7.59-54.04 4.33-13.89 7.69-19.45 8.62-20.56.15-.3.39-1.72.5-2.32.13-.75.26-1.45.43-1.99 1.46-4.39 3.79-8.9 7.32-14.18 17.43-26.12 42.66-43.83 72.94-51.23 28.94-7.07 60.43-3.78 88.65 9.25 16.77 7.74 32.17 18.28 45.76 31.31 36.15 34.68 49.12 82.47 50.99 90.04 4.91 1.89 31.53 12.96 49.85 37.09 20.37 26.82-7 52.75-8.54 54.17-1.69 2.07-33.77 39.63-108.62 40.76-1.73.02-3.47.03-5.19.03M174.54 23.22c-40.73 0-77.7 19.53-100.45 53.62-3.36 5.03-5.56 9.28-6.92 13.37-.1.3-.21.94-.31 1.5-.26 1.47-.52 2.99-1.25 3.91-.03.04-3.35 4.53-7.98 19.4-4.76 15.29-7.45 53.31-7.48 53.69l-.03.44-.25.37c-2.41 3.65-9.61 30.86 8.43 43.89 17.43 12.59 62.9 23.08 76.42 26 6.81 1.47 11.54 7.43 16.11 13.19 2.95 3.72 6 7.56 9.39 9.79 9.91 6.49 21.75 9.94 34.04 13.18 20.24 5.35 42.48 7.78 68 7.38 74.4-1.12 105.88-39.26 106.19-39.64l.1-.11c1.12-1.03 26.85-25.26 8.26-49.74-19.57-25.76-48.86-36.17-49.15-36.27l-.89-.31-.21-.92c-.12-.52-12.06-52.6-50.25-89.23-13.32-12.78-28.4-23.1-44.84-30.69-14.82-6.84-30.24-10.99-45.83-12.34-3.71-.32-7.42-.48-11.1-.48" fill="#699e1e" data-color="1"/>
        <path d="m241.27 95.2-.27-.41c-9.88-15.3-39.1-42.2-68.27-52.9-46.39-14.69-81.94 17.03-91.56 26.4q-1.47 1.485-2.91 3.03l-1-.87c.06-.07 1.01-1.18 2.8-2.92 41.65-42.27 98.54-48.34 136.01-35.36 36.25 12.57 61.14 39.67 61.39 39.95l.35.38-.29.43c-9.9 14.65-34.71 21.84-35.76 22.14zm-88.2-58.6c6.38.54 13.08 1.82 20.09 4.04 29.22 10.71 58.46 37.49 68.69 53.01 3.48-1.07 25.16-8.14 34.25-21.03-3.16-3.33-26.91-27.56-60.48-39.2-31.95-11.08-78.36-7.59-116.37 19.26 12.59-7.39 32.36-17.89 53.82-16.08" fill="#699e1e" data-color="1"/>
        <path d="m240.83 96.38-.68-1.04c-9.8-15.19-38.8-41.88-67.77-52.5-43.34-13.73-77.74 13.73-90.51 26.17q-1.44 1.455-2.88 3l-.67.72-2.49-2.17.65-.76c.04-.05 1-1.17 2.86-2.99 42.15-42.78 99.21-48.7 137.04-35.59 36.44 12.63 61.56 39.95 61.81 40.22l.88.97-.74 1.09c-10.12 14.98-35.25 22.25-36.32 22.55zm-87.68-60.79c6.72.57 13.55 1.94 20.31 4.08 28.89 10.59 58.21 37.19 68.8 52.79 4.49-1.45 23.83-8.21 32.51-19.75-4.55-4.68-27.69-27.31-59.5-38.34-21.84-7.57-55.99-9.53-89.99 4.92 8.75-2.87 18.14-4.52 27.87-3.7M99.1 52.53c-.84.6-1.68 1.22-2.51 1.84.84-.57 1.7-1.15 2.59-1.72z" fill="#699e1e" data-color="1"/>
        <path d="M240.61 87.57c-.39-2.58-.93-6.12-1.2-11.37-.62-12.04 3.07-18.12 12.34-20.34 9.63-2.3 25.06 15.51 25.71 16.27l.36.42-.36.43c-16.38 19.59-35.63 22.09-35.82 22.11 0 0-.58-4.57-1.03-7.52m13.68-30.58c-.78-.07-1.52-.02-2.23.15-8.63 2.07-11.91 7.57-11.32 18.99.27 5.18.8 8.68 1.19 11.24.2 1.29.37 2.4.46 3.41.13 1.5 1.59 2.53 3.04 2.12 6.07-1.69 18.16-6.4 29.32-18.81.77-.86.75-2.18-.05-3.02-3.88-4.12-13.39-13.48-20.41-14.08" fill="#699e1e" data-color="1"/>
        <path d="m240.77 96.21-.13-.99c-.01-.05-.58-4.59-1.03-7.5-.4-2.6-.94-6.16-1.22-11.47-.64-12.46 3.4-19.05 13.12-21.38 10.03-2.39 25.03 14.65 26.71 16.6l.92 1.07-.91 1.09c-16.64 19.9-36.28 22.44-36.47 22.46zm1.63-3.19q.06.495.12.9c.26-.05.57-.12.92-.2-.2-.09-.4-.2-.59-.33-.17-.11-.32-.24-.45-.37m11.21-35.04c-.47 0-.91.05-1.31.15-8.16 1.95-11.12 6.99-10.55 17.95.26 5.15.79 8.61 1.18 11.14.2 1.3.37 2.42.46 3.48.04.42.26.8.6 1.04.35.24.76.31 1.16.2 6.07-1.69 17.89-6.34 28.83-18.52.42-.46.41-1.19-.03-1.65-3.71-3.95-13.07-13.19-19.75-13.75-.19-.04-.39-.04-.59-.04m22.69 14.35c.01.15.01.3.01.45l.19-.22z" fill="#699e1e" data-color="1"/>
        <path d="M243.93 100.07c-.46-.77-.05-1.76.81-2.01 21.34-6.22 31.77-18 34.66-21.78.47-.62 1.38-.67 1.93-.11.44.44.49 1.13.14 1.64-2.43 3.53-12.7 16.32-35.98 22.88-.59.17-1.24-.09-1.56-.62" fill="#699e1e" data-color="1"/>
        <path d="M245.12 101.75c-.83 0-1.62-.43-2.05-1.17-.38-.63-.44-1.39-.17-2.07.27-.69.84-1.21 1.56-1.42 21.21-6.18 31.49-17.96 34.14-21.43.4-.52 1.01-.85 1.67-.89s1.32.21 1.79.68c.77.78.88 2.01.25 2.92-2.6 3.78-12.9 16.62-36.54 23.28-.22.07-.44.1-.65.1m-.32-2.2c.08.14.26.21.42.16 23.58-6.65 33.64-19.89 35.42-22.48.08-.11.07-.26-.03-.36-.08-.08-.18-.09-.22-.08a.24.24 0 0 0-.19.1c-2.74 3.59-13.38 15.79-35.18 22.14-.16.05-.22.16-.25.22-.02.07-.04.18.03.3" fill="#699e1e" data-color="1"/>
        <path d="M242.19 61.87c-16.12-16.49-54.69-29.46-54.69-29.46 35.64 8.47 57.27 26.32 57.44 26.51z" fill="#699e1e" data-color="1"/>
        <path d="m242.21 63.34-.74-.76c-15.77-16.13-53.91-29.08-54.29-29.2l.56-1.94c36.22 8.6 57.82 26.66 57.96 26.82l.6.69zm-28.24-21.1c10.16 4.91 21.04 11.19 28.2 18.18l1.29-1.39c-2.84-2.21-13.22-9.8-29.49-16.79" fill="#699e1e" data-color="1"/>
        <path d="M276.8 246c-.14-43.21-15.79-92.29-42.82-130.51-25.48-36.03-57.89-60.02-86.7-64.18-58.14-8.38-80.88 38.19-81.1 38.66l-1.2-.59c.23-.48 23.35-47.93 82.49-39.41 29.16 4.21 61.91 28.41 87.6 64.73 27.19 38.44 42.93 87.82 43.07 131.3z" fill="#699e1e" data-color="1"/>
        <path d="M275.79 247.02v-1.01c-.14-43.81-16.08-92.38-42.63-129.93-25.32-35.8-57.48-59.64-86.02-63.76-57.29-8.25-79.82 37.63-80.04 38.09l-.44.92-3.02-1.47.43-.9c.23-.49 23.73-48.59 83.55-39.98 29.44 4.25 62.44 28.6 88.28 65.15 26.94 38.1 43.11 87.4 43.26 131.88v1.01z" fill="#699e1e" data-color="1"/>
        <path d="M197.98 223.53c-.82-.07-1.64-.15-2.46-.25-.03 0-.06-.01-.09-.01-9.23-.8-15.63-6.08-20.32-9.95-1.41-1.17-2.75-2.27-3.95-3.08-4.39-2.95-19.69-12.9-32.43-17.19-12.64-4.26-54.74-13.38-59.55-11.89-.98.3-2.15.72-3.43 1.18-5.67 2.03-13.42 4.81-18.31 2.63-6.11-2.73-10.15-9.64-9.61-16.45l1.33.11c-.5 6.24 3.21 12.59 8.82 15.09 4.4 1.97 11.88-.71 17.33-2.66 1.3-.47 2.49-.89 3.49-1.2 5.51-1.71 48.03 7.74 60.36 11.9 12.9 4.35 28.33 14.38 32.75 17.35 1.26.85 2.62 1.97 4.06 3.15 4.8 3.96 10.77 8.89 19.61 9.65.03 0 .06.01.09.01 30.32 3.57 64.51-10.78 69.07-12.78-20.31-82.31-60.82-132.73-120.44-149.83-49.82-14.3-82.24 40.94-82.56 41.5l-1.15-.69c.33-.57 33.26-56.7 84.07-42.12 60.24 17.28 101.12 68.22 121.49 151.38l.13.55-.51.23c-.35.17-35.67 16.15-67.79 13.37" fill="#699e1e" data-color="1"/>
        <path d="M205.7 224.87c-2.61 0-5.21-.1-7.8-.33-.83-.07-1.66-.16-2.49-.25-9.6-.83-16.15-6.23-20.93-10.18-1.4-1.15-2.71-2.24-3.88-3.02-4.36-2.93-19.58-12.82-32.19-17.07-13.53-4.56-54.68-13.19-58.93-11.88-.96.3-2.14.72-3.39 1.17-5.82 2.09-13.8 4.95-19.07 2.6-6.49-2.9-10.78-10.23-10.21-17.45l.08-1.01 3.35.28-.08 1c-.47 5.83 2.99 11.76 8.22 14.09 4.03 1.8 11.28-.8 16.57-2.69 1.32-.47 2.53-.9 3.54-1.22 6.1-1.9 49.7 8.1 60.98 11.91 13.03 4.39 28.54 14.48 32.99 17.47 1.3.87 2.68 2.01 4.14 3.21 4.69 3.87 10.53 8.69 19.05 9.42l.12.01c28.74 3.38 61.34-9.63 67.76-12.36-20.26-81.47-60.47-131.35-119.51-148.29-49.02-14.06-81.08 40.48-81.4 41.03l-.51.89-2.89-1.72.5-.86c.33-.58 33.7-57.37 85.23-42.59 60.62 17.39 101.73 68.57 122.19 152.11l.33 1.36-1.27.58c-.33.16-30.48 13.78-60.5 13.79" fill="#699e1e" data-color="1"/>
        <path d="M203.56 229.93c-1.68-.14-3.27-.37-4.78-.69-19.87-4.18-26.05-10.56-29.74-14.37-.97-1-1.81-1.87-2.66-2.45-4.29-2.95-43.47-21.46-81.67-25.57-3.99-.45-8.15.18-12.02 1.75-9.02 3.67-10.45 3.54-10.92 3.5-1.58-.14-6.8-1.44-9.97-5.5-2.08-2.66-2.85-5.95-2.3-9.76l1.32.2c-.49 3.43.19 6.36 2.03 8.72 2.66 3.41 7.23 4.83 9.03 4.99.48.04 2.44-.21 10.31-3.41 4.08-1.66 8.47-2.31 12.66-1.84 38.44 4.14 77.94 22.82 82.28 25.79.96.66 1.84 1.57 2.87 2.63 3.82 3.94 9.58 9.89 29.06 13.99 24.47 5.15 75.16-14.91 75.67-15.11l.49 1.26c-1.99.79-45.75 18.11-71.66 15.87" fill="#699e1e" data-color="1"/>
        <path d="M208.44 231.14c-1.71 0-3.37-.06-4.97-.2-1.74-.15-3.39-.39-4.9-.71-20.17-4.25-26.48-10.76-30.25-14.65-.93-.96-1.73-1.79-2.51-2.33-4.26-2.93-43.19-21.3-81.2-25.4-3.78-.43-7.77.15-11.53 1.69-9.24 3.76-10.75 3.63-11.39 3.57-1.69-.15-7.29-1.54-10.68-5.88-2.25-2.89-3.1-6.43-2.51-10.53l.15-1 3.32.49-.14 1c-.45 3.15.16 5.82 1.82 7.96 2.43 3.11 6.73 4.46 8.32 4.6.15 0 1.67-.01 9.84-3.34 4.26-1.73 8.8-2.39 13.15-1.91 38.62 4.16 78.37 22.97 82.74 25.97 1.05.72 1.96 1.66 3.01 2.75 3.73 3.86 9.37 9.67 28.54 13.71 24.19 5.09 74.58-14.86 75.08-15.06l.95-.38 1.22 3.15-.93.37c-1.74.69-40.7 16.13-67.13 16.13" fill="#699e1e" data-color="1"/>
        <path d="M182.72 260.99c-8.11-.7-13.63-1.63-15.35-1.94-7.5-1.35-12.16-7.13-16.65-12.72-2.28-2.83-4.64-5.76-7.34-8.07-5.46-4.67-30.89-11.76-51.33-17.46-9.35-2.61-18.19-5.07-24.17-7.03-19.5-6.37-23.66-28.12-23.7-28.33l1.31-.25c.04.21 4.07 21.17 22.8 27.29 5.95 1.94 14.77 4.41 24.11 7.01 21.63 6.03 46.15 12.87 51.83 17.73 2.79 2.39 5.19 5.36 7.51 8.25 4.55 5.64 8.84 10.97 15.85 12.24 6.17 1.12 61.71 10.23 109.31-12.15l.56 1.23c-34.69 16.32-73.54 16.03-94.74 14.2" fill="#699e1e" data-color="1"/>
        <path d="M202.39 262.84c-7.63 0-14.36-.38-19.76-.85-7.98-.69-13.46-1.59-15.45-1.95-7.88-1.42-12.65-7.35-17.26-13.08-2.25-2.79-4.57-5.68-7.21-7.93-5.29-4.53-31.68-11.88-50.94-17.26-9.4-2.62-18.22-5.08-24.21-7.04-20.1-6.56-24.34-28.89-24.38-29.11l-.18-.98 3.3-.62.18 1c.04.2 4.04 20.61 22.12 26.51 5.92 1.93 14.71 4.39 24.02 6.98 21.78 6.08 46.41 12.94 52.27 17.95 2.87 2.45 5.3 5.47 7.64 8.38 4.43 5.49 8.6 10.68 15.25 11.88 6.14 1.11 61.35 10.19 108.7-12.07l.93-.44 1.4 3.07-.9.42c-25.93 12.19-54.22 15.14-75.52 15.14" fill="#699e1e" data-color="1"/>
        <path d="m282.2 244.88-.49-1.26c1.11-.44 61.63-25.46 51.58-56.3l1.27-.43c10.45 32.08-52.08 57.88-52.36 57.99" fill="#699e1e" data-color="1"/>
        <path d="m281.62 246.2-1.22-3.15.93-.37c.61-.24 60.73-25.18 51-55.05l-.31-.95 3.18-1.07.32.97c10.69 32.84-52.31 58.99-52.95 59.24z" fill="#699e1e" data-color="1"/>
        <path d="M57.97 135.88s3.35-22.79 9.78-34.67c0 0-10.19 10.72-9.78 34.67" fill="#699e1e" data-color="1"/>
        <path d="m58.97 136.03-2.01-.13c-.41-24.09 9.63-34.93 10.06-35.38L72.27 95l-3.63 6.7c-6.27 11.57-9.64 34.1-9.67 34.33" fill="#699e1e" data-color="1"/>
        <path d="m277.47 246.8-.46-1.27c.52-.2 56.76-22.04 57.49-49.08-.04-.27-3.3-37.07-13.06-60.23l1.23-.54c9.84 23.35 13.12 60.34 13.16 60.71-.76 28.05-56.2 49.6-58.36 50.41" fill="#699e1e" data-color="1"/>
        <path d="m276.86 248.1-1.15-3.17.93-.35c.56-.21 56.04-21.93 56.84-48.1l-.01-.1c-.6-6.27-4.06-38.64-12.97-59.77l-.39-.92 3.08-1.34.4.94c9.39 22.28 12.86 57.03 13.23 60.92l.01.22c-.79 29.12-58.43 51.11-59.01 51.32z" fill="#699e1e" data-color="1"/>
    </g>
</svg>
