<?xml version="1.0" encoding="UTF-8"?>
<svg data-bbox="17.943 18.763 117.798 78.488" viewBox="0 0 151.28 113.46" xmlns="http://www.w3.org/2000/svg" data-type="color">
    <g>
        <path d="M135.67 46.86c-.17 6.32.39 14.16-.23 21.98-1.38 17.36-17.83 30.52-35.06 28.13-2.59-.36-3.89-1.75-3.96-4.38-.06-2.26-.04-4.51-.01-6.77.05-3.63 1.97-5.2 5.51-4.54 6.57 1.22 12.89-3.06 13.95-9.38.26-1.57.02-2.24-1.82-2.22-8.03.09-16.06.05-24.1.04-4.06 0-5.24-1.18-5.24-5.19V23.9c0-3.91 1.19-5.11 5.11-5.11q20.415-.015 40.83 0c3.73 0 5.02 1.3 5.02 5.05.01 7.16 0 14.33 0 23.02" fill="#ffffff" data-color="1"/>
        <path d="M68.91 45.74c0 6.51.02 13.02 0 19.52-.07 19.31-15.43 33.38-34.64 31.75-3.21-.27-4.48-1.64-4.5-4.85-.01-2.12-.01-4.25 0-6.37.02-3.65 1.89-5.18 5.48-4.52 6.51 1.21 12.48-2.76 13.88-9.22.48-2.2.37-2.34-1.93-2.34-8.04 0-16.07.01-24.11-.01-3.85-.01-5.14-1.3-5.14-5.15-.01-13.55-.01-27.09 0-40.64 0-3.87 1.27-5.13 5.14-5.14 13.61-.01 27.23-.01 40.84 0 3.77 0 4.98 1.24 4.98 5.04z" fill="#ffffff" data-color="1"/>
    </g>
</svg>
