<?xml version="1.0" encoding="UTF-8"?>
<svg data-bbox="26 11.549 266.008 266.07" viewBox="0 0 309 288" xmlns="http://www.w3.org/2000/svg" data-type="color">
    <g>
        <path d="M192.19 192.27h-55.15c-5.78 0-7.74-1.97-7.75-7.74-.01-4.29 0-8.58 0-13.16 2.11-.12 4-.25 5.89-.34 3.77-.19 6.25-2.53 6.22-5.91-.03-3.37-2.56-5.69-6.34-5.77-1.81-.04-3.62-.01-5.59-.01V138.5c2.07-.12 4.06-.19 6.04-.35 3.62-.3 5.95-2.68 5.9-5.96-.05-3.35-2.63-5.69-6.38-5.75-1.81-.03-3.61-.01-5.57-.01v-20.88c2.07-.13 4.05-.25 6.03-.4 3.6-.27 5.97-2.64 5.92-5.91-.05-3.25-2.56-5.63-6.1-5.73-1.9-.06-3.8-.01-5.93-.01 0-2.42-.22-4.7.06-6.93.32-2.61 2.04-4.25 4.67-4.71 1.07-.19 2.19-.14 3.29-.14q36.795-.015 73.59 0c6.3 0 8.02 1.71 8.02 7.94v88.15c0 4.2-1.93 5.45-5.94 3.86-.85-.34-1.79-.54-2.53-1.04-4.74-3.16-8.49-1.77-11.79 2.35-1.08 1.35-2.54 2.41-3.54 3.82-1.1 1.51-1.84 3.27-3.02 5.47m1.53-83.96c5.03 0 10.05-.01 15.08.01 1.59.01 3.12-.21 3.13-2.18.01-1.99-1.55-2.17-3.13-2.17-9.96.01-19.92.01-29.89 0-1.56 0-3.19.12-3.27 2.04-.09 2.12 1.59 2.32 3.27 2.31 4.94-.02 9.88-.01 14.81-.01m.26 24.65c-5.12 0-10.24-.11-15.35.09-1.04.04-2.77 1.14-2.9 1.96-.3 1.83 1.33 2.3 2.95 2.3h30.15c1.59 0 3.11-.3 3.11-2.24 0-2.03-1.6-2.12-3.15-2.11zm-.27 28.88c-5.02 0-10.05-.11-15.07.09-1.04.04-2.75 1.15-2.91 1.99-.34 1.89 1.34 2.26 2.93 2.27h30.15c1.56 0 3.13-.19 3.12-2.19s-1.61-2.16-3.15-2.17c-5.02.01-10.04.01-15.07.01m-34.67-57.72c-1.48-2.45-2.7-4.47-3.93-6.48-.75-1.22-1.63-2.43-3.26-1.47-1.72 1.01-1.16 2.41-.34 3.77 1.66 2.73 3.25 5.5 4.94 8.21 1.64 2.64 3.06 2.66 4.94.07 3.27-4.51 6.48-9.05 9.73-13.57.88-1.23 1.83-2.61.25-3.83-1.73-1.35-2.82.02-3.77 1.34-2.75 3.85-5.51 7.7-8.56 11.96m.01 28.94c-1.6-2.61-2.78-4.88-4.32-6.89-.53-.7-1.93-.73-2.94-1.07-.22 1.04-.95 2.34-.57 3.06 1.68 3.24 3.6 6.36 5.57 9.45 1.25 1.96 2.75 2.01 4.15.13 3.58-4.86 7.12-9.75 10.48-14.76.5-.74-.08-2.21-.16-3.33-1.09.31-2.26.47-3.25.98-.58.29-.89 1.13-1.32 1.72-2.43 3.41-4.87 6.83-7.64 10.71m0 28.95c-1.52-2.5-2.64-4.71-4.14-6.62-.61-.78-2.04-.91-3.1-1.34-.18 1.12-.86 2.49-.45 3.3 1.62 3.17 3.52 6.2 5.44 9.2 1.26 1.96 2.76 2.02 4.14.14 3.58-4.86 7.12-9.75 10.48-14.75.5-.75-.07-2.21-.14-3.34-1.1.31-2.29.45-3.26.98-.65.36-1 1.27-1.48 1.94-2.39 3.34-4.77 6.68-7.49 10.49m24.34-33.96c1.91 0 3.86.23 5.71-.1.84-.15 1.49-1.42 2.22-2.18-.73-.67-1.43-1.88-2.2-1.92-3.72-.2-7.46-.22-11.17 0-.82.05-1.57 1.33-2.36 2.05.78.72 1.48 1.9 2.36 2.06 1.76.33 3.62.1 5.44.09m.02-28.95v-.01c1.83 0 3.7.23 5.47-.09.9-.16 1.63-1.3 2.44-2-.78-.74-1.52-2.06-2.34-2.11-3.64-.23-7.32-.23-10.96-.01-.85.05-1.63 1.32-2.44 2.03.87.73 1.65 1.9 2.63 2.11 1.67.34 3.46.08 5.2.08m.14 53.64c-1.83 0-3.7-.22-5.47.09-.92.16-1.67 1.25-2.5 1.92.77.76 1.49 2.13 2.3 2.18 3.73.23 7.5.23 11.23-.01.78-.05 1.47-1.46 2.2-2.25-.76-.64-1.45-1.7-2.29-1.83-1.78-.29-3.64-.09-5.47-.1" fill="#699e1e" data-color="1"/>
        <path d="M64.24 99.47c-4.21 0-8.42-.06-12.63.02-2.04.04-3.33-.66-3.01-2.81 1.15-7.78-2.16-12.63-8.48-17.34C26.58 69.25 22.49 50.73 29.1 35.05c6.35-15.09 22.36-24.85 38.19-23.27 17.62 1.75 31.36 14.05 34.62 31.01 2.92 15.17-3.56 30.74-16.47 39.07-3.77 2.43-5.46 5.57-5.45 10.02.02 8.71 1.22 7.49-7.5 7.58-2.76.03-5.5.01-8.25.01" fill="#699e1e" data-color="1"/>
        <path d="M106.91 49.04c-.31-8.48-2.7-16.05-7.51-23.15.99-.55 1.79-1.09 2.67-1.47C148.94 3.9 193.63 7.95 236.16 36.33c.99.66 1.95 1.37 2.89 2.1 1.5 1.16 2.81.97 4.11-.37 2.43-2.49 4.9-4.94 7.38-7.38 2.29-2.25 3.26-2.06 4.07.93 4.3 15.9 8.56 31.8 12.8 47.72.77 2.91.02 3.71-2.82 2.95-16-4.25-32-8.54-47.98-12.87-2.73-.74-2.96-1.72-1.04-3.74 1.77-1.85 3.64-3.61 5.43-5.45 2.16-2.22 2.08-3.28-.44-5.01-14.28-9.82-30.02-15.95-47.2-18.17-22.61-2.92-44.12.8-64.45 11.2-.54.27-1.13.45-2 .8" fill="#699e1e" data-color="1"/>
        <path d="M197.16 247.14c-1.05 2.69-1.89 5.48-3.19 8.05-1.34 2.65-.85 4.6 1.16 6.6 2.59 2.57 5.01 5.31 7.68 8.17-.64.24-1.49.63-2.38.9-42.91 13-82.81 6.79-119.66-18.79-4.06-2.82-4-2.9-7.44.51-2.08 2.06-4.11 4.17-6.23 6.2-1.92 1.84-2.99 1.63-3.66-.85q-6.57-24.24-12.99-48.51c-.67-2.52.25-3.25 3.06-2.51 11.05 2.92 22.09 5.9 33.13 8.86 4.86 1.3 9.73 2.58 14.57 3.94 2.89.82 3.13 1.75 1.08 3.88-1.77 1.85-3.64 3.61-5.43 5.45-2.04 2.1-1.96 3.16.42 4.8 13.39 9.25 28.12 15.22 44.17 17.8 17.86 2.87 35.39 1.41 52.54-4.4.83-.28 1.67-.51 2.51-.76.23.23.44.45.66.66" fill="#699e1e" data-color="1"/>
        <path d="M205.42 265.23c-.27-.09-.63-.16-.93-.32-.32-.17-.58-.45-.86-.68-6.44-5.23-6.56-5.28-3.37-12.84 1.2-2.84 1.59-5.29-.3-7.94-.78-1.09-1.42-2.44-1.63-3.75-.73-4.7-3.77-6.91-7.97-8.27-1.65-.53-4.17-1.49-4.41-2.64-.62-2.97-.26-6.16-.08-9.25.03-.5 1.13-1.15 1.84-1.35 5.89-1.68 9.47-5.01 11.65-11.19 1.61-4.56 2.15-8.14-.08-12.31-.73-1.37-1.71-3.68-1.12-4.5 1.85-2.55 4.36-4.63 6.73-6.76.31-.27 1.42.11 2.02.44 5.33 2.99 10.25 3.21 16.14.37 4.33-2.09 7.46-4.18 8.56-8.78.89-3.71 3.19-4.98 6.79-4.46.72.1 1.47.1 2.19.03 2.41-.23 3.99.6 4.65 3.1 1.41 5.37 4.7 8.29 10.1 10.51 5.15 2.12 9.28 2.37 13.83-.25 2.35-1.35 4.01-.92 5.95.99 4.85 4.78 5.11 4.75 2.36 11.03-1.43 3.27-2 6.17.3 9.2.54.71.96 1.63 1.09 2.5.74 5.35 4.18 8.02 9.07 9.21 3.24.79 4.16 2.74 4.06 5.98-.18 6.1.09 6.35-5.61 8.45-3.85 1.42-6.55 3.39-7.11 7.64-.07.53-.26 1.11-.59 1.53-3.6 4.67-2.64 9.34 0 13.97 1.3 2.28.73 3.9-1.04 5.72-4.82 4.95-4.81 5.17-11.02 2.42-3.26-1.45-6.16-2.01-9.22.26-.86.64-1.96 1.16-3.01 1.29-5 .63-7.41 3.91-8.51 8.35-.95 3.85-3.32 5.09-7.01 4.58-.99-.14-2.01-.11-3.02-.07-1.8.07-2.93-.65-3.39-2.46-1.5-5.91-5.03-9.25-11.05-11.36-4.44-1.56-8-2.17-12.06.05-1.2.65-2.55 1.02-3.94 1.56m68.34-41.12c-.06-19.16-15.92-34.93-35.11-34.9-19.13.02-34.97 15.89-34.98 35.04-.02 19.23 16.02 35.18 35.26 35.05 19.17-.11 34.89-15.99 34.83-35.19" fill="#699e1e" data-color="1"/>
        <path d="M117.35 174.4c0 6.22-.01 12.25 0 18.27.02 7.52 3.98 11.48 11.55 11.48 20.95.02 41.9.01 62.86.01h3.32c-.08 2.54-1.12 3.33-3.42 3.32-23.51-.07-47.03-.03-70.54-.05-4.97 0-7.04-2.06-7.06-6.99-.04-7.5.07-15.01-.06-22.51-.05-2.22.87-3.16 3.35-3.53" fill="#699e1e" data-color="1"/>
        <path d="M121.66 172.73c1.1-.24 1.98-.43 3.13-.67.08.93.2 1.71.21 2.49.02 3.57-.01 7.14.02 10.71.05 7.27 3.98 11.25 11.2 11.27 11.62.03 23.25.01 34.87.01 7.23 0 14.46.08 21.69-.05 2.32-.04 3.35.8 3.46 3.38h-66.43c-6.37 0-8.14-1.79-8.14-8.18-.02-6.23-.01-12.45-.01-18.96" fill="#699e1e" data-color="1"/>
        <path d="M64.21 112.96c4.67 0 9.33-.01 14 0 1.75 0 3.61.33 3.7 2.4.09 2.28-1.84 2.68-3.69 2.68q-13.86.03-27.72 0c-1.82-.01-3.76-.32-3.67-2.68.08-2.16 1.95-2.39 3.67-2.4 4.56-.02 9.13-.01 13.71 0" fill="#699e1e" data-color="1"/>
        <path d="M64.49 127.32c-4.67 0-9.33.03-14-.01-1.82-.02-3.77-.28-3.68-2.66.08-2.15 1.93-2.41 3.66-2.41q13.86-.03 27.72 0c1.86 0 3.78.39 3.7 2.67-.07 2.08-1.95 2.4-3.69 2.41-4.56.01-9.13 0-13.71 0" fill="#699e1e" data-color="1"/>
        <path d="M98.98 151.27c.16-4.98 2.76-9.03 6.86-12.18 6.84-5.26 14.83-7.33 23.25-8.1 1.64-.15 3.31-.38 4.92-.17 1.04.13 1.98.98 2.97 1.51-.92.52-1.79 1.36-2.77 1.52-4.77.77-9.73.81-14.31 2.16-4.38 1.3-8.57 3.59-12.47 6.03-3.09 1.93-4.89 5.16-5.17 8.97-.15 2.08.17 3.96 2.09 5.33.52.37.5 1.48.73 2.25-.83.1-1.84.55-2.46.23-2.82-1.5-3.58-4.19-3.64-7.55" fill="#699e1e" data-color="1"/>
        <path d="M99 118.83c-.02-3.64 1.04-7.11 3.7-9.44 3.31-2.9 6.96-5.66 10.91-7.55 6.5-3.12 13.64-3.97 20.83-3.93.86.01 1.72.86 2.57 1.33-.85.59-1.69 1.67-2.56 1.7-7.09.26-14.08 1.05-20.53 4.16-2.68 1.29-5.24 3-7.51 4.92-2.66 2.24-4.36 5.29-4.07 8.9.12 1.47 1.25 2.85 1.88 4.28.35.8.62 1.64.92 2.46-.97.03-2.17.44-2.87.02-2.52-1.51-3.23-4.06-3.27-6.85" fill="#699e1e" data-color="1"/>
        <path d="M132.17 163.72c1.1 0 2.22-.14 3.28.06.57.11 1.51.92 1.44 1.21-.16.65-.74 1.45-1.34 1.69-.81.32-1.8.18-2.71.22-7.21.28-14.22 1.44-20.69 4.81-3.97 2.06-7.54 4.68-9.14 9.07-1.12 3.09-1.72 6.25 1.66 8.64.43.3.3 1.39.43 2.12-.75.12-1.63.55-2.21.29-2.41-1.04-3.49-3.15-3.77-5.65-.66-6.1 2.22-10.59 6.74-14.21 4.6-3.68 10.01-5.7 15.7-6.89 3.48-.73 7.04-1.06 10.57-1.58.02.08.03.15.04.22" fill="#699e1e" data-color="1"/>
        <path d="M64.48 103.7c4.57 0 9.15-.01 13.72.01 1.85.01 3.81.33 3.71 2.63-.09 2.03-1.92 2.42-3.69 2.43-9.24 0-18.48.01-27.72-.01-1.83 0-3.75-.31-3.67-2.67.07-2.18 1.95-2.37 3.66-2.38 4.66-.02 9.32-.01 13.99-.01" fill="#699e1e" data-color="1"/>
        <path d="M73.18 131.53c-1.07 4.55-4.67 7.37-8.98 7.33-4.21-.03-7.74-2.87-8.69-7.33z" fill="#699e1e" data-color="1"/>
        <path d="M121.81 106.86c1.01-.2 1.89-.37 3.19-.62V117c0 2.56-.11 5.13.03 7.68.13 2.36-.83 3.18-3.22 2.69z" fill="#699e1e" data-color="1"/>
        <path d="M124.87 139.66v20.3c-1.03.2-1.97.38-3.2.62 0-6.67-.09-13.03.11-19.38.02-.81 1.52-1.57 2.34-2.35.24.26.49.54.75.81" fill="#699e1e" data-color="1"/>
        <path d="M114.05 162.25c0-6.18-.1-12.36.11-18.54.03-.88 1.57-1.71 2.42-2.56.25.16.5.33.75.49 0 6.27.09 12.55-.11 18.81-.03.81-1.57 1.57-2.42 2.36-.25-.19-.5-.38-.75-.56" fill="#699e1e" data-color="1"/>
        <path d="M117.33 108.74c0 6.31.08 12.57-.1 18.83-.02.8-1.45 1.57-2.22 2.35-.26-.15-.53-.31-.79-.46-.06-.94-.17-1.88-.17-2.83-.02-4.82-.02-9.65 0-14.47 0-2.75.11-2.85 3.28-3.42" fill="#699e1e" data-color="1"/>
        <path d="M124.64 89.59c.63 4.73.48 4.93-3.33 4.76 1.11-1.58 2.02-2.88 3.33-4.76" fill="#699e1e" data-color="1"/>
    </g>
</svg>
