<?xml version="1.0" encoding="UTF-8"?>
<svg data-bbox="20.77 26.08 190.7 190.661" viewBox="0 0 232.24 242.82" xmlns="http://www.w3.org/2000/svg" data-type="color">
    <g>
        <path d="m134.29 215-.04-.19.32-.06a4.14 4.14 0 0 0 2.28-1.3l.14.13c-.63.7-1.46 1.17-2.39 1.35zm-3.02.54c-1.01.16-2.03.31-3.03.44l-.02-.19c1-.13 2.02-.28 3.03-.44zm-6.08.78q-1.515.15-3.06.24l-.01-.19c1.02-.06 2.04-.15 3.05-.24zm-6.12.39-1.18.03a4.4 4.4 0 0 1-1.87-.38l.08-.17c.56.25 1.17.38 1.79.37l1.18-.03zm19.08-5.96-.19-.03.42-3.03.19.03zm-24.3 3.44-.12-.3-.95-2.58.18-.07.95 2.58c.04.1.08.19.12.29zm49.12-10.48c-.98-.02-1.93-.38-2.68-1.01l-.16-.13.12-.15.16.13c.72.6 1.63.94 2.56.96zm2.91-.96-.1-.16c.86-.53 1.73-1.08 2.59-1.63l.1.16c-.86.55-1.73 1.1-2.59 1.63m5.13-3.36-.11-.16c.84-.59 1.67-1.19 2.48-1.79l.11.15c-.81.61-1.65 1.21-2.48 1.8M139 204.68l-.19-.03.42-3.03.19.03zm18.78-4.07-2.35-1.96.12-.15 2.35 1.96zm-46.05 7.84-1.06-2.87.18-.07 1.06 2.87zm64.18-12.74-.12-.15c.79-.63 1.58-1.29 2.36-1.95l.12.15c-.77.66-1.57 1.32-2.36 1.95m-87.28 15.76-.08-.17c.59-.28 1.11-.69 1.51-1.2l.66-.84.15.12-.66.84c-.42.52-.97.96-1.58 1.25m-3.06.24c-.07-.02-.14-.04-.21-.07-.89-.3-1.79-.63-2.69-.96l.07-.18c.89.33 1.79.66 2.68.96l.2.06zm67.51-15.03-1.67-1.4c-.22-.18-.46-.35-.71-.48l.09-.17c.27.14.52.31.75.5l1.67 1.4zm27.09-5.32-.18-.06c.24-.7.3-1.44.16-2.17-.05-.26-.13-.52-.23-.76l.18-.07c.1.26.18.52.24.8.15.74.09 1.53-.17 2.26m-40.16 7.32-.18-.08c.43-.96 1.2-1.73 2.16-2.17l.08.17c-.92.42-1.65 1.16-2.06 2.08m-60.18 10.88c-.95-.39-1.89-.8-2.82-1.21l.08-.17c.92.41 1.87.82 2.81 1.21zm12.91-2.61-.15-.12 1.88-2.42.15.12zm16.86-4.24a4.1 4.1 0 0 0-2.1-2.04l.08-.18c.97.42 1.75 1.18 2.19 2.14zm35.34-7.16-.07-.18c.72-.28 1.45-.57 2.15-.87l.03-.01c.23-.09.46-.17.7-.23l.04.19c-.23.05-.45.13-.67.22l-.03.01c-.7.3-1.43.59-2.15.87m-70.7 11.5c-.92-.45-1.84-.92-2.73-1.39l.09-.17c.89.47 1.81.94 2.73 1.39zm22.27-4.93-.16-.12.81-1.04a4.4 4.4 0 0 1 1.35-1.15l.09.17c-.5.27-.94.64-1.29 1.1zm8.02-2.01c-1.01-.15-2.02-.32-3.02-.51l.04-.19c.99.19 2.01.36 3.01.51zm74.25-14.58-1.15-2.84.18-.07 1.15 2.84zM68.91 204a4.4 4.4 0 0 1-1.18-2.83l.19-.01c.01.21.03.43.07.65.15.77.51 1.48 1.05 2.06zm107.57-24.15-.92-2.26c-.08-.19-.14-.4-.2-.61l.19-.05c.05.2.11.39.19.58l.92 2.26zM68.36 198.16l-.19-.03.52-3.02.19.03zm59.98-13.78c-.02 0-.04.01-.06.01q-1.02.195-2.04.36l-.03-.19q1.02-.165 2.04-.36c.33-.06.65-.13.97-.19l.04.19c-.31.06-.61.13-.92.18m3.9-.88-.05-.19c.98-.25 1.97-.53 2.94-.83l.06.18c-.98.31-1.97.59-2.95.84m-9.04 1.68c-1 .12-2.03.21-3.05.29l-.01-.19c1.02-.07 2.05-.17 3.04-.29zm14.89-3.48-.07-.18c.96-.34 1.91-.72 2.85-1.1l.07.18c-.93.38-1.89.75-2.85 1.1m-21.01 3.93c-1.01.03-2.04.04-3.06.03v-.19c1.02.01 2.05 0 3.06-.03zm58.83-11.59-.17-.09c.15-.28.33-.54.53-.78.46-.54.92-1.09 1.37-1.64l.15.12c-.45.55-.91 1.1-1.37 1.64q-.3.345-.51.75m21.4-4.54-.07-.18c.91-.34 1.67-1 2.15-1.84l.05-.09.17.09c-.02.03-.03.06-.05.09-.5.88-1.3 1.57-2.25 1.93m-53.56 9.85-.08-.17c.92-.44 1.84-.9 2.73-1.37l.09.17c-.9.47-1.82.93-2.74 1.37m50.5-9.78-3.02-.52.03-.19 3.02.52zm-83.29 15.98c-1-.05-2.03-.13-3.06-.22l.02-.19c1.02.09 2.05.17 3.05.22zm-41.55 6.58-.19-.03.52-3.02.19.03zm79.75-15.66-.1-.16c.87-.52 1.74-1.07 2.59-1.63l.11.16c-.86.56-1.73 1.11-2.6 1.63m-44.31 8.52c-1-.13-2.03-.29-3.03-.46l.03-.19c1 .17 2.02.32 3.02.45zm83.36-16.46-3.02-.52.03-.19 3.02.52zm-8.53.71-.15-.12c.64-.81 1.55-1.36 2.56-1.56l.07-.01.03.19-.06.01c-.97.19-1.84.72-2.45 1.49m21.39-4.45-.17-.09c.48-.92.94-1.84 1.37-2.73l.17.08c-.42.89-.88 1.82-1.37 2.74M98.81 183.97c-.99-.2-2-.43-2.99-.67l.04-.19c.99.24 1.99.47 2.98.67zm55.45-10.89-.11-.15c.82-.6 1.63-1.23 2.42-1.87l.12.15c-.79.63-1.61 1.26-2.43 1.87m-61.41 9.44c-.98-.27-1.97-.56-2.94-.87l.06-.18c.97.3 1.96.6 2.93.87zm66.16-13.31-.13-.14c.75-.68 1.5-1.38 2.22-2.09l.13.14c-.71.71-1.46 1.41-2.22 2.09m-89.7 16.97c-.28-.5-.65-.93-1.11-1.27l-1.05-.81.12-.15 1.05.81c.48.36.87.81 1.16 1.33zm134.42-26.92-.18-.08c.4-.93.8-1.88 1.17-2.83l.18.07c-.37.96-.77 1.91-1.17 2.84M87.65 180.91c-.94-.32-1.83-.78-2.65-1.35l-.09-.06.11-.15.09.06c.8.57 1.67 1.01 2.6 1.33zm75.71-16-.14-.13c.68-.74 1.36-1.51 2.01-2.29l.15.12c-.65.79-1.33 1.56-2.02 2.3M47.82 185.67a4.36 4.36 0 0 1-2.92-.94l.12-.15c.79.63 1.78.95 2.79.9zm16.95-3.51c-.18-.16-.37-.32-.55-.47-.58-.5-1.28-.82-2.04-.94l.03-.19c.79.12 1.53.46 2.14.99.18.16.37.32.55.47zm-14.02 2.59-.07-.18 2.84-1.15.07.18zm31.7-7.07c-.82-.62-1.63-1.26-2.41-1.89l.12-.15c.78.64 1.59 1.27 2.4 1.89zm123.5-24.13-.18-.06.12-.36c.23-.67.28-1.4.14-2.1-.03-.16-.07-.32-.12-.47l.18-.06c.05.16.09.33.13.49.14.73.09 1.5-.15 2.2q-.045.18-.12.36m-149.52 28.9-.07-.18 2.84-1.15.07.18zm110.86-22.23-.15-.12c.62-.81 1.22-1.65 1.79-2.48l.16.11c-.58.83-1.18 1.67-1.8 2.49M42.85 182.45c-.65-.78-1.3-1.59-1.92-2.39l.15-.12c.62.8 1.27 1.6 1.92 2.38zm34.84-8.63c-.78-.68-1.54-1.37-2.28-2.05l.13-.14c.73.68 1.49 1.37 2.27 2.05zm93.06-18.66-.16-.1c.53-.87 1.05-1.75 1.54-2.64l.17.09a59 59 0 0 1-1.55 2.65m33.39-6.97-2.28-2.05.13-.14 2.28 2.05zM39.08 177.61c-.59-.81-1.19-1.66-1.76-2.51l.16-.11c.58.85 1.17 1.69 1.76 2.5zm34.13-7.98c-.72-.73-1.44-1.47-2.12-2.21l.14-.13c.68.74 1.4 1.48 2.12 2.21zm100.51-19.83-.17-.08c.45-.91.88-1.84 1.29-2.77l.18.08c-.41.92-.85 1.86-1.3 2.77m25.86-5.71-2.28-2.05.13-.14 2.28 2.05zM35.64 172.54c-.41-.65-.81-1.3-1.2-1.94-.14-.23-.25-.47-.35-.72l.18-.07q.135.36.33.69c.39.64.79 1.29 1.2 1.94zm33.41-7.41c-.66-.77-1.32-1.57-1.95-2.37l.15-.12c.63.8 1.28 1.59 1.94 2.36zm107.12-20.95-.18-.07c.36-.95.7-1.92 1.02-2.88l.18.06c-.32.97-.66 1.94-1.02 2.89m18.87-4.22c-.5-.58-.84-1.27-.99-2.02a5 5 0 0 1-.08-.85h.19c0 .27.02.55.07.81.14.71.46 1.38.94 1.93zM34.27 166.88l-.18-.07c.17-.45.42-.87.73-1.25l1.05-1.26.15.12-1.05 1.26c-.3.37-.53.77-.7 1.2m30.99-6.56c-.6-.83-1.19-1.68-1.74-2.52l.16-.11c.55.84 1.14 1.68 1.74 2.51zm112.81-21.97-.18-.05c.27-.98.52-1.98.74-2.97l.19.04c-.23.99-.48 1.99-.75 2.98m16.58-4.26-.19-.03c.16-.99.31-1.99.43-2.97l.01-.05.19.02c0 .02 0 .04-.01.06-.12.97-.27 1.98-.43 2.97M37.98 162.08l-.15-.12 1.96-2.35.15.12zm23.9-6.87c-.53-.88-1.04-1.78-1.52-2.66l.17-.09c.48.88.99 1.77 1.52 2.65zm117.53-22.85-.19-.03c.17-1 .33-2.02.45-3.03l.19.02c-.12 1.02-.27 2.04-.45 3.04m17.1-3.86-.12-.15c.39-.33.83-.58 1.31-.76l1.48-.54.07.18-1.48.54c-.47.17-.89.41-1.26.73m-154.6 28.87-.15-.12.48-.58c.48-.58.8-1.29.9-2.04l.19.03a4.3 4.3 0 0 1-.94 2.14zm160.2-31.2-.07-.18 2.87-1.06.07.18zm5.75-2.11-.07-.18.76-.28c.69-.25 1.3-.69 1.77-1.26l.15.12c-.49.6-1.13 1.05-1.86 1.32zM58.95 149.82c-.45-.91-.88-1.85-1.28-2.79l.18-.08c.4.93.83 1.87 1.28 2.78zm121.22-23.55-.19-.01c.08-1.01.13-2.04.16-3.06h.19c-.03 1.02-.08 2.05-.16 3.07m31.3-6.65h-.19c-.02-1.01-.05-2.03-.11-3.06l.19-.01c.05 1.03.09 2.06.11 3.07M42.56 151.73c-.38-.92-.75-1.88-1.11-2.86l.18-.07c.36.98.73 1.94 1.1 2.85zm13.96-7.54c-.36-.95-.7-1.92-1.02-2.89l.18-.06c.32.97.66 1.94 1.01 2.88zm123.82-24.06h-.19a61 61 0 0 0-.14-3.05l.19-.01c.07 1 .12 2.03.14 3.06m30.82-6.63-.19.02a74 74 0 0 0-.31-3.04l.19-.02c.12.99.22 2.02.31 3.04M40.12 146.19c-.64-.67-1.5-1.11-2.42-1.24l-.22-.03.03-.19.22.03c.96.13 1.86.59 2.54 1.3zm-5.67-1.69-3.03-.42.03-.19 3.03.42zm-6.07-.84-2.14-.3c-.31-.04-.61-.12-.9-.22l.07-.18c.28.1.56.17.86.21l2.14.3zm26.24-5.3c-.27-.99-.52-1.99-.74-2.98l.19-.04c.22.99.47 1.98.74 2.97zm125.29-24.35-.19.02c-.12-1.01-.27-2.03-.43-3.03l.19-.03c.16 1.01.31 2.03.43 3.04m30.54-6.6-.19.03c-.15-1-.32-2.02-.5-3.02l.19-.03c.18 1 .35 2.02.5 3.02M23.03 141.14a4.6 4.6 0 0 1-.45-1.24l-.1-.51a53 53 0 0 1-.23-1.23l.19-.03c.07.41.15.82.23 1.22l.1.51c.08.42.23.81.43 1.19zm30.45-8.79-.19.03c-.17-1.01-.33-2.03-.45-3.03l.19-.02c.13 1 .28 2.02.45 3.02m125.23-24.34c-.21-.98-.46-1.98-.72-2.97l.19-.05c.27.99.51 1.99.72 2.98zm30.21-6.47a4.13 4.13 0 0 0-2.32-1.78l.06-.18c1.01.3 1.87.97 2.43 1.87zM21.94 135.11l-.19.03c-.15-1-.28-2.02-.4-3.04l.19-.02c.12 1.01.26 2.03.4 3.03m181.65-35.83-3.03-.42.03-.19 3.03.42zm-6.07-.84-3.01-.42-.01-.1.02-.09 3.03.42zM52.73 126.28l-.19.01c-.08-1.02-.13-2.05-.16-3.06h.19c.03 1.01.08 2.04.16 3.05m124.4-24.17c-.31-.97-.65-1.94-1-2.89l.18-.07c.35.95.69 1.92 1 2.9zm14.68-5.57c-.34-.4-.61-.86-.78-1.37-.17-.47-.34-.95-.51-1.42l.18-.07c.18.47.35.95.51 1.42.17.48.42.92.75 1.31zM21.25 129.03l-.19.02c-.08-1.02-.15-2.05-.2-3.06l.19-.01c.05 1 .12 2.03.2 3.05m31.32-8.86h-.19c.02-1.01.07-2.05.14-3.07l.19.01c-.07 1.02-.12 2.05-.14 3.06M175 96.38c-.4-.94-.82-1.87-1.26-2.78l.17-.08c.44.91.86 1.85 1.26 2.79zm14.39-5.47-.19-.45c-.11-.27-.2-.56-.25-.86-.11-.58-.11-1.16.01-1.72l.19.04c-.11.54-.11 1.1 0 1.65.05.28.14.56.24.82l.19.45zM20.96 122.92l-.19-.01c.04-1.05.46-2.06 1.19-2.82l.14.13c-.7.74-1.1 1.7-1.14 2.7M53 114.06l-.19-.02c.12-1.02.27-2.04.44-3.04l.19.03c-.17 1-.32 2.02-.44 3.03m119.35-23.19c-.48-.9-.99-1.79-1.51-2.66l.16-.1c.52.87 1.03 1.77 1.51 2.67zM24.71 118.8l-.07-.18 2.87-1.06.07.18zm5.75-2.11-.07-.18 2.87-1.06.07.18zm160.18-31.35-.15-.12 1.96-2.35.15.12zM36.07 114.23l-.13-.14a4.07 4.07 0 0 0 1.21-2.42l.03-.23.19.03-.03.23c-.12.95-.57 1.85-1.27 2.53m17.94-6.2-.19-.04c.22-1 .46-2 .73-2.98l.18.05c-.26.97-.5 1.97-.72 2.97m115.22-22.41a66 66 0 0 0-1.73-2.52l.16-.11c.6.83 1.18 1.68 1.73 2.53zm25.33-4.98-.15-.12 1.96-2.35.15.12zm-156.74 27.8-.19-.03c.1-.59.21-1.19.32-1.78.08-.4.09-.81.05-1.22l.19-.02c.05.42.03.85-.05 1.27-.11.59-.22 1.18-.32 1.78m160.4-32.71-.18-.06c.21-.66.24-1.36.11-2.04-.06-.3-.15-.6-.28-.89l.18-.08c.13.3.23.61.29.93.14.72.1 1.45-.12 2.14M55.6 102.12l-.18-.06c.31-.97.65-1.94 1.01-2.9l.18.07c-.36.95-.7 1.92-1.01 2.89m110.06-21.47c-.61-.79-1.26-1.59-1.93-2.37l.15-.12c.67.79 1.32 1.59 1.93 2.38zM36.68 102.8c-.08-.07-.16-.14-.24-.2l-2.16-1.68.12-.15 2.16 1.68c.09.07.17.14.25.21zm159.63-32.67c-.55-.86-1.11-1.72-1.68-2.55l.16-.11c.57.84 1.14 1.7 1.69 2.56zM57.74 96.39l-.18-.08c.4-.93.83-1.87 1.28-2.79l.17.08c-.44.93-.87 1.86-1.27 2.79m103.97-20.41c-.68-.74-1.39-1.49-2.11-2.21l.14-.13c.72.73 1.43 1.48 2.11 2.22zM31.86 99.03l-2.42-1.88.12-.15 2.42 1.88zm28.56-8.13-.17-.09c.49-.9 1.01-1.79 1.53-2.65l.16.1c-.52.85-1.03 1.74-1.52 2.64m132.44-25.82c-.6-.82-1.22-1.64-1.85-2.44l.15-.12c.63.8 1.25 1.62 1.85 2.44zm-35.45 6.55c-.74-.7-1.5-1.39-2.26-2.06l.13-.14c.76.67 1.53 1.36 2.27 2.06zM27.03 95.25a4.23 4.23 0 0 1-1.37-2.73l.19-.02c.01.12.03.23.05.35.17.88.61 1.66 1.27 2.27zm36.57-9.57-.16-.11c.57-.84 1.16-1.68 1.78-2.49l.15.12c-.61.81-1.2 1.65-1.77 2.48m89.22-18.08a96 96 0 0 0-2.4-1.9l.12-.15c.82.62 1.62 1.26 2.4 1.9zm36.27-7.34c-.44-.52-.88-1.05-1.33-1.55-.22-.25-.47-.48-.74-.67l.11-.16c.28.2.54.43.77.7.44.5.89 1.03 1.33 1.55zm-17.57 1.93a4.2 4.2 0 0 1-1.73-.02l.04-.19c.81.17 1.66.1 2.43-.21l.49-.2.07.18-.49.2q-.39.165-.81.24M26.44 89.57l-.18-.06c.34-.95.7-1.92 1.07-2.87l.18.07c-.38.95-.74 1.91-1.07 2.86M175.66 60.6l-.07-.18 2.84-1.15.07.18zM67.26 80.8l-.15-.12c.65-.78 1.32-1.56 2.01-2.31l.14.13c-.68.74-1.35 1.52-2 2.3m114.07-22.5-.07-.18 1.74-.71c.37-.15.77-.25 1.17-.29l.02.19c-.38.04-.76.13-1.12.28zm-14.17 2.31c-.78-.66-1.58-1.3-2.38-1.92l.12-.15c.8.62 1.6 1.27 2.39 1.93zm-19.2 3.27c-.14-.1-.27-.2-.41-.29a10 10 0 0 0-2.23-1.19l.07-.18c.8.31 1.57.72 2.27 1.21.14.1.27.2.41.29zM71.37 76.29l-.14-.14c.72-.72 1.47-1.43 2.22-2.11l.13.14c-.75.68-1.49 1.39-2.21 2.11m-42.7 7.58-.18-.08c.4-.93.82-1.88 1.25-2.8l.17.08c-.42.93-.84 1.87-1.24 2.8m113.75-22.43c-.98-.3-1.97-.59-2.94-.86l.05-.18c.97.27 1.96.55 2.94.86zm20.22-4.96c-.16-.34-.28-.7-.36-1.07-.1-.52-.11-1.04-.02-1.56l.07-.41.19.03-.07.41c-.09.5-.08 1 .01 1.5.07.35.18.7.34 1.02zM75.89 72.19l-.12-.15c.79-.65 1.6-1.28 2.41-1.89l.11.15c-.8.61-1.61 1.24-2.4 1.89m60.63-12.36c-1-.24-2.01-.46-2.99-.66l.04-.19c.98.2 1.99.42 2.99.66zM49.83 75.27q-.63.075-1.26-.03l-1.8-.31.03-.19 1.8.31q.6.105 1.2.03zm-18.57 3.06-.17-.09c.46-.91.94-1.82 1.43-2.71l.17.09c-.49.89-.97 1.8-1.43 2.71m49.53-9.79-.11-.16c.84-.57 1.71-1.12 2.59-1.65l.1.16c-.87.53-1.74 1.08-2.58 1.65m-28.24 5.31-.14-.13c.07-.08.14-.16.2-.25.55-.73 1.12-1.45 1.69-2.16l.15.12c-.57.71-1.14 1.43-1.68 2.15-.08.1-.15.19-.22.27m77.98-15.23a82 82 0 0 0-3.03-.44l.02-.19c1 .13 2.02.28 3.03.44zM43.76 74.4l-3.02-.52.03-.19 3.02.52zm42.26-9.02-.09-.17c.89-.48 1.81-.95 2.73-1.39l.08.18c-.91.43-1.83.9-2.72 1.38m77.03-14.93-.19-.03.52-3.02.19.03zm-38.59 7.4a78 78 0 0 0-3.05-.21l.01-.19q1.53.075 3.06.21zM37.72 73.36l-.55-.09c-.81-.14-1.65-.03-2.4.3l-.08-.17c.78-.35 1.66-.46 2.51-.31l.55.09zm80.64-15.8c-1.01-.01-2.04.01-3.06.04l-.01-.19c1.02-.04 2.05-.05 3.07-.04zm-26.83 5.18-.07-.18c.94-.4 1.9-.77 2.85-1.12l.07.18c-.96.35-1.91.73-2.85 1.12m-35.16 6.31-.16-.1c.52-.86.71-1.88.53-2.88l.19-.03a4.3 4.3 0 0 1-.56 3.01m55.88-11.28c-1.02.08-2.04.18-3.04.3l-.02-.19c1-.12 2.03-.22 3.05-.3zm-14.98 2.87-.06-.18c.97-.3 1.96-.59 2.94-.85l.05.18c-.98.26-1.97.55-2.93.85m8.91-2.13c-.57.1-1.14.2-1.7.31-.43.08-.87.17-1.31.27l-.04-.19c.44-.09.87-.19 1.31-.27.56-.11 1.13-.21 1.7-.31zm57.92-14.09-.19-.03.33-1.93c.06-.36.08-.72.04-1.08l.19-.02c.03.37.02.75-.05 1.13zM55.68 63.23l-1.15-2.84.18-.07 1.15 2.84zm107.33-24.49c-.26-.25-.55-.46-.86-.63-.57-.32-1.16-.63-1.73-.93l.09-.17c.57.3 1.16.62 1.73.93q.495.27.9.66zm-30.54 4.67c-.54.1-1.08.1-1.61 0l-.41-.08.04-.19.41.08c.85.16 1.74.05 2.52-.32l.08.17c-.33.16-.67.27-1.03.34M53.38 57.55l-1.15-2.84.18-.07 1.15 2.84zm74.05-14.72c-.54-.08-1.08-.15-1.61-.22-.49-.06-.95-.2-1.39-.43l.09-.17c.42.21.87.35 1.33.41.53.07 1.08.14 1.62.22zm8.3-1.86-.15-.12 1.88-2.41.15.12zm21.96-5.17c-.92-.44-1.85-.88-2.77-1.29l.08-.17c.93.41 1.86.85 2.78 1.29zM84.26 48.57c-1.05.19-2.12 0-3.02-.54l.1-.16c.86.51 1.88.7 2.88.51zm2.89-1.07-.07-.18c.91-.35 1.83-.7 2.75-1.02.04-.01.08-.03.12-.04l.07.18c-.04.02-.08.03-.12.04-.92.32-1.85.67-2.75 1.02m35.21-7.57c-.01-.04-.03-.07-.04-.11l-1.02-2.77.18-.07 1.02 2.77c.01.04.03.07.04.1zm17.13-3.79-.15-.12 1.88-2.41.15.12zm12.62-2.84c-.94-.39-1.9-.76-2.85-1.11l.07-.18c.95.35 1.91.73 2.85 1.12zM92.3 44.39l-.17-.09c.22-.42.36-.87.43-1.34l.22-1.6.19.03-.22 1.61a4.2 4.2 0 0 1-.45 1.39m-40.12 7.33-.18-.05c.23-.8.69-1.52 1.32-2.07.16-.14.32-.28.48-.41l.13.14c-.16.14-.32.28-.48.41-.61.53-1.05 1.21-1.27 1.98m26.68-5.61-2.35-1.96.12-.15 2.35 1.96zm67.52-14.92c-.98-.22-2.02-.08-2.9.4l-.09-.17c.93-.5 2.01-.65 3.03-.42zM56.27 47.37l-.12-.15c.79-.63 1.6-1.27 2.42-1.88l.11.15c-.82.61-1.63 1.25-2.41 1.88m63.97-13.19-1.06-2.87.18-.07 1.06 2.87zm-46.08 8-2.33-1.95.04-.09.06-.07 2.35 1.96zm19.23-3.82-.19-.03.42-3.03.19.03zm-32.24 5.33-.11-.16c.83-.59 1.69-1.17 2.53-1.73l.11.16c-.85.56-1.7 1.14-2.53 1.73m5.11-3.36-.1-.16c.25-.15.5-.31.75-.46.64-.39 1.38-.6 2.12-.62l.01.19c-.71.02-1.41.23-2.02.6-.26.14-.51.29-.76.45m51.84-11.87a4.16 4.16 0 0 0-2.19-1.94l.07-.18c.99.38 1.8 1.1 2.29 2.03zm-23.87 3.83-.19-.03.11-.76c.11-.78.43-1.52.92-2.13l.15.12c-.47.58-.78 1.29-.88 2.03zm18.69-6.02c-1.01.03-2.04.08-3.06.15l-.01-.19c1.02-.07 2.05-.12 3.06-.15zm-6.1.41c-1 .1-2.03.22-3.04.35l-.02-.19c1.01-.13 2.04-.25 3.04-.35zm-6.07.79c-.91.15-1.82.31-2.72.49l-.29.06-.04-.19.3-.06c.9-.17 1.82-.34 2.73-.49z" fill="#989998" data-color="1"/>
    </g>
</svg>
