<?xml version="1.0" encoding="UTF-8"?>
<svg data-bbox="29.043 24.454 168.404 120.76" viewBox="0 0 222.35 169.67" xmlns="http://www.w3.org/2000/svg" data-type="color">
    <g>
        <path d="M133.19 87.76a51.7 51.7 0 0 0 1.05-12.59l-8.97-3.07c-.16-1.37-.38-2.75-.67-4.12-.09-.48-.22-.94-.33-1.41l7.35-6.01a52 52 0 0 0-5.35-11.43l-9.32 1.83a42 42 0 0 0-3.63-4.3l3.36-8.86a53 53 0 0 0-10.36-7.22l-7.15 6.24c-1.71-.75-3.48-1.39-5.29-1.92l-1.52-9.35c-4.08-.85-8.31-1.22-12.59-1.06l-3.07 8.98c-1.37.16-2.74.38-4.12.67-.48.1-.94.22-1.41.33l-6-7.36a52.5 52.5 0 0 0-11.44 5.36l1.83 9.32a42 42 0 0 0-4.3 3.63l-8.87-3.36a52.6 52.6 0 0 0-7.21 10.37l6.24 7.15c-.75 1.72-1.4 3.48-1.93 5.29l-9.36 1.52c-.85 4.08-1.21 8.3-1.05 12.59l8.97 3.06c.16 1.37.37 2.75.66 4.13.1.48.22.94.34 1.41l-7.36 6c1.35 4.08 3.15 7.91 5.36 11.43l9.32-1.83c1.12 1.52 2.33 2.95 3.63 4.3l-3.36 8.86a52.3 52.3 0 0 0 10.37 7.22l7.15-6.24c1.72.76 3.48 1.4 5.29 1.93l1.52 9.36c4.08.85 8.3 1.22 12.58 1.06l3.08-8.97c1.37-.16 2.75-.37 4.12-.66.47-.1.94-.22 1.4-.34l6 7.36a52.8 52.8 0 0 0 11.44-5.35l-1.83-9.33a44 44 0 0 0 4.3-3.63l8.86 3.36c2.81-3.16 4.89-5.98 6.87-9.71l-5.9-7.81c.74-1.72 1.39-3.48 1.92-5.29zm-47.12 24.43c-19.32 2.36-36.95-11.43-39.31-30.75s11.43-36.95 30.75-39.31c19.31-2.36 36.95 11.43 39.31 30.75 2.36 19.31-11.43 36.95-30.75 39.31" fill="#ffffff" data-color="1"/>
        <path d="M197.41 111.6c.13-2.79-.08-5.61-.65-8.42l-6.25-1.07c-.25-.89-.54-1.77-.88-2.65-.11-.3-.24-.6-.37-.9l4.21-4.75a34.7 34.7 0 0 0-4.75-6.97l-5.96 2.2c-.9-.88-1.86-1.7-2.85-2.45l1.27-6.21a35.8 35.8 0 0 0-7.61-3.66l-4.06 4.88c-1.21-.31-2.44-.55-3.7-.7l-2-6.01c-2.79-.13-5.61.08-8.42.64l-1.07 6.25c-.89.25-1.77.54-2.65.88-.31.12-.6.25-.9.37l-4.74-4.22a35 35 0 0 0-6.98 4.76l2.21 5.96c-.88.9-1.7 1.85-2.45 2.86l-6.21-1.27a34.8 34.8 0 0 0-3.65 7.61l4.88 4.05c-.31 1.21-.55 2.45-.71 3.69l-6.01 2c-.13 2.79.09 5.61.65 8.42l6.25 1.07c.25.89.54 1.78.88 2.65.12.3.24.6.38.89l-4.22 4.75c1.33 2.55 2.92 4.89 4.75 6.97l5.96-2.2c.9.88 1.85 1.7 2.85 2.45l-1.27 6.21c2.38 1.52 4.94 2.75 7.61 3.66l4.05-4.88c1.21.32 2.45.55 3.7.71l2 6.01c2.78.12 5.6-.08 8.42-.64l1.07-6.25c.89-.25 1.77-.54 2.65-.88.3-.11.6-.25.89-.37l4.75 4.22c2.55-1.33 4.89-2.92 6.98-4.75l-2.2-5.96c.88-.9 1.7-1.85 2.45-2.85l6.21 1.27c1.52-2.38 2.59-4.47 3.5-7.14l-4.73-4.52c.31-1.21.54-2.45.7-3.7zm-28.5 21.14c-12.5 3.62-25.61-3.6-29.23-16.1s3.6-25.61 16.1-29.22c12.49-3.62 25.6 3.61 29.22 16.1 3.63 12.5-3.59 25.61-16.09 29.22" fill="#ffffff" data-color="1"/>
    </g>
</svg>
