<?xml version="1.0" encoding="UTF-8"?>
<svg data-bbox="25.489 19.734 163.772 160.532" viewBox="0 0 214.74 200" xmlns="http://www.w3.org/2000/svg" data-type="color">
    <g>
        <path d="M125.86 118.51c1.89-.15 2.73-1.43 3.3-3.05 1.17-3.33 2.37-6.64 3.63-10.16 3.89.7 7.62 1.38 11.34 2.04 1.45.26 2.65-.22 3.51-1.41.83-1.14.86-2.39.25-3.65-.21-.43-.46-.85-.7-1.26-3.74-6.49-7.47-12.98-11.29-19.6.62-.33 1.15-.66 1.72-.92 6.44-2.91 9.08-11.01 5.48-17.1-.89-1.52-.92-2.8-.02-4.33 3.63-6.16.98-14.34-5.59-17.16-1.64-.71-2.37-1.77-2.5-3.52-.52-6.84-7.61-12.11-14.32-10.6-1.83.41-3.12.08-4.39-1.36-4.62-5.24-13.17-5.26-17.78-.03-1.26 1.43-2.53 1.82-4.38 1.4-6.78-1.55-13.81 3.72-14.37 10.7-.14 1.69-.88 2.7-2.46 3.38-6.64 2.86-9.26 11.01-5.57 17.29.83 1.4.86 2.62.02 4.04a12.18 12.18 0 0 0 5.49 17.33c.52.24 1.01.54 1.59.84-.32.59-.56 1.05-.83 1.5-3.6 6.26-7.2 12.53-10.82 18.78-.82 1.41-1.07 2.82-.09 4.22.97 1.37 2.32 1.69 3.97 1.37 3.6-.7 7.23-1.29 10.91-1.94 1.3 3.6 2.47 7.1 3.87 10.5.4.98 1.32 2 2.26 2.46 1.66.82 3.27-.02 4.37-1.92 3.14-5.42 6.25-10.85 9.41-16.26.24-.41.92-.98 1.2-.89 3.07 1.02 6.09.84 9.14-.2.35.59.66 1.08.95 1.59 2.97 5.15 5.96 10.28 8.89 15.45.91 1.53 1.94 2.62 3.81 2.47M97.62 97.2c-2.4 4.17-4.81 8.35-7.22 12.52-.23.41-.51.79-.86 1.34-1.1-3.05-2.12-5.92-3.16-8.78-.8-2.21-1.61-2.68-3.86-2.29-2.99.52-5.98 1.05-9.35 1.64 2.64-4.59 5.13-8.91 7.6-13.21 1.16 1.26 2.16 2.59 3.41 3.63 2.95 2.46 6.35 3.41 10.18 2.56.71-.16 1.5-.25 2.19-.07 1.61.41 1.89 1.23 1.07 2.66m15.15-4.91c-2.94 3.36-7.76 3.39-10.68.05-2.35-2.69-5.18-3.59-8.64-2.81-4.24.96-8.18-1.9-8.57-6.17-.33-3.59-2.07-6.07-5.43-7.47-3.85-1.61-5.45-6.41-3.3-9.96 1.87-3.1 1.93-6.11.08-9.24-2.24-3.8-.7-8.43 3.36-10.17 3.21-1.38 4.93-3.79 5.28-7.25.45-4.53 4.32-7.32 8.75-6.33 3.32.74 6.12-.13 8.37-2.72 3.01-3.46 7.84-3.43 10.9.06 2.22 2.52 4.98 3.39 8.24 2.68 4.56-1 8.34 1.72 8.84 6.39.36 3.38 2.03 5.82 5.2 7.12 3.06 1.25 4.28 3.68 4.5 7.39-.25.65-.55 1.85-1.14 2.89-1.74 3.03-1.75 5.97.03 8.97 2.25 3.79.76 8.51-3.26 10.2-3.22 1.36-5.21 3.75-5.27 7.21-.06 3.96-4.86 7.65-8.92 6.41-3.27-1.01-6.09.18-8.34 2.75m10.93 16.22c-2.11-3.66-4.25-7.31-6.31-11-.34-.6-.68-1.85-.44-2.02.74-.55 1.75-.97 2.67-1.01 1.79-.07 3.63.44 5.38.19 3.94-.57 6.77-2.96 8.92-6.43 2.57 4.47 5.07 8.8 7.72 13.41-3.43-.61-6.52-1.16-9.62-1.7-1.85-.32-2.78.2-3.45 2-1.1 2.96-2.16 5.93-3.32 9.15-.6-.99-1.09-1.79-1.55-2.59" fill="#ffffff" data-color="1"/>
        <path d="M89.1 159.38c-1.06-4.13-1.84-4.78-6.15-5.03.39-2.91.81-5.8 1.17-8.71.6-4.86.08-9.45-3.57-13.14-7.24-7.31-14.5-14.59-21.75-21.88-1.79-1.8-3.93-3.01-6.47-3.25-1.78-.17-3.58-.03-5.53-.03v-1.58c.07-9.12.17-18.23.19-27.35.02-6.24-4.61-11.02-10.57-11.03-5.96-.02-10.56 4.71-10.6 10.97-.11 15.98-.15 31.96-.33 47.94-.06 5.41 1.75 9.91 5.41 13.81 3.75 3.98 7.37 8.07 11.1 12.06 2.8 3.01 4.26 6.49 4.08 10.64-.04 1.03-.27 1.6-1.38 1.94-2.43.75-3.52 2.83-2.93 5.29.51 2.13 1.09 4.25 1.66 6.37.88 3.28 2.86 4.44 6.14 3.59 6.93-1.81 13.85-3.62 20.78-5.44 5.53-1.45 11.07-2.88 16.59-4.36 2.96-.8 4.16-2.86 3.44-5.84-.39-1.66-.85-3.31-1.28-4.97m-43.6-10.96c-3.6-4.03-7.26-8.02-10.96-11.97-2.7-2.88-3.96-6.19-3.91-10.19.18-15.92.23-31.85.33-47.77.02-3.54 2.34-6.03 5.52-5.97 3.13.06 5.39 2.53 5.37 5.99-.06 10.67-.14 21.34-.25 32.01-.01.64-.26 1.35-.6 1.91-2.84 4.65-2.31 10.3 1.49 14.22 3.72 3.85 7.53 7.62 11.31 11.41 1.45 1.45 2.93 1.56 4.07.36 1.08-1.13.95-2.58-.41-3.96-3.73-3.77-7.48-7.51-11.21-11.29-1.78-1.8-2.3-3.98-1.6-6.37.71-2.42 2.42-3.87 4.88-4.36 2.09-.42 3.97.18 5.46 1.66q11.085 11.07 22.08 22.23c2.19 2.22 2.35 5.1 2.03 7.98-.4 3.57-.92 7.12-1.48 10.66-.08.49-.59 1.18-1.02 1.3-8.2 2.21-16.42 4.35-24.64 6.49-.19.05-.41.01-.71.01 0-3.5-.5-6.89-2.37-9.88-1-1.57-2.14-3.08-3.38-4.47M48.38 175c-.49-1.86-.96-3.65-1.47-5.58 12.35-3.24 24.56-6.44 36.95-9.69.51 1.92.96 3.62 1.47 5.56-12.3 3.24-24.54 6.45-36.95 9.71" fill="#ffffff" data-color="1"/>
        <path d="M184.17 139.79c3.12-3.39 5.11-7.3 5.09-11.98-.06-16.73-.17-33.46-.3-50.2-.03-3.18-1.38-5.84-3.86-7.81-3.4-2.71-7.21-3.24-11.14-1.39-4.05 1.91-6.13 5.29-6.13 9.77-.01 9.17.11 18.34.18 27.51v2.11c-5.38-1.53-9.48.13-13.11 3.88-6.7 6.93-13.56 13.71-20.38 20.53-2.04 2.04-3.54 4.42-3.74 7.28-.2 2.81.03 5.65.23 8.47.15 2.15.54 4.29.83 6.46-3.96 0-5.05.83-6.01 4.42-.48 1.81-.97 3.62-1.41 5.44-.74 3.08.48 5.13 3.52 5.93 2.69.71 5.37 1.41 8.06 2.11 9.77 2.56 19.53 5.14 29.3 7.69 3.16.83 5.18-.36 6.04-3.54.57-2.12 1.14-4.24 1.66-6.37.62-2.56-.46-4.58-2.99-5.39-1.03-.33-1.24-.87-1.29-1.84-.21-4.29 1.35-7.82 4.24-10.9 3.78-4.02 7.47-8.13 11.21-12.18m-17.75 35.19c-12.33-3.23-24.54-6.43-36.95-9.68.49-1.86.95-3.63 1.46-5.58 12.34 3.24 24.55 6.44 36.95 9.7-.51 1.97-.97 3.71-1.46 5.56m2.21-25.84c-3.32 3.63-5.08 7.88-5.04 12.84 0 .26-.05.52-.1.94-2.38-.61-4.7-1.18-7.02-1.79-5.94-1.56-11.87-3.17-17.83-4.67-1.07-.27-1.47-.73-1.6-1.78-.41-3.4-.93-6.79-1.36-10.19-.47-3.73.51-6.84 3.33-9.57 6.84-6.64 13.49-13.47 20.19-20.25 1.64-1.66 3.53-2.63 5.89-2.22 2.46.42 4.21 1.83 4.98 4.25.78 2.45.25 4.68-1.56 6.52-3.49 3.55-7.02 7.07-10.53 10.6-.26.27-.53.53-.79.8-1.23 1.32-1.34 2.75-.29 3.84 1.11 1.16 2.56 1.07 3.96-.26.74-.7 1.44-1.44 2.16-2.16 2.91-2.93 5.82-5.84 8.72-8.78 4.38-4.44 5-9.64 1.84-15.07-.28-.47-.41-1.1-.42-1.65q-.15-16.005-.24-32.01c-.02-3.45 2.25-5.93 5.38-5.98 3.18-.05 5.49 2.44 5.51 5.98.1 16.03.17 32.06.32 48.09.04 3.69-1.12 6.81-3.6 9.5-3.95 4.31-7.92 8.67-11.9 13.02" fill="#ffffff" data-color="1"/>
        <path d="M145.82 43.81c1.11.06 2.23.01 3.62.01v1.96c0 6.91-.02 13.83.01 20.74.01 3 1.93 4.89 4.93 4.93 2.3.02 4.6.01 6.9 0 3.71-.01 5.51-1.79 5.51-5.51.01-6.75 0-13.51 0-20.26v-1.86c1.32 0 2.43.05 3.54-.01 3.31-.17 5.28-3.73 3.32-6.39-4.02-5.48-8.21-10.84-12.44-16.16-1.61-2.02-4.6-2.04-6.19-.03-4.23 5.32-8.42 10.68-12.45 16.15-1.96 2.66-.04 6.25 3.25 6.43m12.28-18.26c3.36 4.36 6.61 8.57 10.13 13.13-1.32 0-2.29-.01-3.27 0-2.42.04-3.3.91-3.3 3.31-.01 7.45 0 14.91 0 22.36v1.86h-7.07V42.52c0-3.12-.74-3.85-3.92-3.85h-2.68c3.46-4.48 6.72-8.71 10.11-13.12" fill="#ffffff" data-color="1"/>
        <path d="M44.79 43.83c1.04-.01 2.09 0 3.22 0v2.02c0 6.86-.02 13.72.01 20.58.01 3.09 1.94 4.99 5.03 5.02 2.35.02 4.71.01 7.06 0 3.41-.01 5.25-1.84 5.25-5.25.01-6.81 0-13.61 0-20.42v-1.94c1.23 0 2.19-.02 3.14 0 1.84.04 3.22-.7 4.04-2.36.79-1.61.5-3.13-.56-4.51-3.95-5.14-7.87-10.29-11.88-15.38-1.93-2.46-4.91-2.43-6.84.04-3.99 5.1-7.93 10.24-11.87 15.38-1.07 1.39-1.29 2.93-.49 4.52.78 1.59 2.12 2.32 3.89 2.3m11.9-18.28c3.36 4.36 6.61 8.57 10.13 13.13h-2.94c-2.84.02-3.66.82-3.66 3.62v23.92h-7.07V42.06c0-2.5-.87-3.35-3.4-3.38-.94-.01-1.87 0-3.17 0z" fill="#ffffff" data-color="1"/>
        <path d="M132.24 61.21c0-13.73-11.08-24.86-24.77-24.89-13.78-.03-24.91 11.09-24.91 24.9 0 13.7 11.12 24.9 24.76 24.94 13.72.04 24.92-11.17 24.92-24.95m-24.96 19.8C96.45 80.93 87.66 72 87.7 61.14c.04-10.96 8.93-19.74 19.9-19.67 10.76.07 19.51 8.93 19.5 19.75-.01 10.93-8.96 19.87-19.82 19.79" fill="#ffffff" data-color="1"/>
        <path d="M122.59 57.57c-.46-1.39-1.58-1.78-2.88-1.87-1.86-.14-3.73-.32-5.59-.4-.97-.04-1.54-.39-1.9-1.34-.71-1.9-1.43-3.82-2.38-5.6-.46-.87-1.44-1.47-2.51-2.51-1.03 1.04-1.94 1.64-2.38 2.49-.95 1.85-1.58 3.86-2.49 5.73-.26.54-1.02 1.07-1.61 1.16-1.95.28-3.94.34-5.91.5-1.25.1-2.29.52-2.74 1.83-.45 1.33.16 2.26 1.11 3.08 1.54 1.32 3.12 2.61 4.58 4.02.39.38.64 1.18.54 1.72-.36 2.05-.87 4.08-1.36 6.1-.29 1.21-.09 2.25.95 3 1.04.74 2.1.56 3.14-.09 1.72-1.07 3.44-2.17 5.23-3.12.53-.28 1.43-.29 1.96-.01 1.7.88 3.32 1.94 4.95 2.96 1.11.7 2.23 1.11 3.42.28 1.27-.88 1.21-2.14.89-3.46-.44-1.82-.79-3.66-1.31-5.46-.26-.91-.11-1.47.63-2.06 1.5-1.2 2.92-2.51 4.39-3.76 1-.84 1.74-1.77 1.27-3.19m-11.26 10.31c-2.65-2.21-5.14-2.38-7.79.02 1.15-3.12.87-5.65-2.66-7.21 1.83-.44 3.36-.43 4.38-1.16.98-.7 1.44-2.16 2.16-3.34.64 1.08 1.07 2.55 2.06 3.28 1.02.75 2.57.76 4.32 1.21-3.22 1.65-3.85 4.03-2.47 7.2" fill="#ffffff" data-color="1"/>
    </g>
</svg>
