<?xml version="1.0" encoding="UTF-8"?>
<svg id="Calque_1" xmlns="http://www.w3.org/2000/svg" version="1.1" viewBox="0 0 200 200">
  <!-- Generator: Adobe Illustrator 30.0.0, SVG Export Plug-In . SVG Version: 2.1.1 Build 123)  -->
  <defs>
    <style>
      .st0 {
        fill: #699e1e;
      }
    </style>
  </defs>
  <path class="st0" d="M162.2,6.76l-2.61,1.28c11.93,24.27,14.49,47.28,7.61,68.39-6.64,20.38-24.65,39.14-46.04,45.85.24-2.6.33-5.22.28-7.87-.44-20.54-9.74-38.05-25.51-48.03-11.63-7.37-27.09-4.45-34.46,6.5-4.6,6.84-5.36,15.11-2.18,23.93,4.65,12.93,17.2,25.02,29.83,28.76,9.73,2.88,19.43,2.95,28.59.87-2.59,16.13-11.05,30.51-23.49,39.15-12.91,8.97-32.71,12.66-48.12,9.37l7.04-10.38-28.9-2.09,12.64,26.08,7.46-11c4.23,1,8.79,1.49,13.48,1.49,13.41,0,27.82-3.95,38.06-11.07,13.4-9.31,22.41-24.92,24.89-42.32,22.9-6.47,41.99-26.23,49.19-48.32,7.12-21.85,4.51-45.6-7.77-70.58ZM118.16,123.13c-9.07,2.33-18.67,2.46-28.21-.36-11.62-3.44-23.62-15.03-27.92-26.95-1.99-5.52-3.28-13.7,1.86-21.33,4.06-6.03,10.92-9.29,18.02-9.29,4.26,0,8.6,1.17,12.47,3.62,14.93,9.46,23.74,26.09,24.16,45.64.06,2.92-.07,5.81-.38,8.66Z"/>
</svg>