<?xml version="1.0" encoding="UTF-8"?>
<svg data-bbox="-475.97 -285.01 4066.36 2059.47" viewBox="0 0 1281.72 709.66" xmlns="http://www.w3.org/2000/svg" data-type="ugc">
    <g>
        <path fill="none" stroke="#589cff" stroke-width=".463" stroke-miterlimit="10" d="m3331.3-218.98 259.09 151.65-128.59 248.47-375.98-336.97-276.57-70.41-71.07 262.62 215.08 219.74-236.79 106.31-336.82 151.23 107.13-483.27-382.35 230.97-64.61-203.91-265.25-222.52-331.56-83.34-277.93-35.38 310.37 259.08 252.42 412.86-471.67 288.57-348.55 213.24-246.51 81.13-13.71-358.24-5.72-149.24 739.38 65.24 55.44-362.51-374.59 355.68-108.33 102.86 245.11-49.91-200.26 447.65-88.8-135.48-159.3-267.83 347.13-164.3-153-42.86 100.38-328.53-172.08-55.36-153.73 211.25L895.93 345.2 613.21-102.45 438.43 85.69l4.09 535.35 197.76-156.25-160.19-66.38-236.5-319.5-566.78-324.89-152.78 133.5 154.26 239.86 302.1-156.9-96.35 538.56 389.32 18.76 30.38-176.26-311.47 300.3 667.91 319.34-121.96-254.02-389.13 40.49L34.33 957.89l405.87 440.78-202.24-476.03 246.85 28.08 141.82 181.1-271.84 110.82-96.41-90.13-110.88 174.62 609.27-4.57 35.35 235.59-349.68-158.35-28.02 374.66-265.07-446.16"/>
        <path fill="none" stroke="#589cff" stroke-width=".463" stroke-miterlimit="10" d="M1727.87 388.15 1380.1 527.33 1044.87 83.62l429.34-107 630.22 284.74-376.56 126.79-778.77 21.67-76.31-381.56L617-101.34l550.66-183.67-122.89 366.63L894.05 343.6 641.71 463.61l77.35-224.1-415.32 112.03L438.43 85.69l-554.39 423.35L-5.64 650.95l447.37-31.22-137.99-268.19 176.85 44.94-205.9 128.14 365.59-59.83 110.08 154.52 203.25 5.57-293.43 346.3 336.91 46.33-116.3 147.63-124.02 157.42-401.98-79.92 130.8-289.02-226.64 203.17"/>
        <path fill="none" stroke="#589cff" stroke-width=".463" stroke-miterlimit="10" d="m1203.33 572.64 176.77-45.31L876.3 28.32l77.31 596.56 44.85 397.74-460.16-308.4-96.57-94.49-167.04-95.11 210.9 429-601.55-444.58L34.33 957.89l112.14 371.87 293.73 68.91 316.57-76.11-130.14-190.74-363.38 21.48-227.8-191.23 206.15-38.9-92.51-165.52 123.83-233.67-292.53-553.5L248.51 77.73l364.7-180.18-936.4-143.53 2.46 376.47 207.82 380.17"/>
        <path fill="none" stroke="#589cff" stroke-width=".463" stroke-miterlimit="10" d="M3460.22 181.2 2738.18 36.38l-251.4-5.99-446.96 27.06-564.37-82.16-32.44-223.7-398.14 332.03 391.66 82.72-339.04 288.67-199.25-110.98-417.65 52.45 238.47-156.97L439.3 87.85l-193.36-9.94-361.9 431.13 419.7-157.5L-19.61-29.52l-456.36-82.96"/>
        <path d="M441.23 612.99c9.98-1.88 13.49 11.12 3.49 13-9.98 1.89-13.49-11.11-3.49-13" fill="#589cff"/>
        <path d="M442.4 617.33c-1.92.36-2.01 1.61-1.74 2.6s.99 2.1 2.91 1.73c1.04-.2 1.39-.57 1.56-.84.29-.45.36-1.11.18-1.76-.27-.99-.99-2.1-2.91-1.73" fill="#eef5ff"/>
        <path d="M-8.64 645.18c9.98-1.88 13.49 11.12 3.49 13-9.98 1.88-13.49-11.12-3.49-13" fill="#589cff"/>
        <path d="M301.16 345.19c9.98-1.88 13.49 11.12 3.49 13-9.98 1.89-13.49-11.11-3.49-13" fill="#589cff"/>
        <path d="M302.32 349.53c-1.92.36-2 1.61-1.74 2.6.27.99.99 2.1 2.9 1.73 1.04-.2 1.39-.57 1.56-.84.29-.45.36-1.11.18-1.76-.26-.99-.98-2.09-2.9-1.73" fill="#eef5ff"/>
        <path d="M271.51 517.66c9.98-1.88 13.49 11.12 3.49 13-9.98 1.89-13.49-11.11-3.49-13" fill="#589cff"/>
        <path d="M272.68 522c-1.92.36-2.01 1.61-1.74 2.6s.99 2.1 2.91 1.73c1.92-.36 2-1.61 1.74-2.6-.27-.99-.99-2.1-2.91-1.73" fill="#eef5ff"/>
        <path d="M535.27 709.42c9.98-1.88 13.49 11.12 3.49 13-9.99 1.89-13.5-11.11-3.49-13" fill="#589cff"/>
        <path d="M637.84 457.32c9.98-1.88 13.49 11.12 3.49 13-9.98 1.89-13.49-11.11-3.49-13" fill="#589cff"/>
        <path d="M639.01 461.66c-1.92.36-2.01 1.61-1.74 2.6s.99 2.1 2.91 1.73c1.04-.2 1.39-.57 1.56-.84.29-.45.36-1.11.18-1.76-.27-.99-.99-2.09-2.91-1.73" fill="#eef5ff"/>
        <path d="M478.48 390.78c9.98-1.88 13.49 11.12 3.49 13-9.99 1.89-13.5-11.11-3.49-13" fill="#589cff"/>
        <path d="M479.64 395.12c-1.92.36-2 1.61-1.74 2.6.27.99.99 2.1 2.9 1.73 1.04-.2 1.39-.57 1.56-.84.29-.45.36-1.11.18-1.76-.26-.99-.98-2.09-2.9-1.73" fill="#eef5ff"/>
        <path d="M747.6 612.27c9.98-1.88 13.49 11.12 3.49 13-9.98 1.89-13.5-11.11-3.49-13" fill="#589cff"/>
        <path d="M748.76 616.61c-1.92.36-2.01 1.61-1.74 2.6s.99 2.1 2.91 1.73c1.04-.2 1.39-.57 1.56-.84.29-.45.36-1.11.18-1.76-.27-.99-.99-2.09-2.91-1.73" fill="#eef5ff"/>
        <path d="M893.62 336.6c9.98-1.88 13.49 11.12 3.49 13-9.98 1.89-13.49-11.11-3.49-13" fill="#589cff"/>
        <path d="M894.79 340.94c-1.92.36-2.01 1.61-1.74 2.6s.99 2.1 2.91 1.73c1.04-.2 1.39-.57 1.56-.84.29-.45.36-1.11.18-1.76-.27-.99-.99-2.09-2.91-1.73" fill="#eef5ff"/>
        <path d="M719.16 233.39c9.98-1.88 13.49 11.12 3.49 13-9.98 1.88-13.49-11.12-3.49-13" fill="#589cff"/>
        <path d="M720.33 237.72c-1.92.36-2.01 1.61-1.74 2.6s.99 2.1 2.91 1.73c1.04-.2 1.39-.57 1.56-.84.29-.45.36-1.11.18-1.76-.27-.99-.99-2.09-2.91-1.73" fill="#eef5ff"/>
        <path d="M945.69 403.63c9.98-1.88 13.49 11.12 3.49 13-9.98 1.89-13.49-11.11-3.49-13" fill="#589cff"/>
        <path d="M946.86 407.96c-1.92.36-2.01 1.61-1.74 2.6s.99 2.1 2.91 1.73c1.04-.2 1.39-.57 1.56-.84.29-.45.36-1.11.18-1.76-.28-.98-.99-2.09-2.91-1.73" fill="#eef5ff"/>
        <path d="M952.77 615.28c9.98-1.88 13.49 11.12 3.49 13-9.98 1.88-13.49-11.12-3.49-13" fill="#589cff"/>
        <path d="M953.94 619.61c-1.92.36-2.01 1.61-1.74 2.6s.99 2.1 2.91 1.73c1.04-.2 1.39-.57 1.56-.84.29-.45.36-1.11.18-1.76-.27-.99-.99-2.09-2.91-1.73" fill="#eef5ff"/>
        <path d="M1093.89 448.12c9.98-1.88 13.49 11.12 3.49 13-9.98 1.89-13.49-11.11-3.49-13" fill="#589cff"/>
        <path d="M1095.06 452.46c-1.92.36-2.01 1.61-1.74 2.6s.99 2.1 2.91 1.73c1.04-.2 1.39-.57 1.56-.84.29-.45.36-1.11.18-1.76-.27-.99-.99-2.09-2.91-1.73" fill="#eef5ff"/>
        <path d="M1196.6 567.08c9.98-1.88 13.49 11.12 3.49 13-9.98 1.88-13.49-11.12-3.49-13" fill="#589cff"/>
        <path d="M1197.76 571.41c-1.92.36-2.01 1.61-1.74 2.6s.99 2.1 2.91 1.73c1.04-.2 1.39-.57 1.56-.84.29-.45.36-1.11.18-1.76-.27-.99-.99-2.09-2.91-1.73" fill="#eef5ff"/>
        <path d="M872.06 22.29c9.98-1.88 13.49 11.12 3.49 13-9.98 1.89-13.49-11.11-3.49-13" fill="#589cff"/>
        <path d="M873.22 26.63c-1.92.36-2.01 1.61-1.74 2.6s.99 2.1 2.91 1.73c1.92-.36 2-1.61 1.74-2.6-.27-.99-.99-2.09-2.91-1.73" fill="#eef5ff"/>
        <path d="M436.96 80.24c9.98-1.88 13.49 11.12 3.49 13-9.98 1.88-13.49-11.12-3.49-13" fill="#589cff"/>
        <path d="M438.12 84.57c-1.92.36-2.01 1.61-1.74 2.6s.99 2.1 2.91 1.73c1.04-.2 1.39-.57 1.56-.84.29-.45.36-1.11.18-1.76-.27-.99-.99-2.09-2.91-1.73" fill="#eef5ff"/>
        <path d="M1043.58 75.56c9.98-1.88 13.49 11.12 3.49 13-9.98 1.89-13.49-11.11-3.49-13" fill="#589cff"/>
        <path d="M1044.74 79.9c-1.92.36-2.01 1.61-1.74 2.6s.99 2.1 2.91 1.73c1.04-.2 1.39-.57 1.56-.84.29-.45.36-1.11.18-1.76-.27-.99-.99-2.09-2.91-1.73" fill="#eef5ff"/>
        <path d="M245.17 71.78c9.98-1.88 13.49 11.12 3.49 13-9.99 1.89-13.5-11.11-3.49-13" fill="#589cff"/>
        <path d="M246.33 76.11c-1.92.36-2.01 1.61-1.74 2.6s.99 2.1 2.91 1.73c1.04-.2 1.39-.57 1.56-.84.29-.45.36-1.11.18-1.76-.27-.98-.99-2.09-2.91-1.73" fill="#eef5ff"/>
        <path fill="none" stroke="#589cff" stroke-width=".463" stroke-miterlimit="10" d="M1727.87 388.15 1256.2 676.72 907.65 889.96"/>
        <path fill="none" stroke="#589cff" stroke-width=".463" stroke-miterlimit="10" d="m1436.53 166.34-374.59 355.68-108.33 102.86"/>
        <path fill="none" stroke="#589cff" stroke-width=".463" stroke-miterlimit="10" d="m661.14 971.09-13.71-358.24-5.72-149.24"/>
    </g>
</svg>
