<?xml version="1.0" encoding="UTF-8"?>
<svg data-bbox="45.43 5.996 224.872 276.334" viewBox="0 0 309 288" xmlns="http://www.w3.org/2000/svg" data-type="color">
    <g>
        <path d="M113.07 44.89c2.57 1.1 5.1 1.87 7.3 3.19 3.15 1.89 5.73 1.38 8.84-.31 3.65-1.98 7.7-3.3 11.67-4.61 1.92-.63 3.05-1.56 3.68-3.45.86-2.55 1.72-5.14 3-7.48.57-1.04 2.11-2.13 3.26-2.18 5.09-.23 10.2-.22 15.29-.01 1.08.04 2.86 1.13 3.04 2.01 1.62 7.74 6.09 12.34 13.98 13.54.38.06.79.24 1.09.48 5.45 4.19 10.92 3.76 16.42.12 2.31-1.53 4.09-1.05 5.97 1.02 3.15 3.47 6.56 6.71 9.94 9.97 1.27 1.23 1.7 2.49.7 3.96-4.32 6.35-4.36 12.61.17 18.9.62.86 1.01 2 1.16 3.06.77 5.45 4.24 7.82 9.23 9.43 5.9 1.91 5.16.78 5.19 7.53.02 3.89-.07 7.79.03 11.68.05 1.95-.46 3.38-2.51 3.78-7.25 1.42-11.77 5.47-12.93 12.98-.19 1.24-.81 2.53-1.58 3.53-3.24 4.21-2.49 8.16-.24 12.66 3.1 6.19 3.15 4.5-1.69 9.49-2.71 2.79-5.57 5.45-8.25 8.28-1.31 1.38-2.62 1.76-4.22.72-6.15-4.02-12.2-4.48-18.39.06-1.47 1.08-3.45 1.7-5.29 2-3.87.64-5.45 3.04-6.75 6.5-3.36 8.91-1.01 7.03-10.34 7.23-3.3.07-6.6-.06-9.9.04-1.86.06-3.18-.47-3.55-2.39-1.42-7.4-5.72-11.8-13.24-13.1-1.43-.25-2.92-.95-4.07-1.84-3.67-2.82-7.06-2.19-11.03-.33-7.65 3.59-5.16 3.8-11.2-1.99-2.6-2.49-5.05-5.12-7.66-7.6-1.29-1.22-1.68-2.5-.7-3.97 4.17-6.24 4.41-12.38-.06-18.65-1.01-1.41-1.58-3.28-1.85-5.02-.61-3.84-2.9-5.52-6.43-6.83-9.03-3.33-7.19-.93-7.39-10.5-.07-3.29.05-6.59-.03-9.88-.04-1.73.49-2.99 2.25-3.35 7.45-1.51 12.13-5.67 13.29-13.41.17-1.14.74-2.34 1.45-3.26 3.28-4.2 2.48-8.15.23-12.64-3.1-6.18-3.09-4.57 1.71-9.49 2.72-2.79 5.49-5.52 8.28-8.25.64-.6 1.39-1.06 2.13-1.62m45.22 18.89c-22.66.06-40.75 18.18-40.71 40.79.04 22.49 18.43 40.8 40.89 40.73 22.48-.07 40.75-18.42 40.72-40.91-.02-22.53-18.28-40.67-40.9-40.61" fill="#699e1e" data-color="1"/>
        <path d="M63.04 78.26c-.09 3.21-.46 5.26-4.06 6.04-4.83 1.04-7.53 4.65-8.16 9.61-.15 1.18-.13 2.39-.13 3.59q-.015 50.31 0 100.62c0 9.6 3.81 13.39 13.46 13.39h187.47c9.42 0 13.29-3.86 13.29-13.27V97.32c0-7.66-1.92-10.24-8.94-13.53-1.35-.63-1.87-3.04-2.77-4.62.22-.25.44-.51.65-.76 1.12.13 2.27.13 3.35.41 7.33 1.84 12.68 8.23 12.88 15.79.2 7.28.09 14.57.09 21.86.01 31.84-.24 63.69.13 95.53.13 11.88-8.07 19.73-19.74 19.68-62.19-.25-124.38-.11-186.57-.12-9.23 0-16.01-4.94-18.04-13.18-.35-1.44-.49-2.96-.49-4.44-.03-39.33-.05-78.66 0-117.99.01-8.55 5.24-15.28 13.1-17.16 1.39-.36 2.87-.36 4.48-.53" fill="#699e1e" data-color="1"/>
        <path d="M81.63 282.32c0-4.68-.36-9.19.1-13.6.47-4.54 5.36-8.43 10.89-9.37 1.76-.3 3.58-.39 5.37-.39 39.88-.02 79.76-.05 119.64.05 2.93.01 6.03.46 8.76 1.5 5.11 1.94 8.01 5.75 7.84 11.51-.1 3.37-.02 6.74-.02 10.31-50.98-.01-101.61-.01-152.58-.01" fill="#699e1e" data-color="1"/>
        <path d="M103.77 169.47c-2.68 0-5.36-.11-8.03.03-3.85.2-5.62 2.56-4.64 6.26 1.33 5.01 2.8 9.99 4.27 14.96 1.01 3.45 3.13 4.97 5.76 4.25 2.72-.74 3.76-2.99 2.99-6.47-.1-.47-.17-.95-.36-2.05 12.67 7.98 25.89 13.24 40.19 15.99H64.03c-4.08 0-4.21-.13-4.21-4.21v-81.46c2.36 7.93 4.68 16.45 7.48 24.81 1.32 3.94 3.46 7.63 5.4 11.33 1.63 3.1 4.19 4 6.61 2.63 2.4-1.36 2.95-3.99 1.24-7.04-9.07-16.25-12.86-33.62-11.2-52.16.1-1.08.28-2.15.44-3.39h4.92v17.83c.01 7.94 1.82 10.94 9.2 13.48 3.48 1.2 5.01 3.27 6.51 6.49 2.42 5.19 3.24 9.68.26 15.04-2.28 4.09-.85 8.41 2.52 11.76 3.67 3.64 7.45 7.18 11.18 10.77-.21.38-.41.76-.61 1.15" fill="#699e1e" data-color="1"/>
        <path d="M172.34 202.24c44.4-9.07 71.82-35.24 83.14-79.03.14 1.16.3 1.86.3 2.56.01 24.35-.02 48.69.05 73.04.01 2.71-.89 3.68-3.64 3.67-25.59-.07-51.17-.04-76.76-.05-.85 0-1.71-.1-3.09-.19" fill="#699e1e" data-color="1"/>
        <path d="M213.01 22.44c-.32-1.68-.6-2.64-.68-3.61-.19-2.4.85-4.11 3.19-4.77 2.33-.65 4.47.14 5.19 2.38 1.92 5.98 3.65 12.03 5.11 18.13.61 2.54-1.36 4.68-4.13 4.83-5.79.33-11.59.54-17.38.62-2.81.04-4.6-1.91-4.58-4.47.01-2.44 1.68-4.2 4.35-4.43 1.28-.11 2.59-.02 4.18-.62-.82-.59-1.61-1.22-2.46-1.76C166.82 4.19 114.29 13.9 86.94 50.89c-3.66 4.94-6.54 10.48-9.53 15.89-.96 1.74-1.86 2.56-3.87 2.41-2.16-.17-4.34-.04-7.19-.04 12.25-29.16 32.67-48.81 62.27-58.28 29.58-9.47 57.6-4.89 84.39 11.57" fill="#699e1e" data-color="1"/>
        <path d="M108.75 178.3c.98-.14 1.72-.34 2.46-.34 3.31.02 5.68-1.05 5.92-4.81.03-.41.37-1.01.73-1.16 3.28-1.38 6.03-3.24 10.3-1.39 5.64 2.45 10.08 4.93 11.87 11.4 1.1 3.98 4.92 5.93 9.2 5.99 6.09.09 12.19.11 18.29 0 4.81-.09 8.39-2.58 9.79-7.04 1.57-4.98 4.41-7.66 9.38-9.5 4.27-1.59 7.62-1.97 11.74.14 5.25 2.69 9.38 1.65 13.62-2.51 3.7-3.64 7.38-7.31 11.03-11 4.12-4.17 5.22-8.43 2.54-13.59-2.19-4.22-1.72-7.66-.04-11.98 1.83-4.7 4.27-7.52 9.11-9 5.01-1.54 7.4-5.51 7.41-10.78.01-6.56 0-13.12 0-19.81h4.64c4.52 26.55-5.31 66.15-42.6 88.18-33.72 19.89-73.04 14.08-95.39-2.8" fill="#699e1e" data-color="1"/>
        <path d="M188.37 240.82v8.85h-61.03v-8.85z" fill="#699e1e" data-color="1"/>
        <path d="M250.62 69.12c-3.54 0-6.29.06-9.04-.05-.54-.02-1.28-.58-1.55-1.1-1.55-2.89-3.1-5.8-4.44-8.8-1.03-2.3-.35-4.33 1.83-5.67 2.04-1.25 4.75-.72 6 1.52 2.45 4.4 4.6 8.97 7.2 14.1" fill="#699e1e" data-color="1"/>
        <path d="M89.83 78.23c-1.01 5.16-1.37 5.47-5.93 5.48-4.04.01-8.08 0-12.15 0 .48-5.48.48-5.48 5.39-5.48z" fill="#699e1e" data-color="1"/>
        <path d="M227.24 78.25c5.05 0 10.13-.28 15.14.2 1.24.12 2.24 2.73 3.35 4.19-.24.27-.47.55-.71.82-5.08 0-10.19.27-15.23-.19-1.24-.12-2.26-2.64-3.38-4.06.29-.32.56-.64.83-.96" fill="#699e1e" data-color="1"/>
        <path d="M136.57 103.31c-.2 11.52 8.02 21.48 19.4 23.58 1.34.25 3.19.46 3.8 1.36.93 1.39 1.56 3.47 1.25 5.05-.42 2.15-2.51 2.96-4.74 2.7-8.52-1.02-15.59-4.84-21.1-11.34-5.59-6.6-8.07-14.35-7.55-23 .23-3.76 2-5.62 4.93-5.39 2.79.22 4.22 2.27 4.09 5.85-.02.4-.06.79-.08 1.19" fill="#699e1e" data-color="1"/>
        <path d="M157.94 73.08c7.27.22 13.5 2.08 19.07 5.95 2.94 2.04 3.66 4.48 2.11 6.82-1.54 2.32-4.18 2.59-7.11.74-11.41-7.24-22.95-5.7-32.04 4.27-2.19 2.4-4.78 2.82-6.83 1.11-2.08-1.73-2.17-4.38-.11-6.89 6.58-7.99 15.2-11.67 24.91-12" fill="#699e1e" data-color="1"/>
        <path d="M190 103.03c-.82 14.56-6.36 24.22-17.53 30.44-3.18 1.77-5.9 1.21-7.24-1.32-1.28-2.44-.27-4.77 2.83-6.53 11.31-6.43 15.45-18.07 10.76-30.24-1.24-3.22-.42-5.74 2.2-6.76 2.51-.98 5.04.15 6.04 3.27 1.37 4.22 2.29 8.59 2.94 11.14" fill="#699e1e" data-color="1"/>
        <path d="M169.28 104.45c.01 5.94-4.86 10.91-10.77 11-6.01.09-11.02-4.96-10.99-11.05.03-5.98 4.93-10.85 10.89-10.82 5.98.02 10.86 4.91 10.87 10.87" fill="#699e1e" data-color="1"/>
    </g>
</svg>
