<?xml version="1.0" encoding="UTF-8"?>
<svg data-bbox="24.313 18.741 151.431 168.649" viewBox="0 0 200 200" xmlns="http://www.w3.org/2000/svg" data-type="color">
    <g>
        <path d="M84.84 187.38c-1.5-.79-2.47-1.93-1.97-3.7s1.94-2.14 3.63-2.12c4.48.05 8.96.02 13.55.02v-11.87c-33.49-5.16-57.92-22.53-69.92-54.54C18.14 83.16 25.08 54 47.32 27.61c-.62-.45-1.49-.93-2.15-1.61-1.22-1.29-1.15-2.97.03-4.1 1.1-1.06 2.81-1.15 4 .02 4.81 4.74 9.55 9.54 14.33 14.32-1.35 1.37-2.65 2.7-3.97 4.05-2.67-2.69-5.3-5.33-8.16-8.21-16.91 19.2-24.25 41.25-19.85 66.21 5.53 31.32 23.95 52.65 54.28 62.18 28.32 8.89 53.91 2.12 76.44-17.11-2.85-2.8-5.52-5.41-8.12-7.96 1.58-1.55 2.93-2.87 4.33-4.25 4.55 4.55 9.31 9.27 14.01 14.04 1.27 1.29 1.22 2.96.09 4.12-1.19 1.23-2.82 1.21-4.24-.1-.62-.58-1.17-1.23-1.89-2-8.27 7.64-17.54 13.43-27.94 17.35-10.42 3.92-21.23 5.59-32.44 5.38v11.65h13.59c2.11.01 3.3.67 3.63 2.11.41 1.79-.47 2.93-2 3.69-12.15-.01-24.3-.01-36.45-.01" fill="#ffffff" data-color="1"/>
        <path d="M64.76 89.77c8.05-6.86 15.9-13.54 23.69-20.16 5.21 5.22 10.6 10.63 15.82 15.86-8.02 8.03-16.18 16.18-24.42 24.43-5.74-6.02-10.92-12.84-15.09-20.13" fill="#ffffff" data-color="1"/>
        <path d="M104.77 129.78c-7.31-4.2-14.14-9.38-20.29-15.24l24.42-24.42 15.99 16.02c-6.55 7.71-13.26 15.59-20.12 23.64" fill="#ffffff" data-color="1"/>
        <path d="M113.05 41.47c7.26 4.14 14.08 9.32 20.21 15.16-8.2 8.21-16.33 16.34-24.34 24.35-5.21-5.23-10.63-10.66-15.92-15.97 6.52-7.64 13.2-15.48 20.05-23.54" fill="#ffffff" data-color="1"/>
        <path d="M153.01 81.53c-8 6.81-15.84 13.48-23.58 20.08l-15.94-15.94 24.33-24.33c3.93 3.34 12.85 15.21 15.19 20.19" fill="#ffffff" data-color="1"/>
        <path d="M61.76 84.2c-5-10.94-8.5-21.97-6.22-34.05.65-3.43 1.98-6.6 4-9.29 8.12 8.13 16.21 16.21 24.43 24.44-6.74 6.64-14.03 13.06-22.21 18.9" fill="#ffffff" data-color="1"/>
        <path d="M109.95 132.58c6.51-7.61 12.81-14.97 18.99-22.2 8.39 8.4 16.51 16.52 24.66 24.68-3.16 2.34-7.01 3.73-11.17 4.28-11.36 1.5-21.75-1.8-32.48-6.76" fill="#ffffff" data-color="1"/>
        <path d="M64.16 36.24c3.58-2.65 7.8-3.98 12.3-4.49 9.88-1.12 21.9 2.08 30.92 6.85-5.64 8-12.11 15.23-18.77 22.08-8.14-8.13-16.22-16.22-24.45-24.44" fill="#ffffff" data-color="1"/>
        <path d="M133.98 105.81c6.75-6.56 13.96-13 22.3-18.9 1.59 4.4 3.28 8.53 4.57 12.77 2.18 7.19 2.96 14.54 1.32 21.98-.7 3.18-1.96 6.14-3.75 8.55-8.12-8.09-16.23-16.19-24.44-24.4" fill="#ffffff" data-color="1"/>
        <path d="M137.81 52.21c-7.19-5.42-14.38-10.83-21.42-16.13 2.36-4.93 4.87-10.18 7.47-15.61 11.24 2.54 21.34 7.84 29.98 15.66C148.4 41.59 143 47 137.81 52.21" fill="#ffffff" data-color="1"/>
        <path d="M158.47 40.76c7.77 8.58 13.03 18.66 15.61 29.93-5.38 2.57-10.66 5.1-15.61 7.46-5.33-7.08-10.74-14.26-16.07-21.33 5.15-5.15 10.55-10.55 16.07-16.06" fill="#ffffff" data-color="1"/>
        <path d="M63.96 135.11c5.56-5.55 10.97-10.95 16.07-16.05 7.11 5.36 14.3 10.77 21.41 16.12-2.35 4.9-4.87 10.13-7.49 15.6-11.16-2.52-21.26-7.78-29.99-15.67" fill="#ffffff" data-color="1"/>
        <path d="M75.57 114.62c-5.12 5.12-10.5 10.49-16.04 16.03-7.93-8.66-13.17-18.77-15.78-30.08 5.36-2.57 10.64-5.09 15.62-7.48 5.32 7.09 10.73 14.28 16.2 21.53" fill="#ffffff" data-color="1"/>
        <path d="M48.81 56.73c.11 10.87 3.34 20.88 8.2 30.97-4.69 2.32-9.36 4.62-14.32 7.07-1.68-13.67.3-26.16 6.12-38.04" fill="#ffffff" data-color="1"/>
        <path d="M169.08 114.34c-.28-10.76-3.39-20.73-8.13-30.47 4.4-2.85 8.97-5.25 14.22-6.95 1.69 13.17-.35 25.57-6.09 37.42" fill="#ffffff" data-color="1"/>
        <path d="M138.14 145.51c-7.55 5.24-27.08 8.41-38.27 6.21 2.34-4.77 4.61-9.41 6.79-13.85 5.36 1.93 10.29 3.9 15.35 5.47 5.1 1.58 10.4 2.31 16.13 2.17" fill="#ffffff" data-color="1"/>
        <path d="M110.71 33.6c-9.75-4.75-19.73-7.86-30.58-7.94 4.87-4.73 28.72-8.64 37.41-6.14-1.5 5.02-3.99 9.53-6.83 14.08" fill="#ffffff" data-color="1"/>
    </g>
</svg>
