<?xml version="1.0" encoding="UTF-8"?>
<svg data-bbox="20.675 10.639 173.393 173.291" viewBox="0 0 214.74 200" xmlns="http://www.w3.org/2000/svg" data-type="color">
    <g>
        <path d="M191.91 135.54c-2.38-1.06-2.77-2.76-2.64-5.34.05-.99-.09-2-.4-2.85-.52-1.41-.21-2.33 1.15-3.51 2.13-1.85 2.49-4.03 1.1-6.66-.58-1.09-1.17-2.16-1.77-3.24l-.81-1.46c-2.17-3.94-3.49-4.52-7.84-3.47-.83.2-1.22.1-1.75-.43-1.22-1.22-2.67-2.61-4.32-3.55-1.35-.77-1.77-1.58-1.66-3.2.24-3.55-1.49-4.82-4.16-5.64l-3.65-1.12c.12-.36.23-.7.34-1.03 4.98-14.82 4.62-29.3-1.07-43.03-6.63-16-19.73-28.44-35.94-34.11-16.32-5.71-34.46-4.14-49.78 4.32-.1.05-.21.12-.32.18-.11.07-.29.17-.42.24-1.3-.68-2.63-1.42-3.69-2.31-.1-.18-.12-.85-.12-1.21 0-.17-.01-.33-.01-.48-.16-3.25-1.39-4.74-4.55-5.5-1.15-.28-2.31-.54-3.47-.81l-1.74-.4c-3.36-.78-5-.05-6.52 2.88-.65 1.26-1.17 1.62-2.28 1.57-1.56-.06-3.24.2-4.75.74-1.3.46-2.07.26-3.15-.85-2.05-2.1-3.98-2.31-6.66-.72-1.04.62-2.07 1.25-3.1 1.89l-1.17.72c-3.64 2.24-4.17 3.61-2.95 7.73.22.75.16 1.08-.31 1.6-1.09 1.2-2.31 2.61-3.12 4.2-.69 1.36-1.44 1.8-2.96 1.73-2.77-.13-4.46 1.21-5.18 4.08-.3 1.22-.58 2.44-.86 3.66l-.28 1.21c-.99 4.3-.41 5.59 3.44 7.68.62.34.8.63.84 1.4.1 1.78.24 3.51.77 5.16.42 1.33.2 2.14-.89 3.21-2.09 2.07-2.29 4-.71 6.67.6 1 1.21 2 1.82 3l.69 1.12c2.31 3.76 3.7 4.31 7.84 3.09.7-.21 1.05-.13 1.63.37 1.33 1.13 2.9 2.41 4.62 3.36.94.52 1.23 1.01 1.19 2.04-.05 1.61.13 3.9 2.37 5.08.95.5 2.07.86 3.33 1.07.53.09.64.2.75.78 1.85 9.85 6.01 18.77 12.71 27.28 3.52 4.46 6.09 9.62 7.65 15.33.55 2.02.93 4.05 1.34 6.21l.33 1.74c-6.62.11-10.37 2.71-11.43 7.94-.7 3.44 0 8.11 6.95 11.34-1.81 2.69-2.17 5.82-.93 8.59 1.38 3.08 4.51 5.11 7.95 5.16 1.02.01 2.17.21 3.6.61.27.08.66.41.72.59.7 1.93 1.31 3.9 1.81 5.85.88 3.48 3.17 5.5 6.81 6 2.63.36 5.26.75 7.89 1.15 1.42.21 2.84.43 4.26.63.48.07.94.11 1.39.11 2.59 0 4.66-1.17 6.16-3.48.49-.76 1-1.51 1.51-2.26.69-1.03 1.38-2.05 2.04-3.1.42-.66.56-.7 1.07-.58 1.27.3 2.56.46 3.81.61l1.04.13c2.34.31 4.64-.23 6.45-1.53 1.86-1.33 3.04-3.32 3.35-5.61.17-1.25-.03-2.5-.21-3.71l-.06-.42c3.03-.01 5.71-1.31 7.86-3.82.44.37.86.72 1.37.98 2.04 1.02 2.76 2.32 2.48 4.46-.28 2.16 1.06 3.97 3.5 4.73 1.81.57 3.65 1.1 5.44 1.61l.56.16c3.7 1.07 5.41.39 7.33-2.9.62-1.06 1.11-1.36 2.15-1.31 1.96.1 3.73-.07 5.26-.5 1.4-.39 2.23-.11 3.29 1.09 2.02 2.29 4.1 2.61 6.95 1.07.49-.26.98-.52 1.48-.77 1.41-.73 2.87-1.48 4.21-2.42 1.15-.81 2.15-2.14 2.61-3.46.42-1.23-.02-2.68-.34-3.74-.23-.75-.14-1.09.44-1.68 1.28-1.29 2.61-2.69 3.54-4.33.76-1.34 1.57-1.76 3.2-1.65 3.02.21 4.68-.99 5.6-4 .61-2 1.26-4.16 1.85-6.36.74-2.66.03-4.76-1.87-5.6m-17.56 23.4c.13.6.26 1.11.36 1.54.17.7.35 1.42.3 1.58-.09.16-.78.53-1.44.89-.37.2-.81.44-1.31.72l-.46.25c-1.68.93-2.71 1.48-3.32 1.42-.6-.06-1.41-.76-2.88-2.02l-.15-.13c-.93-.8-2.47-.81-3.29-.75-1.18.09-2.37.24-3.52.39-1.45.18-2.94.37-4.4.44-1.37.06-2.78.36-3.83 2.14l-.5.84c-.48.82-.93 1.59-1.11 1.69-.17.03-.79-.16-1.34-.33-.43-.13-.94-.29-1.57-.46-.13-.03-.25-.07-.38-.11l-.28-.09c-1.84-.54-2.95-.87-3.35-1.35-.39-.48-.47-1.55-.62-3.5l-.01-.17c-.1-1.33-1.3-2.44-1.66-2.76-.97-.83-1.99-1.63-2.97-2.4-1.17-.92-2.37-1.86-3.48-2.85-.91-.81-1.77-1.19-2.77-1.19-.35 0-.72.05-1.12.14-.58.13-1.07.25-1.49.36-.7.18-1.43.36-1.6.3-.17-.09-.57-.84-.95-1.56-.19-.35-.4-.75-.66-1.22l-.18-.3c-.95-1.73-1.53-2.78-1.46-3.42.06-.63.78-1.48 2.09-3l.09-.11c.7-.82.83-2.12.73-2.99-.22-1.87-.53-3.71-.82-5.5-.09-.57-.19-1.13-.27-1.68.98-3.17-1.33-4.51-2.73-5.32-.68-.4-1.53-.89-1.62-1.12-.08-.21.15-1.03.42-1.94l.45-1.5c.32-1.03.64-2.09.9-3.17.24-1.01.61-1.02 1.11-.93 3.31.62 5.62-.59 7.29-3.81.75-1.44 2.01-2.69 3.46-4.06 1.35-1.27 1.75-2.64 1.3-4.43l-.23-.89c-.22-.86-.45-1.76-.38-1.94.08-.15.76-.52 1.36-.84l1.16-.63c.31-.18.64-.34.96-.5.64-.33 1.31-.66 1.93-1.11.58-.41 1.06-.59 1.41-.53.32.05.65.32.98.8 1.65 2.35 3.74 3.05 6.59 2.2 1.97-.59 4.21-.59 6.42-.59 1.74 0 2.85-.62 3.72-2.07.76-1.26 1.31-2.18 1.73-2.34s1.4.13 2.93.57c.35.1.71.21 1.06.33.79.25 1.6.51 2.45.67 1.02.2 1.14.6 1.01 1.38-.55 3.17.59 5.35 3.57 6.88 1.54.79 2.89 2.19 4.21 3.57 1.37 1.42 2.74 1.83 4.58 1.36l.74-.19c.91-.24 1.86-.48 2.05-.4.15.07.5.73.81 1.31.17.32.37.68.6 1.1l.42.78c.94 1.7 1.5 2.73 1.44 3.35-.06.6-.77 1.41-2.05 2.87l-.09.11c-.68.78-.92 2.05-.84 2.96.29 3.55.62 6.43 1.04 9.07.17 1.04.95 2.24 1.86 2.84.46.3.86.56 1.21.78.66.42 1.4.89 1.47 1.06.05.16-.19.93-.4 1.61-.14.44-.3.95-.48 1.56-.13.43-.23.9-.33 1.38-.21 1-.46 2.13-.95 2.54-.37.3-1.31.31-2.14.32-.64 0-1.31.01-1.94.12-.83.15-1.73.68-2.29 1.35-.86 1.03-1.69 2.08-2.53 3.14-1.02 1.29-2.08 2.63-3.16 3.88-1.18 1.29-1.1 2.49-.86 3.61m-104.97.96c.09-1.02.58-1.93 1.39-2.57a3.85 3.85 0 0 1 2.97-.78c5.69.84 11.37 1.68 17.06 2.51l16.13 2.37.45.07c3.41.5 6.94 1.03 10.38 1.66 2.04.38 3.21 2.09 2.9 4.27-.28 1.98-2 3.25-4.31 3.21l-4.02-.6c-3.02-.45-6.15-.92-9.29-1.38l-4.95-.73c-8.02-1.18-16.03-2.36-24.05-3.51-4.47-.65-4.8-2.89-4.66-4.52m5.1-8.05c-2.05-.28-4.17-.57-6.23-.94-2.86-.51-4.76-3.08-4.31-5.84.44-2.73 2.56-4.52 5.19-4.52.29 0 .58.02.88.07 5.17.76 10.33 1.55 15.5 2.34 4.26.65 8.52 1.3 12.78 1.94 6.3.94 12.17 1.78 17.95 2.57 1.22.17 1.65.31 2.04 1.34.77 1.98 1.86 3.83 2.92 5.62.25.42.5.84.75 1.27 1.16 2.01 3.1 2.86 5.46 2.41.34-.06.68-.14 1.02-.21-1.04 1.07-2.44 1.57-3.95 1.36-4.69-.67-9.38-1.38-14.07-2.09-2.46-.37-4.92-.75-7.38-1.11-8.44-1.26-16.88-2.5-25.32-3.75-1.07-.16-2.15-.31-3.23-.46m25.09-53.11 9.89 1.45-5.99 40.53-1.35-.2c-2.89-.43-5.65-.84-8.41-1.26-.04-.01-.08-.02-.13-.03zm-20.05-17.4c.96-4.03 4.58-6.76 8.72-6.76.45 0 .91.03 1.37.1 4.49.65 7.8 4.83 7.38 9.33-.22 2.3-.58 4.6-.97 7.03-.13.81-.26 1.62-.38 2.46-.89-.14-1.76-.26-2.63-.39-2.62-.37-5.1-.73-7.52-1.36-4.38-1.14-7.06-5.81-5.97-10.41m35.17 14.92c.14-.89.27-1.77.4-2.65.39-2.66.75-5.17 1.42-7.62 1.16-4.3 5.8-6.9 10.34-5.81 4.51 1.09 7.46 5.5 6.7 10.03-.77 4.63-4.94 7.9-9.49 7.4-2.26-.24-4.52-.6-6.91-.98-.81-.12-1.62-.25-2.46-.37m46.3-3.43c-.37 1.03-.56 1.38-1.41 1.58-1.32.31-2.55 1.6-3.19 2.74-.74 1.32-1.44 1.73-2.85 1.67-1.69-.07-3.37.24-5 .54l-.68.13c-.81.15-1.14.06-1.61-.42-3.35-3.47-4.6-3.65-8.91-1.29l-1.4.76c-1.05.57-2.1 1.14-3.14 1.74-2.46 1.41-3.32 3.4-2.56 5.91.54 1.77.23 2.88-1.13 4.11-1.26 1.13-2.2 2.55-3.21 4.15-.38.6-.66.75-1.44.74-4.68-.07-5.76.72-7.09 5.29l-.43 1.46c-.33 1.11-.65 2.22-.97 3.34-.87 3.1-.12 5.02 2.49 6.41 1.49.8 1.96 1.61 1.86 3.23-.09 1.5.19 2.99.47 4.43l.11.57c.19 1.01 0 1.87-.54 2.41-.54.55-1.4.76-2.43.59-1.88-.31-3.76-.58-5.65-.86-1.11-.16-2.22-.32-3.33-.49-.28-.04-.56-.11-.86-.18l5.98-40.51c.61.09 1.22.18 1.83.26 2.01.29 3.99.57 5.97.9 4.24.69 8.49-.37 11.64-2.91 2.9-2.34 4.61-5.68 4.8-9.4.39-7.58-4.84-13.66-12.43-14.44-6.96-.72-13.48 4.65-14.52 11.98-.29 2.03-.59 4.06-.9 6.17l-.31 2.08-9.88-1.42.27-1.85c.3-2.02.59-4 .9-5.99 1.21-7.65-3.03-14.39-10.09-16.04-3.72-.87-7.48-.22-10.6 1.83-3.11 2.04-5.2 5.24-5.88 8.99-.65 3.61.17 7.23 2.32 10.19 2.21 3.06 5.53 5.03 9.34 5.55 2.08.29 4.16.6 6.32.93l2.1.31-5.98 40.55-13.14-1.96c-.27-1.16-.52-2.31-.77-3.45-.68-3.09-1.32-6-2.21-8.91-1.6-5.23-4.34-10.28-8.37-15.43-5.93-7.58-9.68-15.86-11.14-24.61-3.39-20.32 2.39-37.57 17.19-51.28 21.01-19.46 54.09-19.68 75.32-.49 16.84 15.27 22.79 38.96 15.14 60.39M41.97 41.23c1.91-4.46 5.71-7.97 10.41-9.64 1.93-.68 3.93-1.02 5.91-1.02 2.23 0 4.44.43 6.47 1.29-8.43 8.8-13.85 19.29-16.13 31.22-2.66-1.27-4.89-3.74-6.36-7.06-2.11-4.78-2.22-10.31-.3-14.79M29.55 66.68l.78-.65c-.25-.43-.55-.85-.84-1.26-.51-.71-1.09-1.52-1.07-2.04.01-.37.56-.98 1.04-1.51.43-.48.88-.98 1.21-1.55.45-.78.64-1.87.5-2.92-.15-1.18-.35-2.37-.55-3.52-.26-1.54-.53-3.13-.68-4.69-.18-1.87-1.39-2.55-2.37-3.1-1.13-.63-1.94-1.08-2.08-1.4s.07-1.24.37-2.51c.03-.11.04-.23.06-.34l.03-.18c.43-1.86.7-2.98 1.15-3.39.44-.4 1.49-.52 3.4-.75l.11-.01c.94-.11 1.85-.81 2.34-1.45 1.45-1.91 3.35-4.44 5.11-7.12.56-.85.64-1.98.64-2.97 0-.71-.25-1.35-.48-1.92l-.12-.31c-.34-.9-.22-1.25.61-1.68 1.58-.82 3.08-1.81 4.53-2.76l.12-.08c.77-.5.97-.23 1.16.02 1.94 2.59 4.37 3.24 7.65 2.04 1.33-.49 2.93-.55 4.47-.61l.86-.04c1.12-.06 2.71-.35 3.52-2.27l.04-.1c.25-.6.52-1.22.87-1.55.44-.41 1.01-.62 1.15-.6 1.84.28 3.77.74 5.73 1.36.17.06.5.37.63.57-.44 3.29.89 5.62 4.03 7.08-.17.13-.34.27-.5.4-1.45 1.15-2.82 2.24-4.21 3.2-.16.06-.69.02-1.06-.15-10.11-4.57-21.9-1.25-28.03 7.89-3.48 5.18-4.63 11.37-3.24 17.42 1.38 6.03 5.09 11.07 10.44 14.21.88.52 1.06.85 1.03 1.86-.1 2.73-.08 5.51-.06 8.19 0 .76.01 1.51.01 2.27-.53-.01-.66-.09-.7-.12-.02-.02-.19-.22-.12-1.34.16-2.86-.88-4.67-3.38-5.86-1.64-.78-3.13-2.12-4.58-3.41l-.16-.14c-.93-.83-1.82-1.23-2.82-1.23q-.63 0-1.32.21c-.5.15-.93.28-1.29.4-.63.2-1.29.4-1.43.38-.16-.1-.54-.73-.91-1.34-.2-.34-.44-.73-.72-1.18zm75.34 107.06c-.12.19-.25.39-.37.58-.93 1.45-1.81 2.82-2.85 4.02-.42.48-1.54.89-2.24.82-3.18-.35-6.41-.84-9.53-1.32-1.21-.19-2.42-.37-3.63-.55-1.1-.16-1.75-.73-2.09-1.84-.43-1.4-.85-2.8-1.31-4.33l-.2-.66z" fill="#ffffff" data-color="1"/>
        <path d="M49.49 147.66c-.5-.44-.98-.85-1.61-1.03-4.49-1.28-7.28-4.07-8.51-8.54-.25-.92-1.4-2.06-2.45-2.1s-2.31 1.07-2.58 2.01c-1.28 4.56-4.1 7.4-8.62 8.67-.93.26-2.05 1.44-2.05 2.51 0 1.05 1.12 2.26 2.04 2.52 4.52 1.26 7.34 4.09 8.63 8.66.27.95 1.43 1.91 2.44 2.02.05 0 .09.01.14.01.99 0 2.17-1.05 2.41-1.95 1.23-4.64 4.08-7.5 8.7-8.75.67-.18 1.13-.67 1.61-1.19.2-.21.41-.45.67-.68l.89-.81-.97-.73c-.28-.22-.52-.43-.74-.62m-7.65 1.53-5.04 4.99-4.99-5.01 5.01-5z" fill="#ffffff" data-color="1"/>
        <path d="M151.42 25.3c.16.12.31.24.44.36 12.27 11.39 19.4 25.37 21.18 41.54.08.7.19 1.76.98 2.38.37.29.82.44 1.34.44.11 0 .22-.01.34-.02.88-.1 1.36-.52 1.61-.86.58-.78.47-1.82.33-2.54-.02-.09-.03-.19-.04-.28l-.02-.18c-2.11-17.33-9.73-32.11-22.64-43.91-.12-.11-.24-.24-.37-.37-.52-.55-1.24-1.3-2.23-1.3h-.03c-.62.01-1.19.31-1.71.89-.51.57-.74 1.17-.68 1.78.09.98.9 1.61 1.5 2.07" fill="#ffffff" data-color="1"/>
        <path d="M182.24 31.2h.09c4.58-.05 8.16-3.69 8.15-8.3-.01-4.53-3.68-8.25-8.18-8.3-2.23-.05-4.32.84-5.91 2.42-1.6 1.59-2.48 3.69-2.47 5.91 0 2.22.88 4.31 2.46 5.87a8.25 8.25 0 0 0 5.86 2.4m-3.64-8.24a3.57 3.57 0 0 1 1.02-2.57c.68-.69 1.6-1.07 2.59-1.07h.01c.99 0 1.91.38 2.6 1.08.68.68 1.05 1.58 1.04 2.54-.02 1.91-1.65 3.57-3.56 3.62-.96.02-1.86-.34-2.57-1.02-.72-.69-1.12-1.6-1.13-2.58" fill="#ffffff" data-color="1"/>
        <path d="M160.57 171.94c-1.91-.3-3.6.17-4.52 1.24-3.03 3.53-6.62 4.44-11.27 2.87-1.31-.44-2.66-.81-4.08-1.2-.68-.19-1.4-.38-2.14-.59l-.56-.16-.42.41c-.07.07-.17.14-.28.22-.49.37-1.15.89-1.15 1.69 0 .93.88 2.1 1.81 2.41 2.3.77 5.01 1.64 7.76 2.26 1.14.26 2.26.39 3.34.39 3.25 0 6.19-1.16 8.64-3.43 1.67-1.54 2.25-1.8 3.5-.74.75.64 2.19.3 2.82-.2.73-.59.79-1.93.51-2.6-.54-1.28-2.06-2.27-3.96-2.57" fill="#ffffff" data-color="1"/>
        <path d="M140.07 17.07a35.4 35.4 0 0 0 4.34 2.61c.22.11.47.16.73.16.71 0 1.49-.36 1.86-.83.39-.48.49-1.28.43-1.82-.05-.44-.23-.77-.51-.99-1.14-.87-2.31-1.64-3.55-2.46l-1.81-1.2-.57.46c-.16.13-.33.24-.48.34-.44.29-.93.62-1.13 1.21-.24.68-.08 1.98.69 2.52" fill="#ffffff" data-color="1"/>
        <path d="M173.14 173.45c-1.08.23-2.15.66-3.1 1.23-.75.46-1.29 1.6-1.14 2.45.11.68.63 1.08 1.08 1.44.14.11.28.22.41.34l.49.46.61-.28c.35-.16.7-.31 1.04-.46.9-.39 1.75-.75 2.56-1.26.82-.52 1.03-2.1.58-2.87-.44-.74-1.64-1.24-2.53-1.05" fill="#ffffff" data-color="1"/>
        <path d="M154.88 109.89c-6.2-.01-12.09 2.41-16.56 6.86-4.48 4.46-6.95 10.36-6.94 16.59.01 12.89 10.47 23.41 23.32 23.44h.06c12.92 0 23.46-10.46 23.5-23.35.04-12.92-10.45-23.48-23.38-23.54m.1 42.25h-.15c-5.09-.04-9.83-2.04-13.36-5.63-3.5-3.56-5.4-8.28-5.36-13.29.09-10.45 8.3-18.6 18.7-18.6h.13c5.06.03 9.82 2.05 13.38 5.69 3.49 3.56 5.37 8.21 5.3 13.1-.15 10.35-8.5 18.73-18.64 18.73" fill="#ffffff" data-color="1"/>
    </g>
</svg>
