<?xml version="1.0" encoding="UTF-8"?>
<svg data-bbox="18.163 21.694 170.085 221.996" viewBox="0 0 214.74 265.38" xmlns="http://www.w3.org/2000/svg" data-type="color">
    <g>
        <path d="m103.06 243.69-32.1-40.44c-11.22-14.14-22.49-28.24-33.65-42.43C4.4 118.94 15.04 60.7 60.58 33.28c46.53-28.02 109.58-2.8 124.1 49.67 7.78 28.11 2.85 53.94-14.94 76.89-21.23 27.39-43.01 54.36-64.55 81.5-.53.66-1.14 1.26-2.13 2.35m-.02-176.11c-21.16.07-38.06 17.13-38.01 38.4.05 21.18 17.12 38.18 38.3 38.13 21.12-.05 38.06-17.18 38.01-38.42-.05-21.22-17.1-38.18-38.3-38.11" fill="#7ea72e" data-color="1"/>
        <path d="M103.29 128.79c-12.74.06-23.13-10.34-23.05-23.08.09-12.56 10.33-22.85 22.84-22.93 12.61-.08 23.12 10.48 23.05 23.15-.07 12.62-10.24 22.8-22.84 22.86" fill="#7ea72e" data-color="1"/>
    </g>
</svg>
