<?xml version="1.0" encoding="UTF-8"?>
<svg data-bbox="29.473 19.45 247.257 231.5" viewBox="0 0 309 288" xmlns="http://www.w3.org/2000/svg" data-type="color">
    <g>
        <path d="M155.48 98.46h52.07c3.88 0 4.04.19 3.56 4.12-3.1 25.82-24.75 45.31-50.7 45.74-10.53.18-20.97.05-30.72-4.72-17.48-8.56-27.5-22.46-30.08-41.81-.38-2.83.64-3.39 3.2-3.38 17.56.09 35.11.05 52.67.05" fill="#699e1e" data-color="1"/>
        <path d="M155.22 79.42h-51.49c-3.59 0-3.64-.11-2.6-3.54 3.55-11.76 7.15-23.5 10.6-35.28.62-2.13 1.63-2.74 3.77-2.73 26.64.07 53.29.06 79.93.01 2.09 0 3.21.51 3.84 2.71 3.39 11.8 6.96 23.56 10.45 35.33 1.01 3.41.93 3.5-2.71 3.5z" fill="#699e1e" data-color="1"/>
        <path d="M250.12 111.61c0-11.59.07-23.18-.05-34.77-.03-2.58.65-3.65 3.35-3.42 3.57.3 7.22-.06 10.72.54 7.03 1.2 12.35 7.07 12.43 14.15.22 19.88.11 39.76.16 59.64 0 1.65-.65 2.31-2.31 2.3-7.28-.04-14.57-.07-21.85.01-2.37.03-2.48-1.32-2.47-3.09.03-11.78.02-23.57.02-35.36m15.25 8.63h.03c0-.8.25-1.71-.06-2.36-.44-.92-1.3-1.64-1.97-2.44-.64.85-1.66 1.63-1.85 2.58-.31 1.53-.29 3.21.01 4.75.17.84 1.19 1.52 1.82 2.27.67-.7 1.58-1.3 1.95-2.14.33-.75.07-1.76.07-2.66m-4.04-16.81c.53 1.6-.88 4.61 2.23 4.51 2.71-.09 1.85-2.88 1.8-4.59-.05-1.75 1.12-4.71-1.9-4.74-3.05-.02-1.64 2.97-2.13 4.82" fill="#699e1e" data-color="1"/>
        <path d="M212.87 224.11c-.07-14.83 11.88-26.93 26.73-27.06 14.71-.13 26.91 12.02 26.96 26.85.05 14.89-11.9 26.97-26.74 27.04-14.77.08-26.87-11.97-26.95-26.83m40.94.07c.06-7.86-6.08-14.15-13.92-14.28-7.74-.13-14.18 6.16-14.28 13.94-.1 7.79 6.15 14.18 13.94 14.25 7.87.07 14.21-6.1 14.26-13.91" fill="#699e1e" data-color="1"/>
        <path d="M44.25 224.01c0-14.78 12.09-26.9 26.9-26.93 14.79-.04 26.86 12.07 26.84 26.94-.02 14.85-12.1 26.96-26.86 26.93-14.81-.03-26.88-12.13-26.88-26.94m41-.07c-.07-7.8-6.36-14.05-14.12-14.04-7.87.01-14.25 6.48-14.15 14.33.1 7.71 6.52 13.94 14.3 13.87 7.8-.07 14.04-6.39 13.97-14.16" fill="#699e1e" data-color="1"/>
        <path d="M64.83 130.35c0-19.49-.02-38.98.03-58.46 0-1.66.15-3.46.79-4.95 1.1-2.55 3.39-3.57 6.14-3.32 2.64.24 4.51 1.67 5.29 4.19.41 1.3.47 2.75.47 4.14.02 39.28.02 78.55.02 117.83 0 3.79-.01 3.73-3.88 3.51-1.98-.11-4.02-.18-5.97.12-2.7.41-2.93-.96-2.92-3.08.05-14.79.03-29.58.03-44.37z" fill="#699e1e" data-color="1"/>
        <path d="M245.86 193.34c-3.84 0-7.31.07-10.77-.07-.61-.02-1.41-.82-1.7-1.46-.3-.67-.1-1.57-.1-2.37V72.18c0-1.1-.03-2.21.12-3.29.45-3.11 3.11-5.33 6.26-5.33 3.16 0 5.77 2.22 6.23 5.37.13.88.09 1.8.09 2.69v118.45c.01.99-.07 1.97-.13 3.27" fill="#699e1e" data-color="1"/>
        <path d="M155.5 94.52c-23.46 0-46.92-.05-70.38.06-2.79.01-3.53-.8-3.48-3.53.15-7.65.03-7.65 7.69-7.65h135.66c4.22 0 4.22 0 4.23 4.23.01 6.89.01 6.89-6.94 6.89z" fill="#699e1e" data-color="1"/>
        <path d="M155.19 179.63c-23.36 0-46.71-.05-70.07.06-2.82.01-3.53-.85-3.48-3.56.14-7.48.03-7.48 7.56-7.48h135.94c4.08 0 4.08 0 4.08 4.06.01 6.91.01 6.91-6.96 6.91-22.35.01-44.71.01-67.07.01" fill="#699e1e" data-color="1"/>
        <path d="M114.36 33.54c.75-8.79 6.39-14.09 14.79-14.09h51.47c8.4 0 11.72 2.22 14.98 10.09.48 1.17.83 2.39 1.39 4z" fill="#699e1e" data-color="1"/>
        <path d="M29.49 88.81V56.42c0-1-.02-2 .07-3 .31-3.49 2.68-5.77 6.02-5.87 3.37-.09 6.16 2.3 6.57 5.71.12.99.07 2 .07 3v65.38c0 .7.02 1.4-.01 2.1-.17 3.9-2.71 6.56-6.31 6.62-3.65.06-6.28-2.48-6.36-6.46-.12-5.9-.04-11.8-.05-17.69z" fill="#699e1e" data-color="1"/>
        <path d="M250.12 159.95c.09-6.64-.93-5.89 5.81-5.95.8-.01 1.65-.2 2.38.04 1.91.62 5.22-1.9 5.56 2.31.49 6.12-1.36 9.4-5.53 10.01-.49.07-.99.07-1.49.06-8.01-.13-6.57 1.12-6.73-6.47" fill="#699e1e" data-color="1"/>
        <path d="M53.83 83.4c6.98 0 6.98 0 6.97 7.13 0 3.99 0 3.99-4.12 3.99-2.59 0-5.18-.11-7.76.03-2.15.12-2.83-.8-2.7-2.81.11-1.79.16-3.6-.01-5.38-.24-2.48.9-3.18 3.15-2.98 1.48.12 2.98.02 4.47.02" fill="#699e1e" data-color="1"/>
        <path d="M229.71 224.04c0-5.66 4.41-10.13 9.98-10.13 5.6 0 10.06 4.42 10.12 10.03.06 5.56-4.39 10.05-10.02 10.11-5.6.06-10.08-4.39-10.08-10.01" fill="#699e1e" data-color="1"/>
        <path d="M81.2 223.94c.05 5.52-4.47 10.1-10.01 10.12-5.58.02-10.12-4.47-10.12-10.02 0-5.59 4.45-10.09 10.02-10.13 5.5-.04 10.06 4.48 10.11 10.03" fill="#699e1e" data-color="1"/>
    </g>
</svg>
