<?xml version="1.0" encoding="UTF-8"?>
<svg data-bbox="15.38 14.66 326.93 231.51" viewBox="0 0 357.69 265.38" xmlns="http://www.w3.org/2000/svg" data-type="color">
    <g>
        <path d="M342.31 69.73v151.66c0 13.63-11.15 24.78-24.78 24.78H40.16c-13.63 0-24.78-11.15-24.78-24.78V69.59c0-9.03 9.76-14.68 17.59-10.18l141.07 81.03c3.64 2.09 8.12 2.08 11.75-.03l138.86-80.82c7.84-4.57 17.66 1.08 17.66 10.14" fill="#7ea72e" data-color="1"/>
        <path d="M342.31 33.83v-.03c0-10.52-8.61-19.14-19.14-19.14H34.52c-10.52 0-19.14 8.61-19.14 19.14 0 2.2 1.18 4.22 3.09 5.31l158.84 89.95a6.1 6.1 0 0 0 6.05-.02l155.89-89.92a6.12 6.12 0 0 0 3.06-5.29" fill="#7ea72e" data-color="1"/>
    </g>
</svg>
