<?xml version="1.0" encoding="UTF-8"?>
<svg data-bbox="14.179 14.65 271.391 262.97" viewBox="0 0 309 288" xmlns="http://www.w3.org/2000/svg" data-type="color">
    <g>
        <path d="M86.56 14.65h144.58v117.27c-2.5 1.2-3.81-.11-5.27-2.08-8.64-11.67-24.57-14.5-36.58-6.62-11.99 7.86-15.82 23.76-8.72 36.26 7.02 12.36 22.58 17.41 35.28 10.9 3.86-1.98 7.1-5.38 10.18-8.56 1.57-1.62 2.75-2.72 5.16-1.81v90.21h-103c1.09-1.16 1.95-2.05 2.77-2.96 18.49-20.53 23.99-44.23 14.52-70.1-9.51-25.96-29.09-40.56-56.52-44.28-2.09-.28-2.6-1.02-2.6-2.98.04-37.69.03-75.38.04-113.07 0-.67.1-1.34.16-2.18m72.52 8.89c-17.86 0-35.72-.01-53.59.01-6.45.01-9.99 3.55-10.01 10-.03 11.39-.02 22.79 0 34.18.01 6.68 3.5 10.22 10.14 10.23 35.42.02 70.85.02 106.27 0 6.86 0 10.31-3.48 10.33-10.36.03-11.19.02-22.39 0-33.58-.01-7.09-3.39-10.47-10.46-10.47-17.56-.02-35.12-.01-52.68-.01m54.22 199.42h8.72v-8.68h-8.72zM104.38 96v-8.74h-8.7V96zm0 9.4h-8.76v8.64h8.76zm-.05 26.76v-8.68h-8.6v8.68zm117.73 63.93h-8.76v8.64h8.76zm-8.67 36.33v8.75h8.65v-8.75z" fill="#699e1e" data-color="1"/>
        <path d="M81.38 141.44c32.28-.29 59 25.97 59.26 58.26.27 32.74-25.67 59.41-58.09 59.7-32.63.29-59.31-25.79-59.56-58.22-.24-32.85 25.75-59.44 58.39-59.74m-31.29 68.69h.05c0 3.4-.14 6.8.02 10.19.76 15.96 14.02 29.21 29.95 30.01 16.14.82 30.73-10.69 32.8-26.65.96-7.38.52-14.94.63-22.42.08-5.69-2.42-9.9-7.32-12.84-.85-.51-1.58-1.93-1.62-2.96-.19-4.19 0-8.39-.11-12.58-.33-12.56-10.35-22.33-22.76-22.29-12.39.05-22.32 9.9-22.59 22.47-.08 3.99-.1 7.99.01 11.99.05 1.77-.38 2.79-2.08 3.73-4.53 2.5-6.85 6.56-6.97 11.77-.07 3.18-.01 6.38-.01 9.58" fill="#699e1e" data-color="1"/>
        <path d="M77.45 269.44c8.27-1.34 16.15-2.37 23.91-3.98 3.56-.74 7.05-2.29 10.27-4.02 2.95-1.59 5.87-2.07 9.13-2.06 37.63.06 75.26.04 112.9.04 5.41 0 6.77 1.34 6.78 6.67 0 2.2.07 4.4-.03 6.6-.15 3.13-1.79 4.69-4.93 4.84-.9.04-1.8.01-2.69.01-49.31 0-98.62-.07-147.93.08-6.65.01-8.43-2.24-7.41-8.18" fill="#699e1e" data-color="1"/>
        <path d="M244.77 141.43c11.37 0 22.73 0 34.1.01.99 0 2.01-.05 2.98.14 2.34.47 3.7 1.96 3.72 4.38s-1.3 3.94-3.64 4.45c-.96.21-1.98.16-2.98.16-22.73.01-45.47.01-68.2 0-.9 0-1.81.05-2.68-.12-2.48-.47-3.95-2.03-3.9-4.55.04-2.37 1.47-3.88 3.82-4.33.97-.19 1.99-.13 2.98-.13 11.27-.01 22.53-.01 33.8-.01" fill="#699e1e" data-color="1"/>
        <path d="M22.89 132.19h-8.54c-1.89-14.09 12.03-36.13 35.5-35.93v8.78c-7.12.49-13.62 2.82-18.87 8.05-5.2 5.18-7.69 11.53-8.09 19.1" fill="#699e1e" data-color="1"/>
        <path d="M215.39 132.33c-2.34 0-4.28-.03-6.21 0-7.98.13-14.11 6.07-14.1 13.66 0 7.59 6.12 13.52 14.11 13.66 1.89.03 3.77 0 5.78 0-3.51 5.52-14.98 5.85-21.7.81-8.41-6.31-9.62-18.59-2.62-26.55 6.27-7.13 18.23-8.13 24.74-1.58" fill="#699e1e" data-color="1"/>
        <path d="M49.95 114.47v8.57c-4.98.9-8.35 3.68-8.97 9.12H32.3c-.58-9.43 8.24-18.25 17.65-17.69" fill="#699e1e" data-color="1"/>
        <path d="M104.7 32.68h108.23v35.99H104.7z" fill="#699e1e" data-color="1"/>
        <path d="M82.05 195.86c5.59 0 11.18-.03 16.77.01 3.99.03 5.66 1.68 5.69 5.65.04 5.8.11 11.6-.02 17.4-.29 12.49-10.47 22.45-22.75 22.41s-22.36-10.06-22.6-22.57c-.11-5.8-.06-11.6-.01-17.4.03-3.78 1.73-5.45 5.55-5.48 5.79-.05 11.58-.02 17.37-.02m4.34 40.7c0-2.4.11-4.68-.03-6.94-.12-1.92.5-2.98 2.26-3.98 4.74-2.69 7.07-6.99 6.78-12.45-.34-6.44-5.36-11.71-11.67-12.58-6.48-.89-12.77 2.99-14.82 9.13s.38 12.71 6.2 15.92c1.83 1.01 2.27 2.18 2.18 4.03-.11 2.26-.03 4.52-.03 6.87z" fill="#699e1e" data-color="1"/>
        <path d="M95.33 186.73H67.82c.41-6.11.14-12.25 1.39-18.07 1.33-6.13 7.87-9.62 14.24-8.91 6.1.68 11.22 5.45 11.78 11.76.45 4.94.1 9.95.1 15.22" fill="#699e1e" data-color="1"/>
        <path d="M81.9 218.57c-2.45.05-4.58-2.04-4.58-4.5 0-2.36 1.9-4.36 4.28-4.48 2.49-.13 4.64 1.84 4.72 4.33.08 2.45-1.96 4.61-4.42 4.65" fill="#699e1e" data-color="1"/>
    </g>
</svg>
