<?xml version="1.0" encoding="UTF-8"?>
<svg data-bbox="13.11 7.5 64.02 52.25" viewBox="0 0 87.53 69.18" xmlns="http://www.w3.org/2000/svg" data-type="color">
    <g>
        <path d="M13.11 27.76c.04-.09.09-.18.12-.28.49-1.59 1.76-2.57 3.43-2.58 2.42-.02 4.83-.01 7.25-.01h33.94c1.93 0 3.33 1.05 3.7 2.79.07.32.07.66.07.99v27.32c0 2.3-1.42 3.75-3.73 3.75-13.69.01-27.38 0-41.06.01-1.96 0-3.11-1.03-3.72-2.8zm16.5 14.54c0 1.68-.01 3.37 0 5.05.02 2.73 2.62 4.29 4.99 2.95 2.95-1.66 5.89-3.36 8.81-5.08 2.31-1.36 2.32-4.41 0-5.77-2.92-1.72-5.86-3.41-8.81-5.08-2.38-1.34-4.98.2-4.99 2.93-.01 1.67 0 3.34 0 5" fill="#ffffff" data-color="1"/>
        <path d="M77.13 54.59c-.82 1.23-1.44 1.37-2.75.62-3.21-1.85-6.41-3.7-9.63-5.54-.37-.21-.52-.43-.52-.87.02-4.3.02-8.61 0-12.91 0-.42.12-.66.49-.88 3.25-1.85 6.49-3.73 9.73-5.6 1.23-.71 1.95-.51 2.67.72.01 8.16.01 16.31.01 24.46" fill="#ffffff" data-color="1"/>
        <path d="M28.61 7.5c4.1-.02 7.45 3.29 7.47 7.38.02 4.07-3.33 7.41-7.43 7.42-4.08.01-7.41-3.28-7.42-7.34a7.4 7.4 0 0 1 7.38-7.46" fill="#ffffff" data-color="1"/>
        <path d="M46.07 22.29c-4.1-.01-7.43-3.36-7.4-7.43.03-4.1 3.38-7.4 7.48-7.36 4.12.03 7.38 3.34 7.36 7.47-.03 4.05-3.35 7.33-7.44 7.32" fill="#ffffff" data-color="1"/>
        <path d="M32.21 42.3c0-1.62-.01-3.24 0-4.86 0-.94.45-1.19 1.28-.71l8.43 4.86c.85.49.85 1.01 0 1.5-2.81 1.62-5.62 3.24-8.43 4.85-.85.49-1.27.23-1.27-.77-.01-1.63-.01-3.25-.01-4.87" fill="#ffffff" data-color="1"/>
    </g>
</svg>
