<?xml version="1.0" encoding="UTF-8"?>
<svg data-bbox="27.753 10.81 253.873 248.78" viewBox="0 0 309 288" xmlns="http://www.w3.org/2000/svg" data-type="color">
    <g>
        <path d="M87.72 212.05c-7.82-9.99-17.55-15.78-30.1-15.68-12.57.1-22.2 6.1-29.62 16.92-.13-1.16-.22-1.61-.22-2.06-.01-37.44-.07-74.88.03-112.32.04-13.1 8.51-24.39 20.7-28.24 12.36-3.91 25.68.34 33.42 10.69 4.1 5.48 5.81 11.72 5.79 18.52-.03 16.57-.01 33.15-.01 49.72v59.31c.01 1.05.01 2.09.01 3.14" fill="#699e1e" data-color="1"/>
        <path d="M272.55 250.52V116.89c0-1.1-.05-2.2.04-3.29.22-2.64 1.98-4.34 4.41-4.36 2.42-.02 4.27 1.67 4.56 4.25.11.99.05 1.99.05 2.99v135.41c0 6.63-1.06 7.71-7.6 7.7-53.71-.04-107.43-.1-161.14-.13-17.17-.01-34.34.15-51.52.11-16.4-.04-28.88-9.57-32.69-24.63-1.53-6.02-.69-11.66 2.05-17.12 5.72-11.38 18.36-18.17 31.28-16.79 11.74 1.25 22.09 10.75 25.11 23.06.24.97.42 1.96.48 2.95.19 3.24-.98 4.9-3.59 5.25-3.04.41-4.72-.89-5.31-4.24-1-5.77-3.72-10.5-8.43-14.01-12.26-9.13-30.17-2.19-33.04 12.84-.85 4.43.6 8.54 2.86 12.27 4.04 6.64 9.96 10.49 17.77 11.18 1.79.16 3.59.19 5.38.19 68.29.01 136.58.01 204.87.01 1.39-.01 2.76-.01 4.46-.01" fill="#699e1e" data-color="1"/>
        <path d="M164.32 111.76h-33.09c0-2.13-.12-4.19.03-6.22.17-2.29-.76-3.62-2.73-4.79-21.05-12.46-26.25-38.83-11.23-58.14 9.91-12.75 23.41-17.23 38.92-13.85 15.59 3.39 25.57 13.52 29.55 28.99 4.21 16.37-3.19 33.97-17.78 42.57-3.01 1.78-4.02 3.76-3.7 6.94.14 1.37.03 2.77.03 4.5m-16.77-66.81c-1.69-1.27-3.17-2.29-4.54-3.44-2.18-1.82-4.28-2.18-6.77-.45-.97.67-2.41.82-3.65.92-3.08.26-3.74.92-3.14 3.95 3.13 15.66 6.32 31.3 9.42 46.96.43 2.19 1.59 3.02 3.72 2.98 3.49-.06 6.99-.1 10.48.01 2.38.08 3.36-1.08 3.79-3.27 3.07-15.57 6.22-31.12 9.31-46.68.6-3.01 0-3.68-3.1-3.93-1.18-.1-2.59.06-3.49-.53-3.59-2.32-6.45-.57-9.34 1.31-.91.61-1.7 1.37-2.69 2.17" fill="#699e1e" data-color="1"/>
        <path d="M205.68 165.88c-1.37 1.74-2.75 3.43-4.07 5.18-2.88 3.82.09 10.96 4.81 11.65.1.01.2.02.3.04 6.97.96 6.92.96 6.64 8.07-.06 1.64-.6 2.4-2.22 2.45-.7.02-1.39.12-2.08.2-5.93.69-7.55 2.06-8.6 7.96-.21 1.19.38 2.72 1.05 3.81 1.2 1.94 2.74 3.65 4.23 5.58-2.27 2.09-4.44 4.09-6.87 6.33-3.58-1.34-5.74-6.74-12-4.24-6.35 2.54-4.12 7.89-5.95 12.11-2.47 0-4.96.12-7.43-.08-.67-.06-1.64-.98-1.83-1.68-.44-1.62-.54-3.34-.66-5.03-.17-2.37-1.47-3.53-3.55-4.64-4.04-2.16-7.33-1.81-10.43 1.55-.86.93-2.01 1.58-3.04 2.38-2.28-2.24-4.39-4.32-6.67-6.56 1.39-1.81 2.72-3.53 4.04-5.26 3.01-3.94.15-11.14-4.71-11.86-.2-.03-.4-.05-.59-.08-6.68-.93-7.33-1.78-6.19-8.69.11-.65.91-1.4 1.57-1.69.78-.34 1.76-.23 2.65-.33 5.88-.65 7.54-2.07 8.59-7.96.21-1.18-.41-2.71-1.09-3.8-1.21-1.92-2.76-3.62-4.24-5.5 2.3-2.14 4.46-4.15 6.95-6.47 1.48 1.15 3.31 2.62 5.2 4.02 3.65 2.72 10.84-.3 11.49-4.81l.03-.3c.95-7.19.95-7.24 8.24-6.65.81.07 1.86 1.12 2.2 1.95.47 1.16.47 2.54.49 3.84.07 3.09 1.67 4.59 4.47 5.92 3.65 1.73 6.4 1.38 9.15-1.39 1.04-1.05 2.33-1.83 3.64-2.84 2.16 2.26 4.2 4.41 6.48 6.82m-29.09 1.02c-12.23-.01-21.5 9.14-21.57 21.3-.07 12.11 9.17 21.41 21.38 21.51 12.27.11 21.8-9.29 21.77-21.47-.04-12.09-9.37-21.33-21.58-21.34" fill="#699e1e" data-color="1"/>
        <path d="M254.33 46.91v123.75c-3.1 0-6.15.05-9.18-.06-.43-.02-1.04-.8-1.2-1.34-.21-.74-.08-1.58-.08-2.38 0-38.73.03-77.47-.07-116.2-.01-2.99.68-4.2 3.79-3.82 2.15.26 4.35.05 6.74.05" fill="#699e1e" data-color="1"/>
        <path d="M228.88 47.07h10.29c.06 1.21.16 2.27.16 3.34.01 38.94-.02 77.88.06 116.82.01 2.69-.63 3.82-3.46 3.53-2.25-.23-4.55-.05-7.04-.05-.01-41.31-.01-82.3-.01-123.64" fill="#699e1e" data-color="1"/>
        <path d="M205.12 247.19c-8.88 0-17.77.01-26.65-.01-1.09 0-2.23.01-3.25-.31-2.15-.68-3.27-2.27-3.09-4.55.18-2.27 1.53-3.64 3.73-4.07.97-.19 1.99-.1 2.99-.1 17.17 0 34.34 0 51.51-.01 5.4 0 6.66-1.28 6.68-6.74.01-3.29-.05-6.59.03-9.88.08-3.23 1.89-5.28 4.5-5.29 2.63-.01 4.45 2.01 4.52 5.26.08 4.09.15 8.19-.04 12.28-.38 8-5.96 13.33-13.97 13.4-8.99.07-17.97.02-26.96.02" fill="#699e1e" data-color="1"/>
        <path d="M147.76 142.3c-.88.8-1.4 1.35-2 1.79-4.5 3.31-9.02 6.61-13.54 9.89-4.2 3.05-8.89 4.37-14.07 4.15-8.5-.36-14.93 5.34-15.2 13.43-.28 8.13 6 14.38 14.6 14.45 5.78.05 11.55.01 17.27.01 1.08 4.26.87 4.57-3.09 4.57-5.19 0-10.39.15-15.57-.08-9.41-.42-16.83-7.34-17.81-16.33-1.01-9.25 4.57-17.61 13.54-20 1.89-.5 3.94-.62 5.91-.57 4.56.13 8.69-.99 12.37-3.69 2.66-1.95 5.47-3.71 7.94-5.88 2.83-2.49 5.92-2.23 9.65-1.74" fill="#699e1e" data-color="1"/>
        <path d="M130.42 225.58c-.06 6.88-5.76 12.51-12.69 12.52-6.97.01-12.84-5.88-12.75-12.8.09-6.91 5.76-12.46 12.73-12.47 7.13 0 12.78 5.66 12.71 12.75m-9.07-.16c-.19-2.03-1.26-3.43-3.52-3.49-2.25-.06-3.65 1.27-3.72 3.43-.07 2.17 1.33 3.62 3.5 3.69s3.46-1.25 3.74-3.63" fill="#699e1e" data-color="1"/>
        <path d="M132.14 126.84h31.15c1.56 6.91-1.4 10.68-8.31 10.7-4.58.01-9.16.01-13.75 0-7.43-.01-10.02-2.96-9.09-10.7" fill="#699e1e" data-color="1"/>
        <path d="M254.14 29.52h-24.91c-2.12-6.38.43-10.2 7.01-10.34 3.58-.08 7.17-.23 10.73.05 6.99.56 8.62 2.99 7.17 10.29" fill="#699e1e" data-color="1"/>
        <path d="M147.5 116.53c5.89 0 11.77.02 17.66-.01 2.07-.01 4.02.31 3.99 2.88-.02 2.39-1.87 2.7-3.84 2.7q-17.505-.03-35.01 0c-1.95 0-3.78-.24-3.81-2.69-.03-2.64 1.91-2.88 3.96-2.88 5.68.01 11.37 0 17.05 0" fill="#699e1e" data-color="1"/>
        <path d="M230.14 175.41h22.96c-1.3 2.76-2.41 5.35-3.78 7.79-.26.47-1.57.47-2.39.48-3.57.04-7.14.12-10.7-.08-1.03-.06-2.42-.71-2.93-1.53-1.24-1.99-2.06-4.24-3.16-6.66" fill="#699e1e" data-color="1"/>
        <path d="M228.83 42.16v-7.64h10.31v7.64z" fill="#699e1e" data-color="1"/>
        <path d="M244.04 42.16v-7.54h10.32v7.54z" fill="#699e1e" data-color="1"/>
        <path d="M236.11 188.2h10.93c-1.84 3.93-3.45 7.37-5.4 11.52-1.96-4.08-3.61-7.51-5.53-11.52" fill="#699e1e" data-color="1"/>
        <path d="M109.31 25.71c2.52-.14 6.67 4.18 6.51 5.86-.15 1.59-2.04 2.72-3.26 1.7-1.58-1.32-3.08-2.87-4.12-4.61-.39-.65.6-2.14.87-2.95" fill="#699e1e" data-color="1"/>
        <path d="M95.97 66.84c-1.87-.49-4.93.66-4.8-2.54.14-3.47 3.18-1.91 5.12-2.09.58-.06 1.34-.09 1.73.23.82.66 1.45 1.55 2.15 2.35-.82.68-1.58 1.47-2.49 2.01-.44.25-1.16.04-1.71.04" fill="#699e1e" data-color="1"/>
        <path d="M199.77 66.83c-.82 0-1.42.18-1.79-.04-.92-.52-1.75-1.23-2.61-1.86.75-.85 1.36-2.15 2.3-2.46 1.45-.48 3.17-.54 4.7-.29.81.13 1.98 1.24 2.03 1.97.05.74-.92 1.86-1.73 2.27-.92.47-2.13.33-2.9.41" fill="#699e1e" data-color="1"/>
        <path d="M165.67 24c-.59-.9-1.81-1.94-1.63-2.64.52-2.08 1.48-4.08 2.5-5.99.24-.45 1.48-.7 2.09-.5s1.52 1.24 1.4 1.63c-.68 2.24-1.59 4.41-2.53 6.57-.16.34-.84.45-1.83.93" fill="#699e1e" data-color="1"/>
        <path d="M187.96 28.51c-1.95 1.71-3.72 3.72-5.92 5.01-1.34.78-2.97-1.67-1.95-3.16 1.11-1.61 2.51-3.1 4.06-4.3 1.37-1.06 3.42.25 3.81 2.45" fill="#699e1e" data-color="1"/>
        <path d="M105.58 47.07c-1.4.61-2.5 1.55-3.38 1.37-1.7-.34-3.4-1.11-4.85-2.08-.65-.44-1.23-2.15-.9-2.63.51-.73 1.94-1.37 2.78-1.17 1.59.37 3.09 1.27 4.52 2.13.61.36.93 1.16 1.83 2.38" fill="#699e1e" data-color="1"/>
        <path d="M192.75 49c-.69-.65-1.63-1.14-1.79-1.82-.17-.7.15-1.97.69-2.32 1.57-1.02 3.31-1.89 5.09-2.44.66-.2 2.03.48 2.37 1.13.33.63.03 2.19-.51 2.54-1.73 1.13-3.7 1.88-5.85 2.91" fill="#699e1e" data-color="1"/>
        <path d="M131.86 21.39c-.63.72-1.11 1.71-1.85 1.98-.61.23-1.96-.17-2.25-.69-.95-1.71-1.73-3.56-2.2-5.46-.16-.65.64-1.99 1.31-2.26.64-.26 2.11.18 2.46.77 1 1.67 1.62 3.56 2.53 5.66" fill="#699e1e" data-color="1"/>
        <path d="M150.04 15.57c0 .59.21 1.31-.04 1.75-.56.99-1.36 1.85-2.06 2.76-.77-.94-1.84-1.77-2.24-2.85-.38-1.04-.35-2.44.02-3.5.38-1.09 1.4-1.96 2.14-2.92.73.89 1.6 1.72 2.15 2.71.29.53.05 1.35.05 2.05z" fill="#699e1e" data-color="1"/>
        <path d="M134.34 47.13c.36-.33.42-.41.5-.47 4.07-2.84 7.18-.88 10.03 2.07 1.82 1.89 3.46 1.83 5.4.1 4.67-4.14 4.71-4.09 11.01-1.8-1.05 5.38-2.07 10.82-3.17 16.25-1.71 8.49-3.52 16.96-5.15 25.47-.37 1.94-1.11 2.61-3.11 2.6-6.61-.01-6.66.08-7.98-6.46-2.53-12.57-5.02-25.17-7.53-37.76" fill="#699e1e" data-color="1"/>
        <path d="M176.61 171.39c9.37.03 17.02 7.66 16.98 16.95-.04 9.27-7.76 16.89-17.09 16.86-9.35-.03-17.01-7.68-16.97-16.96.04-9.31 7.72-16.88 17.08-16.85" fill="#699e1e" data-color="1"/>
    </g>
</svg>
