<?xml version="1.0" encoding="UTF-8"?>
<svg data-bbox="4.33 0 503.34 512" viewBox="0 0 512 512" xmlns="http://www.w3.org/2000/svg" data-type="color">
    <g>
        <path d="M195.25 295.05v-17.36h-17.36v17.36c0 7.29-4.52 13.54-10.89 16.11l-2.52-10.05c-3.44-13.79-15.77-23.41-29.98-23.41s-26.03 11.68-26.03 26.03 11.68 26.03 26.03 26.03h26.03c19.14 0 34.71-15.57 34.71-34.71Z" fill="#ffffff" data-color="1"/>
        <path d="M209.18 80.14a17.31 17.31 0 0 1-2.36 17.34l12.45 12.45c4.9-3.84 11.48-4.79 17.34-2.36 5.85 2.42 9.84 7.76 10.59 13.93h17.61c.75-6.17 4.74-11.51 10.59-13.93 5.87-2.42 12.46-1.47 17.34 2.36l12.45-12.45a17.28 17.28 0 0 1-2.36-17.34c2.41-5.86 7.75-9.85 13.92-10.59V51.93a17.27 17.27 0 0 1-13.93-10.59A17.31 17.31 0 0 1 305.18 24l-12.45-12.45a17.31 17.31 0 0 1-17.34 2.36c-5.84-2.4-9.84-7.74-10.58-13.91H247.2a17.31 17.31 0 0 1-10.59 13.93c-5.86 2.42-12.45 1.48-17.34-2.36l-12.45 12.45a17.28 17.28 0 0 1 2.36 17.34 17.28 17.28 0 0 1-13.93 10.58v17.61c6.17.75 11.51 4.74 13.93 10.6ZM256 26.03c19.17 0 34.71 15.54 34.71 34.71S275.17 95.45 256 95.45s-34.71-15.54-34.71-34.71S236.83 26.03 256 26.03" fill="#ffffff" data-color="1"/>
        <path d="M247.38 51.27h17.36v17.36h-17.36z" fill="#ffffff" data-color="1"/>
        <path d="M316.75 459.93h-20.67c-3.29 0-6.29 1.86-7.76 4.8l-6.28 12.56c-23.96 0-43.39-19.43-43.39-43.39l12.56-6.28a8.68 8.68 0 0 0 4.8-7.76v-20.67c0-4.79-3.89-8.68-8.68-8.68-23.96 0-43.39 19.43-43.39 43.39 0 43.14 34.96 78.1 78.1 78.1 23.96 0 43.39-19.43 43.39-43.39 0-4.79-3.89-8.68-8.68-8.68" fill="#ffffff" data-color="1"/>
        <path d="M39.05 225.63H21.69c-9.57 0-17.36 7.78-17.36 17.36s7.78 17.36 17.36 17.36h19.64c-1.44-5.56-2.28-11.35-2.28-17.36z" fill="#ffffff" data-color="1"/>
        <path d="m90.5 341.42-10.43-10.43c-15.33 5.59-26.46 18.99-28.8 35.42l-2.21 15.42h34.71z" fill="#ffffff" data-color="1"/>
        <path d="M109.8 347.12h-2.66l-5.79 34.71h14.23l-5.79-34.71Z" fill="#ffffff" data-color="1"/>
        <path d="M39.05 190.92c0-38.28 31.15-69.42 69.42-69.42s69.42 31.15 69.42 69.42v17.36h17.36v-17.36c0-47.85-38.93-86.78-86.78-86.78s-86.78 38.92-86.78 86.78v17.36h17.36z" fill="#ffffff" data-color="1"/>
        <path d="M91.12 175.44a8.38 8.38 0 0 0 7.58 8.37l55.76 5.58c2.13.22 4.14.75 6.08 1.44-.05-28.68-23.39-51.99-52.07-51.99s-49.69 21.1-51.85 47.84l17.49-6.99c-.23-1.38-.35-2.8-.35-4.25 0-9.82 5.46-18.66 14.25-23.05l7.91-3.96 7.77 15.52-7.91 3.96a8.35 8.35 0 0 0-4.66 7.52Z" fill="#ffffff" data-color="1"/>
        <path d="M99.8 256.75c4.64 4.63 12.71 4.64 17.36 0l2.54-2.53 6.93 6.93c2.56-.49 5.18-.81 7.88-.81 7.51 0 14.65 1.78 21.06 4.89a52 52 0 0 0 4.97-22.24v-27.68a8.64 8.64 0 0 0-7.81-8.63l-55.76-5.58a25.74 25.74 0 0 1-14.3-6.13l-20.8 8.32a8.66 8.66 0 0 0-5.46 8.06v31.64c0 23.23 15.29 42.94 36.33 49.63 1.59-5.95 4.41-11.35 8.17-16.01-5.01-1.32-9.63-3.83-13.4-7.58l-2.54-2.54 12.27-12.27 2.55 2.54Zm34.71-31.12c4.79 0 8.68 3.89 8.68 8.68s-3.89 8.68-8.68 8.68-8.68-3.89-8.68-8.68 3.89-8.68 8.68-8.68m-52.07 17.35c-4.79 0-8.68-3.89-8.68-8.68s3.89-8.68 8.68-8.68 8.68 3.89 8.68 8.68-3.89 8.68-8.68 8.68" fill="#ffffff" data-color="1"/>
        <path d="M212.61 242.98c0-9.57-7.78-17.36-17.36-17.36h-17.36v17.36c0 5.94-.82 11.75-2.27 17.36h19.63c9.57 0 17.36-7.78 17.36-17.36" fill="#ffffff" data-color="1"/>
        <path d="M134.51 347.12c-2.47 0-4.87-.33-7.24-.73l5.91 35.44h34.71l-2.2-15.42c-1.02-7.16-3.78-13.68-7.76-19.29z" fill="#ffffff" data-color="1"/>
        <path d="M420.88 121.49c-47.85 0-86.78 38.93-86.78 86.78v74.76c0 20.17 9.94 38.62 26.3 49.77a61.7 61.7 0 0 1 27.65-18.77l2.85-8.53c-23.29-11.21-39.44-34.98-39.44-62.52v-31.64c0-10.7 6.42-20.19 16.36-24.17l18.7-7.48c-.23-1.38-.35-2.8-.35-4.25 0-9.82 5.46-18.66 14.25-23.05l7.91-3.96 7.77 15.52-7.91 3.96a8.35 8.35 0 0 0-4.66 7.52 8.38 8.38 0 0 0 7.58 8.37l55.76 5.58a25.96 25.96 0 0 1 23.44 25.9v27.68c0 27.54-16.15 51.3-39.44 62.52l2.85 8.53a61.66 61.66 0 0 1 27.65 18.77c16.36-11.15 26.3-29.6 26.3-49.77v-74.76c0-47.85-38.93-86.78-86.78-86.78Z" fill="#ffffff" data-color="1"/>
        <path d="M472.95 242.98V215.3a8.64 8.64 0 0 0-7.81-8.63l-55.76-5.58a25.74 25.74 0 0 1-14.3-6.13l-20.8 8.32a8.66 8.66 0 0 0-5.46 8.06v31.64c0 28.72 23.35 52.07 52.07 52.07s52.07-23.35 52.07-52.07Zm-26.03-17.35c4.79 0 8.68 3.89 8.68 8.68s-3.89 8.68-8.68 8.68-8.68-3.89-8.68-8.68 3.89-8.68 8.68-8.68m-60.75 8.68c0-4.79 3.89-8.68 8.68-8.68s8.68 3.89 8.68 8.68-3.89 8.68-8.68 8.68-8.68-3.89-8.68-8.68m11.22 32.16 12.27-12.27 2.54 2.54c4.64 4.63 12.71 4.64 17.36 0l2.54-2.53 12.27 12.27-2.54 2.53c-5.61 5.6-13.04 8.68-20.95 8.68s-15.35-3.08-20.95-8.68z" fill="#ffffff" data-color="1"/>
        <path d="M452.05 332.05c-5.65 14.36-14.12 27.65-25.04 38.56l-6.14 6.14-6.14-6.14c-10.92-10.92-19.38-24.2-25.04-38.56-13.89 6.14-23.84 18.93-26.04 34.36l-2.2 15.42h118.83l-2.2-15.42c-2.2-15.44-12.14-28.23-26.03-34.36" fill="#ffffff" data-color="1"/>
        <path d="M420.88 351.58c7.42-9.03 13.2-19.41 16.88-30.49s-3.34-10.03-3.34-10.03c-4.37.87-8.9 1.35-13.54 1.35s-9.16-.48-13.55-1.35l-3.34 10.02c3.69 11.07 9.47 21.47 16.89 30.49Z" fill="#ffffff" data-color="1"/>
        <path d="M212.61 295.05h17.36v17.36h-17.36z" fill="#ffffff" data-color="1"/>
        <path d="M247.32 295.05h17.36v17.36h-17.36z" fill="#ffffff" data-color="1"/>
        <path d="M282.03 295.05h17.36v17.36h-17.36z" fill="#ffffff" data-color="1"/>
        <path d="M114.82 87.1c18.79-16.15 40.07-28.92 63.08-37.8V30.83c-34.07 12.04-64.93 31.8-90.31 58.06 6.74-1.38 13.74-2.11 20.89-2.11 2.14 0 4.23.19 6.34.32" fill="#ffffff" data-color="1"/>
        <path d="M97 399.19H74.16c31.82 39.18 75.07 66.85 123.51 79.27-3.38-6.39-6-13.22-7.87-20.35-35.37-11.33-67.36-31.49-92.8-58.92" fill="#ffffff" data-color="1"/>
        <path d="M337.32 452.85c3.38 4.38 5.46 9.81 5.46 15.76 0 .24-.03.48-.03.72 37.16-14.79 69.72-38.81 95.15-70.14h-22.89c-21.73 23.46-48.12 41.73-77.68 53.66Z" fill="#ffffff" data-color="1"/>
        <path d="M415.28 104.42c1.87-.1 3.71-.29 5.61-.29 6.28 0 12.41.65 18.39 1.73-27.4-34.38-64.05-60.46-105.16-75.05v18.6c30.73 11.92 58.65 30.69 81.17 55.01Z" fill="#ffffff" data-color="1"/>
    </g>
</svg>
