<?xml version="1.0" encoding="UTF-8"?>
<svg data-bbox="9 4 25.17 25.175" viewBox="0 0 43 34" xmlns="http://www.w3.org/2000/svg" data-type="color">
    <g>
        <path d="M9 17.47v-1.82c.02-.07.04-.14.05-.21.06-.41.09-.83.17-1.24.54-2.72 1.83-5.02 3.87-6.89 1.79-1.64 3.88-2.69 6.28-3.11.44-.08.89-.13 1.33-.2h1.77c.08.02.16.04.24.05.42.06.85.09 1.26.17 2.69.54 4.99 1.79 6.84 3.82 2.75 3.02 3.82 6.58 3.18 10.61-.51 3.2-2.1 5.83-4.65 7.83-2.8 2.19-5.99 3.04-9.51 2.57-2.45-.33-4.62-1.33-6.49-2.96-2.23-1.95-3.62-4.38-4.15-7.29-.07-.44-.13-.89-.19-1.33m21.22-8.86L13.6 25.23c4.52 4.26 12.05 4.36 16.68-.72 4.49-4.92 3.76-11.98-.06-15.9m-.63-.64c-4.45-4.23-11.98-4.44-16.67.65-4.47 4.84-3.86 11.93.04 15.95 1.52-1.51 3.03-3.03 4.58-4.58-.05-.04-.13-.08-.19-.14-1.67-1.67-3.34-3.33-5.01-5-.61-.61-.6-1.17.01-1.78l5.73-5.73c.58-.58 1.15-.58 1.73-.01l5.04 5.04c.06.06.13.12.18.17 1.53-1.54 3.04-3.05 4.56-4.57M19.36 18.23c-.09-.07-.2-.13-.28-.21-1.07-1.06-2.13-2.13-3.2-3.19-.11-.11-.13-.18-.07-.33.15-.35.15-.72 0-1.07-.06-.14-.03-.22.07-.31.74-.74 1.49-1.48 2.22-2.22.1-.11.18-.14.33-.07.34.14.71.15 1.05 0 .16-.07.24-.03.35.08 1.08 1.09 2.16 2.17 3.25 3.25.06.06.13.12.17.16.19-.19.36-.36.55-.54-.02-.02-.04-.05-.07-.08-1.23-1.23-2.45-2.46-3.68-3.68-.21-.21-.39-.21-.63-.04-.32.23-.58.23-.88.01-.27-.19-.44-.19-.67.04l-2.85 2.85c-.23.23-.24.4-.04.67.22.3.22.56.01.85s-.2.44.04.68c1.2 1.21 2.41 2.41 3.61 3.62.04.04.09.08.13.11.18-.2.36-.37.59-.58m3.32-3.27c-.76-.55-1.84-.43-2.5.24-.66.66-.76 1.73-.22 2.49.16-.17.32-.33.46-.51.04-.05.05-.15.03-.21-.14-.46-.06-.88.29-1.22.34-.34.76-.42 1.22-.29.06.02.16.01.21-.03.18-.15.34-.31.51-.47" fill="#699e1e" data-color="1"/>
        <path d="M18.68 21.2c.43-.42.83-.81 1.24-1.22.05.04.11.1.18.17l2.97 2.97c.27.27.41.28.72.06.28-.19.56-.19.84.01s.44.19.68-.05l2.81-2.81c.26-.26.27-.41.05-.7-.21-.28-.21-.55 0-.83.22-.29.2-.44-.06-.7-.99-1-1.99-2-2.99-2.99-.06-.06-.15-.1-.21-.13.46-.46.85-.86 1.25-1.27.05.05.11.1.17.16l4.5 4.5c.56.56.56 1.15-.01 1.71l-5.79 5.79c-.56.56-1.15.56-1.71 0l-4.48-4.48c-.03-.08-.09-.13-.16-.19" fill="#699e1e" data-color="1"/>
        <path d="M20.43 19.38c.28-.27.53-.51.79-.75.06-.05.16-.08.24-.07 1.17.08 2.19-.92 2.1-2.11-.01-.07.01-.17.06-.22.24-.27.49-.52.75-.79.07.06.11.09.14.12l2.78 2.78c.11.11.14.18.07.33-.15.36-.15.73.01 1.1.05.12.03.19-.06.27q-1.14 1.125-2.28 2.28c-.09.09-.16.1-.27.05-.37-.15-.75-.14-1.12-.01-.07.03-.2.01-.25-.03-.97-.97-1.95-1.94-2.96-2.95" fill="#699e1e" data-color="1"/>
    </g>
</svg>
