<?xml version="1.0" encoding="UTF-8"?>
<svg data-bbox="15.558 11.74 175.972 176.95" viewBox="0 0 214.74 200" xmlns="http://www.w3.org/2000/svg" data-type="color">
    <g>
        <path d="M128.03 188.69c-6.64-2.52-13.28-5.05-19.93-7.55-4.85-1.83-5.66-6.45-1.66-9.77 4.95-4.12 10.07-8.05 14.83-12.38 4.07-3.71 9.44-1.71 9.83 3.5.02.22.08.45.17.85.68-.29 1.31-.53 1.9-.82 21.3-10.62 34.22-27.64 38.56-51.08 1.1-5.97 1.14-12.02.57-18.07-.15-1.59-.25-3.27.12-4.79.85-3.55 4.33-5.88 7.91-5.6 3.69.29 6.64 3.07 7.07 6.86 2.63 22.98-2.97 43.74-17.04 62.08-9.31 12.13-21.25 20.9-35.37 26.7-.32.13-.63.27-1.19.51 1.18 3.93 1.37 7.67-3.34 9.56zm1.29-5.16c-.28-1.78-.48-3.2-.73-4.6-.49-2.74-.1-3.44 2.52-4.4 32.49-11.94 53.49-43.8 51.68-78.44-.1-1.89-.29-3.79-.56-5.67-.22-1.52-1.42-2.42-2.76-2.25-1.36.17-2.22 1.26-2.19 2.82.01.63.07 1.26.13 1.89 1.54 16.65-1.9 32.16-10.74 46.37-8.66 13.93-20.71 23.86-35.92 29.95-2.37.95-3.69.18-4.18-2.38-.28-1.45-.53-2.9-.86-4.71-5.65 4.68-11.07 9.17-16.71 13.84 6.97 2.6 13.52 5.05 20.32 7.58" fill="#ffffff" data-color="1"/>
        <path d="M79.74 11.74c6.55 2.47 13.09 4.95 19.64 7.39 1.78.66 3.35 1.52 4.09 3.41.86 2.2.33 4.46-1.6 6.08-5.38 4.51-10.76 9.01-16.22 13.42-3.53 2.86-7.83 1.21-8.78-3.27-.11-.5-.23-1-.41-1.8-2.31 1.2-4.53 2.34-6.74 3.5-.66.35-1.28.79-1.96 1.09-1.37.6-2.52.19-3.25-1.07-.7-1.2-.56-2.58.63-3.21 4.26-2.24 8.58-4.38 12.95-6.37 1.29-.59 2.66.53 3 2.1.34 1.62.59 3.26.95 5.31 5.62-4.65 11.03-9.12 16.72-13.83-6.87-2.57-13.43-5.03-20.29-7.6.23 1.58.41 2.91.63 4.24.55 3.3.3 3.72-2.75 4.9-17.22 6.63-30.76 17.76-40.29 33.6-9.05 15.04-12.43 31.41-10.78 48.86.05.52.13 1.03.23 1.54.3 1.49 1.45 2.41 2.78 2.24 1.36-.18 2.25-1.28 2.19-2.83-.14-3.62-.53-7.25-.43-10.86.56-21.45 9.01-39.3 24.79-53.72 1.43-1.31 3.08-1.33 4.1-.12 1.03 1.22.8 2.67-.75 4.06-9.76 8.8-16.6 19.45-20.31 32.09-2.49 8.5-3.24 17.16-2.41 25.97.1 1.09.22 2.19.19 3.27-.14 3.99-3.32 7.15-7.31 7.34-3.93.19-7.5-2.71-7.96-6.65-2.55-21.6 2.24-41.41 14.74-59.22 9.5-13.53 22.05-23.33 37.33-29.58 1.21-.5 1.44-1.04 1.19-2.3-.89-4.46-.11-6.04 3.65-7.98z" fill="#ffffff" data-color="1"/>
        <path d="M185.97 11.74c4.13 1.41 5.59 4.34 5.56 8.63-.12 16.41-.05 32.82-.05 49.23 0 5.39-2.68 8.08-8.03 8.08-2.07 0-4.14.03-6.21-.01-2-.03-3.11-1.05-3.06-2.71.05-1.6 1.09-2.44 3.09-2.46q3.36-.03 6.72 0c1.55.01 2.32-.69 2.32-2.3-.01-16.99 0-33.98-.02-50.96 0-1.78-.57-2.31-2.43-2.31-4.25-.01-8.51-.03-12.76 0-2.98.02-4.66 1.7-4.71 4.75-.05 3.51 0 7.03-.02 10.54-.03 4.73-2.8 7.49-7.51 7.51-3.51.02-7.01-.01-10.52.01-2.91.02-4.67 1.64-4.69 4.58-.06 8.64-.04 17.28-.01 25.91.01 1.73.63 2.26 2.51 2.27 5.98.02 11.95.02 17.93 0 1.24 0 2.29.27 2.86 1.49.8 1.7-.32 3.64-2.34 3.66-6.61.07-13.22.16-19.82-.06-3.65-.12-6.25-3.04-6.28-6.78-.09-9.5-.07-19 .01-28.5.04-4.4 1.84-8.13 4.95-11.24 4.76-4.76 9.54-9.5 14.25-14.3 2.68-2.73 5.97-4.19 9.62-5.02 6.22-.01 12.43-.01 18.64-.01m-38.23 22.81c3.9 0 7.78.07 11.65-.07.61-.02 1.69-.92 1.71-1.45.14-3.97.08-7.96.08-11.91-4.5 4.49-8.9 8.89-13.44 13.43" fill="#ffffff" data-color="1"/>
        <path d="M67.63 114.06c.06-2.44.85-3.99 2.34-5.15 1.63-1.27 3.27-2.54 4.97-3.72.81-.56 1.12-1.16 1-2.14-.15-1.19-.37-2.46-.12-3.61.55-2.56-.29-4.24-2.53-5.48-1.24-.69-2.35-1.65-3.45-2.57-2.21-1.83-2.85-4.58-1.53-7.15 1.21-2.35 2.53-4.64 3.94-6.88 1.56-2.48 4.31-3.34 7.08-2.27 1.98.76 3.93 1.61 5.85 2.52.9.43 1.52.27 2.32-.27 1.52-1.02 3.11-1.96 4.76-2.75.96-.46 1.37-1.03 1.46-2.05.18-2 .41-4.01.73-5.99.54-3.28 2.54-5.12 5.83-5.27 2.41-.11 4.83-.11 7.24 0 3.29.15 5.28 1.98 5.83 5.27.34 2.04.45 4.12.83 6.15.12.64.68 1.35 1.24 1.73 1.62 1.08 3.32 2.05 5.04 2.95.56.29 1.4.44 1.96.24 1.94-.7 3.8-1.62 5.72-2.39 3.2-1.29 5.91-.39 7.69 2.56 1.19 1.97 2.34 3.96 3.44 5.98 1.62 2.98.98 5.87-1.71 7.95-1.5 1.16-3.01 2.32-4.56 3.39-.9.62-1.25 1.29-1.15 2.43.15 1.77.12 3.56.01 5.33-.07 1.03.14 1.72 1.02 2.32 1.56 1.07 3.06 2.24 4.57 3.39 2.86 2.2 3.48 5.07 1.75 8.22-1.08 1.96-2.2 3.91-3.35 5.83-1.74 2.91-4.5 3.83-7.7 2.55-1.86-.75-3.67-1.65-5.56-2.32-.62-.22-1.52-.12-2.12.18-1.74.87-3.43 1.86-5.05 2.94-.56.37-1.12 1.09-1.24 1.73-.39 2.09-.51 4.23-.87 6.32-.54 3.15-2.62 4.98-5.8 5.1-2.41.09-4.83.1-7.24 0-3.22-.13-5.3-2.05-5.82-5.29a82 82 0 0 1-.7-5.82c-.1-1.14-.52-1.82-1.66-2.28-1.42-.58-2.84-1.32-4.03-2.29-1.27-1.03-2.32-1.04-3.69-.31-1.62.85-3.34 1.54-5.05 2.18-2.85 1.07-5.55.17-7.18-2.43-1.31-2.1-2.54-4.24-3.7-6.42-.47-.88-.65-1.92-.81-2.41M103.8 134c.8 0 1.62-.08 2.41.02 1.59.2 2.09-.51 2.19-2.03.17-2.46.6-4.91.86-7.37.15-1.37.92-2.06 2.1-2.67 2.53-1.31 5.05-2.69 7.42-4.27 1.3-.88 2.42-1.12 3.82-.49 2.25 1.01 4.56 1.89 6.78 2.97 1.23.6 1.84.3 2.42-.84.78-1.54 1.64-3.04 2.57-4.48.65-1.02.63-1.66-.44-2.4-2.13-1.47-4.14-3.09-6.22-4.63-1.14-.84-1.4-1.88-1.31-3.3.18-2.79.23-5.62.03-8.4-.12-1.56.15-2.66 1.42-3.58 2.05-1.48 4.02-3.07 6.08-4.53.92-.65 1.19-1.22.53-2.25-.99-1.54-1.9-3.15-2.76-4.78-.53-1.01-1.08-1.27-2.17-.75-2.28 1.08-4.63 2-6.94 3.03-1.4.63-2.52.4-3.82-.49a61 61 0 0 0-7.26-4.21c-1.33-.66-2.13-1.42-2.29-2.9-.27-2.57-.63-5.14-.89-7.71-.1-1.05-.5-1.55-1.62-1.51-1.84.06-3.68.08-5.51-.01-1.28-.06-1.71.49-1.82 1.69-.23 2.52-.58 5.03-.85 7.54-.16 1.48-.97 2.25-2.3 2.9-2.46 1.2-4.87 2.56-7.11 4.11-1.4.98-2.6 1.22-4.13.52-2.24-1.03-4.55-1.91-6.78-2.97-1.1-.52-1.64-.24-2.17.76-.82 1.58-1.7 3.14-2.67 4.63-.67 1.03-.61 1.66.44 2.39 2.07 1.44 4.04 3.04 6.09 4.52 1.27.92 1.54 2.02 1.42 3.58-.21 2.73-.21 5.5 0 8.23.12 1.56-.15 2.67-1.42 3.58-2.05 1.48-4.01 3.08-6.09 4.52-1.05.73-1.12 1.36-.45 2.39a51 51 0 0 1 2.58 4.48c.58 1.13 1.18 1.46 2.42.85 2.27-1.1 4.63-2 6.94-3.03 1.29-.57 2.34-.34 3.53.43 2.44 1.58 4.97 3.04 7.55 4.38 1.18.62 1.96 1.32 2.11 2.67.18 1.72.39 3.43.59 5.14.52 4.27.52 4.27 4.72 4.27" fill="#ffffff" data-color="1"/>
        <path d="M17.94 159.68c-2.17-2.3-2.45-5.05-2.37-7.94.09-3.05-.01-6.1.03-9.15.05-4.94 3.56-8.56 8.47-8.57 18.68-.04 37.36-.04 56.03 0 4.85.01 8.37 3.47 8.51 8.35.11 3.85.21 7.73-.06 11.57-.14 1.97-1.1 3.88-1.81 6.24 1.73 1.86 2 4.72 1.92 7.72-.08 2.82 0 5.64-.02 8.46-.04 5.47-3.5 9-8.91 9.06-4.37.04-8.74.01-13.1.01-1.24 0-2.44-.36-2.71-1.65-.17-.83 0-2.06.53-2.63.56-.6 1.72-.84 2.63-.86 4.02-.09 8.04-.03 12.07-.04 3.24-.01 4.32-1.11 4.33-4.38.01-3.17.02-6.33 0-9.5-.02-2.87-1.13-4.04-3.94-4.04-18.28-.01-36.55-.01-54.83 0-2.82 0-3.92 1.16-3.93 4.03-.01 3.17-.01 6.33 0 9.5 0 3.37 1.04 4.39 4.46 4.39 9.14.01 18.28 0 27.41.01.63 0 1.27-.01 1.89.09 1.38.23 2.13 1.09 2.13 2.49 0 1.41-.75 2.26-2.12 2.51-.56.1-1.14.09-1.72.09-9.25 0-18.51.01-27.76 0-6.13-.01-9.47-3.37-9.48-9.51 0-3.11.05-6.22-.02-9.33-.06-2.54.53-4.8 2.37-6.92m34.21-20.5c-9.19 0-18.38-.01-27.58.01-2.63 0-3.79 1.18-3.8 3.79-.02 3.34-.01 6.68 0 10.02.01 2.93 1.15 4.12 4.05 4.12 18.21.01 36.42.01 54.64 0 2.79 0 3.98-1.23 4-4.02.02-3.22.01-6.45 0-9.67-.01-3.18-1.07-4.24-4.25-4.24-9.02-.01-18.04-.01-27.06-.01" fill="#ffffff" data-color="1"/>
        <path d="M31.13 178.7c-4.13.02-7.48-3.28-7.52-7.39-.04-4.07 3.34-7.48 7.42-7.5 4.11-.02 7.47 3.29 7.51 7.41.03 4.1-3.3 7.46-7.41 7.48m.03-5.19c1.27-.04 2.28-1.11 2.16-2.37-.13-1.31-.9-2.08-2.24-2.13-1.23-.04-2.3 1.07-2.28 2.3s1.11 2.24 2.36 2.2" fill="#ffffff" data-color="1"/>
        <path d="M54.65 171.23c.01 4.16-3.26 7.46-7.39 7.47s-7.48-3.3-7.49-7.41c-.02-4.08 3.35-7.48 7.43-7.49 4.12-.01 7.43 3.29 7.45 7.43m-5.19.07c.02-1.3-.96-2.31-2.23-2.31-1.23 0-2.36 1.09-2.26 2.31.11 1.29.82 2.12 2.18 2.2 1.28.08 2.29-.9 2.31-2.2" fill="#ffffff" data-color="1"/>
        <path d="M165.1 46.98c3.39 0 6.78-.01 10.16 0 1.88.01 3.05.98 3.08 2.51.04 1.59-1.17 2.66-3.13 2.66-6.83.02-13.67.02-20.5 0-1.88-.01-3.03-1.01-3.07-2.54-.04-1.62 1.13-2.62 3.13-2.63 3.44-.01 6.89 0 10.33 0" fill="#ffffff" data-color="1"/>
        <path d="M164.88 62.92c-3.39 0-6.77.01-10.16 0-1.91-.01-3.03-.95-3.07-2.5-.04-1.6 1.16-2.66 3.13-2.67 6.83-.02 13.66-.02 20.5 0 1.88.01 3.04 1.03 3.08 2.55.04 1.58-1.17 2.61-3.14 2.62-3.45.01-6.9 0-10.34 0" fill="#ffffff" data-color="1"/>
        <path d="M69.51 173.84c-2.35 0-4.71.01-7.06 0-1.91-.02-3.03-.95-3.06-2.51-.04-1.63 1.11-2.65 3.11-2.66 4.77-.02 9.53-.02 14.3 0 1.87.01 2.99 1.04 2.97 2.62-.01 1.58-1.12 2.53-3.02 2.55-2.42.01-4.83 0-7.24 0" fill="#ffffff" data-color="1"/>
        <path d="M119.77 100.24c-.01 8.8-7.11 15.9-15.9 15.89-8.77-.01-15.87-7.14-15.86-15.94.01-8.79 7.13-15.9 15.91-15.89s15.86 7.13 15.85 15.94m-5.18 0c.01-5.97-4.76-10.76-10.72-10.76-5.87 0-10.66 4.75-10.7 10.61-.04 5.98 4.71 10.82 10.64 10.85 5.97.03 10.77-4.74 10.78-10.7" fill="#ffffff" data-color="1"/>
        <path d="M31.05 155.55c-4.12-.01-7.47-3.36-7.45-7.46.02-4.08 3.42-7.45 7.5-7.44 4.09.01 7.45 3.39 7.43 7.49-.01 4.13-3.34 7.42-7.48 7.41m2.29-7.46c-.02-1.25-1.1-2.32-2.33-2.23-1.34.09-2.07.91-2.19 2.2-.11 1.22.99 2.29 2.25 2.3 1.27.01 2.29-1.01 2.27-2.27" fill="#ffffff" data-color="1"/>
        <path d="M54.65 148.17c-.02 4.16-3.31 7.41-7.47 7.39-4.11-.02-7.45-3.38-7.42-7.49.03-4.09 3.42-7.44 7.51-7.42 4.11.03 7.4 3.37 7.38 7.52m-5.19-.07c-.01-1.28-1.05-2.33-2.3-2.24-1.32.1-2.08.9-2.2 2.2-.11 1.23.98 2.3 2.24 2.31 1.29.01 2.27-.98 2.26-2.27" fill="#ffffff" data-color="1"/>
        <path d="M69.5 150.7c-2.35 0-4.71.02-7.06-.01-1.91-.02-3.02-.96-3.05-2.52-.03-1.58 1.09-2.64 2.95-2.65 4.82-.03 9.65-.03 14.47 0 1.87.01 2.98 1.05 2.96 2.63s-1.11 2.52-3.03 2.54c-2.42.02-4.83.01-7.24.01" fill="#ffffff" data-color="1"/>
    </g>
</svg>
