<?xml version="1.0" encoding="UTF-8"?>
<svg data-bbox="23.08 14.74 235.9 235.9" viewBox="0 0 282.05 265.38" xmlns="http://www.w3.org/2000/svg" data-type="color">
    <g>
        <path d="M151.23 69.51c-36.85-6.02-69.02 16.28-74.84 51.88-3.1 18.99 1.88 37.14 14.02 51.12l2.58 2.97-2.04 15.44 13.45-3.49 3.97-1.23 2.93 2.11c6.07 2.91 12.64 4.95 19.53 6.08 36.85 6.02 69.02-16.28 74.84-51.88 5.81-35.6-17.59-66.98-54.44-73m16.95 85.45c-1.87 3.38-8.54 5.65-11.57 5.61-2.71-.04-6.09-.42-9.58-2.19a89 89 0 0 1-8.23-4.67c-14.33-9.17-21.86-26.34-22.46-27.49s-4.91-9.36-3.68-16.92c1.24-7.56 5.81-10.63 7.47-11.94s3.39-1.42 4.41-1.25c1.03.17 2.05.34 2.94.53.94.2 2.27 0 3.03 3.2.78 3.29 2.62 11.35 2.87 12.18.26.83.37 1.77-.31 2.71s-1.04 1.54-1.95 2.31c-.92.77-1.94 1.74-2.75 2.31-.89.64-1.83 1.34-1.19 3.03s2.91 7.22 6.81 12.04c5.02 6.19 9.7 8.62 11.11 9.64s2.33 1.04 3.39.16 4.57-3.86 5.85-5.23 2.26-.95 3.58-.2c1.33.74 8.27 5.7 9.69 6.71 1.41 1.02 2.37 1.57 2.65 2.27.29.74-.21 3.81-2.08 7.19" fill="#7ea72e" data-color="1"/>
        <path d="M141.03 14.74c-65.14 0-117.95 52.81-117.95 117.95s52.81 117.95 117.95 117.95 117.95-52.81 117.95-117.95S206.17 14.74 141.03 14.74m81.87 130.58c-7.42 45.42-48.21 73.93-94.89 66.3-7.72-1.26-15.12-3.46-22.07-6.55l-35.71 9.26 4.42-33.48c-13.74-17.5-19.24-39.46-15.51-62.29 7.42-45.42 48.21-73.93 94.89-66.3 46.69 7.64 76.29 47.64 68.87 93.06" fill="#7ea72e" data-color="1"/>
    </g>
</svg>
