<?xml version="1.0" encoding="UTF-8"?>
<svg data-bbox="23.72 14.74 235.9 235.9" viewBox="0 0 282.05 265.38" xmlns="http://www.w3.org/2000/svg" data-type="color">
    <g>
        <path fill="#7ea72e" d="m125.94 156.28 40.86-23.59-40.86-23.59z" data-color="1"/>
        <path d="M141.67 14.74c-65.14 0-117.95 52.81-117.95 117.95s52.81 117.95 117.95 117.95 117.95-52.81 117.95-117.95S206.81 14.74 141.67 14.74m75.34 155.81c-1.81 6.77-7.14 12.1-13.9 13.9-12.26 3.28-61.44 3.28-61.44 3.28s-49.18 0-61.44-3.28c-6.77-1.81-12.1-7.14-13.9-13.9-3.29-12.27-3.29-37.85-3.29-37.85s0-25.59 3.29-37.85c1.81-6.77 7.14-12.1 13.9-13.9 12.26-3.29 61.44-3.29 61.44-3.29s49.18 0 61.44 3.29c6.77 1.81 12.1 7.14 13.9 13.9 3.29 12.26 3.29 37.85 3.29 37.85s0 25.58-3.29 37.85" fill="#7ea72e" data-color="1"/>
    </g>
</svg>
