<?xml version="1.0" encoding="UTF-8"?>
<svg data-bbox="8.26 10.498 289.757 227.342" viewBox="0 0 309 288" xmlns="http://www.w3.org/2000/svg" data-type="color">
    <g>
        <path d="M49.92 209.68c-7.34.02-13.9-6.24-14.13-13.77-.26-8.48-.21-16.97.04-25.45.05-1.54 1.71-3.03 2.63-4.54.53.25.28.04 0 .01-6.2-.68-9.18-4.8-11.78-9.99-5.45-10.89-11.4-21.52-17.14-32.26-2.07-3.86-1.78-4.85 1.99-6.87l117.03-62.73c1.04-.56 2.08-1.14 3.41-1.87-2.1-4.05-4.11-7.91-6.1-11.77-4.19-8.1-2.14-14.77 5.86-19.05 5.81-3.11 11.62-6.24 17.46-9.31 5.92-3.1 11.34-1.57 14.26 3.95 2.91 5.5 1.12 10.85-4.74 14.08-2.35 1.3-4.74 2.54-7.29 3.91.44.92.78 1.72 1.19 2.48 11.61 21.64 23.23 43.27 34.84 64.91 2.16 4.02 1.97 5.52-2.31 7.19-5.07 1.98-6.5 5.09-6.28 10.41.47 10.96.19 21.96.1 32.94-.02 1.93.5 3 2.31 3.91 3.51 1.76 4.38 3.85 5.16 10.58h29.01v-61.63c0-6.37.09-6.46 6.62-6.45 4.4 0 8.8.02 13.2.04.28 0 .57.14 1.29.33v3.08c0 11.98-.02 23.96.01 35.94.02 11.1 7.05 18.05 18.24 18.07 13.2.02 26.4 0 39.6 0h3.07c.26.42.45.58.45.74.02 13.17.2 26.35-.03 39.52-.12 6.96-5.71 12.69-12.5 13.68-3.97.58-4.02.54-4.92-3.36-3.04-13.23-14.6-22.89-28.03-23.44-13.37-.54-25.71 8.03-29.8 20.72-.12.38-.24.76-.35 1.15-1.4 5.15-1.4 5.15-6.67 5.15-13.3 0-26.6-.03-39.89.03-2.06.01-3.05-.31-3.52-2.75-2.71-14.23-15.08-24.34-29.33-24.31-14.3.03-26.38 10.05-29.47 24.3-.22 1-1.28 1.81-1.95 2.71-.66-.91-1.73-1.73-1.93-2.73-2.9-14.09-15.21-24.27-29.5-24.28-14.24 0-26.6 10.16-29.5 24.25-.19.76-.39 1.53-.61 2.48m28.4-43.69c.05.17.11.34.16.51h74.63c.06-1.11.07-2.09.18-3.06.36-3.39 1.83-6.2 4.98-7.65 1.78-.82 2.2-1.86 2.19-3.67-.08-9.07-.03-18.14-.05-27.22 0-.82-.15-1.63-.26-2.79-27.55 14.77-54.69 29.33-81.83 43.88m16.56-28.11c3.4-.03 4.92-2.6 3.56-5.18-5.15-9.78-10.4-19.51-15.67-29.22-.97-1.79-2.55-2.55-4.54-1.53-2.09 1.08-2.42 2.82-1.37 4.79 5.13 9.68 10.26 19.36 15.51 28.97.58 1.06 1.95 1.71 2.51 2.17m-47.66-17.79c.62 1.36.99 2.28 1.45 3.14 3.88 7.2 7.78 14.39 11.67 21.58 1.24 2.28 2.42 4.59 3.75 6.81 1.01 1.69 2.59 2.25 4.36 1.23 1.67-.96 2.28-2.46 1.48-4.33-.27-.64-.6-1.26-.93-1.88-4.79-8.87-9.58-17.73-14.37-26.59-.33-.61-.57-1.5-1.09-1.74-1.15-.53-2.61-1.24-3.66-.93-1.06.33-1.79 1.77-2.66 2.71m109.31-15.74c-.29-1.09-.33-1.72-.61-2.23-5.3-9.85-10.58-19.7-15.97-29.5-1.15-2.09-3.43-2.41-5.08-.99-1.85 1.59-1.24 3.32-.27 5.12 5 9.22 9.96 18.45 14.95 27.67.33.61.63 1.48 1.16 1.69 1.11.45 2.51.99 3.51.66.99-.33 1.65-1.69 2.31-2.42m-28.66 15.32c-.46-1.27-.68-2.13-1.07-2.92-.75-1.52-1.58-3-2.38-4.48-4.32-7.96-8.64-15.93-12.96-23.89-.99-1.83-2.44-2.72-4.44-1.76-2.07.99-2.46 2.72-1.57 4.78.16.36.35.72.54 1.07 4.87 9.02 9.74 18.05 14.63 27.07.38.7.72 1.64 1.34 1.93 1.08.51 2.5 1.06 3.51.74.98-.33 1.64-1.69 2.4-2.54m114.44 43.96c0-.1-.01-.2-.01-.3-1.79.1-3.68-.12-5.33.41-1.17.38-2.58 1.62-2.87 2.74-.48 1.84 1.03 2.99 2.82 3.07 3.28.16 6.59.31 9.84-.06.96-.11 2.43-1.97 2.39-2.98-.04-.99-1.54-2.31-2.69-2.77-1.21-.49-2.76-.11-4.15-.11" fill="#699e1e" data-color="1"/>
        <path d="M297.95 149.54c-1.34.06-2.23.13-3.11.13-13.39.01-26.78.02-40.17 0-7.8-.01-12.05-4.25-12.07-12.02-.02-11.97.09-23.94-.08-35.91-.04-2.88.93-3.53 3.58-3.43 5.19.19 10.39-.03 15.58.11 19.73.54 35.41 15.93 36.22 35.62.23 5.05.05 10.13.05 15.5" fill="#699e1e" data-color="1"/>
        <path d="M167.72 212.96c.02 13.56-11.2 24.83-24.75 24.87-13.68.04-25.04-11.26-25.06-24.93-.01-13.72 11.22-24.81 25.09-24.78 13.64.04 24.69 11.14 24.72 24.84m-36.91-.13c-.05 7.23 4.99 12.4 12.1 12.4 6.91 0 11.97-5.14 12.02-12.2.05-7.1-4.89-12.27-11.82-12.36-7.2-.09-12.25 4.9-12.3 12.16" fill="#699e1e" data-color="1"/>
        <path d="M226.34 212.97c-.05-13.69 10.98-24.8 24.64-24.84 13.89-.04 25.15 11.06 25.11 24.75-.03 13.69-11.35 24.97-25.02 24.95-13.55-.02-24.68-11.2-24.73-24.86m36.82-.18c-.06-7.32-5.08-12.24-12.34-12.11-7.02.12-11.88 5.21-11.8 12.39.07 7.13 5.06 12.15 12.08 12.16 7.15 0 12.12-5.13 12.06-12.44" fill="#699e1e" data-color="1"/>
        <path d="M79.91 188.13c13.85-.02 24.94 11.12 24.87 25-.07 13.63-11.31 24.78-24.92 24.71s-24.71-11.27-24.72-24.94c-.01-13.72 11.02-24.75 24.77-24.77m12.14 24.8c0-7.27-4.99-12.3-12.16-12.26-7.06.04-11.95 4.97-12.02 12.11-.07 7.25 4.9 12.4 12.01 12.46 7.08.05 12.16-5.09 12.17-12.31" fill="#699e1e" data-color="1"/>
    </g>
</svg>
