<?xml version="1.0" encoding="UTF-8"?>
<svg data-bbox="8.685 3.9 25.185 24.97" viewBox="0 0 43 34" xmlns="http://www.w3.org/2000/svg" data-type="color">
    <g>
        <path d="M33.86 17.56c-.25.54-.49 1.08-.74 1.62-.13.29-.65.46-.93.31a.24.24 0 0 1-.08-.09c-.41-.75-.82-1.5-1.25-2.29.09-.01.16-.02.23-.02.73 0 1.46.01 2.19 0 .29 0 .49.08.59.37-.01.04-.01.07-.01.1" fill="#699e1e" data-color="1"/>
        <path d="M21.25 26.91h-9.52c-.99 0-1.61-.62-1.62-1.61v-3.47c0-.12.03-.26.09-.37 1.26-2.32 2.53-4.64 3.8-6.96.64-1.18 1.63-1.78 2.97-1.78h8.56c1.35 0 2.33.6 2.97 1.78 1.27 2.32 2.54 4.64 3.8 6.96.06.11.09.25.09.37.01 1.15.01 2.3 0 3.44 0 1.02-.62 1.63-1.64 1.63-3.16.01-6.33.01-9.5.01m7.34-8.95c-.05-.11-.08-.18-.11-.24-.45-.85-.91-1.7-1.36-2.55-.36-.69-.92-1.02-1.71-1.02-2.76.01-5.52.01-8.29 0-.8 0-1.35.33-1.72 1.03-.44.85-.9 1.69-1.35 2.53-.04.07-.06.14-.11.24h8.35l.06-.24c.29-1.11 1.33-1.92 2.47-1.92 1.22 0 2.23.78 2.54 1.98.02.07.11.18.17.18.34.02.68.01 1.06.01m-3.97 7.27c-.17-.62-.34-1.23-.52-1.83-.01-.05-.12-.1-.19-.1q-2.655-.015-5.31 0c-.06 0-.17.05-.19.11-.18.6-.34 1.21-.51 1.82zm1.92-7.27c-.1-.73-.84-1.33-1.65-1.34-.84-.02-1.59.56-1.74 1.34zm-14.58 4.95h3.41v-.42c-1.14-.21-2.27-.41-3.41-.61zm18.59-1.03c-1.16.21-2.29.41-3.41.62v.41h3.41z" fill="#699e1e" data-color="1"/>
        <path d="M20.17 6.84h2.8c.48 0 .78.31.79.78v2.88c0 .49-.31.8-.8.8-1.13 0-2.26.01-3.39 0-.52 0-.81-.3-.81-.83v-2.8c0-.35.14-.61.46-.77.06-.03.11-.14.12-.22.03-.44-.01-.89.07-1.32.18-.9 1.13-1.55 2.01-1.45 1 .12 1.76.92 1.76 1.86 0 .28-.15.47-.39.48-.22.01-.4-.15-.42-.42-.05-.54-.31-.91-.84-1.06-.63-.18-1.31.26-1.36.91-.03.37 0 .75 0 1.16m1.08 2.86c.36 0 .65-.27.65-.62a.644.644 0 0 0-.63-.65.64.64 0 0 0-.65.63c-.01.35.27.64.63.64" fill="#699e1e" data-color="1"/>
        <path d="M12.6 7.95c.04-1.21.51-2.23 1.31-3.1.2-.21.42-.23.6-.06.19.17.19.39 0 .61-.47.53-.84 1.13-.99 1.84-.26 1.21.11 2.24.88 3.16.05.06.11.12.16.19.14.2.12.43-.06.57-.17.14-.41.12-.57-.06-.57-.61-.99-1.3-1.18-2.12-.07-.35-.1-.69-.15-1.03" fill="#699e1e" data-color="1"/>
        <path d="M29.89 7.96c-.01 1.22-.49 2.24-1.29 3.12-.18.19-.42.21-.59.06-.19-.16-.2-.39-.01-.61.47-.53.83-1.11.99-1.81.26-1.15-.06-2.16-.77-3.08-.08-.1-.16-.19-.24-.28-.16-.2-.15-.41.02-.57.18-.17.4-.16.59.03.81.89 1.29 1.92 1.3 3.14" fill="#699e1e" data-color="1"/>
        <path d="M11.67 17.11c-.31.57-.6 1.1-.89 1.63l-.21.39c-.24.44-.25.46-.74.38-.15-.02-.33-.14-.39-.27-.26-.5-.49-1.02-.71-1.53-.13-.3.03-.58.36-.59.84-.02 1.69-.01 2.58-.01" fill="#699e1e" data-color="1"/>
        <path d="M14.08 8.02c.02-.95.33-1.72.88-2.39.17-.2.4-.24.58-.11.19.14.22.39.05.61-.3.39-.54.8-.64 1.28-.17.83.05 1.57.54 2.24.04.06.09.11.13.18.12.19.08.42-.09.55-.18.13-.4.12-.55-.06-.45-.53-.76-1.14-.87-1.84-.01-.17-.02-.35-.03-.46" fill="#699e1e" data-color="1"/>
        <path d="M28.44 7.89c-.02.97-.34 1.74-.9 2.42-.17.2-.4.22-.59.07-.17-.14-.2-.38-.05-.57.31-.41.56-.84.66-1.35.15-.8-.06-1.51-.52-2.15-.04-.08-.1-.14-.14-.21-.13-.2-.1-.44.07-.57.16-.13.41-.11.55.06.46.53.76 1.14.87 1.84.03.18.04.36.05.46" fill="#699e1e" data-color="1"/>
        <path d="M13.58 27.7v.25c0 .68-.23.92-.91.92H10.9c-.5 0-.78-.27-.8-.76-.01-.3 0-.6 0-.96.48.37.98.56 1.53.55z" fill="#699e1e" data-color="1"/>
        <path d="M28.93 27.7c.51 0 .99-.01 1.47 0 .71.02 1.39-.04 1.96-.53l.06.03c-.02.39-.01.79-.07 1.18-.04.28-.35.47-.67.48q-1.02.015-2.04 0c-.44-.01-.71-.3-.72-.73.01-.13.01-.27.01-.43" fill="#699e1e" data-color="1"/>
        <path d="M16.29 6.24c.4.01.56.32.42.62-.12.26-.26.51-.32.79-.11.47.02.92.26 1.34.07.12.13.29.09.4-.04.12-.2.28-.32.28a.54.54 0 0 1-.42-.21c-.51-.77-.61-1.6-.28-2.47.08-.2.18-.39.3-.56.08-.1.22-.16.27-.19" fill="#699e1e" data-color="1"/>
        <path d="M26.97 7.96c.01.54-.16 1.03-.45 1.48-.16.24-.38.31-.58.19-.22-.13-.27-.36-.11-.62.44-.71.44-1.41-.01-2.12-.15-.24-.1-.47.1-.6s.44-.06.59.17c.31.46.47.96.46 1.5" fill="#699e1e" data-color="1"/>
    </g>
</svg>
