<?xml version="1.0" encoding="UTF-8"?>
<svg data-bbox="8.68 6.26 25.18 21.83" viewBox="0 0 43 34" xmlns="http://www.w3.org/2000/svg" data-type="color">
    <g>
        <path d="M8.68 20.81c.12-.23.32-.3.57-.29.36.01.72 0 1.1 0V7.65c0-.88.51-1.39 1.38-1.39H30.8c.85 0 1.37.52 1.37 1.38v1.98h-.85V7.89c0-.72-.06-.78-.79-.78H11.71c-.36.01-.51.16-.52.51v12.89h11.73v2.55h-.31c-4.1 0-8.19-.01-12.29.01-.78 0-1.36-.21-1.64-.98z" fill="#699e1e" data-color="1"/>
        <path d="M33.86 19.29v7.45c0 .83-.52 1.35-1.35 1.35h-7.37c-.82 0-1.35-.53-1.36-1.35V11.8c0-.8.54-1.34 1.34-1.34h7.4c.81 0 1.34.54 1.34 1.34zM24.65 13v11.7H33V13zM28 26.41c0 .46.37.83.82.83s.82-.37.83-.83a.826.826 0 1 0-1.65 0m1.66-14.29s0 .01 0 0c.15 0 .29.01.44 0 .24-.02.39-.19.38-.42a.39.39 0 0 0-.39-.39c-.29-.01-.59-.01-.88 0-.23.01-.38.17-.38.39s.14.39.36.41c.16.02.32.01.47.01m-1.69-.4c0-.23-.16-.4-.39-.41-.24 0-.41.16-.41.39-.01.25.16.42.41.42.22 0 .38-.16.39-.4" fill="#699e1e" data-color="1"/>
    </g>
</svg>
