<?xml version="1.0" encoding="UTF-8"?>
<svg data-bbox="13.69 4.24 25.17 25.167" viewBox="0 0 43 34" xmlns="http://www.w3.org/2000/svg" data-type="color">
    <g>
        <path d="M17.74 5.86V4.71c0-.33.14-.47.48-.47h7.97c.35 0 .48.14.48.49v1.13h3.55c.38 0 .51.13.51.52v7.54c.6.05 1.17.07 1.74.16 2.97.46 5.49 2.84 6.18 5.79.93 4-1.3 7.95-5.22 9.17-2.41.74-4.67.35-6.75-1.08a.86.86 0 0 0-.53-.17c-3.96.01-7.92 0-11.87 0-.48 0-.59-.1-.59-.57V6.44c0-.47.11-.57.58-.57h3.17c.09-.01.18-.01.3-.01M21 16.01h.3c1.47 0 2.94 0 4.41-.01.12 0 .27-.05.36-.13.61-.53 1.28-.96 2.03-1.27.16-.07.21-.15.21-.32-.01-1.38 0-2.76 0-4.14 0-.07-.01-.14-.01-.21H16.15v14.59h7.79c-.17-.67-.33-1.33-.51-2.02h-2.41v-.81h2.43v-.81h-2.42v-.81h2.37c.16 0 .23-.04.27-.21.07-.31.18-.61.29-.92.05-.16.12-.32.2-.51h-3.12v-.8h3.37c.08 0 .19-.01.23-.06.18-.23.33-.48.53-.76h-4.13c-.04-.27-.04-.52-.04-.8m10.14 12.57c3.84-.03 6.92-3.11 6.9-6.93-.01-3.83-3.13-6.88-7.02-6.86-3.75.02-6.82 3.17-6.79 6.96.04 3.76 3.16 6.85 6.91 6.83m-5.68-1.62c-.34-.47-.67-.93-.98-1.4-.1-.15-.19-.22-.38-.22-2.75.01-5.5 0-8.25 0-.43 0-.55-.12-.55-.53V9.63c0-.41.12-.53.52-.53h12.76c.39 0 .52.13.52.51v4.61c.29-.06.54-.12.79-.17V6.68h-3.23v1.07c0 .42-.12.54-.55.54h-7.84c-.43 0-.54-.12-.55-.54V6.68h-3.23v20.28zM18.57 7.47h7.28V5.06h-7.28z" fill="#699e1e" data-color="1"/>
        <path d="M20.28 10.85c.21.21.39.4.61.62-.19.17-.39.34-.56.53-.08.08-.13.21-.13.33-.01.66-.01 1.32-.01 1.98 0 .35-.14.49-.49.49h-2.28c-.34 0-.48-.14-.48-.47v-2.31c0-.33.14-.47.48-.47.66 0 1.32.01 1.98-.01.12 0 .26-.06.35-.14.18-.17.34-.36.53-.55M19.35 13c-.02-.02-.04-.03-.06-.05-.14.18-.27.36-.4.52l-.68-.65c.18-.15.36-.28.58-.46h-1.04v1.6h1.6z" fill="#699e1e" data-color="1"/>
        <path d="M20.27 14.89c.23.22.41.4.62.61-.2.19-.4.37-.58.56-.07.08-.12.2-.13.3-.01.66-.01 1.32-.01 1.98 0 .37-.13.51-.5.51h-2.25c-.37 0-.5-.13-.5-.51v-2.25c0-.35.14-.49.49-.49.64 0 1.28-.01 1.93 0 .17 0 .31-.03.42-.17.16-.18.34-.35.51-.54m-2.51 1.53v1.6h1.59v-.99c-.19.18-.35.33-.47.45-.21-.19-.4-.36-.68-.61.19-.14.37-.27.55-.4l-.04-.04c-.31-.01-.62-.01-.95-.01" fill="#699e1e" data-color="1"/>
        <path d="M20.29 18.97c.2.21.38.4.59.61-.18.17-.39.35-.57.55-.07.08-.12.2-.13.3-.01.66-.01 1.32-.01 1.98 0 .37-.13.51-.5.51h-2.25c-.37 0-.5-.13-.5-.51v-2.25c0-.35.14-.49.49-.49.64 0 1.28-.01 1.93 0 .17 0 .3-.04.42-.17.17-.18.35-.35.53-.53m-1.53 1.58c-.02-.02-.03-.04-.05-.06h-.95v1.59h1.59v-1q-.285.27-.48.45c-.21-.19-.4-.36-.63-.57.18-.14.35-.27.52-.41" fill="#699e1e" data-color="1"/>
        <path d="M21 12.75v-.78h6.46v.78z" fill="#699e1e" data-color="1"/>
        <path d="M21 14.37v-.78h4.85v.78z" fill="#699e1e" data-color="1"/>
        <path d="M27.47 14.38h-.78v-.79h.78z" fill="#699e1e" data-color="1"/>
        <path d="M30.95 23.71c-.23.13-.27.28-.23.52.25 1.73-1.43 3.15-3.11 2.63-.46-.14-.54-.47-.2-.81.18-.19.35-.39.56-.55.33-.25.38-.56.31-.95-.34-.04-.66-.07-.92.27-.17.23-.4.41-.6.61-.32.31-.65.22-.79-.2-.54-1.69.9-3.36 2.69-3.11.16.02.27 0 .37-.12.09-.1.2-.18.31-.27-.21-.3-.42-.51-.79-.44-.3.06-.53-.08-.74-.3-.57-.6-1.17-1.18-1.75-1.76-.29-.29-.29-.47-.01-.75.62-.62 1.24-1.25 1.87-1.87.28-.27.47-.27.75.01.61.6 1.2 1.21 1.82 1.81.17.17.28.34.24.58-.06.37.06.66.45.87.11-.12.25-.25.37-.4.04-.05.04-.14.03-.21-.22-1.31.57-2.5 1.87-2.8.44-.1.87-.08 1.3.07.37.13.44.45.17.74-.2.21-.39.43-.61.61-.33.25-.38.57-.3.95.35.05.67.06.92-.27.18-.23.41-.43.62-.63.29-.28.61-.21.75.17.49 1.34-.45 2.94-1.87 3.15-.27.04-.55.02-.83.01-.21-.01-.21-.02-.48.3.08.05.18.09.25.16.95.94 1.89 1.89 2.84 2.83.31.31.3.48-.01.79l-1.36 1.36c-.37.37-.52.37-.88.01l-2.8-2.8c-.07-.08-.14-.14-.21-.21m-4.07-4.84c.46.46.93.92 1.39 1.4.14.15.29.23.49.19.38-.06.65.09.91.37.4.44.84.85 1.23 1.25.24-.21.45-.4.67-.61-.41-.41-.8-.82-1.22-1.2-.32-.29-.5-.6-.43-1.04.01-.08 0-.21-.05-.26-.51-.53-1.03-1.04-1.54-1.54-.48.48-.96.95-1.45 1.44m8.48 6.09-3.03-3.03c-.31.31-.64.64-1 1.01 1 1.01 2.02 2.03 3.02 3.04.37-.38.71-.72 1.01-1.02m-8.63-.65c.17-.17.28-.31.41-.42.11-.09.26-.17.4-.18.37-.02.74-.02 1.12-.01.32.01.45.16.45.48 0 .36.02.71-.01 1.06-.01.15-.09.31-.18.45-.1.14-.24.25-.41.42 1.02-.18 1.6-1.1 1.33-2.04-.08-.26-.03-.46.17-.63.09-.08.18-.16.25-.25.04-.06.06-.14.08-.21.09-.37-.21-.5-.44-.72l-.57.6c-.15.16-.32.18-.53.14-.2-.04-.41-.09-.62-.08-.72.01-1.4.65-1.45 1.39m7-7.04c-.78.03-1.62.98-1.29 2.01.09.27.03.47-.17.65-.19.17-.36.34-.55.53.24.2.36.47.71.44.25-.02.34-.2.47-.34.19-.19.38-.26.65-.18.64.2 1.32-.02 1.71-.56.15-.2.23-.44.34-.67l-.09-.06c-.12.13-.23.27-.36.38-.1.08-.23.17-.35.18-.4.02-.81.02-1.22.01-.26-.01-.4-.18-.41-.45 0-.18.02-.36 0-.53-.06-.55.04-1.02.52-1.35.02-.01.03-.04.04-.06" fill="#699e1e" data-color="1"/>
        <path d="M19.38 6.66v-.78h.78v.78z" fill="#699e1e" data-color="1"/>
        <path d="M24.26 5.87h.78v.79h-.78z" fill="#699e1e" data-color="1"/>
    </g>
</svg>
