<?xml version="1.0" encoding="UTF-8"?>
<svg data-bbox="21.383 15.298 522.437 181.712" viewBox="0 0 566.93 210.9" xmlns="http://www.w3.org/2000/svg" data-type="color">
    <g>
        <path d="M22.04 136.87s.48.01.99-.75 4.94-8.54 16.45-8.75c0 0 1.79.62 2.21-2.31s5.25-4.23 6.49-4.8 5-2.01 2.98-6.49c-2.02-4.49-8.3-9.24-7.42-11.37.56-1.36 10.27 2.64 10.78 2.77 1.07.27 2.08.54 2.67.11 1.32-.97-1.29-16.5.55-17.03s7.15 10.2 7.15 10.2.87 1.89 2.64 1.71c.88-.09 1.59-.26 2.16-1.73.63-1.64 2.66-9.05 2.82-9.48.59-1.59 2.82-2.25 3.42.09.71 2.79-.06 8.16.09 11.04.09 1.77.52 2.76 1.68 3.27 1.41.62 3.15 1 7.5-3.41 0 0 2.54-2.58 3.77-1.9 1.18.65-.8 7.94-3.81 11.85-.44.57-.24 1.43.44 1.67.01 0 .03.01.04.01 1.33.44 9.98-11.18 11.05-20.85 1.06-9.67.62-22.21-5.74-34.04C85.38 46.32 71.51 17.8 71.51 17.8s-1.21-2.5-2.82-2.5c-.45 0-1.24-.17-2.7 2.7-1.63 3.21-27.61 54.16-44.22 114.75 0 0-1.03 4.26.27 4.12" fill="#006e97" data-color="1"/>
        <path d="M102.24 83.96c-.4-.82-1.63-.65-1.76.25-.04.24-.06.53-.07.86-.04 1.47-.36 33.74-23.31 45.22-5.97 2.99-12.51 4.45-19.17 4.58-5.31.1-10.57-1.37-15.84-.91-9.34.81-16.67 6.71-19.26 15.78-2.69 9.43 3.71 22.6 10.96 26.62 12.45 6.89 32.67-.38 38.07-3.09 6.89-3.46 11.82-8.92 16.25-15.46.18-.27.77-1.24.97-1.5 0 0 .79-1.41 1.59-.61 1.22 1.23-4.7 10.66-8.3 13.77-3.51 3.04-11.99 11.88-39.55 15.26-.8.1-1.11 1.11-.49 1.63 4.65 3.94 19.5 14.52 39.42 9.17 24.1-6.49 50.5-50.12 20.49-111.57" fill="#7da837" data-color="2"/>
        <path d="m363.18 82.1-8.19-1.15v.02c-5.41-.66-17.56-.77-17.42 11.76.14 12.59 11.61 12.88 17.26 11.87-.12 1.58-.42 3.21-1.3 3.98-1.75 1.53-4.5 1.72-11.39.07-.01 0-.73 6.56-.73 6.56s11.13 2.78 16.96-.93c4.84-3.08 4.57-11.2 4.57-11.2zm-17.67 11.13c-.14-6.68 6.53-6.22 9.63-5.65.02 1.55.04 3.09.04 4.64 0 1.87-.02 3.75-.07 5.62-3.26.8-9.47 1.5-9.6-4.61" fill="#e32021" data-color="3"/>
        <path fill="#e32021" d="M162.96 104.534h-7.24v-33.21h7.24z" data-color="3"/>
        <path fill="#e32021" d="M225.322 104.532h-7.24v-33.21h7.24z" data-color="3"/>
        <path fill="#e32021" d="M257.61 73.27h-28.5v7.24h10.63v24.03h7.24V80.51h10.63z" data-color="3"/>
        <path fill="#e32021" d="M151.48 79.78v-7.25h-23.5v7.25h.06V97.3h-.06v7.24h23.5V97.3h-15.67v-5.16h14.02V84.9h-14.02v-5.12z" data-color="3"/>
        <path fill="#e32021" d="M306.13 79.78v-7.25h-23.49v7.25h.05V97.3h-.05v7.24h23.49V97.3h-15.66v-5.16h14.01V84.9h-14.01v-5.12z" data-color="3"/>
        <path d="M189.89 88.71c-3.58-10.33-18.62-9.87-22.06-.31 0 0-2.47 5.82 1.32 11.84 5.39 8.56 19.75 3.12 19.75 3.12l-.76-5.78s-10.95 3.47-13.6-1.91h15.01c.01 0 1.47-3.72.34-6.96m-15.02 2.38c0-2.39 1.94-4.09 4.34-4.09 2.39 0 4.33 1.69 4.33 4.09z" fill="#e32021" data-color="3"/>
        <path d="M430.45 88.51c-3.58-10.33-18.62-9.87-22.06-.31 0 0-2.47 5.82 1.32 11.84 5.39 8.56 19.75 3.12 19.75 3.12l-.76-5.78s-10.95 3.47-13.6-1.91h15.01s1.46-3.72.34-6.96m-15.03 2.38c0-2.39 1.94-4.09 4.34-4.09s4.33 1.69 4.33 4.09z" fill="#e32021" data-color="3"/>
        <path d="M456.24 88.51c-3.58-10.33-18.62-9.87-22.06-.31 0 0-2.47 5.82 1.32 11.84 5.39 8.56 19.75 3.12 19.75 3.12l-.76-5.78s-10.95 3.47-13.6-1.91h15.01c.01 0 1.46-3.72.34-6.96m-15.03 2.38c0-2.39 1.94-4.09 4.34-4.09s4.33 1.69 4.33 4.09z" fill="#e32021" data-color="3"/>
        <path d="M213.81 82.01s-20.26-5.98-20.4 10.72c-.13 15.65 18.55 12.2 20.4 11.01l-.66-6.49s-12.45 4.55-12.72-4.16c-.26-8.69 12.32-5.16 12.32-5.16z" fill="#e32021" data-color="3"/>
        <path d="M311.28 82.23v22.04h7.6l.01-16.03s4.9-.71 6.49.22c.84.49 1.35 1.63 1.37 2.87.03 1.46 0 12.94 0 12.94h7.76V89.89c0-2.44-1.1-5.05-2.79-6.82-1.06-1.11-2.75-1.94-4.57-1.99-4.11-.1-15.87 1.15-15.87 1.15" fill="#e32021" data-color="3"/>
        <path d="M380.45 82.23v22.04h7.6l.01-16.03s4.9-.71 6.49.22c.84.49 1.35 1.63 1.37 2.87.03 1.46 0 12.94 0 12.94h7.76V89.89c0-2.44-1.1-5.05-2.79-6.82-1.06-1.11-2.75-1.94-4.57-1.99-4.11-.1-15.87 1.15-15.87 1.15" fill="#e32021" data-color="3"/>
        <path d="M491.75 82.23v22.04h7.6l.01-16.03s4.9-.71 6.49.22c.84.49 1.35 1.63 1.37 2.87.03 1.46 0 12.94 0 12.94h7.76V89.89c0-2.44-1.1-5.05-2.79-6.82-1.06-1.11-2.75-1.94-4.57-1.99-4.11-.1-15.87 1.15-15.87 1.15" fill="#e32021" data-color="3"/>
        <path d="m543.82 82.01-8.19-1.15v.02c-5.41-.66-17.56-.77-17.42 11.76.14 12.59 11.61 12.88 17.26 11.87-.12 1.58-.42 3.21-1.3 3.98-1.75 1.53-4.5 1.72-11.39.07-.01 0-.73 6.56-.73 6.56s11.13 2.78 16.96-.93c4.84-3.08 4.57-11.2 4.57-11.2zm-17.67 11.13c-.14-6.68 6.53-6.22 9.63-5.65.02 1.55.04 3.09.04 4.64 0 1.87-.02 3.75-.07 5.62-3.26.8-9.47 1.5-9.6-4.61" fill="#e32021" data-color="3"/>
        <path fill="#e32021" d="M375.135 104.539h-7.24v-23.05h7.24z" data-color="3"/>
        <path fill="#e32021" d="M376.1 74.68a4.59 4.59 0 1 1-9.18 0 4.59 4.59 0 0 1 9.18 0" data-color="3"/>
        <path fill="#e32021" d="m479.19 104.54.07-22.79h7.24l-.07 22.79z" data-color="3"/>
        <path fill="#e32021" d="M487.4 74.68a4.59 4.59 0 1 1-9.18 0 4.59 4.59 0 0 1 9.18 0" data-color="3"/>
        <path d="M475.62 81.22s-7.34-.51-15.23 1.31v21.67h7.43V88.64h7.8z" fill="#e32021" data-color="3"/>
        <path d="M425.68 140.62c-.8.37-3.67.97-6.27.84-4.72-.24-8.28-3-8.28-8.13 0-4.89 3.62-8.52 8.81-8.52 2.09 0 5.08.47 5.65.75l-.31 3.53c-.82-.37-3.64-.71-5.03-.71-3.93 0-5.21 2.69-5.21 5.03 0 2.96 1.81 4.68 5.19 4.88 1.71.1 4.44-.51 5.19-.86z" fill="#7da837" data-color="2"/>
        <path d="M461.31 132.94h-.07c-.53 1.66-3.58 8.37-3.58 8.37h-3.07l-3.98-8.37h-.05c-.05 1.77-.29 8.37-.29 8.37h-3.71l1.13-15.99h3.44l4.95 11.53h.07l4.81-11.53h3.52l.8 15.99h-3.5z" fill="#7da837" data-color="2"/>
        <path d="m144.34 138.37-1.33 2.94h-3.93l6.86-15.99h3.83l6.89 15.99h-4.02l-1.14-2.94zm5.83-3.05-2.3-5.65-2.34 5.65z" fill="#7da837" data-color="2"/>
        <path d="m215 138.37-1.33 2.94h-3.93l6.86-15.99h3.83l6.89 15.99h-4.02l-1.14-2.94zm5.83-3.05-2.3-5.65-2.34 5.65z" fill="#7da837" data-color="2"/>
        <path d="M158.51 125.32h11.44v3.29h-7.73v3.84h6.67v3.27h-6.67v5.59h-3.71z" fill="#7da837" data-color="2"/>
        <path d="M191.46 125.32v15.99h-3.84v-15.99z" fill="#7da837" data-color="2"/>
        <path d="M208.2 140.62c-.8.37-3.67.97-6.27.84-4.72-.24-8.28-3-8.28-8.13 0-4.89 3.62-8.52 8.81-8.52 2.09 0 5.08.47 5.65.75l-.31 3.53c-.82-.37-3.64-.71-5.03-.71-3.93 0-5.21 2.69-5.21 5.03 0 2.96 1.81 4.68 5.19 4.88 1.71.1 4.44-.51 5.19-.86z" fill="#7da837" data-color="2"/>
        <path d="m237.31 129.45-3.49.88-.97-3.14 8.13-1.99v16.1h-3.67z" fill="#7da837" data-color="2"/>
        <path d="M244.55 136.98c2.19 1.32 8.88 2.45 8.88-.13 0-1.85-3.62-1.91-5.76-2.65-2.59-.82-3.64-2.31-3.64-4.31 0-2.21 1.85-4.97 5.76-5.03 3.78-.07 6.89 1.19 6.89 1.19l-.86 3.31c-.52-.25-8.02-2.58-8.06.45-.02 1.32 1.82 1.81 4.35 2.2 4.24.66 5.2 2.96 5.1 5.03-.2 4.24-5.76 4.9-9.47 4.37-1.52-.22-2.85-.46-4.05-.9z" fill="#7da837" data-color="2"/>
        <path d="M263.23 128.63h-5.43v-3.31h14.84v3.31h-5.56v12.68h-3.84v-12.68z" fill="#7da837" data-color="2"/>
        <path d="M348.56 128.63h-5.43v-3.31h14.84v3.31h-5.56v12.68h-3.84v-12.68z" fill="#7da837" data-color="2"/>
        <path d="M283.73 125.32v6.69h6.67v-6.69h3.78v15.99h-3.78v-6.06h-6.67v6.06h-3.87v-15.99z" fill="#7da837" data-color="2"/>
        <path d="M393.7 125.32v6.69h6.67v-6.69h3.78v15.99h-3.78v-6.06h-6.67v6.06h-3.87v-15.99z" fill="#7da837" data-color="2"/>
        <path d="M325.95 125.32v6.69h6.67v-6.69h3.78v15.99h-3.78v-6.06h-6.67v6.06h-3.87v-15.99z" fill="#7da837" data-color="2"/>
        <path d="M300.86 125.32v15.99h-3.51v-15.99z" fill="#7da837" data-color="2"/>
        <path d="M310.79 131.96v3.21h5.46v2.71c-1.15.28-2.74.54-3.89.47-3.35-.2-5.14-1.92-5.14-4.88 0-2.34 1.27-5.03 5.16-5.03 1.38 0 4.17.34 4.99.71l.31-3.53c-.57-.28-3.53-.75-5.6-.75-5.15 0-8.73 3.63-8.73 8.52 0 5.12 3.53 7.9 8.21 8.13 4.48.22 7.98-1.32 7.98-1.32v-8.23h-8.75z" fill="#7da837" data-color="2"/>
        <path fill="#7da837" d="M362.69 137.97v-2.95h7.14v-3.3h-7.14v-3.11h8.22v-3.29h-11.53v15.99h11.88v-3.34z" data-color="2"/>
        <path d="M182.09 135.7c1.63-.95 2.75-2.79 2.75-4.89 0-3.06-2.37-5.56-5.26-5.56h-7.42v.11c-.03 0 .03.01 0 .01v15.93h3.36l.02-4.93h2.83c1.32 2.36 2.93 4.7 3.07 4.93h4.26c-.31-.52-3.02-4.69-3.61-5.6m-3.17-2.28h-3.42v-5.12h3.42c1.33 0 2.42 1.15 2.42 2.56s-1.09 2.56-2.42 2.56" fill="#7da837" data-color="2"/>
        <path d="m484.77 138.37-1.33 2.94h-3.93l6.86-15.99h3.83l6.89 15.99h-4.02l-1.14-2.94zm5.83-3.05-2.3-5.65-2.34 5.65z" fill="#7da837" data-color="2"/>
        <path d="M387.34 140.62c-.8.37-3.67.97-6.27.84-4.72-.24-8.28-3-8.28-8.13 0-4.89 3.62-8.52 8.81-8.52 2.09 0 5.08.47 5.65.75l-.31 3.53c-.82-.37-3.64-.71-5.03-.71-3.93 0-5.21 2.69-5.21 5.03 0 2.96 1.81 4.68 5.19 4.88 1.71.1 4.44-.51 5.19-.86z" fill="#7da837" data-color="2"/>
        <path d="M481.1 130.82c0-3.06-2.37-5.56-5.26-5.56h-7.42v.11c-.03 0 .03.01 0 .01v15.93h3.36l.02-4.93h4.04c4.41-.23 5.26-3.46 5.26-5.56m-5.91 2.6h-3.42v-5.12h3.42c1.33 0 2.42 1.15 2.42 2.56s-1.09 2.56-2.42 2.56" fill="#7da837" data-color="2"/>
        <path d="M435.63 141.51c-4.67 0-8.47-3.8-8.47-8.47s3.8-8.46 8.47-8.46 8.47 3.8 8.47 8.46c-.01 4.67-3.8 8.47-8.47 8.47m-.09-13.25c-2.64 0-4.79 2.14-4.79 4.78s2.15 4.79 4.79 4.79 4.79-2.15 4.79-4.79-2.15-4.78-4.79-4.78" fill="#7da837" data-color="2"/>
        <path fill="#7da837" d="M510.12 125.32v9.87l-7.23-9.87h-3.83v15.99h3.83v-9.65l7.21 9.65h3.85v-15.99z" data-color="2"/>
        <path fill="#7da837" d="M531.65 125.32h-4.2l-4.14 6.45-4.14-6.45h-4.19l6.45 10.08v5.91h3.77v-5.91z" data-color="2"/>
    </g>
</svg>
