<?xml version="1.0" encoding="UTF-8"?>
<svg data-bbox="12 138.37 1380 350.66" viewBox="0 0 1409 641" xmlns="http://www.w3.org/2000/svg" data-type="color">
    <g>
        <path fill="#699e1e" d="M1222.85 351.31h93.22v-1.66h-92.59l-35.66-35.66h-86.32l-35.54 35.49H941.94v1.65h124.71l35.54-35.59h84.95z" data-color="1"/>
        <path d="M1309.79 349.99c0 2.96 2.4 5.3 5.36 5.3s5.3-2.34 5.3-5.3c0-2.97-2.34-5.25-5.3-5.25s-5.36 2.29-5.36 5.25" fill="#699e1e" data-color="1"/>
        <path d="M1060.37 349.82c0 2.97 2.34 5.36 5.31 5.36 2.91 0 5.3-2.4 5.3-5.36 0-2.91-2.4-5.3-5.3-5.3-2.97 0-5.31 2.39-5.31 5.3" fill="#699e1e" data-color="1"/>
        <path d="M1182.57 315.48c0 2.97 2.4 5.36 5.31 5.36 2.96 0 5.3-2.4 5.3-5.36s-2.34-5.3-5.3-5.3a5.286 5.286 0 0 0-5.31 5.3" fill="#699e1e" data-color="1"/>
        <path d="M1217.26 349.54c0 2.97 2.34 5.36 5.31 5.36 2.91 0 5.3-2.4 5.3-5.36 0-2.91-2.4-5.25-5.3-5.25-2.97 0-5.31 2.34-5.31 5.25" fill="#699e1e" data-color="1"/>
        <path d="M1211.27 349.54c0-6.16 5.02-11.3 11.3-11.3 6.22 0 11.3 5.13 11.3 11.3 0 6.28-5.08 11.35-11.3 11.35-6.28 0-11.3-5.08-11.3-11.35m2.28 0c0 5.02 4.05 9.01 9.01 9.01s8.96-3.99 8.96-9.01c0-4.85-3.99-8.9-8.96-8.9-4.96 0-9.01 4.05-9.01 8.9" fill="#699e1e" data-color="1"/>
        <path d="M937.03 350.45c0 2.91 2.4 5.3 5.3 5.3 2.91 0 5.36-2.4 5.36-5.3 0-2.97-2.45-5.36-5.36-5.36-2.9 0-5.3 2.39-5.3 5.36" fill="#699e1e" data-color="1"/>
        <path d="M931.04 350.45c0-6.28 5.08-11.35 11.3-11.35s11.3 5.08 11.3 11.35c0 6.16-5.08 11.3-11.3 11.3s-11.3-5.14-11.3-11.3m2.28 0c0 4.85 4.11 8.9 9.01 8.9 4.96 0 9.01-4.05 9.01-8.9 0-5.02-4.05-9.01-9.01-9.01-4.9 0-9.01 3.99-9.01 9.01" fill="#699e1e" data-color="1"/>
        <path d="M1096.71 315.02c0 2.97 2.4 5.36 5.3 5.36 2.91 0 5.36-2.4 5.36-5.36 0-2.91-2.45-5.3-5.36-5.3-2.9 0-5.3 2.39-5.3 5.3" fill="#699e1e" data-color="1"/>
        <path d="M1090.78 315.02c0-6.22 5.02-11.32 11.24-11.32 6.28 0 11.35 5.11 11.35 11.32 0 6.22-5.08 11.35-11.35 11.35-6.22.01-11.24-5.13-11.24-11.35m2.22 0c0 4.91 4.11 8.96 9.01 8.96 4.96 0 9.01-4.05 9.01-8.96 0-4.96-4.05-8.98-9.01-8.98-4.9 0-9.01 4.02-9.01 8.98" fill="#699e1e" data-color="1"/>
        <path fill="#699e1e" d="M1024.94 404.53h93.11v-.8h-92.76l-35.72-35.71H903.6l-35.54 35.54h-124.2v.8H868.4l35.54-35.54h85.29z" data-color="1"/>
        <path d="M899.61 369.11c0 2.34 1.94 4.28 4.34 4.28s4.39-1.94 4.39-4.28c0-2.45-2-4.39-4.39-4.39-2.4-.01-4.34 1.93-4.34 4.39" fill="#699e1e" data-color="1"/>
        <path d="M1111.77 404.08c0 2.45 2 4.39 4.39 4.39 2.4 0 4.33-1.94 4.33-4.39 0-2.34-1.94-4.28-4.33-4.28s-4.39 1.94-4.39 4.28" fill="#699e1e" data-color="1"/>
        <path d="M984.89 368.82c0 2.4 1.94 4.39 4.34 4.39 2.45 0 4.39-2 4.39-4.39s-1.94-4.33-4.39-4.33c-2.39 0-4.34 1.93-4.34 4.33" fill="#699e1e" data-color="1"/>
        <path d="M741.81 404.08c0 1.34 1.14 2.42 2.51 2.42s2.51-1.08 2.51-2.42c0-1.43-1.14-2.51-2.51-2.51s-2.51 1.08-2.51 2.51" fill="#699e1e" data-color="1"/>
        <path d="M738.95 404.08c0-2.91 2.4-5.3 5.36-5.3 2.97 0 5.31 2.4 5.31 5.3 0 2.88-2.34 5.28-5.31 5.28-2.96-.01-5.36-2.4-5.36-5.28m1.15 0c0 2.31 1.88 4.19 4.22 4.19s4.22-1.88 4.22-4.19c0-2.28-1.88-4.22-4.22-4.22s-4.22 1.93-4.22 4.22" fill="#699e1e" data-color="1"/>
        <path d="M1023.92 403.51c0 1.65 1.37 3.02 3.14 3.02 1.65 0 3.02-1.37 3.02-3.02 0-1.71-1.37-3.08-3.02-3.08-1.77-.01-3.14 1.36-3.14 3.08" fill="#699e1e" data-color="1"/>
        <path d="M1020.44 403.51c0-3.6 2.97-6.62 6.62-6.62 3.6 0 6.56 3.02 6.56 6.62 0 3.59-2.96 6.56-6.56 6.56-3.66 0-6.62-2.97-6.62-6.56m1.37 0c0 2.8 2.34 5.19 5.25 5.19 2.85 0 5.19-2.4 5.19-5.19 0-2.85-2.34-5.25-5.19-5.25-2.91 0-5.25 2.39-5.25 5.25" fill="#699e1e" data-color="1"/>
        <path d="M865.32 403.51c0 1.65 1.37 3.02 3.08 3.02s3.08-1.37 3.08-3.02c0-1.71-1.37-3.08-3.08-3.08a3.056 3.056 0 0 0-3.08 3.08" fill="#699e1e" data-color="1"/>
        <path d="M861.78 403.51c0-3.6 2.97-6.62 6.62-6.62 3.59 0 6.56 3.02 6.56 6.62 0 3.59-2.97 6.56-6.56 6.56-3.65 0-6.62-2.97-6.62-6.56m1.37 0c0 2.8 2.34 5.19 5.25 5.19 2.85 0 5.25-2.4 5.25-5.19 0-2.85-2.4-5.25-5.25-5.25-2.91 0-5.25 2.39-5.25 5.25" fill="#699e1e" data-color="1"/>
        <path fill="#699e1e" d="M949.12 330.25h93.17V329h-92.65l-35.77-35.74h-86.09l-35.54 35.63H668.19v1.19H792.7l35.59-35.57h85.12z" data-color="1"/>
        <path d="M944.11 329.34c0 2.91 2.34 5.31 5.25 5.31 2.96 0 5.3-2.4 5.3-5.31 0-2.96-2.34-5.36-5.3-5.36-2.92 0-5.25 2.4-5.25 5.36" fill="#699e1e" data-color="1"/>
        <path d="M700.5 329.74c0 2.23 1.83 4.05 4.11 4.05 2.23 0 4-1.83 4-4.05 0-2.23-1.77-4.05-4-4.05-2.28 0-4.11 1.83-4.11 4.05" fill="#699e1e" data-color="1"/>
        <path d="M663.79 329.34c0 2.91 2.4 5.31 5.36 5.31 2.91 0 5.25-2.4 5.25-5.31 0-2.96-2.34-5.36-5.25-5.36a5.36 5.36 0 0 0-5.36 5.36" fill="#699e1e" data-color="1"/>
        <path d="M823.33 294.86c0 2.96 2.4 5.3 5.3 5.3 2.97 0 5.31-2.34 5.31-5.3 0-2.97-2.34-5.36-5.31-5.36-2.9-.01-5.3 2.39-5.3 5.36" fill="#699e1e" data-color="1"/>
        <path d="M1036.98 330.08c0 2.97 2.4 5.36 5.3 5.36 2.91 0 5.3-2.4 5.3-5.36 0-2.91-2.4-5.25-5.3-5.25s-5.3 2.34-5.3 5.25" fill="#699e1e" data-color="1"/>
        <path d="M1030.99 330.08c0-6.16 5.08-11.3 11.3-11.3s11.3 5.14 11.3 11.3c0 6.28-5.08 11.35-11.3 11.35-6.22.01-11.3-5.07-11.3-11.35m2.28 0c0 5.02 4.05 9.01 9.01 9.01s9.01-3.99 9.01-9.01c0-4.85-4.05-8.9-9.01-8.9s-9.01 4.05-9.01 8.9" fill="#699e1e" data-color="1"/>
        <path d="M908.96 293.77c0 1.99 1.66 3.65 3.65 3.65 2.06 0 3.71-1.66 3.71-3.65 0-2-1.65-3.65-3.71-3.65-1.99 0-3.65 1.65-3.65 3.65" fill="#699e1e" data-color="1"/>
        <path d="M904.8 293.77c0-4.34 3.54-7.87 7.81-7.87 4.39 0 7.87 3.54 7.87 7.87s-3.48 7.87-7.87 7.87c-4.27 0-7.81-3.53-7.81-7.87m1.59 0c0 3.48 2.8 6.22 6.22 6.22 3.48 0 6.28-2.74 6.28-6.22 0-3.37-2.8-6.22-6.28-6.22-3.42 0-6.22 2.85-6.22 6.22" fill="#699e1e" data-color="1"/>
        <path d="M788.59 329.51c0 2.05 1.66 3.71 3.65 3.71 2.06 0 3.71-1.65 3.71-3.71 0-2-1.65-3.65-3.71-3.65-2 0-3.65 1.66-3.65 3.65" fill="#699e1e" data-color="1"/>
        <path d="M784.42 329.51c0-4.28 3.48-7.82 7.81-7.82 4.34 0 7.82 3.54 7.82 7.82 0 4.33-3.48 7.87-7.82 7.87-4.33 0-7.81-3.53-7.81-7.87m1.6 0c0 3.42 2.8 6.22 6.22 6.22s6.22-2.8 6.22-6.22-2.8-6.28-6.22-6.28c-3.42.01-6.22 2.86-6.22 6.28" fill="#699e1e" data-color="1"/>
        <path fill="#699e1e" d="M774.84 386.73h93.22v-1.59h-92.54l-35.77-35.72h-86.23l-35.6 35.6H493.9v1.54h124.71l35.6-35.48h84.92z" data-color="1"/>
        <path d="M861.78 385.54c0 2.91 2.4 5.25 5.3 5.25 2.91 0 5.36-2.34 5.36-5.25 0-2.97-2.45-5.36-5.36-5.36-2.9-.01-5.3 2.39-5.3 5.36" fill="#699e1e" data-color="1"/>
        <path d="M612.33 385.36c0 2.91 2.4 5.25 5.36 5.25 2.91 0 5.31-2.34 5.31-5.25 0-2.97-2.4-5.3-5.31-5.3-2.96 0-5.36 2.34-5.36 5.3" fill="#699e1e" data-color="1"/>
        <path d="M734.56 350.91c0 2.97 2.34 5.36 5.31 5.36 2.91 0 5.3-2.4 5.3-5.36 0-2.91-2.4-5.3-5.3-5.3a5.286 5.286 0 0 0-5.31 5.3" fill="#699e1e" data-color="1"/>
        <path d="M769.19 385.08c0 2.97 2.4 5.25 5.3 5.25 2.97 0 5.31-2.28 5.31-5.25 0-2.96-2.34-5.36-5.31-5.36-2.9 0-5.3 2.39-5.3 5.36" fill="#699e1e" data-color="1"/>
        <path d="M763.2 385.08c0-6.27 5.08-11.3 11.3-11.3 6.28 0 11.3 5.02 11.3 11.3 0 6.22-5.02 11.3-11.3 11.3-6.22 0-11.3-5.08-11.3-11.3m2.34 0c0 4.91 3.99 8.96 8.96 8.96 5.02 0 9.01-4.05 9.01-8.96 0-4.96-3.99-9.01-9.01-9.01-4.97-.01-8.96 4.05-8.96 9.01" fill="#699e1e" data-color="1"/>
        <path d="M489.05 385.88c0 2.96 2.4 5.3 5.31 5.3s5.31-2.34 5.31-5.3c0-2.97-2.4-5.36-5.31-5.36s-5.31 2.39-5.31 5.36" fill="#699e1e" data-color="1"/>
        <path d="M483.06 385.88c0-6.22 5.08-11.3 11.3-11.3s11.3 5.08 11.3 11.3c0 6.27-5.08 11.3-11.3 11.3s-11.3-5.03-11.3-11.3m2.28 0c0 4.96 4.05 9.01 9.01 9.01s9.01-4.05 9.01-9.01c0-4.91-4.05-8.96-9.01-8.96s-9.01 4.05-9.01 8.96" fill="#699e1e" data-color="1"/>
        <path d="M648.73 350.51c0 2.97 2.4 5.31 5.36 5.31 2.91 0 5.25-2.34 5.25-5.31 0-2.96-2.34-5.36-5.25-5.36-2.96-.01-5.36 2.39-5.36 5.36" fill="#699e1e" data-color="1"/>
        <path d="M642.74 350.51c0-6.22 5.08-11.3 11.35-11.3 6.22 0 11.24 5.08 11.24 11.3 0 6.28-5.02 11.3-11.24 11.3-6.27-.01-11.35-5.03-11.35-11.3m2.34 0c0 4.97 4.05 9.01 9.01 9.01 4.9 0 8.96-4.05 8.96-9.01 0-4.9-4.05-8.96-8.96-8.96-4.96 0-9.01 4.05-9.01 8.96" fill="#699e1e" data-color="1"/>
        <path fill="#699e1e" d="M576.96 439.93h93.05v-.8h-92.7l-35.72-35.62h-85.97l-35.6 35.51H295.88v.8h124.54l35.54-35.52h85.29z" data-color="1"/>
        <path d="M451.57 404.53c0 2.42 2 4.36 4.39 4.36 2.4 0 4.34-1.94 4.34-4.36 0-2.4-1.94-4.34-4.34-4.34-2.4.01-4.39 1.95-4.39 4.34" fill="#699e1e" data-color="1"/>
        <path d="M663.73 439.59c0 2.4 2 4.34 4.45 4.34 2.4 0 4.33-1.94 4.33-4.34 0-2.45-1.94-4.39-4.33-4.39-2.45 0-4.45 1.94-4.45 4.39" fill="#699e1e" data-color="1"/>
        <path d="M536.91 404.3c0 2.37 1.94 4.31 4.34 4.31s4.39-1.94 4.39-4.31c0-2.45-2-4.39-4.39-4.39s-4.34 1.94-4.34 4.39" fill="#699e1e" data-color="1"/>
        <path d="M293.83 439.53c0 1.37 1.08 2.51 2.45 2.51s2.51-1.14 2.51-2.51-1.14-2.57-2.51-2.57c-1.37.01-2.45 1.2-2.45 2.57" fill="#699e1e" data-color="1"/>
        <path d="M291.03 439.53c0-2.97 2.34-5.36 5.25-5.36 2.97 0 5.31 2.4 5.31 5.36 0 2.91-2.34 5.3-5.31 5.3-2.91.01-5.25-2.39-5.25-5.3m1.03 0c0 2.28 1.88 4.17 4.22 4.17s4.22-1.88 4.22-4.17c0-2.34-1.88-4.22-4.22-4.22s-4.22 1.88-4.22 4.22" fill="#699e1e" data-color="1"/>
        <path d="M575.94 438.96c0 1.71 1.37 3.08 3.08 3.08s3.14-1.37 3.14-3.08c0-1.66-1.43-3.14-3.14-3.14s-3.08 1.49-3.08 3.14" fill="#699e1e" data-color="1"/>
        <path d="M572.46 438.96c0-3.65 2.97-6.56 6.56-6.56 3.65 0 6.56 2.91 6.56 6.56 0 3.59-2.91 6.5-6.56 6.5-3.6.01-6.56-2.9-6.56-6.5m1.31 0c0 2.85 2.4 5.13 5.25 5.13 2.91 0 5.25-2.28 5.25-5.13 0-2.91-2.34-5.19-5.25-5.19-2.86 0-5.25 2.28-5.25 5.19" fill="#699e1e" data-color="1"/>
        <path d="M417.28 438.96c0 1.71 1.37 3.08 3.14 3.08 1.65 0 3.08-1.37 3.08-3.08 0-1.66-1.43-3.14-3.08-3.14-1.77 0-3.14 1.49-3.14 3.14" fill="#699e1e" data-color="1"/>
        <path d="M413.8 438.96c0-3.65 2.97-6.56 6.62-6.56 3.59 0 6.56 2.91 6.56 6.56 0 3.59-2.97 6.5-6.56 6.5-3.65.01-6.62-2.9-6.62-6.5m1.31 0c0 2.85 2.4 5.13 5.31 5.13 2.85 0 5.19-2.28 5.19-5.13 0-2.91-2.34-5.19-5.19-5.19-2.91 0-5.31 2.28-5.31 5.19" fill="#699e1e" data-color="1"/>
        <path fill="#699e1e" d="M501.14 365.68h93.17v-1.19h-92.65l-35.72-35.66h-86.2l-35.48 35.48H220.17v1.26h124.54l35.55-35.54h85.17z" data-color="1"/>
        <path d="M496.07 364.77a5.3 5.3 0 0 0 5.31 5.31c2.97 0 5.31-2.34 5.31-5.31 0-2.91-2.34-5.25-5.31-5.25-2.92 0-5.31 2.34-5.31 5.25" fill="#699e1e" data-color="1"/>
        <path d="M252.52 365.17c0 2.28 1.83 4.05 4.05 4.05s4.05-1.77 4.05-4.05c0-2.23-1.83-3.99-4.05-3.99s-4.05 1.76-4.05 3.99" fill="#699e1e" data-color="1"/>
        <path d="M215.78 364.77c0 2.97 2.34 5.31 5.31 5.31a5.3 5.3 0 0 0 5.31-5.31c0-2.91-2.4-5.25-5.31-5.25-2.97 0-5.31 2.34-5.31 5.25" fill="#699e1e" data-color="1"/>
        <path d="M375.35 330.31c0 2.97 2.34 5.36 5.31 5.36 2.91 0 5.31-2.4 5.31-5.36s-2.4-5.25-5.31-5.25c-2.97 0-5.31 2.29-5.31 5.25" fill="#699e1e" data-color="1"/>
        <path d="M589 365.62c0 2.85 2.34 5.25 5.31 5.25 2.91 0 5.31-2.4 5.31-5.25 0-2.96-2.4-5.3-5.31-5.3-2.97 0-5.31 2.34-5.31 5.3" fill="#699e1e" data-color="1"/>
        <path d="M583.01 365.62c0-6.27 5.02-11.3 11.3-11.3 6.22 0 11.3 5.02 11.3 11.3 0 6.22-5.08 11.3-11.3 11.3-6.28 0-11.3-5.08-11.3-11.3m2.28 0c0 4.91 3.99 8.96 9.01 8.96 4.96 0 8.96-4.05 8.96-8.96 0-4.96-3.99-9.01-8.96-9.01-5.01 0-9.01 4.05-9.01 9.01" fill="#699e1e" data-color="1"/>
        <path d="M460.98 329.23c0 2.11 1.65 3.71 3.71 3.71 2 0 3.65-1.6 3.65-3.71 0-1.99-1.65-3.65-3.65-3.65-2.05 0-3.71 1.65-3.71 3.65" fill="#699e1e" data-color="1"/>
        <path d="M456.82 329.23c0-4.22 3.48-7.76 7.87-7.76 4.28 0 7.82 3.54 7.82 7.76 0 4.34-3.54 7.87-7.82 7.87-4.39 0-7.87-3.54-7.87-7.87m1.59 0c0 3.48 2.8 6.28 6.28 6.28 3.42 0 6.22-2.8 6.22-6.28 0-3.36-2.8-6.16-6.22-6.16-3.48 0-6.28 2.79-6.28 6.16" fill="#699e1e" data-color="1"/>
        <path d="M340.55 365c0 2 1.65 3.65 3.71 3.65 2.05 0 3.65-1.65 3.65-3.65 0-2.05-1.6-3.71-3.65-3.71-2.06 0-3.71 1.65-3.71 3.71" fill="#699e1e" data-color="1"/>
        <path d="M336.44 365c0-4.33 3.48-7.87 7.82-7.87s7.82 3.54 7.82 7.87c0 4.28-3.48 7.82-7.82 7.82-4.34-.01-7.82-3.54-7.82-7.82m1.6 0c0 3.42 2.8 6.16 6.22 6.16s6.22-2.74 6.22-6.16-2.8-6.22-6.22-6.22c-3.43 0-6.22 2.79-6.22 6.22" fill="#699e1e" data-color="1"/>
        <path fill="#699e1e" d="M1331.47 430.6h57.79v-1.02h-57.39l-22.14-22.08h-53.51l-21.96 22.02h-76.9v.97h77.3l22.02-22.02h52.66z" data-color="1"/>
        <path d="M1385.38 429.81c0 1.83 1.48 3.31 3.31 3.31s3.31-1.48 3.31-3.31c0-1.77-1.48-3.31-3.31-3.31-1.82 0-3.31 1.54-3.31 3.31" fill="#699e1e" data-color="1"/>
        <path d="M1230.78 429.75c0 1.77 1.48 3.25 3.25 3.25 1.88 0 3.31-1.48 3.31-3.25 0-1.88-1.43-3.31-3.31-3.31-1.77 0-3.25 1.43-3.25 3.31" fill="#699e1e" data-color="1"/>
        <path d="M1306.48 408.41c0 1.83 1.54 3.25 3.31 3.25 1.88 0 3.31-1.43 3.31-3.25 0-1.88-1.43-3.31-3.31-3.31-1.77 0-3.31 1.43-3.31 3.31" fill="#699e1e" data-color="1"/>
        <path d="M1327.99 429.52c0 1.88 1.48 3.31 3.31 3.31s3.31-1.43 3.31-3.31c0-1.77-1.48-3.25-3.31-3.25s-3.31 1.48-3.31 3.25" fill="#699e1e" data-color="1"/>
        <path d="M1324.28 429.52c0-3.82 3.14-6.96 7.02-6.96s7.02 3.14 7.02 6.96c0 3.88-3.14 7.07-7.02 7.07s-7.02-3.19-7.02-7.07m1.43 0c0 3.08 2.51 5.54 5.59 5.54s5.54-2.45 5.54-5.54c0-3.02-2.45-5.53-5.54-5.53-3.08 0-5.59 2.51-5.59 5.53" fill="#699e1e" data-color="1"/>
        <path d="M1154.33 430.03c0 1.88 1.48 3.31 3.31 3.31s3.25-1.43 3.25-3.31c0-1.83-1.43-3.25-3.25-3.25s-3.31 1.43-3.31 3.25" fill="#699e1e" data-color="1"/>
        <path d="M1150.63 430.03c0-3.82 3.14-7.02 7.02-7.02s6.96 3.19 6.96 7.02c0 3.88-3.08 7.07-6.96 7.07s-7.02-3.19-7.02-7.07m1.42 0c0 3.08 2.51 5.54 5.59 5.54s5.54-2.45 5.54-5.54c0-3.02-2.45-5.54-5.54-5.54-3.08.01-5.59 2.52-5.59 5.54" fill="#699e1e" data-color="1"/>
        <path d="M1253.31 408.13c0 1.83 1.48 3.31 3.31 3.31s3.25-1.48 3.25-3.31-1.43-3.31-3.25-3.31-3.31 1.48-3.31 3.31" fill="#699e1e" data-color="1"/>
        <path d="M1249.6 408.13c0-3.88 3.14-6.96 7.02-6.96 3.82 0 6.96 3.08 6.96 6.96s-3.14 7.02-6.96 7.02c-3.88-.01-7.02-3.14-7.02-7.02m1.43 0c0 3.02 2.51 5.54 5.59 5.54 3.02 0 5.59-2.51 5.59-5.54 0-3.08-2.57-5.54-5.59-5.54-3.08 0-5.59 2.46-5.59 5.54" fill="#699e1e" data-color="1"/>
        <path fill="#699e1e" d="M1208.82 463.58h57.67v-.46h-57.45l-22.13-22.13h-53.29l-22.02 22.02h-77.01v.51h77.18l22.02-22.02h52.89z" data-color="1"/>
        <path d="M1131.11 441.62c0 1.54 1.2 2.68 2.74 2.68 1.48 0 2.68-1.14 2.68-2.68 0-1.48-1.2-2.74-2.68-2.74-1.54 0-2.74 1.25-2.74 2.74" fill="#699e1e" data-color="1"/>
        <path d="M1262.61 463.29c0 1.54 1.25 2.74 2.74 2.74 1.48 0 2.68-1.2 2.68-2.74 0-1.43-1.2-2.63-2.68-2.63-1.48.01-2.74 1.21-2.74 2.63" fill="#699e1e" data-color="1"/>
        <path d="M1184 441.5c0 1.43 1.2 2.62 2.68 2.62 1.54 0 2.68-1.2 2.68-2.62 0-1.54-1.14-2.74-2.68-2.74-1.48 0-2.68 1.2-2.68 2.74" fill="#699e1e" data-color="1"/>
        <path d="M1033.33 463.29c0 .91.68 1.6 1.54 1.6s1.54-.69 1.54-1.6c0-.86-.68-1.54-1.54-1.54s-1.54.69-1.54 1.54" fill="#699e1e" data-color="1"/>
        <path d="M1031.56 463.29c0-1.77 1.48-3.31 3.31-3.31s3.31 1.54 3.31 3.31c0 1.83-1.48 3.31-3.31 3.31s-3.31-1.48-3.31-3.31m.69 0c0 1.48 1.2 2.62 2.63 2.62 1.48 0 2.62-1.14 2.62-2.62 0-1.43-1.14-2.57-2.62-2.57-1.43.01-2.63 1.15-2.63 2.57" fill="#699e1e" data-color="1"/>
        <path d="M1208.19 462.95c0 1.08.86 1.94 1.94 1.94 1.03 0 1.88-.86 1.88-1.94 0-1.09-.86-1.88-1.88-1.88-1.09 0-1.94.8-1.94 1.88" fill="#699e1e" data-color="1"/>
        <path d="M1206.02 462.95c0-2.23 1.83-4.11 4.11-4.11 2.23 0 4.05 1.88 4.05 4.11 0 2.22-1.83 4.11-4.05 4.11-2.28 0-4.11-1.88-4.11-4.11m.86 0c0 1.83 1.43 3.25 3.25 3.25 1.77 0 3.2-1.43 3.2-3.25 0-1.71-1.43-3.25-3.2-3.25-1.83 0-3.25 1.54-3.25 3.25" fill="#699e1e" data-color="1"/>
        <path d="M1109.83 462.95c0 1.08.86 1.94 1.94 1.94s1.94-.86 1.94-1.94c0-1.09-.86-1.88-1.94-1.88s-1.94.8-1.94 1.88" fill="#699e1e" data-color="1"/>
        <path d="M1107.67 462.95c0-2.23 1.88-4.11 4.11-4.11 2.28 0 4.11 1.88 4.11 4.11 0 2.22-1.83 4.11-4.11 4.11-2.23 0-4.11-1.88-4.11-4.11m.91 0c0 1.83 1.43 3.25 3.2 3.25a3.25 3.25 0 0 0 3.25-3.25c0-1.71-1.48-3.25-3.25-3.25s-3.2 1.54-3.2 3.25" fill="#699e1e" data-color="1"/>
        <path fill="#699e1e" d="M1161.81 417.54h57.79v-.74h-57.45l-22.14-22.14h-53.39l-22.03 22.03h-76.9v.79h77.19l22.02-22.02h52.77z" data-color="1"/>
        <path d="M1158.72 416.97c0 1.83 1.43 3.25 3.25 3.25 1.83 0 3.25-1.43 3.25-3.25s-1.43-3.31-3.25-3.31-3.25 1.48-3.25 3.31" fill="#699e1e" data-color="1"/>
        <path d="M1007.72 417.2c0 1.43 1.14 2.51 2.51 2.51s2.51-1.08 2.51-2.51c0-1.37-1.14-2.51-2.51-2.51s-2.51 1.14-2.51 2.51" fill="#699e1e" data-color="1"/>
        <path d="M984.95 416.97c0 1.83 1.48 3.25 3.31 3.25 1.77 0 3.31-1.43 3.31-3.25s-1.54-3.31-3.31-3.31c-1.82 0-3.31 1.48-3.31 3.31" fill="#699e1e" data-color="1"/>
        <path d="M1083.88 395.69c0 1.77 1.43 3.2 3.31 3.2 1.77 0 3.25-1.43 3.25-3.2 0-1.88-1.48-3.36-3.25-3.36-1.89-.01-3.31 1.48-3.31 3.36" fill="#699e1e" data-color="1"/>
        <path d="M1216.29 417.48c0 1.83 1.43 3.31 3.31 3.31 1.77 0 3.25-1.48 3.25-3.31 0-1.77-1.48-3.31-3.25-3.31-1.88 0-3.31 1.55-3.31 3.31" fill="#699e1e" data-color="1"/>
        <path d="M1212.58 417.48c0-3.88 3.08-7.07 7.02-7.07 3.82 0 6.96 3.2 6.96 7.07 0 3.82-3.14 7.02-6.96 7.02-3.94 0-7.02-3.19-7.02-7.02m1.43 0c0 3.02 2.45 5.54 5.59 5.54 3.02 0 5.54-2.51 5.54-5.54 0-3.08-2.51-5.53-5.54-5.53-3.14 0-5.59 2.45-5.59 5.53" fill="#699e1e" data-color="1"/>
        <path d="M1136.93 394.95c0 1.31 1.03 2.28 2.28 2.28s2.28-.97 2.28-2.28c0-1.25-1.03-2.22-2.28-2.22s-2.28.96-2.28 2.22" fill="#699e1e" data-color="1"/>
        <path d="M1134.36 394.95c0-2.68 2.17-4.85 4.85-4.85s4.85 2.17 4.85 4.85-2.17 4.91-4.85 4.91-4.85-2.23-4.85-4.91m.97 0c0 2.17 1.77 3.88 3.88 3.88s3.88-1.71 3.88-3.88c0-2.11-1.77-3.82-3.88-3.82s-3.88 1.71-3.88 3.82" fill="#699e1e" data-color="1"/>
        <path d="M1062.31 417.14c0 1.2 1.03 2.23 2.28 2.23s2.28-1.03 2.28-2.23c0-1.31-1.03-2.34-2.28-2.34s-2.28 1.03-2.28 2.34" fill="#699e1e" data-color="1"/>
        <path d="M1059.74 417.14c0-2.68 2.17-4.91 4.85-4.91s4.85 2.23 4.85 4.91-2.17 4.85-4.85 4.85-4.85-2.17-4.85-4.85m.98 0c0 2.11 1.77 3.82 3.88 3.82 2.17 0 3.88-1.71 3.88-3.82 0-2.17-1.71-3.88-3.88-3.88-2.12 0-3.88 1.71-3.88 3.88" fill="#699e1e" data-color="1"/>
        <path fill="#699e1e" d="M1053.76 452.57h57.84v-.97h-57.39l-22.19-22.14h-53.46l-22.07 22.03h-76.85v1.02H957l21.96-22.02h52.72z" data-color="1"/>
        <path d="M1107.67 451.77c0 1.88 1.48 3.31 3.31 3.31s3.31-1.43 3.31-3.31c0-1.77-1.48-3.31-3.31-3.31s-3.31 1.54-3.31 3.31" fill="#699e1e" data-color="1"/>
        <path d="M953.06 451.71c0 1.83 1.48 3.25 3.31 3.25s3.25-1.43 3.25-3.25c0-1.88-1.43-3.31-3.25-3.31s-3.31 1.43-3.31 3.31" fill="#699e1e" data-color="1"/>
        <path d="M1028.83 430.38c0 1.83 1.48 3.31 3.31 3.31s3.25-1.48 3.25-3.31c0-1.77-1.43-3.31-3.25-3.31s-3.31 1.54-3.31 3.31" fill="#699e1e" data-color="1"/>
        <path d="M1050.33 451.49c0 1.88 1.43 3.31 3.25 3.31 1.83 0 3.31-1.43 3.31-3.31 0-1.77-1.48-3.25-3.31-3.25-1.82-.01-3.25 1.48-3.25 3.25" fill="#699e1e" data-color="1"/>
        <path d="M1046.62 451.49c0-3.82 3.08-6.96 6.96-6.96s7.02 3.14 7.02 6.96c0 3.88-3.14 7.07-7.02 7.07s-6.96-3.2-6.96-7.07m1.37 0c0 3.14 2.51 5.59 5.59 5.59s5.59-2.45 5.59-5.59c0-3.02-2.51-5.54-5.59-5.54s-5.59 2.51-5.59 5.54" fill="#699e1e" data-color="1"/>
        <path d="M876.67 452.06c0 1.83 1.43 3.25 3.25 3.25s3.25-1.43 3.25-3.25c0-1.83-1.43-3.31-3.25-3.31s-3.25 1.48-3.25 3.31" fill="#699e1e" data-color="1"/>
        <path d="M872.96 452.06c0-3.88 3.08-7.02 6.96-7.02s6.96 3.14 6.96 7.02c0 3.82-3.08 7.02-6.96 7.02s-6.96-3.2-6.96-7.02m1.43 0c0 3.02 2.45 5.59 5.54 5.59s5.59-2.57 5.59-5.59c0-3.08-2.51-5.59-5.59-5.59s-5.54 2.5-5.54 5.59" fill="#699e1e" data-color="1"/>
        <path d="M975.6 430.09c0 1.83 1.54 3.31 3.31 3.31 1.83 0 3.31-1.48 3.31-3.31 0-1.77-1.48-3.31-3.31-3.31-1.77 0-3.31 1.54-3.31 3.31" fill="#699e1e" data-color="1"/>
        <path d="M971.95 430.09c0-3.82 3.14-6.96 6.96-6.96 3.88 0 7.02 3.14 7.02 6.96 0 3.88-3.14 7.07-7.02 7.07-3.83 0-6.96-3.19-6.96-7.07m1.37 0c0 3.02 2.51 5.53 5.59 5.53s5.59-2.51 5.59-5.53c0-3.03-2.51-5.54-5.59-5.54-3.09.01-5.59 2.52-5.59 5.54" fill="#699e1e" data-color="1"/>
        <path fill="#699e1e" d="M931.1 485.6h57.73v-.51h-57.5l-22.14-22.14h-53.28l-22.03 22.02h-76.95v.52h77.18l22.02-22.03h52.89z" data-color="1"/>
        <path d="M853.4 463.58c0 1.54 1.26 2.74 2.74 2.74s2.74-1.2 2.74-2.74c0-1.48-1.26-2.74-2.74-2.74-1.49 0-2.74 1.26-2.74 2.74" fill="#699e1e" data-color="1"/>
        <path d="M984.95 485.37c0 1.43 1.2 2.68 2.74 2.68 1.43 0 2.62-1.25 2.62-2.68 0-1.54-1.2-2.74-2.62-2.74-1.54 0-2.74 1.2-2.74 2.74" fill="#699e1e" data-color="1"/>
        <path d="M906.28 463.46c0 1.48 1.26 2.68 2.74 2.68s2.68-1.2 2.68-2.68c0-1.54-1.2-2.74-2.68-2.74s-2.74 1.2-2.74 2.74" fill="#699e1e" data-color="1"/>
        <path d="M755.61 485.32c0 .86.74 1.54 1.54 1.54.86 0 1.6-.68 1.6-1.54 0-.91-.74-1.54-1.6-1.54-.8-.01-1.54.62-1.54 1.54" fill="#699e1e" data-color="1"/>
        <path d="M753.9 485.32c0-1.83 1.48-3.37 3.25-3.37 1.83 0 3.31 1.54 3.31 3.37 0 1.77-1.48 3.31-3.31 3.31-1.77 0-3.25-1.55-3.25-3.31m.69 0c0 1.43 1.14 2.57 2.57 2.57 1.48 0 2.62-1.14 2.62-2.57 0-1.48-1.14-2.63-2.62-2.63-1.43 0-2.57 1.14-2.57 2.63" fill="#699e1e" data-color="1"/>
        <path d="M930.53 484.92c0 1.08.86 1.94 1.88 1.94 1.03 0 1.88-.86 1.88-1.94 0-.97-.86-1.88-1.88-1.88-1.03-.01-1.88.91-1.88 1.88" fill="#699e1e" data-color="1"/>
        <path d="M928.36 484.92c0-2.23 1.83-3.99 4.05-3.99 2.28 0 4.05 1.77 4.05 3.99 0 2.23-1.77 4.11-4.05 4.11-2.22-.01-4.05-1.89-4.05-4.11m.8 0c0 1.83 1.43 3.25 3.25 3.25 1.83 0 3.25-1.43 3.25-3.25 0-1.71-1.43-3.25-3.25-3.25-1.82-.01-3.25 1.53-3.25 3.25" fill="#699e1e" data-color="1"/>
        <path d="M832.17 484.92c0 1.08.86 1.94 1.94 1.94 1.03 0 1.88-.86 1.88-1.94 0-.97-.86-1.88-1.88-1.88-1.08-.01-1.94.91-1.94 1.88" fill="#699e1e" data-color="1"/>
        <path d="M830.01 484.92c0-2.23 1.83-3.99 4.11-3.99 2.23 0 4.05 1.77 4.05 3.99 0 2.23-1.83 4.11-4.05 4.11-2.29-.01-4.11-1.89-4.11-4.11m.85 0c0 1.83 1.43 3.25 3.25 3.25 1.77 0 3.2-1.43 3.2-3.25 0-1.71-1.43-3.25-3.2-3.25-1.82-.01-3.25 1.53-3.25 3.25" fill="#699e1e" data-color="1"/>
        <path fill="#699e1e" d="M884.09 439.56h57.79v-.8h-57.45l-22.13-22.13-53.4-.03-22.02 22.02h-76.91v.8h77.19l22.08-22.02 52.77.03z" data-color="1"/>
        <path d="M881.01 438.99c0 1.77 1.43 3.31 3.25 3.31 1.83 0 3.31-1.54 3.31-3.31 0-1.83-1.48-3.36-3.31-3.36-1.83-.01-3.25 1.53-3.25 3.36" fill="#699e1e" data-color="1"/>
        <path d="M730.05 439.25c0 1.37 1.08 2.45 2.51 2.45 1.37 0 2.51-1.08 2.51-2.45 0-1.48-1.14-2.57-2.51-2.57-1.42 0-2.51 1.08-2.51 2.57" fill="#699e1e" data-color="1"/>
        <path d="M707.29 438.96c0 1.77 1.48 3.31 3.25 3.31 1.83 0 3.31-1.54 3.31-3.31 0-1.83-1.48-3.37-3.31-3.37-1.76.01-3.25 1.55-3.25 3.37" fill="#699e1e" data-color="1"/>
        <path d="M806.16 417.63c0 1.77 1.48 3.25 3.31 3.25s3.25-1.48 3.25-3.25c0-1.88-1.43-3.31-3.25-3.31-1.83 0-3.31 1.42-3.31 3.31" fill="#699e1e" data-color="1"/>
        <path d="M938.57 439.45c0 1.83 1.48 3.31 3.31 3.31s3.25-1.48 3.25-3.31c0-1.77-1.43-3.31-3.25-3.31-1.83 0-3.31 1.54-3.31 3.31" fill="#699e1e" data-color="1"/>
        <path d="M934.92 439.45c0-3.88 3.08-6.96 6.96-6.96s7.02 3.08 7.02 6.96c0 3.82-3.14 7.02-7.02 7.02-3.88-.01-6.96-3.2-6.96-7.02m1.37 0c0 3.02 2.51 5.59 5.59 5.59s5.53-2.57 5.53-5.59c0-3.08-2.45-5.54-5.53-5.54s-5.59 2.46-5.59 5.54" fill="#699e1e" data-color="1"/>
        <path d="M859.27 416.91c0 1.31.97 2.34 2.22 2.34a2.35 2.35 0 0 0 2.34-2.34c0-1.2-1.08-2.23-2.34-2.23a2.243 2.243 0 0 0-2.22 2.23" fill="#699e1e" data-color="1"/>
        <path d="M856.65 416.91c0-2.68 2.23-4.79 4.85-4.79 2.74 0 4.91 2.11 4.91 4.79s-2.17 4.9-4.91 4.9c-2.63.01-4.85-2.22-4.85-4.9m1.03 0c0 2.17 1.71 3.88 3.82 3.88 2.17 0 3.94-1.71 3.94-3.88 0-2.11-1.77-3.82-3.94-3.82a3.82 3.82 0 0 0-3.82 3.82" fill="#699e1e" data-color="1"/>
        <path d="M784.59 439.08c0 1.25 1.08 2.22 2.34 2.22s2.23-.97 2.23-2.22c0-1.31-.97-2.28-2.23-2.28-1.25-.01-2.34.96-2.34 2.28" fill="#699e1e" data-color="1"/>
        <path d="M782.03 439.08c0-2.68 2.17-4.91 4.91-4.91 2.62 0 4.85 2.23 4.85 4.91s-2.23 4.85-4.85 4.85c-2.74 0-4.91-2.17-4.91-4.85m.97 0c0 2.11 1.77 3.82 3.94 3.82a3.82 3.82 0 0 0 3.82-3.82c0-2.17-1.71-3.88-3.82-3.88-2.17 0-3.94 1.71-3.94 3.88" fill="#699e1e" data-color="1"/>
        <path fill="#699e1e" d="M636.18 430.58h57.76v-1.03h-57.3l-22.14-22.08h-53.51l-22.02 22.02h-76.91v.97h77.31l22.08-22.02h52.65z" data-color="1"/>
        <path d="M690.12 429.78c0 1.83 1.43 3.31 3.25 3.31 1.83 0 3.31-1.48 3.31-3.31 0-1.77-1.48-3.31-3.31-3.31-1.82 0-3.25 1.54-3.25 3.31" fill="#699e1e" data-color="1"/>
        <path d="M535.49 429.72c0 1.77 1.48 3.25 3.31 3.25s3.31-1.48 3.31-3.25c0-1.88-1.48-3.31-3.31-3.31s-3.31 1.43-3.31 3.31" fill="#699e1e" data-color="1"/>
        <path d="M611.25 408.38c0 1.83 1.48 3.25 3.31 3.25s3.25-1.43 3.25-3.25c0-1.88-1.43-3.28-3.25-3.28-1.83 0-3.31 1.4-3.31 3.28" fill="#699e1e" data-color="1"/>
        <path d="M632.76 429.49c0 1.88 1.43 3.31 3.25 3.31 1.88 0 3.31-1.43 3.31-3.31 0-1.77-1.43-3.25-3.31-3.25-1.83 0-3.25 1.48-3.25 3.25" fill="#699e1e" data-color="1"/>
        <path d="M628.99 429.49c0-3.82 3.2-6.96 7.02-6.96 3.88 0 7.02 3.14 7.02 6.96 0 3.88-3.14 7.07-7.02 7.07-3.82.01-7.02-3.19-7.02-7.07m1.43 0c0 3.08 2.57 5.54 5.59 5.54 3.08 0 5.59-2.45 5.59-5.54 0-3.02-2.51-5.53-5.59-5.53-3.02 0-5.59 2.51-5.59 5.53" fill="#699e1e" data-color="1"/>
        <path d="M459.04 430c0 1.88 1.48 3.31 3.31 3.31s3.31-1.43 3.31-3.31c0-1.83-1.48-3.25-3.31-3.25s-3.31 1.43-3.31 3.25" fill="#699e1e" data-color="1"/>
        <path d="M455.39 430c0-3.82 3.08-7.02 6.96-7.02s7.02 3.2 7.02 7.02c0 3.88-3.14 7.07-7.02 7.07s-6.96-3.19-6.96-7.07m1.37 0c0 3.08 2.51 5.54 5.59 5.54s5.59-2.45 5.59-5.54c0-3.02-2.51-5.53-5.59-5.53s-5.59 2.51-5.59 5.53" fill="#699e1e" data-color="1"/>
        <path d="M558.02 408.1c0 1.83 1.54 3.31 3.31 3.31 1.83 0 3.31-1.48 3.31-3.31s-1.48-3.28-3.31-3.28c-1.77 0-3.31 1.45-3.31 3.28" fill="#699e1e" data-color="1"/>
        <path d="M554.31 408.1c0-3.85 3.19-6.93 7.02-6.93 3.88 0 7.02 3.08 7.02 6.93 0 3.88-3.14 7.02-7.02 7.02-3.82 0-7.02-3.14-7.02-7.02m1.49 0c0 3.02 2.45 5.54 5.53 5.54s5.59-2.51 5.59-5.54c0-3.05-2.51-5.51-5.59-5.51a5.5 5.5 0 0 0-5.53 5.51" fill="#699e1e" data-color="1"/>
        <path fill="#699e1e" d="M513.52 463.55h57.74v-.46h-57.51l-22.13-22.13h-53.29l-22.02 22.02h-76.96v.51h77.13l22.08-22.02h52.89z" data-color="1"/>
        <path d="M435.88 441.59c0 1.54 1.2 2.68 2.68 2.68s2.68-1.14 2.68-2.68c0-1.48-1.2-2.74-2.68-2.74s-2.68 1.25-2.68 2.74" fill="#699e1e" data-color="1"/>
        <path d="M567.38 463.27c0 1.54 1.2 2.74 2.68 2.74s2.74-1.2 2.74-2.74c0-1.43-1.26-2.62-2.74-2.62-1.48-.01-2.68 1.19-2.68 2.62" fill="#699e1e" data-color="1"/>
        <path d="M488.71 441.47c0 1.43 1.2 2.62 2.74 2.62 1.48 0 2.68-1.2 2.68-2.62 0-1.54-1.2-2.74-2.68-2.74-1.54.01-2.74 1.2-2.74 2.74" fill="#699e1e" data-color="1"/>
        <path d="M338.04 463.27c0 .91.74 1.6 1.54 1.6.91 0 1.6-.69 1.6-1.6 0-.86-.68-1.54-1.6-1.54-.8 0-1.54.68-1.54 1.54" fill="#699e1e" data-color="1"/>
        <path d="M336.33 463.27c0-1.77 1.48-3.31 3.25-3.31 1.88 0 3.31 1.54 3.31 3.31 0 1.83-1.43 3.31-3.31 3.31-1.77 0-3.25-1.49-3.25-3.31m.63 0c0 1.48 1.2 2.62 2.62 2.62 1.48 0 2.62-1.14 2.62-2.62 0-1.43-1.14-2.57-2.62-2.57-1.43 0-2.62 1.14-2.62 2.57" fill="#699e1e" data-color="1"/>
        <path d="M512.95 462.92c0 1.08.86 1.94 1.88 1.94 1.08 0 1.94-.86 1.94-1.94s-.86-1.88-1.94-1.88c-1.02 0-1.88.8-1.88 1.88" fill="#699e1e" data-color="1"/>
        <path d="M510.79 462.92c0-2.23 1.83-4.11 4.05-4.11 2.23 0 4.11 1.88 4.11 4.11 0 2.22-1.88 4.11-4.11 4.11s-4.05-1.88-4.05-4.11m.79 0c0 1.83 1.48 3.25 3.25 3.25 1.83 0 3.25-1.43 3.25-3.25 0-1.71-1.43-3.25-3.25-3.25-1.76 0-3.25 1.54-3.25 3.25" fill="#699e1e" data-color="1"/>
        <path d="M414.6 462.92c0 1.08.86 1.94 1.88 1.94 1.08 0 1.94-.86 1.94-1.94s-.86-1.88-1.94-1.88c-1.02 0-1.88.8-1.88 1.88" fill="#699e1e" data-color="1"/>
        <path d="M412.43 462.92c0-2.23 1.83-4.11 4.05-4.11 2.28 0 4.11 1.88 4.11 4.11 0 2.22-1.83 4.11-4.11 4.11-2.22 0-4.05-1.88-4.05-4.11m.86 0c0 1.83 1.43 3.25 3.19 3.25 1.83 0 3.25-1.43 3.25-3.25 0-1.71-1.43-3.25-3.25-3.25-1.77 0-3.19 1.54-3.19 3.25" fill="#699e1e" data-color="1"/>
        <path fill="#699e1e" d="M466.57 417.51h57.74v-.74h-57.45l-22.14-22.11h-53.4l-22.02 22h-76.9v.79h77.19l22.08-21.99h52.77z" data-color="1"/>
        <path d="M463.43 416.94c0 1.83 1.43 3.25 3.31 3.25a3.25 3.25 0 0 0 3.25-3.25c0-1.83-1.48-3.31-3.25-3.31-1.88 0-3.31 1.49-3.31 3.31" fill="#699e1e" data-color="1"/>
        <path d="M312.48 417.17c0 1.43 1.14 2.51 2.51 2.51s2.51-1.08 2.51-2.51c0-1.37-1.14-2.51-2.51-2.51s-2.51 1.14-2.51 2.51" fill="#699e1e" data-color="1"/>
        <path d="M289.72 416.94c0 1.83 1.43 3.25 3.25 3.25 1.83 0 3.31-1.43 3.31-3.25 0-1.83-1.48-3.31-3.31-3.31s-3.25 1.49-3.25 3.31" fill="#699e1e" data-color="1"/>
        <path d="M388.64 395.69c0 1.77 1.43 3.2 3.25 3.2s3.31-1.43 3.31-3.2c0-1.88-1.48-3.36-3.31-3.36s-3.25 1.48-3.25 3.36" fill="#699e1e" data-color="1"/>
        <path d="M521 417.45c0 1.83 1.48 3.31 3.31 3.31s3.25-1.48 3.25-3.31c0-1.77-1.43-3.31-3.25-3.31-1.83.01-3.31 1.55-3.31 3.31" fill="#699e1e" data-color="1"/>
        <path d="M517.29 417.45c0-3.88 3.14-7.07 7.02-7.07s6.96 3.2 6.96 7.07c0 3.82-3.08 7.02-6.96 7.02s-7.02-3.19-7.02-7.02m1.43 0c0 3.03 2.51 5.54 5.59 5.54s5.59-2.51 5.59-5.54c0-3.08-2.51-5.53-5.59-5.53s-5.59 2.46-5.59 5.53" fill="#699e1e" data-color="1"/>
        <path d="M441.64 394.95c0 1.31 1.08 2.28 2.34 2.28s2.28-.97 2.28-2.28c0-1.25-1.03-2.22-2.28-2.22s-2.34.96-2.34 2.22" fill="#699e1e" data-color="1"/>
        <path d="M439.07 394.95c0-2.68 2.17-4.85 4.91-4.85 2.62 0 4.85 2.17 4.85 4.85s-2.22 4.91-4.85 4.91c-2.74 0-4.91-2.23-4.91-4.91m.97 0c0 2.17 1.77 3.88 3.94 3.88 2.11 0 3.82-1.71 3.82-3.88a3.82 3.82 0 0 0-3.82-3.82c-2.17 0-3.94 1.71-3.94 3.82" fill="#699e1e" data-color="1"/>
        <path d="M367.08 417.11c0 1.2.97 2.23 2.22 2.23 1.31 0 2.28-1.03 2.28-2.23 0-1.31-.97-2.34-2.28-2.34-1.25 0-2.22 1.03-2.22 2.34" fill="#699e1e" data-color="1"/>
        <path d="M364.51 417.11c0-2.68 2.17-4.91 4.79-4.91 2.68 0 4.91 2.23 4.91 4.91s-2.22 4.85-4.91 4.85c-2.62 0-4.79-2.17-4.79-4.85m.97 0a3.82 3.82 0 0 0 3.82 3.82c2.17 0 3.88-1.71 3.88-3.82 0-2.17-1.71-3.88-3.88-3.88-2.11 0-3.82 1.71-3.82 3.88" fill="#699e1e" data-color="1"/>
        <path fill="#699e1e" d="M358.52 452.54h57.79v-.97h-57.39l-22.14-22.13h-53.51l-22.02 22.02H184.4v1.02h77.31l22.02-22.02h52.65z" data-color="1"/>
        <path d="M412.43 451.74c0 1.88 1.43 3.31 3.31 3.31 1.77 0 3.25-1.43 3.25-3.31 0-1.77-1.48-3.31-3.25-3.31-1.88 0-3.31 1.54-3.31 3.31" fill="#699e1e" data-color="1"/>
        <path d="M257.77 451.68c0 1.83 1.48 3.25 3.37 3.25a3.25 3.25 0 0 0 3.25-3.25c0-1.88-1.48-3.31-3.25-3.31-1.89 0-3.37 1.43-3.37 3.31" fill="#699e1e" data-color="1"/>
        <path d="M333.53 430.35c0 1.83 1.54 3.31 3.31 3.31 1.83 0 3.31-1.48 3.31-3.31 0-1.77-1.48-3.31-3.31-3.31-1.77 0-3.31 1.54-3.31 3.31" fill="#699e1e" data-color="1"/>
        <path d="M355.04 451.46c0 1.88 1.48 3.31 3.31 3.31 1.77 0 3.31-1.43 3.31-3.31 0-1.77-1.54-3.25-3.31-3.25-1.83 0-3.31 1.48-3.31 3.25" fill="#699e1e" data-color="1"/>
        <path d="M351.33 451.46c0-3.82 3.14-6.96 7.02-6.96 3.82 0 7.02 3.14 7.02 6.96 0 3.88-3.19 7.07-7.02 7.07-3.88 0-7.02-3.19-7.02-7.07m1.43 0c0 3.14 2.51 5.59 5.59 5.59 3.02 0 5.59-2.45 5.59-5.59 0-3.02-2.57-5.54-5.59-5.54-3.08 0-5.59 2.51-5.59 5.54" fill="#699e1e" data-color="1"/>
        <path d="M181.38 452.03c0 1.83 1.43 3.25 3.31 3.25a3.25 3.25 0 0 0 3.25-3.25c0-1.83-1.48-3.31-3.25-3.31-1.88 0-3.31 1.48-3.31 3.31" fill="#699e1e" data-color="1"/>
        <path d="M177.67 452.03c0-3.88 3.08-7.02 7.02-7.02 3.82 0 6.96 3.14 6.96 7.02 0 3.82-3.14 7.02-6.96 7.02a7.02 7.02 0 0 1-7.02-7.02m1.43 0c0 3.02 2.45 5.59 5.59 5.59 3.02 0 5.53-2.57 5.53-5.59 0-3.08-2.51-5.59-5.53-5.59-3.14 0-5.59 2.51-5.59 5.59" fill="#699e1e" data-color="1"/>
        <path d="M280.36 430.06c0 1.83 1.48 3.31 3.31 3.31 1.77 0 3.25-1.48 3.25-3.31 0-1.77-1.48-3.31-3.25-3.31-1.82 0-3.31 1.54-3.31 3.31" fill="#699e1e" data-color="1"/>
        <path d="M276.65 430.06c0-3.82 3.14-6.96 7.02-6.96 3.82 0 6.96 3.14 6.96 6.96 0 3.88-3.14 7.07-6.96 7.07-3.88.01-7.02-3.19-7.02-7.07m1.43 0c0 3.02 2.51 5.53 5.59 5.53 3.02 0 5.59-2.51 5.59-5.53s-2.57-5.54-5.59-5.54c-3.08.01-5.59 2.52-5.59 5.54" fill="#699e1e" data-color="1"/>
        <path fill="#699e1e" d="M235.86 485.57h57.68v-.51h-57.45l-22.19-22.14h-53.23l-22.08 22.02H61.63v.52h77.19l22.02-22.02h52.89z" data-color="1"/>
        <path d="M158.16 463.55c0 1.54 1.2 2.74 2.68 2.74s2.74-1.2 2.74-2.74c0-1.48-1.26-2.74-2.74-2.74s-2.68 1.26-2.68 2.74" fill="#699e1e" data-color="1"/>
        <path d="M289.66 485.35c0 1.43 1.26 2.68 2.74 2.68s2.68-1.26 2.68-2.68c0-1.54-1.2-2.74-2.68-2.74s-2.74 1.19-2.74 2.74" fill="#699e1e" data-color="1"/>
        <path d="M211.05 463.44c0 1.48 1.2 2.68 2.68 2.68 1.54 0 2.68-1.2 2.68-2.68 0-1.54-1.14-2.74-2.68-2.74-1.48 0-2.68 1.2-2.68 2.74" fill="#699e1e" data-color="1"/>
        <path d="M60.38 485.29c0 .86.68 1.54 1.54 1.54s1.54-.68 1.54-1.54c0-.91-.68-1.54-1.54-1.54s-1.54.63-1.54 1.54" fill="#699e1e" data-color="1"/>
        <path d="M58.61 485.29c0-1.83 1.48-3.36 3.31-3.36s3.31 1.54 3.31 3.36c0 1.77-1.48 3.31-3.31 3.31s-3.31-1.55-3.31-3.31m.69 0c0 1.43 1.2 2.57 2.62 2.57 1.43 0 2.62-1.14 2.62-2.57 0-1.48-1.2-2.62-2.62-2.62a2.597 2.597 0 0 0-2.62 2.62" fill="#699e1e" data-color="1"/>
        <path d="M235.24 484.89c0 1.08.86 1.94 1.94 1.94 1.03 0 1.88-.86 1.88-1.94 0-.97-.86-1.88-1.88-1.88-1.09 0-1.94.91-1.94 1.88" fill="#699e1e" data-color="1"/>
        <path d="M233.07 484.89c0-2.22 1.88-3.99 4.11-3.99s4.05 1.77 4.05 3.99c0 2.23-1.83 4.11-4.05 4.11-2.23 0-4.11-1.89-4.11-4.11m.85 0c0 1.83 1.43 3.25 3.25 3.25 1.77 0 3.19-1.43 3.19-3.25 0-1.71-1.43-3.25-3.19-3.25-1.82 0-3.25 1.53-3.25 3.25" fill="#699e1e" data-color="1"/>
        <path d="M136.88 484.89c0 1.08.91 1.94 1.94 1.94s1.88-.86 1.88-1.94c0-.97-.86-1.88-1.88-1.88s-1.94.91-1.94 1.88" fill="#699e1e" data-color="1"/>
        <path d="M134.77 484.89c0-2.22 1.83-3.99 4.05-3.99s4.05 1.77 4.05 3.99c0 2.23-1.83 4.11-4.05 4.11s-4.05-1.89-4.05-4.11m.8 0c0 1.83 1.43 3.25 3.25 3.25a3.25 3.25 0 0 0 3.25-3.25c0-1.71-1.48-3.25-3.25-3.25-1.82 0-3.25 1.53-3.25 3.25" fill="#699e1e" data-color="1"/>
        <path fill="#699e1e" d="M188.85 439.53h57.74v-.79H189.2l-22.14-22.14h-53.4l-22.02 22.02H14.68v.8h77.25l22.02-22.02h52.77z" data-color="1"/>
        <path d="M185.72 438.96c0 1.77 1.48 3.31 3.25 3.31 1.88 0 3.37-1.54 3.37-3.31 0-1.83-1.48-3.37-3.37-3.37-1.77.01-3.25 1.55-3.25 3.37" fill="#699e1e" data-color="1"/>
        <path d="M34.76 439.25c0 1.37 1.14 2.45 2.51 2.45 1.43 0 2.57-1.08 2.57-2.45 0-1.48-1.14-2.57-2.57-2.57-1.36 0-2.51 1.08-2.51 2.57" fill="#699e1e" data-color="1"/>
        <path d="M12 438.96c0 1.77 1.48 3.31 3.31 3.31 1.77 0 3.25-1.54 3.25-3.31 0-1.83-1.48-3.37-3.25-3.37-1.83.01-3.31 1.55-3.31 3.37" fill="#699e1e" data-color="1"/>
        <path d="M110.93 417.63c0 1.77 1.43 3.25 3.25 3.25s3.31-1.48 3.31-3.25c0-1.88-1.48-3.31-3.31-3.31s-3.25 1.42-3.25 3.31" fill="#699e1e" data-color="1"/>
        <path d="M243.34 439.42c0 1.83 1.48 3.31 3.25 3.31 1.83 0 3.31-1.48 3.31-3.31 0-1.77-1.48-3.31-3.31-3.31-1.77 0-3.25 1.54-3.25 3.31" fill="#699e1e" data-color="1"/>
        <path d="M239.63 439.42c0-3.88 3.14-6.96 6.96-6.96 3.88 0 7.02 3.08 7.02 6.96 0 3.82-3.14 7.02-7.02 7.02-3.82 0-6.96-3.2-6.96-7.02m1.43 0c0 3.02 2.45 5.59 5.53 5.59s5.59-2.57 5.59-5.59c0-3.08-2.51-5.54-5.59-5.54s-5.53 2.46-5.53 5.54" fill="#699e1e" data-color="1"/>
        <path d="M163.98 416.88c0 1.31 1.03 2.34 2.28 2.34s2.28-1.03 2.28-2.34c0-1.2-1.03-2.23-2.28-2.23s-2.28 1.04-2.28 2.23" fill="#699e1e" data-color="1"/>
        <path d="M161.41 416.88c0-2.68 2.17-4.79 4.85-4.79s4.85 2.11 4.85 4.79-2.17 4.91-4.85 4.91-4.85-2.22-4.85-4.91m.97 0c0 2.17 1.77 3.88 3.88 3.88s3.88-1.71 3.88-3.88c0-2.11-1.77-3.82-3.88-3.82s-3.88 1.71-3.88 3.82" fill="#699e1e" data-color="1"/>
        <path d="M89.36 439.08c0 1.25 1.03 2.22 2.28 2.22s2.28-.97 2.28-2.22c0-1.31-1.03-2.28-2.28-2.28s-2.28.96-2.28 2.28" fill="#699e1e" data-color="1"/>
        <path d="M86.74 439.08c0-2.68 2.23-4.91 4.91-4.91s4.85 2.23 4.85 4.91-2.17 4.85-4.85 4.85c-2.69 0-4.91-2.17-4.91-4.85m1.02 0c0 2.11 1.71 3.82 3.88 3.82s3.82-1.71 3.82-3.82c0-2.17-1.65-3.88-3.82-3.88s-3.88 1.71-3.88 3.88" fill="#699e1e" data-color="1"/>
        <path fill="#699e1e" d="M181.15 276.14H87.93v1.66h92.54l35.71 35.65h86.32l35.54-35.48h124.02v-1.66H337.35l-35.54 35.55h-84.94z" data-color="1"/>
        <path d="M94.21 277.46c0-2.97-2.4-5.36-5.36-5.36-2.97 0-5.31 2.4-5.31 5.36s2.34 5.19 5.31 5.19c2.96 0 5.36-2.23 5.36-5.19" fill="#699e1e" data-color="1"/>
        <path d="M343.63 277.57c0-2.91-2.4-5.31-5.31-5.31s-5.31 2.4-5.31 5.31c0 2.96 2.4 5.3 5.31 5.3s5.31-2.34 5.31-5.3" fill="#699e1e" data-color="1"/>
        <path d="M221.43 311.91a5.3 5.3 0 0 0-5.31-5.31c-2.97 0-5.36 2.34-5.36 5.31 0 2.96 2.4 5.36 5.36 5.36 2.91 0 5.31-2.39 5.31-5.36" fill="#699e1e" data-color="1"/>
        <path d="M186.74 277.85c0-2.91-2.34-5.3-5.31-5.3-2.91 0-5.31 2.4-5.31 5.3 0 2.97 2.4 5.25 5.31 5.25 2.97 0 5.31-2.28 5.31-5.25" fill="#699e1e" data-color="1"/>
        <path d="M192.73 277.85c0 6.16-5.02 11.3-11.3 11.3-6.22 0-11.3-5.13-11.3-11.3 0-6.27 5.08-11.3 11.3-11.3 6.28.01 11.3 5.03 11.3 11.3m-2.28 0c0-4.96-4.05-8.96-9.01-8.96s-8.96 3.99-8.96 8.96c0 4.91 3.99 8.9 8.96 8.9s9.01-3.99 9.01-8.9" fill="#699e1e" data-color="1"/>
        <path d="M466.91 277c0-2.96-2.34-5.3-5.25-5.3-2.97 0-5.36 2.34-5.36 5.3 0 2.97 2.4 5.36 5.36 5.36 2.92 0 5.25-2.39 5.25-5.36" fill="#699e1e" data-color="1"/>
        <path d="M472.96 277c0 6.28-5.08 11.3-11.3 11.3-6.28 0-11.3-5.02-11.3-11.3 0-6.16 5.02-11.3 11.3-11.3 6.22 0 11.3 5.14 11.3 11.3m-2.34 0c0-4.9-4.05-8.9-8.96-8.9-5.02 0-9.01 3.99-9.01 8.9 0 4.97 3.99 9.01 9.01 9.01 4.91 0 8.96-4.05 8.96-9.01" fill="#699e1e" data-color="1"/>
        <path d="M307.23 312.37c0-2.97-2.34-5.36-5.25-5.36-2.97 0-5.36 2.4-5.36 5.36s2.4 5.3 5.36 5.3c2.91 0 5.25-2.34 5.25-5.3" fill="#699e1e" data-color="1"/>
        <path d="M313.22 312.37c0 6.27-5.02 11.32-11.24 11.32-6.28 0-11.35-5.05-11.35-11.32 0-6.22 5.08-11.35 11.35-11.35 6.22 0 11.24 5.13 11.24 11.35m-2.28 0c0-4.91-4.05-8.96-8.96-8.96-5.02 0-9.01 4.05-9.01 8.96 0 4.96 3.99 9.04 9.01 9.04 4.91 0 8.96-4.08 8.96-9.04" fill="#699e1e" data-color="1"/>
        <path fill="#699e1e" d="M379.06 222.86h-93.11v.8h92.71l35.77 35.77h85.92l35.59-35.66h124.2v-.8H535.6l-35.54 35.66h-85.29z" data-color="1"/>
        <path d="M504.4 258.34c0-2.4-1.94-4.34-4.34-4.34-2.45 0-4.39 1.94-4.39 4.34 0 2.45 1.94 4.39 4.39 4.39 2.4.01 4.34-1.93 4.34-4.39" fill="#699e1e" data-color="1"/>
        <path d="M292.23 223.26c0-2.45-2-4.39-4.39-4.39s-4.34 1.94-4.34 4.39 1.94 4.39 4.34 4.39 4.39-1.94 4.39-4.39" fill="#699e1e" data-color="1"/>
        <path d="M419.11 258.63c0-2.45-1.94-4.39-4.34-4.39-2.45 0-4.39 1.94-4.39 4.39 0 2.4 1.94 4.34 4.39 4.34 2.4 0 4.34-1.94 4.34-4.34" fill="#699e1e" data-color="1"/>
        <path d="M662.19 223.26c0-1.37-1.14-2.45-2.51-2.45s-2.51 1.08-2.51 2.45c0 1.48 1.14 2.62 2.51 2.62s2.51-1.14 2.51-2.62" fill="#699e1e" data-color="1"/>
        <path d="M665.05 223.26c0 3.02-2.4 5.42-5.36 5.42-2.97 0-5.31-2.4-5.31-5.42 0-2.85 2.34-5.25 5.31-5.25 2.96 0 5.36 2.4 5.36 5.25m-1.14 0c0-2.28-1.88-4.16-4.22-4.16s-4.22 1.88-4.22 4.16c0 2.4 1.88 4.34 4.22 4.34 2.33-.01 4.22-1.95 4.22-4.34" fill="#699e1e" data-color="1"/>
        <path d="M380.03 223.83c0-1.65-1.37-3.02-3.08-3.02s-3.02 1.37-3.02 3.02c0 1.83 1.31 3.19 3.02 3.19s3.08-1.37 3.08-3.19" fill="#699e1e" data-color="1"/>
        <path d="M383.56 223.83c0 3.71-2.97 6.73-6.62 6.73-3.59 0-6.56-3.02-6.56-6.73 0-3.59 2.97-6.5 6.56-6.5 3.66-.01 6.62 2.9 6.62 6.5m-1.36 0c0-2.8-2.34-5.13-5.25-5.13-2.85 0-5.19 2.34-5.19 5.13 0 2.97 2.34 5.36 5.19 5.36 2.91 0 5.25-2.39 5.25-5.36" fill="#699e1e" data-color="1"/>
        <path d="M538.68 223.83c0-1.65-1.37-3.02-3.08-3.02s-3.08 1.37-3.08 3.02c0 1.83 1.37 3.19 3.08 3.19s3.08-1.37 3.08-3.19" fill="#699e1e" data-color="1"/>
        <path d="M542.16 223.83c0 3.71-2.91 6.73-6.56 6.73-3.59 0-6.56-3.02-6.56-6.73 0-3.59 2.97-6.5 6.56-6.5 3.65-.01 6.56 2.9 6.56 6.5m-1.37 0c0-2.8-2.34-5.13-5.19-5.13-2.91 0-5.25 2.34-5.25 5.13 0 2.97 2.34 5.36 5.25 5.36 2.85 0 5.19-2.39 5.19-5.36" fill="#699e1e" data-color="1"/>
        <path fill="#699e1e" d="M454.88 297.14h-93.17v1.25h92.65l35.72 35.74h86.14l35.54-35.62h124.06v-1.2H611.31l-35.6 35.63h-85.12z" data-color="1"/>
        <path d="M459.9 298.11c0-2.97-2.34-5.36-5.25-5.36-2.97 0-5.31 2.4-5.31 5.36 0 2.91 2.34 5.3 5.31 5.3 2.91 0 5.25-2.39 5.25-5.3" fill="#699e1e" data-color="1"/>
        <path d="M703.47 297.65c0-2.23-1.83-4.05-4.05-4.05-2.28 0-4.05 1.83-4.05 4.05s1.77 4.05 4.05 4.05c2.23 0 4.05-1.83 4.05-4.05" fill="#699e1e" data-color="1"/>
        <path d="M740.21 298.11c0-2.97-2.4-5.36-5.36-5.36-2.91 0-5.3 2.4-5.3 5.36 0 2.91 2.4 5.3 5.3 5.3 2.97 0 5.36-2.39 5.36-5.3" fill="#699e1e" data-color="1"/>
        <path d="M580.67 332.54c0-2.91-2.4-5.3-5.36-5.3-2.91 0-5.25 2.4-5.25 5.3 0 2.97 2.34 5.36 5.25 5.36 2.96 0 5.36-2.4 5.36-5.36" fill="#699e1e" data-color="1"/>
        <path d="M367.02 297.31c0-2.97-2.4-5.36-5.31-5.36s-5.31 2.4-5.31 5.36 2.4 5.25 5.31 5.25 5.31-2.29 5.31-5.25" fill="#699e1e" data-color="1"/>
        <path d="M373.01 297.31c0 6.16-5.08 11.3-11.3 11.3s-11.3-5.14-11.3-11.3c0-6.28 5.08-11.3 11.3-11.3s11.3 5.02 11.3 11.3m-2.28 0c0-4.97-4.05-9.01-9.01-9.01s-9.01 4.05-9.01 9.01c0 4.9 4.05 8.9 9.01 8.9s9.01-4 9.01-8.9" fill="#699e1e" data-color="1"/>
        <path d="M495.04 333.62c0-1.99-1.65-3.65-3.65-3.65-2.05 0-3.71 1.66-3.71 3.65 0 2.05 1.65 3.71 3.71 3.71 2 0 3.65-1.66 3.65-3.71" fill="#699e1e" data-color="1"/>
        <path d="M499.2 333.62c0 4.34-3.54 7.87-7.82 7.87-4.39 0-7.87-3.53-7.87-7.87 0-4.28 3.48-7.82 7.87-7.82 4.29 0 7.82 3.54 7.82 7.82m-1.59 0c0-3.42-2.8-6.16-6.22-6.16-3.48 0-6.28 2.74-6.28 6.16s2.8 6.22 6.28 6.22c3.42 0 6.22-2.8 6.22-6.22" fill="#699e1e" data-color="1"/>
        <path d="M615.41 297.88c0-2-1.65-3.65-3.65-3.65-2.05 0-3.71 1.65-3.71 3.65 0 1.99 1.65 3.65 3.71 3.65 2 0 3.65-1.66 3.65-3.65" fill="#699e1e" data-color="1"/>
        <path d="M619.58 297.88c0 4.33-3.48 7.87-7.82 7.87s-7.82-3.54-7.82-7.87c0-4.34 3.48-7.87 7.82-7.87s7.82 3.53 7.82 7.87m-1.6 0c0-3.36-2.8-6.22-6.22-6.22s-6.22 2.85-6.22 6.22c0 3.48 2.8 6.27 6.22 6.27 3.43 0 6.22-2.79 6.22-6.27" fill="#699e1e" data-color="1"/>
        <path fill="#699e1e" d="M629.16 240.72h-93.22v1.59h92.54l35.77 35.72h86.23l35.6-35.6h123.97v-1.6H785.39l-35.6 35.54h-84.91z" data-color="1"/>
        <path d="M542.16 241.91c0-2.97-2.34-5.25-5.25-5.25s-5.36 2.28-5.36 5.25c0 2.96 2.45 5.36 5.36 5.36 2.91.01 5.25-2.39 5.25-5.36" fill="#699e1e" data-color="1"/>
        <path d="M791.61 242.08c0-2.91-2.34-5.25-5.31-5.25-2.91 0-5.3 2.34-5.3 5.25 0 2.97 2.4 5.31 5.3 5.31 2.97 0 5.31-2.34 5.31-5.31" fill="#699e1e" data-color="1"/>
        <path d="M669.44 276.49c0-2.91-2.34-5.31-5.3-5.31-2.91 0-5.3 2.4-5.3 5.31 0 2.96 2.4 5.36 5.3 5.36 2.96 0 5.3-2.4 5.3-5.36" fill="#699e1e" data-color="1"/>
        <path d="M634.81 242.37c0-2.97-2.4-5.25-5.3-5.25-2.97 0-5.31 2.28-5.31 5.25s2.34 5.3 5.31 5.3c2.91 0 5.3-2.33 5.3-5.3" fill="#699e1e" data-color="1"/>
        <path d="M640.8 242.37c0 6.27-5.08 11.3-11.3 11.3-6.28 0-11.3-5.02-11.3-11.3 0-6.22 5.02-11.3 11.3-11.3 6.22 0 11.3 5.08 11.3 11.3m-2.34 0c0-4.91-3.99-8.96-8.96-8.96-5.02 0-9.02 4.05-9.02 8.96 0 4.96 3.99 9.01 9.02 9.01 4.97 0 8.96-4.05 8.96-9.01" fill="#699e1e" data-color="1"/>
        <path d="M914.95 241.57c0-2.97-2.4-5.36-5.3-5.36s-5.36 2.4-5.36 5.36 2.45 5.3 5.36 5.3 5.3-2.33 5.3-5.3" fill="#699e1e" data-color="1"/>
        <path d="M920.94 241.57c0 6.16-5.08 11.3-11.3 11.3s-11.3-5.14-11.3-11.3c0-6.28 5.08-11.3 11.3-11.3s11.3 5.03 11.3 11.3m-2.28 0c0-4.96-4.11-9.02-9.01-9.02-4.96 0-9.01 4.05-9.01 9.02 0 4.9 4.05 8.9 9.01 8.9 4.9 0 9.01-3.99 9.01-8.9" fill="#699e1e" data-color="1"/>
        <path d="M755.27 276.94c0-2.97-2.4-5.36-5.36-5.36-2.91 0-5.3 2.4-5.3 5.36s2.4 5.3 5.3 5.3c2.97.01 5.36-2.33 5.36-5.3" fill="#699e1e" data-color="1"/>
        <path d="M761.2 276.94c0 6.16-5.02 11.3-11.3 11.3-6.22 0-11.24-5.14-11.24-11.3 0-6.28 5.02-11.3 11.24-11.3 6.28.01 11.3 5.02 11.3 11.3m-2.28 0c0-4.96-4.05-9.01-9.01-9.01-4.9 0-8.96 4.05-8.96 9.01 0 4.91 4.05 8.9 8.96 8.9 4.96 0 9.01-3.99 9.01-8.9" fill="#699e1e" data-color="1"/>
        <path fill="#699e1e" d="M827.04 187.43h-93.05v.74h92.71l35.71 35.66h85.97l35.6-35.49h124.14v-.8H983.58l-35.54 35.55h-85.29z" data-color="1"/>
        <path d="M952.38 222.86c0-2.45-1.94-4.39-4.34-4.39s-4.33 1.94-4.33 4.39c0 2.4 1.94 4.39 4.33 4.39 2.4 0 4.34-2 4.34-4.39" fill="#699e1e" data-color="1"/>
        <path d="M740.21 187.77c0-2.4-1.94-4.34-4.39-4.34-2.4 0-4.33 1.94-4.33 4.34 0 2.45 1.94 4.39 4.33 4.39 2.45.01 4.39-1.93 4.39-4.39" fill="#699e1e" data-color="1"/>
        <path d="M867.09 223.09c0-2.4-1.94-4.34-4.33-4.34-2.4 0-4.39 1.94-4.39 4.34 0 2.51 2 4.45 4.39 4.45s4.33-1.94 4.33-4.45" fill="#699e1e" data-color="1"/>
        <path d="M1110.18 187.83c0-1.37-1.14-2.51-2.51-2.51s-2.45 1.14-2.45 2.51 1.08 2.51 2.45 2.51c1.36 0 2.51-1.14 2.51-2.51" fill="#699e1e" data-color="1"/>
        <path d="M1112.97 187.83c0 2.97-2.34 5.36-5.3 5.36-2.91 0-5.25-2.4-5.25-5.36 0-2.97 2.34-5.31 5.25-5.31 2.96 0 5.3 2.34 5.3 5.31m-1.02 0c0-2.28-1.94-4.16-4.28-4.16s-4.17 1.88-4.17 4.16 1.83 4.16 4.17 4.16 4.28-1.88 4.28-4.16" fill="#699e1e" data-color="1"/>
        <path d="M828.07 188.4c0-1.71-1.37-3.08-3.14-3.08-1.66 0-3.08 1.37-3.08 3.08 0 1.65 1.43 3.08 3.08 3.08 1.77 0 3.14-1.42 3.14-3.08" fill="#699e1e" data-color="1"/>
        <path d="M831.55 188.4c0 3.59-2.96 6.56-6.62 6.56-3.6 0-6.5-2.97-6.5-6.56s2.91-6.56 6.5-6.56c3.65 0 6.62 2.97 6.62 6.56m-1.32 0c0-2.85-2.4-5.19-5.3-5.19-2.85 0-5.19 2.34-5.19 5.19 0 2.91 2.34 5.19 5.19 5.19 2.91 0 5.3-2.28 5.3-5.19" fill="#699e1e" data-color="1"/>
        <path d="M986.72 188.4c0-1.71-1.37-3.08-3.14-3.08-1.65 0-3.08 1.37-3.08 3.08 0 1.65 1.43 3.08 3.08 3.08 1.77 0 3.14-1.42 3.14-3.08" fill="#699e1e" data-color="1"/>
        <path d="M990.2 188.4c0 3.59-2.97 6.56-6.62 6.56-3.59 0-6.56-2.97-6.56-6.56s2.97-6.56 6.56-6.56c3.65 0 6.62 2.97 6.62 6.56m-1.37 0c0-2.85-2.34-5.19-5.25-5.19-2.85 0-5.19 2.34-5.19 5.19 0 2.91 2.34 5.19 5.19 5.19 2.91 0 5.25-2.28 5.25-5.19" fill="#699e1e" data-color="1"/>
        <path fill="#699e1e" d="M902.86 261.71H809.7v1.26h92.65l35.71 35.65h86.14l35.54-35.54h124.09v-1.2h-124.54l-35.54 35.49h-85.18z" data-color="1"/>
        <path d="M907.94 262.68c0-2.97-2.4-5.36-5.31-5.36-2.96 0-5.3 2.4-5.3 5.36 0 2.85 2.34 5.25 5.3 5.25 2.91 0 5.31-2.4 5.31-5.25" fill="#699e1e" data-color="1"/>
        <path d="M1151.48 262.22c0-2.23-1.83-3.99-4.05-3.99-2.23 0-4.05 1.77-4.05 3.99 0 2.23 1.83 4.05 4.05 4.05 2.23 0 4.05-1.82 4.05-4.05" fill="#699e1e" data-color="1"/>
        <path d="M1188.22 262.68c0-2.97-2.34-5.36-5.31-5.36-2.91 0-5.3 2.4-5.3 5.36 0 2.85 2.4 5.25 5.3 5.25 2.97 0 5.31-2.4 5.31-5.25" fill="#699e1e" data-color="1"/>
        <path d="M1028.65 297.08c0-2.96-2.4-5.3-5.3-5.3-2.91 0-5.31 2.34-5.31 5.3 0 2.97 2.4 5.25 5.31 5.25s5.3-2.28 5.3-5.25" fill="#699e1e" data-color="1"/>
        <path d="M815 261.82c0-2.91-2.34-5.25-5.3-5.25-2.91 0-5.3 2.34-5.3 5.25 0 2.97 2.4 5.31 5.3 5.31 2.96 0 5.3-2.34 5.3-5.31" fill="#699e1e" data-color="1"/>
        <path d="M820.99 261.82c0 6.28-5.02 11.3-11.3 11.3-6.22 0-11.3-5.02-11.3-11.3 0-6.22 5.08-11.35 11.3-11.35 6.28 0 11.3 5.13 11.3 11.35m-2.28 0c0-4.91-3.99-8.96-9.01-8.96-4.96 0-8.96 4.05-8.96 8.96 0 4.96 3.99 9.01 8.96 9.01 5.02.01 9.01-4.04 9.01-9.01" fill="#699e1e" data-color="1"/>
        <path d="M943.02 298.17c0-2.11-1.66-3.65-3.71-3.65-2 0-3.65 1.54-3.65 3.65 0 1.99 1.65 3.65 3.65 3.65 2.06 0 3.71-1.66 3.71-3.65" fill="#699e1e" data-color="1"/>
        <path d="M947.18 298.17c0 4.22-3.48 7.76-7.87 7.76-4.33 0-7.82-3.54-7.82-7.76 0-4.34 3.48-7.87 7.82-7.87 4.4-.01 7.87 3.53 7.87 7.87m-1.59 0c0-3.48-2.8-6.28-6.27-6.28-3.42 0-6.22 2.8-6.22 6.28 0 3.36 2.8 6.22 6.22 6.22 3.47-.01 6.27-2.86 6.27-6.22" fill="#699e1e" data-color="1"/>
        <path d="M1063.39 262.45c0-2-1.65-3.65-3.65-3.65-2.05 0-3.65 1.65-3.65 3.65s1.6 3.71 3.65 3.71c2 0 3.65-1.71 3.65-3.71" fill="#699e1e" data-color="1"/>
        <path d="M1067.56 262.45c0 4.33-3.48 7.87-7.82 7.87-4.33 0-7.81-3.54-7.81-7.87s3.48-7.87 7.81-7.87c4.34 0 7.82 3.54 7.82 7.87m-1.6 0c0-3.48-2.8-6.16-6.22-6.16s-6.22 2.68-6.22 6.16c0 3.36 2.8 6.22 6.22 6.22 3.43 0 6.22-2.85 6.22-6.22" fill="#699e1e" data-color="1"/>
        <path fill="#699e1e" d="M72.53 196.79H14.74v.97h57.39l22.14 22.13h53.45l22.02-22.02h76.91v-.97h-77.31l-22.02 21.97H94.67z" data-color="1"/>
        <path d="M18.62 197.59c0-1.83-1.48-3.37-3.31-3.37S12 195.76 12 197.59c0 1.77 1.48 3.31 3.31 3.31s3.31-1.55 3.31-3.31" fill="#699e1e" data-color="1"/>
        <path d="M173.22 197.64c0-1.83-1.48-3.25-3.31-3.25s-3.25 1.43-3.25 3.25c0 1.88 1.43 3.31 3.25 3.31 1.83 0 3.31-1.42 3.31-3.31" fill="#699e1e" data-color="1"/>
        <path d="M97.52 218.98c0-1.83-1.54-3.25-3.31-3.25-1.88 0-3.31 1.43-3.31 3.25 0 1.83 1.43 3.31 3.31 3.31 1.77 0 3.31-1.49 3.31-3.31" fill="#699e1e" data-color="1"/>
        <path d="M76.01 197.87c0-1.88-1.48-3.31-3.31-3.31s-3.31 1.43-3.31 3.31c0 1.77 1.48 3.19 3.31 3.19 1.83.01 3.31-1.42 3.31-3.19" fill="#699e1e" data-color="1"/>
        <path d="M79.72 197.87c0 3.82-3.14 6.96-7.02 6.96s-7.02-3.14-7.02-6.96c0-3.94 3.14-7.07 7.02-7.07s7.02 3.13 7.02 7.07m-1.43 0c0-3.14-2.51-5.59-5.59-5.59s-5.59 2.45-5.59 5.59c0 3.02 2.51 5.53 5.59 5.53s5.59-2.51 5.59-5.53" fill="#699e1e" data-color="1"/>
        <path d="M249.67 197.36c0-1.88-1.48-3.31-3.31-3.31s-3.25 1.43-3.25 3.31a3.25 3.25 0 0 0 3.25 3.25c1.83 0 3.31-1.48 3.31-3.25" fill="#699e1e" data-color="1"/>
        <path d="M253.38 197.36c0 3.82-3.14 6.96-7.02 6.96s-6.96-3.14-6.96-6.96c0-3.88 3.08-7.07 6.96-7.07 3.88-.01 7.02 3.19 7.02 7.07m-1.43 0c0-3.14-2.51-5.53-5.59-5.53s-5.59 2.4-5.59 5.53c0 3.02 2.51 5.53 5.59 5.53s5.59-2.51 5.59-5.53" fill="#699e1e" data-color="1"/>
        <path d="M150.69 219.26c0-1.83-1.48-3.31-3.31-3.31s-3.25 1.48-3.25 3.31c0 1.77 1.43 3.31 3.25 3.31 1.83 0 3.31-1.54 3.31-3.31" fill="#699e1e" data-color="1"/>
        <path d="M154.4 219.26c0 3.88-3.14 7.02-7.02 7.02-3.82 0-6.96-3.14-6.96-7.02 0-3.94 3.14-7.02 6.96-7.02 3.88.01 7.02 3.09 7.02 7.02m-1.43 0c0-3.02-2.51-5.59-5.59-5.59s-5.59 2.57-5.59 5.59a5.6 5.6 0 0 0 5.59 5.59c3.08.01 5.59-2.5 5.59-5.59" fill="#699e1e" data-color="1"/>
        <path fill="#699e1e" d="M195.19 163.76h-57.68v.51h57.45l22.13 22.13h53.29l22.02-22.07h77.02v-.46h-77.25l-21.96 22.02h-52.89z" data-color="1"/>
        <path d="M272.89 185.72c0-1.48-1.2-2.62-2.74-2.62-1.48 0-2.68 1.14-2.68 2.62 0 1.54 1.2 2.74 2.68 2.74 1.54 0 2.74-1.2 2.74-2.74" fill="#699e1e" data-color="1"/>
        <path d="M141.39 164.04c0-1.48-1.26-2.74-2.74-2.74s-2.68 1.26-2.68 2.74 1.2 2.68 2.68 2.68 2.74-1.2 2.74-2.68" fill="#699e1e" data-color="1"/>
        <path d="M220 185.89c0-1.43-1.2-2.68-2.68-2.68-1.54 0-2.74 1.26-2.74 2.68 0 1.54 1.2 2.74 2.74 2.74 1.49 0 2.68-1.2 2.68-2.74" fill="#699e1e" data-color="1"/>
        <path d="M370.67 164.04c0-.86-.68-1.54-1.54-1.54s-1.6.68-1.6 1.54c0 .91.74 1.6 1.6 1.6s1.54-.69 1.54-1.6" fill="#699e1e" data-color="1"/>
        <path d="M372.44 164.04c0 1.83-1.48 3.31-3.31 3.31s-3.31-1.48-3.31-3.31c0-1.77 1.48-3.31 3.31-3.31s3.31 1.54 3.31 3.31m-.68 0c0-1.43-1.2-2.57-2.62-2.57-1.48 0-2.68 1.14-2.68 2.57 0 1.48 1.2 2.62 2.68 2.62 1.42 0 2.62-1.14 2.62-2.62" fill="#699e1e" data-color="1"/>
        <path d="M195.81 164.44c0-1.08-.86-1.94-1.94-1.94-1.03 0-1.88.86-1.88 1.94s.86 1.83 1.88 1.83c1.09 0 1.94-.75 1.94-1.83" fill="#699e1e" data-color="1"/>
        <path d="M197.98 164.44c0 2.22-1.88 4.11-4.11 4.11-2.22 0-4.05-1.88-4.05-4.11s1.83-4.11 4.05-4.11c2.23 0 4.11 1.88 4.11 4.11m-.85 0c0-1.83-1.43-3.25-3.25-3.25a3.25 3.25 0 0 0-3.25 3.25c0 1.71 1.48 3.19 3.25 3.19 1.82 0 3.25-1.48 3.25-3.19" fill="#699e1e" data-color="1"/>
        <path d="M294.17 164.44c0-1.08-.91-1.94-2-1.94-1.03 0-1.88.86-1.88 1.94s.86 1.83 1.88 1.83c1.09 0 2-.75 2-1.83" fill="#699e1e" data-color="1"/>
        <path d="M296.28 164.44c0 2.22-1.83 4.11-4.11 4.11-2.23 0-4.05-1.88-4.05-4.11s1.83-4.11 4.05-4.11c2.28 0 4.11 1.88 4.11 4.11m-.86 0c0-1.83-1.43-3.25-3.25-3.25-1.71 0-3.19 1.43-3.19 3.25 0 1.71 1.48 3.19 3.19 3.19 1.83 0 3.25-1.48 3.25-3.19" fill="#699e1e" data-color="1"/>
        <path fill="#699e1e" d="M242.14 209.79H184.4v.8h57.45l22.14 22.2h53.4l22.02-22.14h76.9v-.74h-77.19l-22.02 22.08h-52.77z" data-color="1"/>
        <path d="M245.28 210.36c0-1.77-1.43-3.19-3.25-3.19-1.83 0-3.31 1.43-3.31 3.19 0 1.88 1.48 3.31 3.31 3.31 1.82 0 3.25-1.42 3.25-3.31" fill="#699e1e" data-color="1"/>
        <path d="M396.29 210.19c0-1.48-1.14-2.57-2.57-2.57-1.37 0-2.45 1.08-2.45 2.57 0 1.37 1.08 2.51 2.45 2.51 1.43 0 2.57-1.14 2.57-2.51" fill="#699e1e" data-color="1"/>
        <path d="M419.05 210.36c0-1.77-1.48-3.19-3.31-3.19-1.77 0-3.31 1.43-3.31 3.19 0 1.88 1.54 3.31 3.31 3.31 1.83 0 3.31-1.42 3.31-3.31" fill="#699e1e" data-color="1"/>
        <path d="M320.13 231.76c0-1.77-1.43-3.25-3.31-3.25-1.77 0-3.25 1.48-3.25 3.25 0 1.88 1.48 3.31 3.25 3.31 1.88 0 3.31-1.43 3.31-3.31" fill="#699e1e" data-color="1"/>
        <path d="M187.71 209.91c0-1.83-1.48-3.37-3.31-3.37-1.77 0-3.25 1.54-3.25 3.37 0 1.77 1.48 3.31 3.25 3.31 1.83 0 3.31-1.54 3.31-3.31" fill="#699e1e" data-color="1"/>
        <path d="M191.42 209.91c0 3.88-3.14 7.02-7.02 7.02-3.82 0-6.96-3.14-6.96-7.02 0-3.82 3.14-7.02 6.96-7.02 3.88 0 7.02 3.2 7.02 7.02m-1.42 0c0-3.08-2.45-5.59-5.59-5.59-3.02 0-5.53 2.51-5.53 5.59s2.51 5.53 5.53 5.53c3.13 0 5.59-2.45 5.59-5.53" fill="#699e1e" data-color="1"/>
        <path d="M267.07 232.5c0-1.31-1.03-2.34-2.28-2.34s-2.28 1.03-2.28 2.34c0 1.2 1.03 2.23 2.28 2.23s2.28-1.03 2.28-2.23" fill="#699e1e" data-color="1"/>
        <path d="M269.64 232.5c0 2.62-2.17 4.79-4.85 4.79s-4.85-2.17-4.85-4.79c0-2.68 2.17-4.91 4.85-4.91s4.85 2.23 4.85 4.91m-.97 0c0-2.17-1.77-3.88-3.88-3.88s-3.88 1.71-3.88 3.88c0 2.05 1.77 3.82 3.88 3.82s3.88-1.77 3.88-3.82" fill="#699e1e" data-color="1"/>
        <path d="M341.69 210.25c0-1.25-1.03-2.22-2.28-2.22s-2.28.97-2.28 2.22c0 1.31 1.03 2.28 2.28 2.28s2.28-.97 2.28-2.28" fill="#699e1e" data-color="1"/>
        <path d="M344.26 210.25c0 2.68-2.17 4.91-4.85 4.91s-4.85-2.22-4.85-4.91c0-2.68 2.17-4.85 4.85-4.85s4.85 2.17 4.85 4.85m-.97 0c0-2.11-1.77-3.82-3.88-3.82-2.17 0-3.88 1.71-3.88 3.82 0 2.17 1.71 3.88 3.88 3.88 2.11 0 3.88-1.71 3.88-3.88" fill="#699e1e" data-color="1"/>
        <path fill="#699e1e" d="M350.25 174.82H292.4v.97h57.39l22.14 22.14h53.51l22.02-22.08h76.9v-.97H447l-22.02 22.02h-52.65z" data-color="1"/>
        <path d="M296.28 175.56c0-1.83-1.43-3.31-3.25-3.31s-3.31 1.48-3.31 3.31 1.48 3.31 3.31 3.31 3.25-1.48 3.25-3.31" fill="#699e1e" data-color="1"/>
        <path d="M450.88 175.68c0-1.83-1.43-3.25-3.25-3.25s-3.25 1.43-3.25 3.25c0 1.83 1.43 3.31 3.25 3.31s3.25-1.49 3.25-3.31" fill="#699e1e" data-color="1"/>
        <path d="M375.18 196.96c0-1.77-1.48-3.31-3.31-3.31s-3.25 1.54-3.25 3.31c0 1.83 1.43 3.37 3.25 3.37 1.83-.01 3.31-1.55 3.31-3.37" fill="#699e1e" data-color="1"/>
        <path d="M353.67 175.85c0-1.83-1.48-3.31-3.25-3.31-1.83 0-3.31 1.48-3.31 3.31s1.48 3.25 3.31 3.25c1.77 0 3.25-1.42 3.25-3.25" fill="#699e1e" data-color="1"/>
        <path d="M357.38 175.85c0 3.82-3.14 7.02-6.96 7.02-3.88 0-7.02-3.19-7.02-7.02 0-3.88 3.14-7.02 7.02-7.02 3.82 0 6.96 3.14 6.96 7.02m-1.37 0c0-3.08-2.57-5.53-5.59-5.53-3.08 0-5.59 2.45-5.59 5.53 0 3.02 2.51 5.59 5.59 5.59 3.02 0 5.59-2.57 5.59-5.59" fill="#699e1e" data-color="1"/>
        <path d="M527.33 175.28c0-1.77-1.48-3.19-3.25-3.19-1.83 0-3.31 1.43-3.31 3.19 0 1.88 1.48 3.31 3.31 3.31 1.77 0 3.25-1.43 3.25-3.31" fill="#699e1e" data-color="1"/>
        <path d="M531.04 175.28c0 3.94-3.14 7.07-6.96 7.07-3.88 0-7.02-3.14-7.02-7.07 0-3.82 3.14-6.96 7.02-6.96 3.82 0 6.96 3.14 6.96 6.96m-1.43 0c0-3.02-2.45-5.53-5.53-5.53s-5.59 2.51-5.59 5.53c0 3.14 2.51 5.65 5.59 5.65s5.53-2.51 5.53-5.65" fill="#699e1e" data-color="1"/>
        <path d="M428.41 197.3c0-1.83-1.54-3.37-3.31-3.37-1.83 0-3.31 1.54-3.31 3.37 0 1.77 1.48 3.31 3.31 3.31 1.77 0 3.31-1.54 3.31-3.31" fill="#699e1e" data-color="1"/>
        <path d="M432.06 197.3c0 3.77-3.14 6.96-6.96 6.96-3.88 0-7.02-3.19-7.02-6.96 0-3.94 3.14-7.07 7.02-7.07 3.82 0 6.96 3.13 6.96 7.07m-1.37 0c0-3.08-2.57-5.59-5.59-5.59a5.6 5.6 0 0 0-5.59 5.59c0 3.02 2.51 5.53 5.59 5.53 3.02 0 5.59-2.51 5.59-5.53" fill="#699e1e" data-color="1"/>
        <path fill="#699e1e" d="M472.9 141.79h-57.73v.51h57.51l22.13 22.14h53.29l22.02-22.08h76.96v-.51h-77.19l-22.02 22.08h-52.89z" data-color="1"/>
        <path fill="#699e1e" d="M550.61 163.76a2.74 2.74 0 1 1-5.48 0 2.74 2.74 0 0 1 5.48 0" data-color="1"/>
        <path d="M419.05 142.02c0-1.43-1.2-2.68-2.74-2.68-1.48 0-2.62 1.26-2.62 2.68 0 1.48 1.14 2.74 2.62 2.74 1.54 0 2.74-1.26 2.74-2.74" fill="#699e1e" data-color="1"/>
        <path d="M497.72 163.93c0-1.54-1.26-2.68-2.74-2.68s-2.68 1.14-2.68 2.68c0 1.48 1.2 2.74 2.68 2.74 1.49-.01 2.74-1.26 2.74-2.74" fill="#699e1e" data-color="1"/>
        <path d="M648.39 142.08c0-.86-.74-1.6-1.54-1.6-.86 0-1.6.74-1.6 1.6s.74 1.54 1.6 1.54c.8 0 1.54-.69 1.54-1.54" fill="#699e1e" data-color="1"/>
        <path d="M650.1 142.08c0 1.83-1.48 3.31-3.25 3.31-1.83 0-3.31-1.48-3.31-3.31 0-1.77 1.48-3.31 3.31-3.31 1.77 0 3.25 1.54 3.25 3.31m-.68 0c0-1.43-1.14-2.57-2.57-2.57-1.48 0-2.62 1.14-2.62 2.57a2.61 2.61 0 0 0 2.62 2.62c1.42 0 2.57-1.2 2.57-2.62" fill="#699e1e" data-color="1"/>
        <path d="M473.47 142.42c0-1.03-.86-1.94-1.88-1.94-1.03 0-1.94.91-1.94 1.94s.91 1.88 1.94 1.88 1.88-.85 1.88-1.88" fill="#699e1e" data-color="1"/>
        <path d="M475.64 142.42c0 2.28-1.83 4.05-4.05 4.05-2.28 0-4.05-1.77-4.05-4.05 0-2.22 1.77-4.05 4.05-4.05 2.23 0 4.05 1.82 4.05 4.05m-.8 0c0-1.77-1.48-3.19-3.25-3.19-1.83 0-3.25 1.43-3.25 3.19s1.43 3.25 3.25 3.25c1.77 0 3.25-1.48 3.25-3.25" fill="#699e1e" data-color="1"/>
        <path d="M571.83 142.42c0-1.03-.86-1.94-1.94-1.94-1.03 0-1.88.91-1.88 1.94s.86 1.88 1.88 1.88c1.08 0 1.94-.85 1.94-1.88" fill="#699e1e" data-color="1"/>
        <path d="M573.94 142.42c0 2.28-1.77 4.05-4.05 4.05-2.22 0-4.05-1.77-4.05-4.05 0-2.22 1.83-4.05 4.05-4.05 2.28 0 4.05 1.82 4.05 4.05m-.8 0c0-1.77-1.43-3.19-3.25-3.19-1.77 0-3.19 1.43-3.19 3.19s1.43 3.25 3.19 3.25a3.25 3.25 0 0 0 3.25-3.25" fill="#699e1e" data-color="1"/>
        <path fill="#699e1e" d="M519.91 187.83h-57.79v.8h57.45l22.14 22.13h53.39l22.03-22.07h76.93v-.8h-77.22l-22.08 22.08h-52.77z" data-color="1"/>
        <path d="M522.99 188.4c0-1.77-1.43-3.31-3.31-3.31-1.77 0-3.25 1.54-3.25 3.31 0 1.83 1.48 3.31 3.25 3.31 1.89 0 3.31-1.48 3.31-3.31" fill="#699e1e" data-color="1"/>
        <path d="M673.95 188.12c0-1.37-1.08-2.45-2.51-2.45-1.37 0-2.51 1.08-2.51 2.45 0 1.43 1.14 2.51 2.51 2.51 1.42 0 2.51-1.09 2.51-2.51" fill="#699e1e" data-color="1"/>
        <path d="M696.68 188.4c0-1.77-1.48-3.31-3.25-3.31-1.83 0-3.31 1.54-3.31 3.31 0 1.83 1.48 3.31 3.31 3.31 1.77 0 3.25-1.48 3.25-3.31" fill="#699e1e" data-color="1"/>
        <path d="M597.79 209.74c0-1.83-1.43-3.25-3.25-3.25s-3.31 1.43-3.31 3.25c0 1.88 1.48 3.31 3.31 3.31s3.25-1.43 3.25-3.31" fill="#699e1e" data-color="1"/>
        <path d="M465.43 187.89c0-1.77-1.48-3.31-3.31-3.31s-3.31 1.54-3.31 3.31c0 1.83 1.48 3.31 3.31 3.31s3.31-1.49 3.31-3.31" fill="#699e1e" data-color="1"/>
        <path d="M469.08 187.89c0 3.94-3.08 7.02-6.96 7.02s-7.02-3.08-7.02-7.02c0-3.82 3.14-6.96 7.02-6.96s6.96 3.13 6.96 6.96m-1.37 0c0-3.02-2.51-5.53-5.59-5.53s-5.53 2.51-5.53 5.53c0 3.14 2.45 5.59 5.53 5.59s5.59-2.46 5.59-5.59" fill="#699e1e" data-color="1"/>
        <path d="M544.73 210.48c0-1.31-.97-2.34-2.22-2.34-1.31 0-2.34 1.03-2.34 2.34 0 1.2 1.03 2.22 2.34 2.22 1.25 0 2.22-1.02 2.22-2.22" fill="#699e1e" data-color="1"/>
        <path d="M547.35 210.48c0 2.62-2.22 4.79-4.85 4.79-2.74 0-4.91-2.17-4.91-4.79 0-2.68 2.17-4.91 4.91-4.91 2.63 0 4.85 2.23 4.85 4.91m-1.02 0c0-2.17-1.71-3.94-3.82-3.94-2.17 0-3.94 1.77-3.94 3.94 0 2.05 1.77 3.82 3.94 3.82 2.11 0 3.82-1.77 3.82-3.82" fill="#699e1e" data-color="1"/>
        <path d="M619.41 188.29c0-1.26-1.08-2.22-2.34-2.22s-2.28.97-2.28 2.22 1.03 2.28 2.28 2.28 2.34-1.03 2.34-2.28" fill="#699e1e" data-color="1"/>
        <path d="M621.92 188.29c0 2.62-2.11 4.91-4.85 4.91-2.68 0-4.85-2.28-4.85-4.91 0-2.68 2.17-4.85 4.85-4.85 2.74 0 4.85 2.17 4.85 4.85m-.97 0c0-2.11-1.71-3.82-3.88-3.82a3.82 3.82 0 0 0-3.82 3.82c0 2.17 1.71 3.88 3.82 3.88 2.17 0 3.88-1.72 3.88-3.88" fill="#699e1e" data-color="1"/>
        <path fill="#699e1e" d="M767.77 196.79h-57.74v.97h57.34l22.13 22.13h53.51l22.02-22.02 76.91-.06v-.91h-77.3l-22.08 21.97H789.9z" data-color="1"/>
        <path d="M713.85 197.59c0-1.83-1.43-3.37-3.25-3.37s-3.25 1.54-3.25 3.37c0 1.77 1.43 3.31 3.25 3.31s3.25-1.55 3.25-3.31" fill="#699e1e" data-color="1"/>
        <path d="M868.52 197.64c0-1.83-1.48-3.25-3.31-3.25s-3.31 1.43-3.31 3.25c0 1.88 1.48 3.31 3.31 3.31 1.82 0 3.31-1.42 3.31-3.31" fill="#699e1e" data-color="1"/>
        <path d="M792.75 218.98c0-1.83-1.54-3.25-3.31-3.25-1.83 0-3.31 1.43-3.31 3.25 0 1.83 1.48 3.31 3.31 3.31 1.77 0 3.31-1.49 3.31-3.31" fill="#699e1e" data-color="1"/>
        <path d="M771.25 197.87c0-1.88-1.43-3.31-3.25-3.31-1.88 0-3.37 1.43-3.37 3.31 0 1.77 1.48 3.19 3.37 3.19 1.82.01 3.25-1.42 3.25-3.19" fill="#699e1e" data-color="1"/>
        <path d="M775.01 197.87c0 3.82-3.2 6.96-7.02 6.96-3.88 0-7.07-3.14-7.07-6.96 0-3.94 3.2-7.07 7.07-7.07 3.82 0 7.02 3.13 7.02 7.07m-1.48 0c0-3.14-2.51-5.59-5.53-5.59-3.08 0-5.59 2.45-5.59 5.59 0 3.02 2.51 5.53 5.59 5.53 3.02 0 5.53-2.51 5.53-5.53" fill="#699e1e" data-color="1"/>
        <path d="M944.96 197.36c0-1.88-1.48-3.31-3.31-3.31s-3.31 1.43-3.31 3.31c0 1.77 1.48 3.19 3.31 3.19s3.31-1.42 3.31-3.19" fill="#699e1e" data-color="1"/>
        <path d="M948.61 197.36c0 3.77-3.08 6.96-6.96 6.96s-7.02-3.19-7.02-6.96c0-3.88 3.14-7.07 7.02-7.07s6.96 3.19 6.96 7.07m-1.43 0c0-3.14-2.45-5.53-5.53-5.53s-5.59 2.4-5.59 5.53c0 2.97 2.51 5.53 5.59 5.53s5.53-2.57 5.53-5.53" fill="#699e1e" data-color="1"/>
        <path d="M845.98 219.26c0-1.83-1.54-3.31-3.36-3.31-1.77 0-3.25 1.48-3.25 3.31 0 1.77 1.48 3.31 3.25 3.31 1.82 0 3.36-1.54 3.36-3.31" fill="#699e1e" data-color="1"/>
        <path d="M849.69 219.26c0 3.88-3.19 7.02-7.07 7.02-3.82 0-6.96-3.14-6.96-7.02 0-3.94 3.14-7.02 6.96-7.02 3.87.01 7.07 3.09 7.07 7.02m-1.48 0c0-3.02-2.45-5.59-5.59-5.59-3.03 0-5.54 2.57-5.54 5.59 0 3.08 2.51 5.59 5.54 5.59 3.13.01 5.59-2.5 5.59-5.59" fill="#699e1e" data-color="1"/>
        <path fill="#699e1e" d="M890.42 163.76h-57.67v.51h57.5l22.13 22.13h53.29l22.02-22.07h76.96v-.46h-77.19l-22.02 22.02h-52.88z" data-color="1"/>
        <path d="M968.12 185.72c0-1.48-1.2-2.62-2.68-2.62s-2.68 1.14-2.68 2.62c0 1.54 1.2 2.74 2.68 2.74s2.68-1.2 2.68-2.74" fill="#699e1e" data-color="1"/>
        <path d="M836.62 164.04c0-1.48-1.2-2.74-2.68-2.74s-2.74 1.26-2.74 2.74 1.26 2.68 2.74 2.68 2.68-1.2 2.68-2.68" fill="#699e1e" data-color="1"/>
        <path d="M915.29 185.89c0-1.43-1.2-2.68-2.74-2.68-1.48 0-2.68 1.26-2.68 2.68 0 1.54 1.2 2.74 2.68 2.74 1.55 0 2.74-1.2 2.74-2.74" fill="#699e1e" data-color="1"/>
        <path d="M1065.96 164.04c0-.86-.74-1.54-1.59-1.54-.86 0-1.54.68-1.54 1.54 0 .91.69 1.6 1.54 1.6s1.59-.69 1.59-1.6" fill="#699e1e" data-color="1"/>
        <path d="M1067.67 164.04c0 1.83-1.48 3.31-3.31 3.31s-3.31-1.48-3.31-3.31c0-1.77 1.48-3.31 3.31-3.31s3.31 1.54 3.31 3.31m-.62 0c0-1.43-1.2-2.57-2.68-2.57-1.43 0-2.63 1.14-2.63 2.57 0 1.48 1.2 2.62 2.63 2.62 1.48 0 2.68-1.14 2.68-2.62" fill="#699e1e" data-color="1"/>
        <path d="M891.05 164.44c0-1.08-.86-1.94-1.88-1.94-1.08 0-1.94.86-1.94 1.94s.86 1.83 1.94 1.83c1.02 0 1.88-.75 1.88-1.83" fill="#699e1e" data-color="1"/>
        <path d="M893.22 164.44c0 2.22-1.83 4.11-4.05 4.11-2.28 0-4.11-1.88-4.11-4.11s1.83-4.11 4.11-4.11c2.22 0 4.05 1.88 4.05 4.11m-.86 0c0-1.83-1.43-3.25-3.2-3.25-1.83 0-3.25 1.43-3.25 3.25 0 1.71 1.43 3.19 3.25 3.19 1.78 0 3.2-1.48 3.2-3.19" fill="#699e1e" data-color="1"/>
        <path d="M989.4 164.44c0-1.08-.86-1.94-1.94-1.94-1.03 0-1.88.86-1.88 1.94s.86 1.83 1.88 1.83c1.09 0 1.94-.75 1.94-1.83" fill="#699e1e" data-color="1"/>
        <path d="M991.57 164.44c0 2.22-1.83 4.11-4.11 4.11-2.22 0-4.05-1.88-4.05-4.11s1.83-4.11 4.05-4.11c2.29 0 4.11 1.88 4.11 4.11m-.85 0c0-1.83-1.43-3.25-3.25-3.25-1.77 0-3.19 1.43-3.19 3.25 0 1.71 1.43 3.19 3.19 3.19 1.82 0 3.25-1.48 3.25-3.19" fill="#699e1e" data-color="1"/>
        <path fill="#699e1e" d="M937.43 209.79H879.7v.8h57.45l22.07 22.2h53.46l22.02-22.14h76.9v-.8h-77.18l-22.08 22.14h-52.77z" data-color="1"/>
        <path d="M940.57 210.36c0-1.83-1.48-3.25-3.31-3.25a3.25 3.25 0 0 0-3.25 3.25c0 1.88 1.48 3.31 3.25 3.31 1.83 0 3.31-1.42 3.31-3.31" fill="#699e1e" data-color="1"/>
        <path fill="#699e1e" d="M1091.52 210.14a2.51 2.51 0 1 1-5.02 0 2.51 2.51 0 0 1 5.02 0" data-color="1"/>
        <path d="M1114.28 210.36c0-1.83-1.43-3.25-3.25-3.25-1.83 0-3.31 1.43-3.31 3.25 0 1.88 1.48 3.31 3.31 3.31s3.25-1.42 3.25-3.31" fill="#699e1e" data-color="1"/>
        <path d="M1015.36 231.76a3.25 3.25 0 0 0-3.25-3.25c-1.83 0-3.31 1.48-3.31 3.25 0 1.88 1.48 3.31 3.31 3.31 1.82 0 3.25-1.43 3.25-3.31" fill="#699e1e" data-color="1"/>
        <path d="M883.01 209.91c0-1.83-1.48-3.37-3.31-3.37s-3.25 1.54-3.25 3.37c0 1.77 1.43 3.31 3.25 3.31s3.31-1.54 3.31-3.31" fill="#699e1e" data-color="1"/>
        <path d="M886.71 209.85c0 3.88-3.14 7.07-7.02 7.07s-6.96-3.14-6.96-7.02c0-3.82 3.08-7.02 6.96-7.02s7.02 3.15 7.02 6.97m-1.48 0c0-3.02-2.45-5.53-5.53-5.53s-5.59 2.51-5.59 5.59 2.51 5.53 5.59 5.53 5.53-2.51 5.53-5.59" fill="#699e1e" data-color="1"/>
        <path d="M962.36 232.5a2.35 2.35 0 0 0-2.34-2.34c-1.26 0-2.28 1.03-2.28 2.34 0 1.2 1.03 2.23 2.28 2.23 1.26 0 2.34-1.03 2.34-2.23" fill="#699e1e" data-color="1"/>
        <path d="M964.93 232.5c0 2.62-2.17 4.79-4.91 4.79-2.63 0-4.85-2.17-4.85-4.79 0-2.68 2.22-4.91 4.85-4.91 2.74 0 4.91 2.23 4.91 4.91m-1.03 0c0-2.17-1.71-3.88-3.88-3.88-2.11 0-3.82 1.71-3.82 3.88 0 2.05 1.71 3.82 3.82 3.82 2.17 0 3.88-1.77 3.88-3.82" fill="#699e1e" data-color="1"/>
        <path d="M1036.92 210.19c0-1.2-.97-2.22-2.23-2.22-1.31 0-2.28 1.03-2.28 2.22 0 1.31.97 2.34 2.28 2.34 1.27 0 2.23-1.02 2.23-2.34" fill="#699e1e" data-color="1"/>
        <path d="M1039.49 210.19c0 2.68-2.17 4.91-4.79 4.91-2.68 0-4.9-2.22-4.9-4.91 0-2.62 2.22-4.79 4.9-4.79 2.63 0 4.79 2.17 4.79 4.79m-.97 0c0-2.05-1.71-3.82-3.82-3.82-2.17 0-3.88 1.77-3.88 3.82 0 2.17 1.71 3.94 3.88 3.94 2.11 0 3.82-1.77 3.82-3.94" fill="#699e1e" data-color="1"/>
        <path fill="#699e1e" d="M1045.48 174.82h-57.79v.97h57.39l22.14 22.08h53.45l22.08-22.02h76.85v-.97h-77.31l-22.02 22.02h-52.65z" data-color="1"/>
        <path d="M991.57 175.56c0-1.83-1.43-3.31-3.31-3.31-1.77 0-3.25 1.48-3.25 3.31s1.48 3.31 3.25 3.31c1.88 0 3.31-1.48 3.31-3.31" fill="#699e1e" data-color="1"/>
        <path d="M1146.17 175.68c0-1.83-1.43-3.25-3.31-3.25a3.25 3.25 0 0 0-3.25 3.25c0 1.83 1.48 3.31 3.25 3.31 1.89 0 3.31-1.49 3.31-3.31" fill="#699e1e" data-color="1"/>
        <path d="M1070.47 196.96c0-1.77-1.54-3.31-3.36-3.31-1.77 0-3.25 1.54-3.25 3.31 0 1.83 1.48 3.31 3.25 3.31 1.82 0 3.36-1.49 3.36-3.31" fill="#699e1e" data-color="1"/>
        <path d="M1048.96 175.85c0-1.83-1.48-3.31-3.31-3.31-1.77 0-3.31 1.48-3.31 3.31s1.54 3.25 3.31 3.25c1.83 0 3.31-1.42 3.31-3.25" fill="#699e1e" data-color="1"/>
        <path d="M1052.67 175.85c0 3.82-3.14 7.02-7.02 7.02-3.82 0-7.02-3.19-7.02-7.02 0-3.88 3.2-7.02 7.02-7.02 3.88 0 7.02 3.14 7.02 7.02m-1.43 0c0-3.08-2.51-5.53-5.59-5.53s-5.59 2.45-5.59 5.53c0 3.02 2.51 5.59 5.59 5.59s5.59-2.57 5.59-5.59" fill="#699e1e" data-color="1"/>
        <path d="M1222.62 175.28c0-1.77-1.48-3.19-3.31-3.19-1.77 0-3.25 1.43-3.25 3.19 0 1.88 1.48 3.31 3.25 3.31 1.83 0 3.31-1.43 3.31-3.31" fill="#699e1e" data-color="1"/>
        <path d="M1226.33 175.28c0 3.94-3.14 7.07-7.02 7.07-3.82 0-6.96-3.14-6.96-7.07 0-3.82 3.14-6.96 6.96-6.96 3.88 0 7.02 3.14 7.02 6.96m-1.43 0c0-3.02-2.51-5.53-5.59-5.53-3.02 0-5.53 2.51-5.53 5.53 0 3.14 2.51 5.65 5.53 5.65 3.08 0 5.59-2.51 5.59-5.65" fill="#699e1e" data-color="1"/>
        <path d="M1123.64 197.3c0-1.83-1.48-3.37-3.31-3.37s-3.25 1.54-3.25 3.37a3.25 3.25 0 0 0 3.25 3.25c1.83 0 3.31-1.48 3.31-3.25" fill="#699e1e" data-color="1"/>
        <path d="M1127.35 197.3c0 3.77-3.14 6.96-7.02 6.96-3.82 0-6.96-3.19-6.96-6.96 0-3.94 3.14-7.07 6.96-7.07 3.88 0 7.02 3.13 7.02 7.07m-1.43 0a5.6 5.6 0 0 0-5.59-5.59 5.6 5.6 0 0 0-5.59 5.59c0 2.97 2.51 5.48 5.59 5.48s5.59-2.51 5.59-5.48" fill="#699e1e" data-color="1"/>
        <path fill="#699e1e" d="M1168.14 141.79h-57.74v.51h57.51l22.14 22.14h53.28l22.08-22.08h76.9v-.51h-77.13l-22.02 22.08h-52.89z" data-color="1"/>
        <path d="M1245.84 163.76c0-1.48-1.25-2.74-2.68-2.74-1.48 0-2.74 1.26-2.74 2.74 0 1.54 1.26 2.74 2.74 2.74 1.43-.01 2.68-1.2 2.68-2.74" fill="#699e1e" data-color="1"/>
        <path d="M1114.34 142.02c0-1.43-1.26-2.68-2.74-2.68s-2.68 1.26-2.68 2.68c0 1.48 1.2 2.74 2.68 2.74 1.49 0 2.74-1.26 2.74-2.74" fill="#699e1e" data-color="1"/>
        <path d="M1192.96 163.93c0-1.54-1.2-2.68-2.68-2.68-1.54 0-2.68 1.14-2.68 2.68 0 1.48 1.14 2.74 2.68 2.74 1.48-.01 2.68-1.26 2.68-2.74" fill="#699e1e" data-color="1"/>
        <path d="M1343.62 142.08c0-.86-.68-1.6-1.54-1.6s-1.54.74-1.54 1.6.69 1.54 1.54 1.54 1.54-.69 1.54-1.54" fill="#699e1e" data-color="1"/>
        <path d="M1345.39 142.08c0 1.83-1.48 3.31-3.31 3.31s-3.31-1.48-3.31-3.31c0-1.77 1.48-3.31 3.31-3.31s3.31 1.54 3.31 3.31m-.68 0c0-1.43-1.2-2.57-2.62-2.57-1.43 0-2.63 1.14-2.63 2.57s1.2 2.62 2.63 2.62c1.42 0 2.62-1.2 2.62-2.62" fill="#699e1e" data-color="1"/>
        <path d="M1168.77 142.42c0-1.03-.86-1.94-1.94-1.94-1.03 0-1.88.91-1.88 1.94s.86 1.88 1.88 1.88c1.08 0 1.94-.85 1.94-1.88" fill="#699e1e" data-color="1"/>
        <path d="M1170.93 142.42c0 2.28-1.88 4.05-4.11 4.05s-4.05-1.77-4.05-4.05c0-2.22 1.83-4.05 4.05-4.05 2.23 0 4.11 1.82 4.11 4.05m-.85 0c0-1.77-1.43-3.19-3.25-3.19-1.77 0-3.25 1.43-3.25 3.19s1.48 3.25 3.25 3.25a3.25 3.25 0 0 0 3.25-3.25" fill="#699e1e" data-color="1"/>
        <path d="M1267.06 142.42c0-1.03-.86-1.94-1.88-1.94-1.03 0-1.88.91-1.88 1.94s.86 1.88 1.88 1.88c1.03 0 1.88-.85 1.88-1.88" fill="#699e1e" data-color="1"/>
        <path d="M1269.23 142.42c0 2.28-1.83 4.05-4.05 4.05-2.23 0-4.05-1.77-4.05-4.05 0-2.22 1.83-4.05 4.05-4.05s4.05 1.82 4.05 4.05m-.8 0c0-1.77-1.43-3.19-3.25-3.19-1.83 0-3.25 1.43-3.25 3.19s1.43 3.25 3.25 3.25c1.83 0 3.25-1.48 3.25-3.25" fill="#699e1e" data-color="1"/>
        <path fill="#699e1e" d="M1215.15 187.83h-57.74v.8h57.39l22.14 22.08h53.4l22.02-22.02h76.96v-.8h-77.25l-22.02 22.02h-52.77z" data-color="1"/>
        <path fill="#699e1e" d="M1218.29 188.4a3.31 3.31 0 1 1-6.62 0 3.31 3.31 0 0 1 6.62 0" data-color="1"/>
        <path d="M1369.24 188.12c0-1.37-1.14-2.45-2.51-2.45-1.43 0-2.57 1.08-2.57 2.45 0 1.43 1.14 2.51 2.57 2.51 1.37 0 2.51-1.09 2.51-2.51" fill="#699e1e" data-color="1"/>
        <path d="M1392 188.4c0-1.77-1.48-3.31-3.31-3.31-1.77 0-3.25 1.54-3.25 3.31 0 1.83 1.48 3.31 3.25 3.31 1.83 0 3.31-1.48 3.31-3.31" fill="#699e1e" data-color="1"/>
        <path d="M1293.08 209.68c0-1.77-1.48-3.19-3.25-3.19-1.83 0-3.31 1.43-3.31 3.19 0 1.88 1.48 3.37 3.31 3.37 1.76 0 3.25-1.49 3.25-3.37" fill="#699e1e" data-color="1"/>
        <path d="M1160.66 187.89c0-1.77-1.48-3.31-3.25-3.31-1.83 0-3.31 1.54-3.31 3.31 0 1.83 1.48 3.31 3.31 3.31 1.77 0 3.25-1.49 3.25-3.31" fill="#699e1e" data-color="1"/>
        <path d="M1164.37 187.89c0 3.94-3.14 7.02-6.96 7.02-3.88 0-7.02-3.08-7.02-7.02 0-3.82 3.14-6.96 7.02-6.96 3.83 0 6.96 3.13 6.96 6.96m-1.42 0c0-3.02-2.51-5.53-5.54-5.53-3.14 0-5.59 2.51-5.59 5.53 0 3.14 2.45 5.59 5.59 5.59 3.03 0 5.54-2.46 5.54-5.59" fill="#699e1e" data-color="1"/>
        <path d="M1240.02 210.42c0-1.31-1.03-2.28-2.28-2.28s-2.28.97-2.28 2.28c0 1.26 1.03 2.23 2.28 2.23s2.28-.97 2.28-2.23" fill="#699e1e" data-color="1"/>
        <path d="M1242.59 210.42c0 2.68-2.17 4.85-4.85 4.85s-4.85-2.17-4.85-4.85 2.17-4.91 4.85-4.91 4.85 2.23 4.85 4.91m-.97 0c0-2.17-1.77-3.88-3.88-3.88s-3.88 1.71-3.88 3.88c0 2.11 1.77 3.82 3.88 3.82s3.88-1.71 3.88-3.82" fill="#699e1e" data-color="1"/>
        <path d="M1314.64 188.29c0-1.26-1.03-2.22-2.28-2.22s-2.28.97-2.28 2.22 1.03 2.28 2.28 2.28 2.28-1.03 2.28-2.28" fill="#699e1e" data-color="1"/>
        <path d="M1317.21 188.29c0 2.62-2.17 4.91-4.85 4.91s-4.85-2.28-4.85-4.91c0-2.68 2.17-4.85 4.85-4.85s4.85 2.17 4.85 4.85m-.97 0c0-2.11-1.77-3.82-3.88-3.82-2.17 0-3.82 1.71-3.82 3.82 0 2.17 1.66 3.88 3.82 3.88 2.11 0 3.88-1.72 3.88-3.88" fill="#699e1e" data-color="1"/>
    </g>
</svg>
