<?xml version="1.0" encoding="UTF-8"?>
<svg data-bbox="15.24 10.03 184.245 171.005" viewBox="0 0 214.74 200" xmlns="http://www.w3.org/2000/svg" data-type="color">
    <g>
        <path d="M62.09 17.97c-3.68-8.83-7.41-7.64-10.2-7.78-2.64-.13-5.66-.16-8.69-.16-3.02 0-7.93 1.13-12.09 5.67S15.24 31.2 15.24 53.51c0 22.3 16.24 43.85 18.51 46.88 2.27 3.02 31.96 48.8 77.44 68.43 10.82 4.67 19.26 7.46 25.84 9.55 10.86 3.45 20.74 2.96 28.55 1.8 8.71-1.3 26.82-10.96 30.6-21.55s3.78-19.66 2.64-21.55c-1.13-1.89-4.16-3.02-8.69-5.29s-26.82-13.23-30.98-14.75c-4.15-1.51-7.17-2.27-10.2 2.27-3.02 4.53-11.71 14.75-14.35 17.77-2.64 3.03-5.29 3.41-9.82 1.13-4.53-2.27-19.14-7.05-36.46-22.49-13.45-12.03-22.55-26.87-25.2-31.41-2.64-4.54-.28-6.99 1.99-9.25 2.04-2.03 4.53-5.3 6.8-7.94s3.02-4.54 4.53-7.56c1.51-3.03.76-5.67-.38-7.94-1.13-2.27-10.19-24.57-13.97-33.64" fill="#7ea72e" data-color="1"/>
    </g>
</svg>
