<?xml version="1.0" encoding="UTF-8"?>
<svg data-bbox="20.385 59.697 268.744 180.678" viewBox="0 0 309 288" xmlns="http://www.w3.org/2000/svg" data-type="color">
    <g>
        <path d="M223.48 141.61c-12.92.01-25.43-2.08-37.36-7.18-5.84-2.49-11.19-5.75-15.58-10.4-8.24-8.73-8.32-18.97-.17-27.79 4.98-5.39 11.2-9.05 18.01-11.52 23.32-8.44 46.74-8.45 70.06-.01 7 2.53 13.38 6.3 18.43 11.93 7.79 8.68 7.72 18.53-.27 27.07-7.52 8.03-17.23 12.27-27.65 14.64-8.32 1.89-16.88 2.74-25.33 4.05-.06-.26-.1-.52-.14-.79" fill="#699e1e" data-color="1"/>
        <path d="M106.44 70.06c-22.88 14.47-32.38 36.61-37.33 61.36-2.63 13.16-2.73 26.43 1.17 39.43 1.33 4.44 3.48 8.65 5.35 13.19-.79-.15-1.62-.27-2.43-.49-10.6-2.83-21.16-5.86-31.82-8.45-7.18-1.74-12.02-6-15.31-12.32-3.47-6.67-5.11-13.88-5.52-21.3-1.17-21.44 3.88-41.38 15.04-59.73 3.87-6.36 8.66-11.97 14.65-16.46 6.76-5.07 14.02-7.04 22.5-4.46 10.59 3.21 21.37 5.82 32.06 8.7.47.12.91.29 1.64.53" fill="#699e1e" data-color="1"/>
        <path d="M289 178.32v3.75c0 7.98-.26 15.98.08 23.95.33 7.62-2.93 13.27-8.46 17.94-5.88 4.97-12.68 8.39-19.98 10.59-27.35 8.23-54.5 8.09-81.23-2.67-6.05-2.44-11.57-5.86-16.09-10.7-3.7-3.97-5.64-8.57-5.57-14.08.11-9.25.03-18.51.03-27.73.45-.06.73-.18.81-.09 11.66 11.38 26.28 16.4 41.85 19 22.44 3.75 44.59 2.58 66.08-5.43 8.19-3.07 15.73-7.35 22.48-14.53" fill="#699e1e" data-color="1"/>
        <path d="M282.14 127.57c0 6.98.64 13.89-.19 20.61-.78 6.32-5.57 10.68-10.56 14.33-7.69 5.64-16.43 9.02-25.7 10.89-20.42 4.11-40.49 3.31-59.89-4.98-5.82-2.49-11.18-5.75-15.51-10.48-3.99-4.36-6.31-9.33-6.09-15.42.18-4.95.04-9.92.04-15.41 16.75 16.34 37.34 20.82 59.13 20.82 21.72.01 42.26-4.41 58.77-20.36" fill="#699e1e" data-color="1"/>
        <path d="M159.89 154.71c10.82 17.12 27.7 23 45.89 26.09 17.91 3.05 35.63 1.67 52.83-4.46 9.64-3.44 18.33-8.39 24.8-16.59.62-.78 1.15-1.63 1.7-2.46.53-.81 1.03-1.64 1.73-2.76 2.69 4.86 3.14 9.65.65 14.04-2.02 3.56-4.73 6.98-7.87 9.59-9.14 7.61-20.23 11.1-31.69 13.29-21.27 4.07-42.31 3.24-62.94-3.76-8.02-2.72-15.49-6.51-21.43-12.72-5.05-5.28-7.3-11.37-4.54-18.62.17-.45.46-.86.87-1.64" fill="#699e1e" data-color="1"/>
        <path d="M141.47 115.76c-.29 22.33-6.19 42.81-21.18 59.87-3.69 4.2-8.21 8-13.05 10.77-10.2 5.83-20.03 2.92-26.32-7.04-4.66-7.39-6.46-15.7-6.79-24.25-.99-25.24 5.46-48.26 21.8-67.9 3.45-4.14 7.86-7.74 12.43-10.63 9.53-6.03 18.55-3.88 24.97 5.38 5.66 8.16 7.28 17.6 8.11 27.22.19 2.17.03 4.38.03 6.58m-4.68 2.08c.09-12.97-.99-21.61-5.26-29.58-5.19-9.69-13.39-12.13-22.37-5.78-4.8 3.39-9.32 7.67-12.74 12.43-12.27 17.07-17.66 36.42-17.32 57.39.13 8.07 1.55 15.9 5.45 23.06 5.06 9.29 13.47 11.61 22.05 5.48 4.71-3.37 9.16-7.53 12.6-12.17 12.02-16.25 17.08-34.9 17.59-50.83" fill="#699e1e" data-color="1"/>
        <path d="M130.34 113.74c-.19 16.09-4.07 31.25-12.29 45.09-2.77 4.67-6.51 8.79-10.06 12.94-1.45 1.7-3.47 3.03-5.44 4.15-5.18 2.96-9.91 1.95-12.19-3.55-2.25-5.44-4.05-11.37-4.48-17.21-1.46-19.71 3.34-38.09 14.35-54.53 3.21-4.78 7.59-9.01 12.14-12.61 5.72-4.53 9.86-3.29 13.41 3.07 3.92 7.05 4.54 14.8 4.56 22.65" fill="#699e1e" data-color="1"/>
    </g>
</svg>
