<?xml version="1.0" encoding="UTF-8"?>
<svg data-bbox="18.169 8.104 271.691 271.816" viewBox="0 0 309 288" xmlns="http://www.w3.org/2000/svg" data-type="color">
    <g>
        <path d="M289.86 190.73H156.39c.98-1.19 1.59-2.01 2.28-2.77 7.1-7.84 14.24-15.65 21.31-23.52 6.98-7.78 7.4-17.49 1.22-25.99-5.99-8.23-16.06-11.09-25.25-6.58-3.58 1.76-6.8 4.5-9.73 7.28-4.32 4.08-8.23 8.6-12.75 13.38V8.43h156.38c.01 60.6.01 121.3.01 182.3M271.59 46.66c-.5-1.02-.75-2.08-1.39-2.75-3.25-3.38-6.47-6.82-10.01-9.87-1.01-.87-3.23-1.03-4.62-.61-2.94.88-5.69 2.39-8.55 3.58-.8.33-1.84.83-2.52.58-3.47-1.27-6.73-2.29-8.27-6.68-3.81-10.9-2.03-9.45-13.56-9.49-10.52-.04-8.96-.96-12.56 8.83-1.22 3.31-2.75 5.67-6.37 6.68-1.84.51-3.32.81-5.09-.08-2.49-1.25-5.13-2.22-7.67-3.38-2.18-1-4.02-.67-5.7 1.05-2.93 3-5.9 5.96-8.88 8.9-1.54 1.52-1.83 3.24-.98 5.19 1.16 2.65 2.24 5.34 3.52 7.93.86 1.75.67 3.22.11 5.08-1.03 3.44-3.02 5.35-6.43 6.21-2.02.51-3.91 1.49-5.88 2.21-2.25.82-3.29 2.38-3.26 4.79.05 4.09.07 8.18-.01 12.27-.05 2.57 1.13 4.07 3.5 4.91 2.82 1 5.61 2.09 8.34 3.3.91.41 1.86 1.16 2.36 2.01 2 3.43 2.69 6.91.24 10.57-1.09 1.63-1.64 3.62-2.46 5.44-.88 1.95-.62 3.68.9 5.2 3.03 3.04 6.07 6.07 9.09 9.12 1.61 1.63 3.41 1.87 5.47.94 2.64-1.19 5.3-2.32 7.95-3.48 3.47-1.52 8.89.76 10.28 4.34 1.05 2.7 2.08 5.4 3.1 8.11.76 2.01 2.2 3.01 4.35 3.01 4.29-.01 8.58-.02 12.88 0 2.29.01 3.72-1.06 4.5-3.21.91-2.53 2.04-4.99 2.89-7.54.68-2.04 1.92-3.11 3.9-4.06 3.09-1.47 5.75-1.49 8.67.22 1.79 1.05 3.84 1.68 5.73 2.56 2.18 1.02 4.03.68 5.71-1.03 2.94-2.99 5.9-5.95 8.88-8.9 1.63-1.61 1.92-3.38.96-5.44-1.18-2.53-2.16-5.16-3.46-7.62-.98-1.85-.73-3.35-.1-5.3 1.1-3.42 3.18-5.24 6.53-6.12 2.01-.53 3.9-1.5 5.86-2.24 2.11-.8 3.19-2.29 3.18-4.56-.01-4.19-.02-8.38.01-12.57.02-2.42-1.14-3.91-3.37-4.73-2.81-1.03-5.61-2.08-8.37-3.24-.86-.36-1.91-.91-2.3-1.67-1.79-3.47-3.24-6.89-.53-10.8 1.57-2.26 2.31-5.06 3.43-7.66" fill="#699e1e" data-color="1"/>
        <path d="M95.65 279.91H18.34v-73.39c8.41-2.21 16.94-4.55 25.53-6.63 1.53-.37 3.41.05 4.96.59 8.82 3.09 17.57 3.1 26.44.12 2.1-.71 4.52-.78 6.77-.66 2.74.14 5.02-.59 7.3-2.04 5.06-3.21 10.15-6.37 15.37-9.3 6.68-3.75 12.48-8.39 17.63-14.12 9.41-10.47 19.15-20.63 28.9-30.78 2.1-2.19 4.61-4.24 7.33-5.54 8.91-4.27 18.84 1.43 20.07 11.24.46 3.67-.41 6.9-2.95 9.68-15.58 17.14-31.13 34.3-46.73 51.42-.79.87-1.78 1.61-2.79 2.22-10.65 6.5-21.29 13.02-32.02 19.39-1.96 1.16-2.4 2.37-2.19 4.55 1.36 14 2.55 28.02 3.79 42.04.04.29-.04.59-.1 1.21" fill="#699e1e" data-color="1"/>
        <path d="M31.65 165.47c.04-17.05 13.66-30.48 30.82-30.39 16.64.08 30.15 13.7 30.21 30.45.06 16.84-13.83 30.69-30.72 30.63-16.79-.07-30.36-13.8-30.31-30.69" fill="#699e1e" data-color="1"/>
        <path d="M289.25 279.89h-67.24c.14-1.75.15-3.41.43-5.02 1.97-11.52 8.25-19.9 18.68-25.1.91-.46 2.54-.33 3.45.19 7.55 4.26 14.96 4.24 22.44-.15.77-.45 2.11-.56 2.92-.22 11.32 4.74 19.6 17.65 19.32 30.3" fill="#699e1e" data-color="1"/>
        <path d="M127.64 279.81c-.05-8.16 2.53-15.23 7.72-21.26 2-2.32 4.37-4.38 6.81-6.24 3.21-2.45 6.18-3.8 10.65-1.21 6.15 3.57 12.9 2.56 19.16-.97.96-.54 2.5-.9 3.43-.52 11.3 4.62 19.79 17.93 19.28 30.2z" fill="#699e1e" data-color="1"/>
        <path d="M217.22 279.92h-17.5c-.21-10.32-3.92-19.23-11.3-27.14 2.35-1.29 4.34-2.54 6.47-3.44.67-.28 1.84.23 2.61.68 6.87 3.96 13.94 4.36 20.8.46 2.56-1.46 4.33-1.27 6.47.12 1.07.7 2.16 1.38 3.57 2.27-7.19 7.64-10.8 16.61-11.12 27.05" fill="#699e1e" data-color="1"/>
        <path d="M60.6 62.88H24.69c-1 0-2 .03-2.99-.1-2.19-.28-3.45-1.65-3.5-3.8-.05-2.18 1.25-3.52 3.39-3.9.97-.17 1.99-.13 2.98-.13 24.24-.01 48.48-.01 72.71 0 4.41 0 6.46 1.32 6.38 4.08-.08 2.69-1.95 3.85-6.27 3.86-12.25-.01-24.52-.01-36.79-.01" fill="#699e1e" data-color="1"/>
        <path d="M60.94 16.09c-12.37 0-24.74.02-37.1-.03-1.26 0-2.85.01-3.69-.7-.99-.83-2.01-2.58-1.78-3.67.27-1.27 1.73-2.47 2.94-3.3.7-.48 1.93-.21 2.93-.21 24.44-.01 48.87-.01 73.31-.01.6 0 1.2-.03 1.79.01 2.58.17 4.35 1.82 4.33 4.02-.02 2.22-1.75 3.84-4.43 3.86-7.88.06-15.76.03-23.64.03z" fill="#699e1e" data-color="1"/>
        <path d="M60.97 109.54c-12.37 0-24.73.01-37.1-.01-1.08 0-2.5.19-3.18-.39-1.09-.93-2.39-2.47-2.32-3.68.06-1.23 1.49-2.61 2.66-3.47.75-.55 2.11-.35 3.2-.35 24.43-.02 48.87-.01 73.3-.01.5 0 1-.02 1.5.01 2.81.13 4.66 1.74 4.66 4.02-.01 2.32-1.78 3.86-4.71 3.87-12.68.03-25.35.01-38.01.01" fill="#699e1e" data-color="1"/>
        <path d="M242 232.73c-.07-7.64 5.92-13.74 13.56-13.81 7.63-.06 13.77 5.93 13.87 13.53.1 7.51-6.02 13.75-13.59 13.85-7.57.11-13.77-5.97-13.84-13.57" fill="#699e1e" data-color="1"/>
        <path d="M194.75 232.47c.06-7.6 6.18-13.6 13.81-13.54 7.65.06 13.62 6.13 13.57 13.79-.05 7.61-6.23 13.68-13.81 13.59-7.6-.1-13.63-6.25-13.57-13.84" fill="#699e1e" data-color="1"/>
        <path d="M147.49 232.3c.16-7.62 6.31-13.5 13.99-13.37 7.54.12 13.69 6.5 13.47 13.96-.22 7.52-6.62 13.63-14.06 13.41-7.64-.23-13.56-6.41-13.4-14" fill="#699e1e" data-color="1"/>
        <path d="M49.3 78.29c8.57 0 17.14-.02 25.72.01 3.35.01 5.25 1.49 5.24 3.99-.01 2.51-1.85 3.96-5.26 3.96-17.24.02-34.49 0-51.73.01-2.01 0-4.01-.3-4.63-2.44-.34-1.17-.24-3.05.48-3.8.96-.99 2.73-1.63 4.17-1.66 8.66-.14 17.34-.07 26.01-.07" fill="#699e1e" data-color="1"/>
        <path d="M42.7 39.44c-6.39 0-12.77.01-19.16-.01-3.49-.01-5.32-1.34-5.37-3.82-.05-2.54 1.94-4.04 5.52-4.04 12.68-.02 25.35-.02 38.03 0 3.45.01 5.28 1.38 5.33 3.9.06 2.55-1.73 3.95-5.19 3.96-6.38.02-12.77 0-19.16.01" fill="#699e1e" data-color="1"/>
        <path d="M256.19 120.26c-2.68-1.16-5.31-2.15-7.79-3.42-2.56-1.31-4.92-1.39-7.34.21-.58.38-1.24.75-1.9.86-6.22 1-8.92 5.24-10.34 10.85-.34 1.36-1.16 3.44-2.09 3.64-2.38.51-4.95.22-7.43.06-.41-.03-.98-1.01-1.09-1.61-1.46-8.1-6.66-12.48-14.31-14.33-1.54-.37-3.35-.51-4.83-.08-2.47.72-4.83 1.9-7.15 3.06-1.68.84-2.82.63-4.17-.74-4.21-4.25-4.27-4.19-1.82-9.63.49-1.09.99-2.18 1.48-3.27.2-.46.43-.9.59-1.37 1.01-2.95-4.04-14.34-6.94-15.52-2.4-.99-4.8-1.99-7.28-2.76-1.85-.58-2.41-1.6-2.4-3.49.02-5.93-.06-5.93 5.37-8.01 1.12-.43 2.24-.86 3.35-1.29q.555-.21 1.11-.45c3.24-1.45 7.83-12.88 6.47-16.17-.53-1.29-1.13-2.55-1.7-3.83-2.75-6.12-2.73-6.29 2.62-10.44.55-.43 1.55-.3 2.35-.39.18-.02.4.1.55.21 6.89 5.12 13.77 3.5 20.55-.17 1.14-.61 2.16-1.73 2.82-2.86.89-1.53 1.39-3.3 2.05-4.97 2-5.06 4.09-6.23 9.37-4.97.68.16 1.38 1.03 1.69 1.73 1.01 2.28 1.85 4.63 2.76 6.95.25.65.47 1.33.8 1.94 1.41 2.6 13.07 6.69 15.83 5.54 2.49-1.04 4.89-2.31 7.44-3.15.94-.31 2.52-.03 3.25.61 4.71 4.21 4.66 4.27 2.1 10.08-.32.73-.58 1.5-.99 2.18-1.67 2.74-1.76 5.41.17 8.08.34.48.65 1.06.74 1.63 1 6.21 5.23 8.92 10.83 10.36 1.33.34 3.36 1.21 3.55 2.14.48 2.38.2 4.95-.02 7.42-.04.46-1.19 1.02-1.9 1.18-6.82 1.55-11.31 5.15-13.31 12.31-.89 3.19-1.68 5.76.09 8.67.52.84.88 1.8 1.22 2.73.6 1.65 2.03 3.76 1.48 4.9-.98 2.04-3.15 3.52-4.85 5.19-.23.24-.68.28-.98.39m-33.15-6.6c18.1.02 32.82-14.66 32.78-32.71-.04-17.94-14.63-32.59-32.53-32.67-18.11-.08-32.8 14.47-32.9 32.57-.1 18.06 14.56 32.79 32.65 32.81" fill="#699e1e" data-color="1"/>
        <path d="M222.96 105.75c-13.68-.05-24.65-11.17-24.59-24.91a24.68 24.68 0 0 1 24.88-24.63c13.64.07 24.75 11.31 24.63 24.92-.13 13.7-11.23 24.67-24.92 24.62m-5.81-20.69c-1.56-1.77-2.87-3.41-4.34-4.89-1.71-1.73-3.68-1.97-5.6-.33-1.81 1.55-1.85 3.83 0 5.81 2.38 2.55 4.87 5 7.39 7.42 1.77 1.7 3.83 1.88 5.61.13 5.63-5.51 11.21-11.08 16.71-16.72 1.72-1.77 1.64-3.89-.2-5.56-1.99-1.81-4-1.31-5.81.49-4.4 4.36-8.78 8.7-13.76 13.65" fill="#699e1e" data-color="1"/>
    </g>
</svg>
