<?xml version="1.0" encoding="UTF-8"?>
<svg data-bbox="49.842 8.588 206.428 271.861" viewBox="0 0 309 288" xmlns="http://www.w3.org/2000/svg" data-type="color">
    <g>
        <path d="M68.68 36.94c2.84-2.83 5.58-5.72 8.55-8.36.6-.53 2.22-.47 3.07-.06 4.21 2.06 8.35 4.26 12.45 6.54 1.94 1.08 3.54.98 5.59.03 5.41-2.49 11.04-4.51 16.46-6.98 1.44-.65 3.01-2.03 3.55-3.44 1.71-4.46 3.03-9.07 4.34-13.67.53-1.87 1.44-2.51 3.37-2.4 2.88.17 5.79.13 8.68.01 1.68-.07 2.49.49 2.96 2.14 1.3 4.6 2.83 9.14 4.17 13.74.59 2.02 1.79 2.98 3.78 3.73 5.58 2.08 11.09 4.39 16.51 6.87 1.92.88 3.45 1.14 5.32.11 4.1-2.27 8.31-4.35 12.4-6.64 1.65-.92 2.78-.94 4.11.56 2.37 2.68 6.49 4.93 6.98 7.85.48 2.88-2.63 6.36-4.18 9.56-.57 1.17-1.09 2.38-1.83 3.43-2 2.83-2.39 5.54-.07 8.45.47.59.44 1.83.24 2.67-.44 1.83-1.43 3.56-1.7 5.4-.76 5.12-3.64 7.84-8.97 8.32-.24-.48-.62-1.15-.89-1.85-7.71-19.99-27.62-32.46-47.86-29.96-22.53 2.78-38.72 18.88-41.48 41.07-.17 1.36-1.14 2.86-2.17 3.83-4.13 3.89-8.51 7.51-12.63 11.42-1.31 1.24-2.28 1.82-4.12 1.18-4.34-1.5-8.74-2.8-13.16-4.03-1.64-.46-2.34-1.23-2.13-2.93.11-.88-.01-1.79.02-2.69.1-2.87-.81-6.5.6-8.38 1.43-1.9 5.1-2.48 7.9-2.92 7.22-1.14 11.72-4.54 13.04-12.2.59-3.41 2.66-6.66 4.46-9.74 1.39-2.39 1.35-4.33.03-6.67-2.55-4.51-4.86-9.15-7.39-13.99" fill="#699e1e" data-color="1"/>
        <path d="M127.79 224.61c-40.05.11-72.69-32.34-72.85-72.43-.16-40.21 32.3-72.9 72.53-73.04 40.22-.14 72.91 32.36 73 72.57.1 40.24-32.36 72.79-72.68 72.9m-.19-6.63c36.25.13 66.01-29.43 66.21-65.76.19-36.35-29.31-66.23-65.53-66.37-36.84-.14-66.49 29.15-66.64 65.85-.16 36.41 29.43 66.14 65.96 66.28" fill="#699e1e" data-color="1"/>
        <path d="M188.28 229.27c5.89-5.79 11.27-11.08 16.83-16.55l9.46 9.46c12.63 12.63 25.27 25.26 37.89 37.9 3.47 3.48 4.7 7.61 3.15 12.33-1.47 4.48-4.72 7.1-9.32 7.88-4.3.72-7.75-1.07-10.74-4.06-13.32-13.36-26.65-26.7-40.01-40.02-2.38-2.39-4.87-4.67-7.26-6.94" fill="#699e1e" data-color="1"/>
        <path d="M227.49 156.51c-2.46-1.3-5.08-2.52-7.53-4.01-2.38-1.45-4.49-1.64-6.92-.03-1.88 1.24-4.07 2-6.87 3.32 0-3.33-.16-6.07.1-8.76.08-.76 1.33-1.54 2.2-2.05 10.72-6.26 16.51-15.56 16.5-27.97-.01-23.25-24.65-38.32-45.44-27.88-2.15 1.08-3.41.78-5.3-.47-4.49-2.96-9.22-5.53-13.85-8.26-.65-.38-1.29-.77-1.94-1.16.08-.29.15-.58.23-.87.89.14 1.86.09 2.64.46 2.43 1.16 4.7 2.69 7.19 3.65 1.29.5 3.07.46 4.39 0 3.65-1.28 7.25-2.77 10.73-4.46 1.27-.62 2.54-1.87 3.12-3.14 1.06-2.34 1.71-4.89 2.35-7.4.42-1.66 1.28-2.32 2.96-2.15 1.09.11 2.29-.25 3.27.1 1.01.35 2.23 1.13 2.61 2.03 1 2.38 1.36 5.04 2.46 7.36.63 1.34 2.01 2.6 3.37 3.27 3.38 1.67 6.88 3.13 10.44 4.38 1.33.47 2.99.36 4.41.07 1.22-.25 2.3-1.15 3.45-1.76 6.23-3.3 6.23-3.3 10.77 2.61-1.47 2.84-3.2 5.67-4.41 8.7-.54 1.35-.43 3.25.04 4.67 1.17 3.48 2.56 6.91 4.21 10.19.71 1.42 2.11 2.74 3.52 3.49 1.81.97 3.92 1.54 5.96 1.89 2.87.5 3.4 2.04 3.45 4.75.06 3-.66 4.62-3.79 5.07-5.78.83-10.01 3.41-10.77 9.89-.17 1.41-.95 2.9-1.83 4.06-2.14 2.83-1.88 5.48.07 8.2.29.4.47.88.7 1.32 3.2 6.17 3.2 6.17-2.49 10.89" fill="#699e1e" data-color="1"/>
        <path d="M90.4 82.55c3.25-19.98 20.7-34.49 40.38-34.01 17.14.41 35.55 13.72 37.1 27.19-2.27-1.19-4.41-2.18-6.42-3.38-2.15-1.29-4.05-1.19-5.5.87-2.41 3.43-5.18 3.63-9.2 2.61-18.7-4.76-36.8-2.66-54.16 5.79-.61.3-1.25.53-2.2.93" fill="#699e1e" data-color="1"/>
        <path d="M181.71 94.78c11.25-7.23 27.87-2.07 34.59 10.48 6.65 12.44 1.46 29.23-10.91 34.45-3.01-17.53-10.82-32.58-23.68-44.93" fill="#699e1e" data-color="1"/>
        <path d="M187.61 219.99c-2.65-2.58-5.55-5.41-8.25-8.04 2.79-2.72 5.61-5.48 8.33-8.13 2.42 2.55 5.25 5.53 7.77 8.18z" fill="#699e1e" data-color="1"/>
        <path d="M67.72 154.75h36.44c4.56 0 4.65-.08 5.93-4.55 2.38-8.33 4.76-16.67 7.38-25.86.69 1.59 1.12 2.48 1.46 3.41 5.33 14.51 10.6 29.04 16.02 43.52.53 1.41 1.97 2.48 2.99 3.7 1.26-1.1 2.93-1.97 3.7-3.34 2.8-4.94 5.25-10.09 7.99-15.07.46-.83 1.72-1.73 2.61-1.74 11.48-.11 22.96-.07 34.44-.05.28 0 .56.13 1.31.32-1.59 19.55-9.87 35.48-26.21 46.37-20.81 13.87-42.68 14.58-64.51 2.35-21.16-11.85-29.67-34.2-29.55-49.06" fill="#699e1e" data-color="1"/>
        <path d="M188.07 149h-4.16c-11.08 0-22.16.06-33.24-.05-2.65-.03-4.24.87-5.38 3.28-1.91 4.03-4.11 7.93-6.53 12.54-.62-1.53-1.04-2.47-1.39-3.43-5.55-15.17-11.09-30.35-16.65-45.52-.34-.93-.55-2.04-1.19-2.71-.67-.7-1.92-1.49-2.69-1.31-.95.23-2.1 1.28-2.42 2.23-1.25 3.68-2.21 7.45-3.26 11.19-2 7.11-4.01 14.21-5.96 21.33-.4 1.48-.85 2.49-2.72 2.48-11.18-.07-22.36-.04-33.54-.06-.38 0-.75-.16-1.53-.33 1.68-19.99 10.28-36.07 27.07-46.93 20.57-13.3 42.25-13.93 63.5-1.83 18.54 10.56 28.1 27.31 30.09 49.12" fill="#699e1e" data-color="1"/>
    </g>
</svg>
