<?xml version="1.0" encoding="UTF-8"?>
<svg data-bbox="16.733 8.46 271.99 272.03" viewBox="0 0 309 288" xmlns="http://www.w3.org/2000/svg" data-type="color">
    <g>
        <path d="M94.28 145.48c-3.39 4.69-6.77 9.38-10.17 14.07-5.81 8-11.67 15.97-17.43 24.02-1.09 1.53-2.08 2.1-4.13 1.91-11.09-1.03-20.41 2.76-27.67 11.23-1.38 1.61-2.68 2.32-4.78 2.25-4.28-.15-8.57-.05-13.21-.05-.05-1.2-.14-2.25-.14-3.3q-.015-63.435 0-126.87c0-4.87 1.11-5.97 5.99-5.97 14.68-.01 29.35.05 44.03-.03 4.6-.03 7.59 3.22 11.19 5.17.54.29.07 2.44.07 3.9-3.71 0-7-.02-10.29.01-3.92.04-5.55 1.57-5.57 5.38-.04 8.5-.04 17 0 25.49.02 3.73 1.56 5.31 5.24 5.4 2.79.07 5.6-.12 8.38.11.88.07 2.19 1 2.39 1.77.2.79-.48 2.23-1.22 2.74-2.29 1.59-4.81 2.85-7.2 4.29-3.05 1.84-3.73 4.03-2.01 7.05 4.29 7.56 8.64 15.08 13.06 22.57 1.71 2.9 3.88 3.44 6.85 1.9 2.1-1.09 4.14-2.32 6.21-3.49.12.15.26.3.41.45m-45.91 7.95c5.68 0 11.36.02 17.04-.01 3.65-.02 5.82-1.79 5.74-4.61-.08-2.72-2.19-4.4-5.66-4.41q-17.04-.03-34.08 0c-3.44.01-5.56 1.75-5.59 4.47-.04 2.74 2.07 4.52 5.51 4.54 5.68.05 11.36.02 17.04.02m-2.35 18.14c4.99 0 9.98.03 14.98-.01 3.56-.02 5.52-1.65 5.52-4.48 0-2.82-2.01-4.57-5.47-4.58-9.88-.03-19.77-.03-29.65 0-3.43.01-5.55 1.8-5.58 4.53-.03 2.75 2.06 4.5 5.53 4.53 4.89.04 9.78.01 14.67.01m-2.36-36.21c4.39 0 8.79.04 13.18-.01 3.17-.04 5.25-1.91 5.26-4.54.01-2.65-2.03-4.47-5.27-4.48-8.59-.04-17.17-.04-25.76 0-3.23.01-5.27 1.83-5.26 4.49.01 2.64 2.09 4.49 5.26 4.54 4.21.05 8.4 0 12.59 0m-1.81-18.14c3.49 0 6.98.06 10.46-.02 3.24-.07 5.18-1.86 5.16-4.59-.01-2.74-1.91-4.46-5.22-4.49-7.07-.06-14.15-.06-21.23 0-3.21.03-5.23 1.9-5.21 4.55.02 2.63 2.08 4.47 5.27 4.53 3.59.07 7.18.02 10.77.02m-2.31-36.39c2.79 0 5.57.05 8.36-.01 3.17-.07 5.2-1.94 5.12-4.61-.08-2.55-2.06-4.36-5.05-4.39-5.67-.06-11.35-.06-17.02 0-3.13.03-5.19 1.98-5.12 4.62.07 2.54 2.05 4.31 5.06 4.37 2.88.07 5.76.02 8.65.02m-.3 18.13c2.99 0 5.98.07 8.96-.02 2.85-.08 4.71-1.84 4.81-4.3.1-2.55-1.86-4.65-4.75-4.7-5.88-.1-11.75-.1-17.63 0-2.9.05-4.88 2.11-4.82 4.65.06 2.46 1.94 4.27 4.76 4.36 2.9.09 5.79.01 8.67.01" fill="#699e1e" data-color="1"/>
        <path d="M143.97 138.43c1.24-.32 2.49-.61 3.72-.96 19.87-5.61 29.19-28.6 18.86-46.52-2.99-5.18-6.33-5.38-9.8-.6-4.58 6.29-9.15 12.59-13.96 19.2-2.42-1.76-4.72-3.42-7.33-5.31 2.59-3.56 5.04-6.93 7.48-10.3 2.29-3.15 4.6-6.29 6.84-9.48 2.89-4.11 1.7-7.21-3.18-8.4-19.47-4.77-38.37 9.58-39.19 29.78-.04.98-.01 1.96-.54 3.09-.32-.62-.7-1.22-.94-1.87-11.06-29.72 8.86-62.62 40.3-66.56 37.7-4.73 66.61 32.18 52.93 67.55-.76 1.98-1.87 3.24-3.84 4.2-8.93 4.36-15.52 11.08-19.58 20.23-.42.95-1 2.16-1.83 2.56-9.56 4.59-19.58 5.77-29.94 3.39" fill="#699e1e" data-color="1"/>
        <path d="M227.92 71.8c-1.52-2.46-1.01-3.77 1.31-5.25 4.45-2.84 9-4.02 14.33-3.89 13.37.32 26.76.09 40.14.12 3.51.01 4.96 1.42 4.97 4.88.02 43.2.01 86.39 0 129.59 0 .39-.07.79-.16 1.66h-4.94c-5.09 0-10.19-.08-15.28.04-1.85.05-2.9-.61-3.81-2.17-2.07-3.53-4.34-6.95-6.47-10.45-1.31-2.16-2.96-3.39-5.66-3.01-.67.1-1.75-.4-2.15-.97-1.81-2.62-3.45-5.36-5.14-8.05 6.54-8.86 9.66-18.57 8.44-29.41-1.74-15.47-9.88-26.45-23.8-33.27-.95-.46-1.59-1.54-2.38-2.34 1.09-.4 2.16-1.06 3.27-1.14 2.58-.17 5.19.02 7.78-.09 3.18-.13 4.83-1.72 4.85-4.88q.105-13.2 0-26.4c-.02-3.3-1.72-4.91-5.06-4.98-3.36-.04-6.75.01-10.24.01m36.24 36.31c-3.69 0-7.38-.06-11.06.02-3.28.07-5.18 1.82-5.15 4.56.03 2.71 1.97 4.49 5.23 4.52 7.07.06 14.15.06 21.23 0 3.15-.03 5.22-1.97 5.2-4.59-.02-2.64-2.05-4.42-5.28-4.49-3.4-.08-6.79-.02-10.17-.02m1.77-27.28c2.89 0 5.77.05 8.66-.01 2.99-.07 4.97-1.89 5.01-4.43.03-2.55-1.96-4.52-4.89-4.56-5.77-.08-11.55-.07-17.32-.01-2.97.03-4.95 1.89-5 4.44-.04 2.66 1.99 4.49 5.17 4.55 2.8.06 5.58.02 8.37.02m.27 9.06h-8.67c-3.14.14-5.18 2-5.14 4.65.05 2.57 1.98 4.37 5.02 4.4 5.68.07 11.36.06 17.03 0 3.18-.03 5.22-1.93 5.15-4.58-.06-2.53-2.06-4.37-5.03-4.45-2.78-.07-5.57-.01-8.36-.02m2.14 36.44c-2.3 0-4.6-.09-6.89.02-2.68.13-4.4 1.89-4.47 4.32-.07 2.5 1.75 4.56 4.48 4.64 4.49.13 8.99.12 13.47.01 2.73-.07 4.65-2.09 4.66-4.52.01-2.46-1.89-4.34-4.67-4.46-2.19-.1-4.39-.02-6.58-.01m2.21 27.09c1.49 0 2.99.08 4.48-.02 2.73-.17 4.62-2.12 4.57-4.56-.06-2.33-1.88-4.28-4.44-4.39-3.08-.13-6.18-.14-9.26 0-2.6.11-4.34 2.01-4.37 4.41-.04 2.52 1.77 4.37 4.55 4.54 1.47.09 2.97.02 4.47.02m0 18.12c1.6 0 3.2.11 4.78-.02 2.54-.21 4.08-1.74 4.21-4.24.13-2.53-1.35-4.38-3.8-4.6-3.46-.31-6.99-.31-10.45 0-2.47.22-3.87 2.07-3.74 4.63.13 2.55 1.67 4.01 4.21 4.22 1.59.11 3.2.01 4.79.01" fill="#699e1e" data-color="1"/>
        <path d="M71.35 98.59V80.83c3.12 0 6.09.02 9.06-.01 3.58-.03 4.86-1.07 5.7-4.45.67-2.71 1.31-5.44 2.16-8.1.93-2.94.14-5.06-2.51-6.58-2.51-1.44-4.99-2.94-7.47-4.42-.15-.09-.21-.32-.47-.75 2.81-4.86 5.68-9.85 8.79-15.23 2.71 1.55 5.26 3.03 7.84 4.48 3.37 1.89 4.95 1.62 7.64-1.19 1.73-1.8 3.47-3.59 5.27-5.32 2.82-2.72 3.11-4.27 1.24-7.63-1.4-2.52-2.83-5.02-4.44-7.86l15.59-9.09c1.6 2.74 3.09 5.3 4.6 7.86 1.91 3.24 3.4 3.81 6.93 2.82 2.59-.73 5.2-1.43 7.81-2.08 3.51-.87 4.58-2.18 4.61-5.89.02-2.9 0-5.79 0-8.93h18.04c0 2.99-.03 6.05.01 9.1.04 3.52 1.12 4.84 4.48 5.68 2.71.68 5.4 1.41 8.1 2.16 3.34.92 4.87.31 6.7-2.76 1.53-2.56 3.02-5.13 4.69-7.97 5.26 3.06 10.3 6 15.58 9.08-1.57 2.77-3 5.26-4.4 7.76-1.93 3.44-1.68 4.96 1.09 7.65 1.93 1.88 3.85 3.78 5.67 5.77 2.08 2.28 4.34 2.59 6.96 1.06 2.65-1.55 5.33-3.03 8.21-4.67 3.05 5.26 5.93 10.24 9.01 15.56-2.77 1.64-5.41 3.17-8.02 4.75-3.04 1.84-3.57 3.34-2.6 6.75.74 2.59 1.42 5.2 2.06 7.82.87 3.56 2.11 4.57 5.87 4.61 2.69.03 5.39.02 8.08.04.19 0 .37.09.78.2v17.9c-2.93 0-5.87-.02-8.82.01-3.73.04-5.06 1.1-5.89 4.62-1.09 4.58-1.09 4.58-5.89 4.54-1.38-.01-2.77 0-4.55 0 .37-1.48.68-2.7.98-3.93 9.63-38.87-21.6-76.28-61.31-73.03-22.74 1.86-39.62 13.41-49.16 34.14-9.48 20.6-7.18 40.71 5.89 59.33 1.62 2.3 1.93 3.81-.01 5.85-1.21 1.28-2.12 2.84-3.16 4.28-6.65-5.03-10.06 2.6-15.66 3.39-2.77-4.74-5.71-9.78-8.9-15.24 2.66-1.53 5.22-2.98 7.76-4.47 3.38-1.98 3.93-3.48 2.86-7.17a163 163 0 0 1-1.98-7.53c-.89-3.71-2.14-4.74-6.06-4.79-2.69-.03-5.39-.05-8.08-.09-.18.02-.35-.12-.68-.27" fill="#699e1e" data-color="1"/>
        <path d="M59.61 239.59c3.77-5.2 7.28-10.03 10.78-14.87.65-.89 1.31-1.76 1.94-2.67 2.11-3.07 1.84-5.33-1.07-7.5a690 690 0 0 0-13.57-9.86c-2.9-2.05-5.08-1.69-7.21 1.18-3.57 4.82-7.05 9.7-10.57 14.54-.63.87-1.31 1.7-2.27 2.96-1.61-4.58-1.36-8.65-.18-12.7 3.37-11.52 14.84-18.44 26.61-15.77 3.64.83 5.77-.2 7.84-3.06 15.72-21.8 31.5-43.55 47.35-65.26 2.05-2.8 2.23-5.13.43-8.17-8.24-13.94.12-31.42 16.1-33.93.68-.11 1.38-.08 2.73-.14-.76 1.15-1.24 1.92-1.76 2.65-3.51 4.86-7.07 9.68-10.55 14.56-2.47 3.47-2.11 5.54 1.34 8.09 4.26 3.14 8.52 6.29 12.83 9.35 3.14 2.23 5.36 1.84 7.67-1.28 3.56-4.82 7.05-9.7 10.58-14.54.56-.77 1.18-1.49 1.87-2.37 3.71 9.11-1.37 21.2-10.75 26.1-4.97 2.6-10.26 3.39-15.69 2.01-3.29-.84-5.43.04-7.41 2.79-15.78 21.88-31.62 43.71-47.55 65.48-2.13 2.91-2.28 5.25-.43 8.42 8.34 14.29-.69 32.03-17.14 33.97-.46.07-.93.02-1.92.02" fill="#699e1e" data-color="1"/>
        <path d="M89.36 198.61c6.98-9.62 13.71-18.9 20.69-28.53 2.73 1.57 5.37 3.11 8.02 4.62 3.7 2.11 5.75 1.57 7.91-2.1 1.27-2.15 2.54-4.3 3.71-6.51.72-1.36 1.41-2.24 3.22-1.73 1.69.48 1.77 1.53 1.74 2.92-.06 2.7-.05 5.4-.01 8.1.06 3.58 1.56 5.26 5.05 5.29 8.68.08 17.37.08 26.06 0 3.35-.03 4.93-1.69 5-5.03.07-3.49.02-6.98.02-10.32 2.74-1.93 4.09-.94 5.45 1.59 7.84 14.57 20.1 22.23 36.64 22.9 1.98.08 4.05.01 5.95-.48 2.64-.69 4.04.25 5.18 2.53.98 1.96 2.31 3.73 3.46 5.6.15.24.15.57.3 1.16-46.02-.01-91.93-.01-138.39-.01m63.19-4.35h23.66c4.19 0 8.39.07 12.58-.04 2.81-.07 4.65-1.95 4.65-4.46 0-2.48-1.87-4.33-4.62-4.54-.6-.05-1.2-.02-1.8-.02h-68.59c-.9 0-2.03-.28-2.64.15-1.37.97-3.05 2.11-3.54 3.55-.38 1.14.46 3.2 1.43 4.15.91.88 2.71 1.15 4.13 1.16 11.57.09 23.15.05 34.74.05" fill="#699e1e" data-color="1"/>
        <path d="M239.99 225.87H90.38v-17.9h2.73c44.12 0 88.25.02 132.37-.05 2.35 0 3.79.6 5.02 2.71 2.94 5.06 6.17 9.96 9.49 15.24m-87.38-4.3c11.37 0 22.73 0 34.1-.01.99 0 2.01.05 2.98-.15 2.34-.48 3.71-2 3.72-4.39s-1.33-3.93-3.67-4.43c-.96-.2-1.98-.16-2.98-.16-22.73-.01-45.46-.01-68.2 0-1.09 0-2.5-.25-3.2.31-1.34 1.09-2.85 2.54-3.23 4.11-.52 2.12.95 3.81 3.13 4.42 1.03.29 2.17.28 3.26.28 11.36.03 22.72.02 34.09.02" fill="#699e1e" data-color="1"/>
        <path d="M119.59 262.13c4.21-8.59 5.69-17.43 4.82-26.84h56.1c.33 4.64.28 9.25 1.07 13.72.77 4.38 2.39 8.61 3.7 13.12z" fill="#699e1e" data-color="1"/>
        <path d="M213.24 280.49H92.13c1.4-2.82 2.49-5.49 4.04-7.85.51-.78 2.22-1.08 3.39-1.08 20.66-.06 41.32-.05 61.98-.05 14.57 0 29.14.07 43.72-.07 2.68-.03 4.31.64 5.21 3.25.64 1.86 1.69 3.57 2.77 5.8" fill="#699e1e" data-color="1"/>
        <path d="M236.79 203.71c5.17-3.27 10.03-6.35 15.19-9.6.59.86 1.16 1.62 1.67 2.42 8.15 12.92 16.29 25.83 24.43 38.76 2.43 3.86 2.09 5.36-1.76 7.81a489 489 0 0 1-6.84 4.3c-2.35 1.44-4.36 1.02-5.97-1.22-.35-.49-.65-1-.97-1.51z" fill="#699e1e" data-color="1"/>
        <path d="M181.34 148.69c.08-17.46 14.3-31.49 31.86-31.44 17.49.05 31.58 14.28 31.51 31.81-.07 17.64-14.4 31.79-32.02 31.63-17.41-.17-31.43-14.47-31.35-32m58.84.32c.03-14.93-12.09-27.23-26.93-27.33-14.95-.1-27.36 12.22-27.38 27.2-.02 15.05 12.22 27.31 27.26 27.31 14.85 0 27.02-12.22 27.05-27.18" fill="#699e1e" data-color="1"/>
        <path d="M172.29 145.77v9.33c-1.89.49-4.04 1.14-6.23 1.61-3.02.65-4.39 2.46-4.33 5.52.06 2.98.01 5.96.01 9.14h-18.05c0-3.14-.02-6.21.01-9.27.03-2.91-1.29-4.66-4.17-5.34-2.91-.68-5.8-1.44-8.64-2.36-2.87-.93-4.83 0-6.27 2.49-1.54 2.67-3.11 5.32-4.82 8.26-1.44-.82-2.69-1.54-4.3-2.47 2.74-3.78 5.34-7.4 7.96-10.99 1.76-2.42 3.11-5.94 5.48-6.88 2.1-.83 5.33 1.24 8.08 1.99 10.75 2.96 21.48 2.84 32.2-.18.9-.27 1.84-.52 3.07-.85" fill="#699e1e" data-color="1"/>
        <path d="M271.71 208.13h16.94c0 4.81.24 9.49-.15 14.11-.11 1.32-1.87 2.88-3.25 3.63-1.69.91-2.79-.51-3.69-2.01-3.14-5.15-6.4-10.24-9.85-15.73" fill="#699e1e" data-color="1"/>
        <path d="M16.77 208.11h11.25v17.9c-2.17 0-4.84.11-7.5-.03-2.17-.12-3.62-1.49-3.7-3.63-.16-4.68-.05-9.36-.05-14.24" fill="#699e1e" data-color="1"/>
        <path d="M55.55 214.33c2.57 1.89 4.79 3.53 6.98 5.14-2.96 6.51-5.2 7.45-15.27 6.29 2.77-3.83 5.41-7.47 8.29-11.43" fill="#699e1e" data-color="1"/>
        <path d="M230.89 185.82c2.86-1.78 5.12-3.19 7.65-4.77 1.58 2.5 3.1 4.9 4.88 7.71-2.57 1.61-5.03 3.15-7.68 4.82-1.72-2.75-3.27-5.23-4.85-7.76" fill="#699e1e" data-color="1"/>
        <path d="M231.12 149.33c-.24 9.99-8.57 18.02-18.47 17.8-9.9-.21-18-8.71-17.71-18.57.3-10.06 8.57-18.03 18.47-17.81 9.91.23 17.94 8.65 17.71 18.58" fill="#699e1e" data-color="1"/>
    </g>
</svg>
