<?xml version="1.0" encoding="UTF-8"?>
<svg data-bbox="38.57 35.02 229.22 229.29" viewBox="0 0 309 288" xmlns="http://www.w3.org/2000/svg" data-type="color">
    <g>
        <path d="m150.21 264.31-21.04-2.54 2.79-23.13a91 91 0 0 1-25.57-10.3L92.21 246.8l-16.8-12.9 14.12-18.38a91.7 91.7 0 0 1-15.85-20.18l-21.27 9.08-8.32-19.49 21.14-9.02a90.7 90.7 0 0 1-3.86-27.45l-22.8-3.01 2.77-21.01 22.7 3a91.1 91.1 0 0 1 9.64-23.92L55.37 89.77l12.72-16.95 18.28 13.72c1.13-1.18 2.37-2.41 3.76-3.72l.69-.65c.85-.78 1.71-1.54 2.58-2.29l.13-.11c.4-.35.8-.69 1.21-1.03.71-.58 1.42-1.14 2.14-1.7.62-.48 1.24-.97 1.88-1.43.61-.45 1.22-.88 1.84-1.31q1.11-.78 2.25-1.53c.51-.34 1.04-.66 1.56-.99l.16-.1c.82-.51 1.64-1.01 2.47-1.5.42-.25.85-.48 1.27-.72L99.52 48.3l19.58-8.1 8.73 21.11c8.29-2.37 16.87-3.6 25.55-3.54l2.75-22.75 21.04 2.54-2.74 22.71a90.9 90.9 0 0 1 25.72 10.46l13.98-18.21 16.81 12.91-13.98 18.21a90.7 90.7 0 0 1 15.77 20.33l21.22-9.05 8.32 19.49-21.27 9.08a91.9 91.9 0 0 1 3.75 27.37l23.04 3.04-2.77 21.01-23.04-3.04a90.9 90.9 0 0 1-9.68 23.68l18.69 14.03-12.72 16.95-18.7-14.03a91 91 0 0 1-21.03 16.49l-.68.38 8.97 21.69-19.58 8.1-8.94-21.59a91 91 0 0 1-25.21 3.56h-.08zm-15.48-6.91 11.11 1.34 2.75-22.74 2.27.06c9.56.24 19.03-1.09 28.13-3.96l2.19-.69 8.77 21.18 10.34-4.28-8.79-21.23 2.02-1.06c.48-.25.96-.53 1.44-.8l1.09-.62a86.3 86.3 0 0 0 21.35-17.17l1.53-1.7 18.33 13.76 6.72-8.95-18.32-13.75 1.2-1.94c5.04-8.17 8.67-17.03 10.77-26.33l.5-2.23 22.58 2.98 1.46-11.1-22.58-2.98.09-2.28c.41-10.17-.98-20.3-4.13-30.1l-.7-2.17 20.84-8.89-4.39-10.29-20.8 8.88-1.08-2.01a86 86 0 0 0-17.52-22.59l-1.68-1.55 13.7-17.85-8.88-6.82-13.7 17.85-1.93-1.22a85.9 85.9 0 0 0-28.26-11.49l-2.24-.48 2.69-22.26-11.11-1.34-2.69 22.28-2.28-.06a87 87 0 0 0-28.39 3.93l-2.18.68-8.56-20.69L106.05 51l8.57 20.71-2.01 1.06c-.28.15-.56.31-.84.47-.22.12-.43.25-.65.37l-.09.05-1.5.84c-.79.46-1.56.93-2.33 1.42l-.15.1c-.49.31-.98.61-1.46.93-.71.47-1.42.96-2.12 1.45-.59.41-1.17.82-1.74 1.24-.6.44-1.18.9-1.77 1.35-.68.53-1.36 1.06-2.02 1.6-.38.31-.75.63-1.13.96l-.14.12c-.83.71-1.65 1.43-2.44 2.16l-.65.62c-1.95 1.84-3.6 3.51-5.03 5.11l-1.53 1.7-17.93-13.44-6.72 8.95 17.93 13.46-1.19 1.94a86 86 0 0 0-10.71 26.57l-.49 2.24-22.26-2.94-1.46 11.09 22.32 2.95-.08 2.27c-.38 10.33 1.06 20.48 4.25 30.17l.72 2.18-20.74 8.85 4.39 10.29 20.82-8.88 1.09 1.99c4.58 8.38 10.51 15.93 17.62 22.44l1.69 1.55-13.85 18.03 8.88 6.82 13.89-18.08 1.92 1.2c8.7 5.44 18.16 9.25 28.12 11.32l2.25.47zm18.55-56.15c-10.93 0-21.51-3.57-30.32-10.34-10.58-8.13-17.37-19.89-19.11-33.12s1.78-26.35 9.91-36.93 19.89-17.37 33.12-19.11 26.35 1.78 36.93 9.91c21.85 16.78 25.98 48.2 9.2 70.05-8.13 10.58-19.89 17.37-33.12 19.11-2.21.29-4.42.43-6.61.43m.2-94.94c-1.97 0-3.96.13-5.95.39-11.91 1.56-22.49 7.67-29.81 17.2-7.31 9.53-10.48 21.33-8.92 33.24s7.67 22.49 17.2 29.81c9.53 7.31 21.33 10.48 33.24 8.92s22.49-7.67 29.81-17.2c15.1-19.66 11.38-47.94-8.28-63.04-7.94-6.1-17.45-9.32-27.29-9.32" fill="#699e1e" data-color="1"/>
    </g>
</svg>
